G04 EAGLE Gerber RS-274X export*
G75*
%MOMM*%
%FSLAX34Y34*%
%LPD*%
%INCopper Layer 15*%
%IPPOS*%
%AMOC8*
5,1,8,0,0,1.08239X$1,22.5*%
G01*
%ADD10C,0.406400*%
%ADD11C,0.457200*%
%ADD12C,0.553200*%
%ADD13C,0.403200*%
%ADD14C,0.762000*%
%ADD15C,2.540000*%
%ADD16C,0.508000*%
%ADD17C,1.270000*%
%ADD18C,0.381000*%
%ADD19C,1.524000*%
%ADD20C,0.127000*%
%ADD21C,0.431800*%

G36*
X38918Y54108D02*
X38918Y54108D01*
X38972Y54104D01*
X39041Y54121D01*
X39087Y54126D01*
X39115Y54140D01*
X39154Y54149D01*
X41801Y55246D01*
X125264Y55246D01*
X125320Y55256D01*
X125377Y55256D01*
X125430Y55276D01*
X125485Y55285D01*
X125534Y55314D01*
X125587Y55334D01*
X125630Y55371D01*
X125678Y55400D01*
X125714Y55444D01*
X125757Y55481D01*
X125791Y55539D01*
X125819Y55574D01*
X125830Y55605D01*
X125852Y55643D01*
X155308Y128613D01*
X155326Y128697D01*
X155350Y128780D01*
X155349Y128807D01*
X155354Y128833D01*
X155341Y128918D01*
X155335Y129004D01*
X155325Y129028D01*
X155321Y129055D01*
X155279Y129130D01*
X155243Y129209D01*
X155225Y129228D01*
X155212Y129251D01*
X155147Y129307D01*
X155086Y129369D01*
X155062Y129380D01*
X155042Y129397D01*
X154961Y129427D01*
X154883Y129464D01*
X154856Y129466D01*
X154831Y129475D01*
X154745Y129475D01*
X154659Y129482D01*
X154630Y129475D01*
X154607Y129475D01*
X154560Y129457D01*
X154477Y129437D01*
X152924Y128793D01*
X150606Y128793D01*
X148464Y129680D01*
X146825Y131319D01*
X145938Y133461D01*
X145938Y135779D01*
X146825Y137921D01*
X148464Y139560D01*
X150606Y140447D01*
X152924Y140447D01*
X155066Y139560D01*
X156705Y137921D01*
X157307Y136467D01*
X157356Y136390D01*
X157401Y136310D01*
X157416Y136296D01*
X157428Y136279D01*
X157501Y136223D01*
X157571Y136163D01*
X157590Y136156D01*
X157607Y136144D01*
X157695Y136117D01*
X157781Y136086D01*
X157802Y136086D01*
X157822Y136080D01*
X157914Y136086D01*
X158006Y136086D01*
X158025Y136093D01*
X158046Y136095D01*
X158130Y136132D01*
X158216Y136164D01*
X158232Y136178D01*
X158251Y136187D01*
X158316Y136251D01*
X158386Y136311D01*
X158397Y136331D01*
X158411Y136344D01*
X158432Y136390D01*
X158481Y136473D01*
X167101Y157826D01*
X167113Y157888D01*
X167136Y157947D01*
X167136Y157997D01*
X167146Y158046D01*
X167137Y158108D01*
X167137Y158171D01*
X167120Y158218D01*
X167113Y158268D01*
X167082Y158323D01*
X167061Y158382D01*
X167029Y158420D01*
X167004Y158464D01*
X166956Y158505D01*
X166916Y158553D01*
X166865Y158583D01*
X166834Y158610D01*
X166799Y158623D01*
X166755Y158650D01*
X166726Y158661D01*
X165011Y160376D01*
X164690Y161152D01*
X164661Y161197D01*
X164641Y161247D01*
X164601Y161291D01*
X164569Y161341D01*
X164526Y161373D01*
X164489Y161413D01*
X164437Y161440D01*
X164390Y161475D01*
X164338Y161491D01*
X164290Y161516D01*
X164219Y161526D01*
X164175Y161539D01*
X164144Y161537D01*
X164104Y161543D01*
X163887Y161543D01*
X161646Y162471D01*
X159931Y164186D01*
X159003Y166427D01*
X159003Y168853D01*
X159931Y171094D01*
X161654Y172816D01*
X161685Y172860D01*
X161723Y172898D01*
X161748Y172952D01*
X161782Y173000D01*
X161795Y173052D01*
X161818Y173102D01*
X161823Y173160D01*
X161838Y173217D01*
X161832Y173271D01*
X161837Y173325D01*
X161819Y173394D01*
X161815Y173440D01*
X161801Y173468D01*
X161791Y173507D01*
X161760Y173581D01*
X161760Y176007D01*
X162694Y178260D01*
X162708Y178280D01*
X162746Y178318D01*
X162771Y178372D01*
X162805Y178420D01*
X162818Y178473D01*
X162841Y178522D01*
X162846Y178580D01*
X162861Y178637D01*
X162855Y178691D01*
X162860Y178745D01*
X162843Y178814D01*
X162838Y178861D01*
X162824Y178888D01*
X162814Y178927D01*
X162249Y180291D01*
X162249Y182717D01*
X163178Y184958D01*
X164892Y186673D01*
X167133Y187601D01*
X169559Y187601D01*
X171800Y186673D01*
X173515Y184958D01*
X174443Y182717D01*
X174443Y180291D01*
X173509Y178038D01*
X173495Y178018D01*
X173457Y177980D01*
X173432Y177926D01*
X173398Y177878D01*
X173385Y177826D01*
X173362Y177777D01*
X173357Y177718D01*
X173342Y177661D01*
X173348Y177607D01*
X173343Y177553D01*
X173361Y177484D01*
X173365Y177438D01*
X173379Y177410D01*
X173389Y177371D01*
X173606Y176846D01*
X173656Y176769D01*
X173700Y176688D01*
X173716Y176675D01*
X173727Y176657D01*
X173801Y176602D01*
X173871Y176542D01*
X173890Y176535D01*
X173907Y176522D01*
X173995Y176496D01*
X174081Y176464D01*
X174102Y176464D01*
X174122Y176458D01*
X174214Y176464D01*
X174305Y176465D01*
X174325Y176472D01*
X174346Y176473D01*
X174429Y176511D01*
X174516Y176543D01*
X174531Y176557D01*
X174550Y176565D01*
X174616Y176630D01*
X174685Y176690D01*
X174697Y176710D01*
X174710Y176723D01*
X174732Y176768D01*
X174780Y176851D01*
X181436Y193339D01*
X181442Y193367D01*
X181455Y193392D01*
X181474Y193519D01*
X181482Y193559D01*
X181481Y193567D01*
X181482Y193577D01*
X181482Y194943D01*
X182372Y197091D01*
X184015Y198734D01*
X185536Y199364D01*
X185581Y199393D01*
X185631Y199414D01*
X185675Y199453D01*
X185725Y199485D01*
X185757Y199528D01*
X185797Y199565D01*
X185824Y199617D01*
X185859Y199664D01*
X185875Y199716D01*
X185900Y199765D01*
X185910Y199835D01*
X185923Y199879D01*
X185921Y199910D01*
X185927Y199950D01*
X185927Y200552D01*
X186817Y202700D01*
X188460Y204343D01*
X189481Y204766D01*
X189526Y204795D01*
X189576Y204815D01*
X189620Y204855D01*
X189670Y204887D01*
X189702Y204930D01*
X189742Y204967D01*
X189769Y205019D01*
X189804Y205066D01*
X189820Y205118D01*
X189845Y205166D01*
X189855Y205237D01*
X189868Y205281D01*
X189866Y205312D01*
X189872Y205352D01*
X189872Y206267D01*
X190762Y208415D01*
X192405Y210058D01*
X194553Y210948D01*
X195059Y210948D01*
X195124Y210959D01*
X195189Y210961D01*
X195233Y210979D01*
X195280Y210987D01*
X195337Y211021D01*
X195397Y211046D01*
X195432Y211077D01*
X195473Y211102D01*
X195514Y211153D01*
X195563Y211197D01*
X195585Y211239D01*
X195614Y211276D01*
X195635Y211338D01*
X195666Y211397D01*
X195674Y211451D01*
X195686Y211488D01*
X195685Y211528D01*
X195693Y211582D01*
X195693Y213252D01*
X196583Y215400D01*
X196832Y215649D01*
X196869Y215703D01*
X196914Y215750D01*
X196933Y215794D01*
X196960Y215833D01*
X196976Y215896D01*
X197002Y215957D01*
X197004Y216004D01*
X197016Y216050D01*
X197009Y216115D01*
X197012Y216181D01*
X196997Y216226D01*
X196992Y216273D01*
X196963Y216332D01*
X196943Y216395D01*
X196910Y216439D01*
X196893Y216474D01*
X196864Y216501D01*
X196832Y216545D01*
X196342Y217035D01*
X195452Y219183D01*
X195452Y221507D01*
X196342Y223655D01*
X197985Y225298D01*
X200133Y226188D01*
X202457Y226188D01*
X204605Y225298D01*
X205292Y224611D01*
X205346Y224574D01*
X205393Y224529D01*
X205437Y224510D01*
X205476Y224483D01*
X205539Y224467D01*
X205600Y224441D01*
X205647Y224439D01*
X205693Y224427D01*
X205758Y224434D01*
X205824Y224431D01*
X205869Y224446D01*
X205916Y224451D01*
X205975Y224480D01*
X206038Y224500D01*
X206082Y224533D01*
X206117Y224550D01*
X206144Y224579D01*
X206189Y224611D01*
X207510Y225933D01*
X209658Y226823D01*
X211982Y226823D01*
X212241Y226716D01*
X212339Y226694D01*
X212437Y226669D01*
X212449Y226670D01*
X212460Y226668D01*
X212560Y226682D01*
X212660Y226692D01*
X212671Y226698D01*
X212682Y226699D01*
X212771Y226747D01*
X212861Y226792D01*
X212869Y226800D01*
X212880Y226806D01*
X212946Y226882D01*
X213015Y226955D01*
X213020Y226966D01*
X213027Y226975D01*
X213063Y227069D01*
X213102Y227162D01*
X213103Y227173D01*
X213107Y227185D01*
X213108Y227285D01*
X213112Y227386D01*
X213109Y227397D01*
X213109Y227409D01*
X213074Y227504D01*
X213044Y227599D01*
X213036Y227610D01*
X213032Y227620D01*
X213003Y227655D01*
X212932Y227750D01*
X212852Y227830D01*
X211962Y229978D01*
X211962Y232302D01*
X212852Y234450D01*
X214495Y236093D01*
X216643Y236983D01*
X218967Y236983D01*
X221115Y236093D01*
X222758Y234450D01*
X223648Y232302D01*
X223648Y229978D01*
X223032Y228492D01*
X223013Y228405D01*
X222988Y228320D01*
X222989Y228296D01*
X222984Y228273D01*
X222997Y228185D01*
X223003Y228096D01*
X223013Y228074D01*
X223016Y228051D01*
X223058Y227972D01*
X223095Y227891D01*
X223111Y227874D01*
X223123Y227853D01*
X223190Y227795D01*
X223252Y227731D01*
X223274Y227721D01*
X223292Y227706D01*
X223375Y227674D01*
X223455Y227636D01*
X223479Y227634D01*
X223501Y227626D01*
X223590Y227625D01*
X223679Y227618D01*
X223705Y227624D01*
X223726Y227624D01*
X223773Y227641D01*
X223861Y227663D01*
X224898Y228093D01*
X227222Y228093D01*
X229370Y227203D01*
X231013Y225560D01*
X231903Y223412D01*
X231903Y221088D01*
X231013Y218940D01*
X229370Y217297D01*
X227222Y216407D01*
X224898Y216407D01*
X223362Y217043D01*
X223309Y217055D01*
X223259Y217076D01*
X223201Y217079D01*
X223143Y217091D01*
X223089Y217084D01*
X223035Y217086D01*
X222979Y217068D01*
X222921Y217060D01*
X222873Y217034D01*
X222822Y217017D01*
X222764Y216975D01*
X222724Y216953D01*
X222703Y216930D01*
X222671Y216906D01*
X221667Y215902D01*
X219519Y215012D01*
X217195Y215012D01*
X215048Y215902D01*
X214975Y215975D01*
X214921Y216012D01*
X214873Y216057D01*
X214829Y216076D01*
X214790Y216103D01*
X214727Y216119D01*
X214666Y216145D01*
X214619Y216147D01*
X214573Y216159D01*
X214508Y216152D01*
X214442Y216155D01*
X214397Y216140D01*
X214350Y216136D01*
X214291Y216106D01*
X214228Y216086D01*
X214184Y216054D01*
X214149Y216036D01*
X214147Y216034D01*
X211982Y215137D01*
X209658Y215137D01*
X207447Y216053D01*
X207415Y216077D01*
X207404Y216080D01*
X207394Y216087D01*
X207297Y216112D01*
X207200Y216141D01*
X207189Y216140D01*
X207177Y216143D01*
X207077Y216133D01*
X206976Y216126D01*
X206966Y216121D01*
X206954Y216120D01*
X206864Y216075D01*
X206772Y216034D01*
X206763Y216026D01*
X206753Y216020D01*
X206684Y215947D01*
X206612Y215876D01*
X206607Y215866D01*
X206599Y215857D01*
X206559Y215764D01*
X206517Y215673D01*
X206516Y215662D01*
X206511Y215651D01*
X206507Y215550D01*
X206498Y215450D01*
X206502Y215437D01*
X206501Y215427D01*
X206515Y215383D01*
X206544Y215268D01*
X207379Y213252D01*
X207379Y210928D01*
X206489Y208780D01*
X204846Y207137D01*
X202698Y206247D01*
X202192Y206247D01*
X202127Y206236D01*
X202061Y206234D01*
X202018Y206216D01*
X201971Y206208D01*
X201914Y206174D01*
X201854Y206149D01*
X201819Y206118D01*
X201778Y206093D01*
X201736Y206042D01*
X201688Y205998D01*
X201666Y205956D01*
X201637Y205919D01*
X201616Y205857D01*
X201585Y205798D01*
X201577Y205744D01*
X201565Y205707D01*
X201566Y205667D01*
X201558Y205613D01*
X201558Y203943D01*
X200668Y201795D01*
X199025Y200152D01*
X198004Y199729D01*
X197959Y199700D01*
X197909Y199680D01*
X197865Y199640D01*
X197815Y199608D01*
X197783Y199565D01*
X197743Y199528D01*
X197716Y199476D01*
X197681Y199429D01*
X197665Y199377D01*
X197640Y199329D01*
X197630Y199258D01*
X197617Y199214D01*
X197619Y199183D01*
X197613Y199143D01*
X197613Y198228D01*
X196723Y196080D01*
X195080Y194437D01*
X194655Y194261D01*
X194571Y194207D01*
X194484Y194155D01*
X194476Y194146D01*
X194466Y194140D01*
X194406Y194059D01*
X194343Y193981D01*
X194339Y193970D01*
X194332Y193961D01*
X194303Y193864D01*
X194271Y193769D01*
X194271Y193757D01*
X194268Y193745D01*
X194274Y193645D01*
X194277Y193544D01*
X194282Y193533D01*
X194283Y193522D01*
X194324Y193430D01*
X194362Y193337D01*
X194370Y193328D01*
X194374Y193317D01*
X194445Y193245D01*
X194513Y193171D01*
X194524Y193166D01*
X194532Y193157D01*
X194623Y193114D01*
X194713Y193068D01*
X194725Y193067D01*
X194735Y193062D01*
X194781Y193058D01*
X194898Y193041D01*
X204835Y193041D01*
X204923Y193057D01*
X205011Y193066D01*
X205033Y193076D01*
X205056Y193080D01*
X205133Y193126D01*
X205213Y193165D01*
X205229Y193182D01*
X205249Y193195D01*
X205305Y193264D01*
X205366Y193329D01*
X205376Y193350D01*
X205391Y193369D01*
X205419Y193453D01*
X205454Y193535D01*
X205455Y193559D01*
X205462Y193581D01*
X205460Y193670D01*
X205464Y193759D01*
X205457Y193782D01*
X205456Y193806D01*
X205422Y193888D01*
X205395Y193973D01*
X205379Y193994D01*
X205372Y194013D01*
X205338Y194051D01*
X205284Y194124D01*
X205232Y194175D01*
X204342Y196323D01*
X204342Y198647D01*
X205232Y200795D01*
X206875Y202438D01*
X209023Y203328D01*
X211328Y203328D01*
X211393Y203339D01*
X211459Y203341D01*
X211502Y203359D01*
X211549Y203367D01*
X211606Y203401D01*
X211666Y203426D01*
X211701Y203457D01*
X211742Y203482D01*
X211784Y203533D01*
X211832Y203577D01*
X211854Y203619D01*
X211883Y203656D01*
X211904Y203718D01*
X211935Y203777D01*
X211943Y203831D01*
X211955Y203868D01*
X211954Y203908D01*
X211962Y203962D01*
X211962Y206267D01*
X212852Y208415D01*
X214495Y210058D01*
X216643Y210948D01*
X218967Y210948D01*
X221115Y210058D01*
X222758Y208415D01*
X223648Y206267D01*
X223648Y203943D01*
X223481Y203541D01*
X223462Y203454D01*
X223437Y203368D01*
X223438Y203345D01*
X223433Y203322D01*
X223446Y203233D01*
X223452Y203144D01*
X223462Y203123D01*
X223465Y203100D01*
X223507Y203021D01*
X223544Y202940D01*
X223560Y202923D01*
X223572Y202902D01*
X223639Y202844D01*
X223701Y202780D01*
X223723Y202770D01*
X223741Y202755D01*
X223824Y202723D01*
X223905Y202685D01*
X223928Y202683D01*
X223950Y202675D01*
X224039Y202674D01*
X224128Y202667D01*
X224154Y202673D01*
X224175Y202673D01*
X224222Y202690D01*
X224232Y202693D01*
X226587Y202693D01*
X228735Y201803D01*
X230378Y200160D01*
X231268Y198012D01*
X231268Y195688D01*
X230535Y193918D01*
X230518Y193842D01*
X230493Y193769D01*
X230494Y193733D01*
X230487Y193699D01*
X230498Y193622D01*
X230500Y193544D01*
X230513Y193512D01*
X230518Y193476D01*
X230555Y193408D01*
X230584Y193337D01*
X230608Y193310D01*
X230625Y193279D01*
X230683Y193228D01*
X230736Y193171D01*
X230767Y193155D01*
X230794Y193131D01*
X230866Y193104D01*
X230935Y193068D01*
X230975Y193062D01*
X231004Y193052D01*
X231050Y193051D01*
X231120Y193041D01*
X253118Y193041D01*
X253160Y193048D01*
X253202Y193046D01*
X253269Y193068D01*
X253339Y193080D01*
X253375Y193102D01*
X253416Y193115D01*
X253488Y193169D01*
X253532Y193195D01*
X253545Y193211D01*
X253566Y193227D01*
X254509Y194170D01*
X256651Y195057D01*
X258969Y195057D01*
X261111Y194170D01*
X262750Y192531D01*
X263637Y190389D01*
X263637Y188071D01*
X262727Y185875D01*
X262715Y185822D01*
X262694Y185772D01*
X262692Y185713D01*
X262679Y185656D01*
X262687Y185602D01*
X262684Y185548D01*
X262702Y185492D01*
X262711Y185433D01*
X262736Y185386D01*
X262753Y185334D01*
X262795Y185277D01*
X262817Y185236D01*
X262841Y185216D01*
X262865Y185184D01*
X268657Y179391D01*
X268711Y179354D01*
X268759Y179309D01*
X268802Y179290D01*
X268841Y179263D01*
X268904Y179247D01*
X268965Y179221D01*
X269012Y179219D01*
X269058Y179207D01*
X269124Y179214D01*
X269189Y179211D01*
X269234Y179226D01*
X269281Y179231D01*
X269340Y179260D01*
X269403Y179280D01*
X269447Y179313D01*
X269482Y179330D01*
X269509Y179359D01*
X269554Y179391D01*
X269740Y179578D01*
X271888Y180468D01*
X274212Y180468D01*
X276360Y179578D01*
X278072Y177866D01*
X278117Y177835D01*
X278155Y177796D01*
X278208Y177771D01*
X278256Y177738D01*
X278309Y177724D01*
X278358Y177701D01*
X278417Y177696D01*
X278474Y177682D01*
X278527Y177687D01*
X278581Y177683D01*
X278650Y177700D01*
X278697Y177705D01*
X278724Y177719D01*
X278763Y177728D01*
X280778Y178563D01*
X283102Y178563D01*
X283822Y178265D01*
X283908Y178246D01*
X283994Y178220D01*
X284018Y178222D01*
X284041Y178217D01*
X284129Y178229D01*
X284218Y178235D01*
X284239Y178245D01*
X284263Y178248D01*
X284341Y178291D01*
X284422Y178327D01*
X284439Y178344D01*
X284460Y178355D01*
X284519Y178422D01*
X284582Y178485D01*
X284592Y178506D01*
X284608Y178524D01*
X284640Y178607D01*
X284677Y178688D01*
X284679Y178712D01*
X284688Y178734D01*
X284688Y178823D01*
X284696Y178912D01*
X284689Y178937D01*
X284689Y178958D01*
X284672Y179006D01*
X284650Y179093D01*
X284352Y179813D01*
X284352Y182137D01*
X285242Y184285D01*
X286885Y185928D01*
X289033Y186818D01*
X291338Y186818D01*
X291403Y186829D01*
X291469Y186831D01*
X291512Y186849D01*
X291559Y186857D01*
X291616Y186891D01*
X291676Y186916D01*
X291711Y186947D01*
X291752Y186972D01*
X291794Y187023D01*
X291842Y187067D01*
X291864Y187109D01*
X291893Y187146D01*
X291914Y187208D01*
X291945Y187267D01*
X291953Y187321D01*
X291965Y187358D01*
X291964Y187398D01*
X291972Y187452D01*
X291972Y189122D01*
X292862Y191270D01*
X294505Y192913D01*
X296653Y193803D01*
X298977Y193803D01*
X301125Y192913D01*
X302768Y191270D01*
X303658Y189122D01*
X303658Y186798D01*
X302768Y184650D01*
X301125Y183007D01*
X298977Y182117D01*
X296672Y182117D01*
X296607Y182106D01*
X296541Y182104D01*
X296498Y182086D01*
X296451Y182078D01*
X296394Y182044D01*
X296334Y182019D01*
X296299Y181988D01*
X296258Y181963D01*
X296216Y181912D01*
X296168Y181868D01*
X296146Y181826D01*
X296117Y181789D01*
X296096Y181727D01*
X296065Y181668D01*
X296057Y181614D01*
X296045Y181577D01*
X296046Y181537D01*
X296038Y181483D01*
X296038Y179813D01*
X295148Y177665D01*
X293505Y176022D01*
X291357Y175132D01*
X289033Y175132D01*
X288313Y175430D01*
X288227Y175449D01*
X288141Y175475D01*
X288117Y175473D01*
X288094Y175478D01*
X288006Y175466D01*
X287917Y175460D01*
X287896Y175450D01*
X287872Y175447D01*
X287794Y175404D01*
X287713Y175368D01*
X287696Y175351D01*
X287675Y175340D01*
X287616Y175273D01*
X287553Y175210D01*
X287543Y175189D01*
X287527Y175171D01*
X287495Y175088D01*
X287458Y175007D01*
X287456Y174983D01*
X287447Y174961D01*
X287447Y174872D01*
X287439Y174783D01*
X287446Y174758D01*
X287446Y174737D01*
X287463Y174689D01*
X287485Y174602D01*
X287783Y173882D01*
X287783Y171558D01*
X286893Y169410D01*
X285250Y167767D01*
X283102Y166877D01*
X280778Y166877D01*
X278630Y167767D01*
X276918Y169479D01*
X276873Y169510D01*
X276835Y169549D01*
X276782Y169574D01*
X276734Y169607D01*
X276681Y169621D01*
X276632Y169644D01*
X276573Y169649D01*
X276516Y169663D01*
X276463Y169658D01*
X276409Y169662D01*
X276340Y169645D01*
X276293Y169640D01*
X276266Y169626D01*
X276227Y169617D01*
X274212Y168782D01*
X271888Y168782D01*
X271030Y169138D01*
X270977Y169149D01*
X270927Y169170D01*
X270868Y169173D01*
X270810Y169186D01*
X270757Y169178D01*
X270703Y169180D01*
X270647Y169162D01*
X270588Y169154D01*
X270541Y169128D01*
X270489Y169112D01*
X270432Y169069D01*
X270391Y169047D01*
X270371Y169024D01*
X270338Y169000D01*
X267753Y166415D01*
X267736Y166390D01*
X267712Y166370D01*
X267651Y166269D01*
X267625Y166231D01*
X267623Y166221D01*
X267616Y166210D01*
X266933Y164561D01*
X265290Y162918D01*
X263681Y162252D01*
X263646Y162229D01*
X263606Y162214D01*
X263552Y162169D01*
X263493Y162130D01*
X263467Y162096D01*
X263435Y162069D01*
X263388Y161991D01*
X263358Y161951D01*
X263352Y161931D01*
X263338Y161908D01*
X262763Y160520D01*
X261120Y158877D01*
X259692Y158285D01*
X259666Y158269D01*
X259636Y158259D01*
X259541Y158189D01*
X259503Y158164D01*
X259496Y158156D01*
X259486Y158148D01*
X257063Y155725D01*
X257025Y155671D01*
X256980Y155623D01*
X256962Y155579D01*
X256935Y155541D01*
X256918Y155477D01*
X256893Y155416D01*
X256891Y155369D01*
X256879Y155323D01*
X256886Y155258D01*
X256883Y155192D01*
X256897Y155147D01*
X256902Y155100D01*
X256931Y155041D01*
X256951Y154979D01*
X256984Y154934D01*
X257002Y154899D01*
X257030Y154872D01*
X257063Y154828D01*
X258305Y153585D01*
X259307Y151168D01*
X259307Y148552D01*
X258305Y146135D01*
X256455Y144285D01*
X254038Y143283D01*
X251422Y143283D01*
X249163Y144219D01*
X249121Y144228D01*
X249083Y144246D01*
X249013Y144252D01*
X248944Y144267D01*
X248901Y144261D01*
X248859Y144264D01*
X248771Y144242D01*
X248721Y144235D01*
X248703Y144225D01*
X248677Y144219D01*
X246418Y143283D01*
X244884Y143283D01*
X244842Y143276D01*
X244800Y143278D01*
X244733Y143256D01*
X244663Y143244D01*
X244627Y143222D01*
X244586Y143209D01*
X244513Y143155D01*
X244470Y143129D01*
X244457Y143113D01*
X244436Y143097D01*
X240852Y139513D01*
X240827Y139479D01*
X240796Y139450D01*
X240764Y139387D01*
X240723Y139329D01*
X240713Y139288D01*
X240693Y139250D01*
X240680Y139161D01*
X240668Y139112D01*
X240670Y139091D01*
X240666Y139065D01*
X240666Y117103D01*
X239582Y116018D01*
X239531Y115945D01*
X239475Y115876D01*
X239467Y115854D01*
X239453Y115834D01*
X239431Y115748D01*
X239403Y115664D01*
X239403Y115640D01*
X239398Y115617D01*
X239407Y115528D01*
X239409Y115439D01*
X239418Y115417D01*
X239421Y115394D01*
X239460Y115314D01*
X239494Y115232D01*
X239510Y115214D01*
X239520Y115193D01*
X239585Y115132D01*
X239645Y115066D01*
X239666Y115055D01*
X239683Y115039D01*
X239765Y115004D01*
X239845Y114963D01*
X239871Y114960D01*
X239890Y114951D01*
X239940Y114949D01*
X240030Y114936D01*
X282947Y114936D01*
X283397Y114487D01*
X283431Y114462D01*
X283460Y114431D01*
X283523Y114399D01*
X283581Y114358D01*
X283622Y114348D01*
X283660Y114328D01*
X283749Y114315D01*
X283798Y114303D01*
X283819Y114305D01*
X283845Y114301D01*
X288662Y114301D01*
X292234Y110729D01*
X292259Y110712D01*
X292279Y110689D01*
X292289Y110682D01*
X292292Y110679D01*
X292307Y110672D01*
X292380Y110627D01*
X292418Y110601D01*
X292428Y110599D01*
X292439Y110592D01*
X294555Y109715D01*
X296405Y107865D01*
X297282Y105749D01*
X297299Y105724D01*
X297308Y105694D01*
X297378Y105599D01*
X297403Y105561D01*
X297412Y105554D01*
X297419Y105544D01*
X306892Y96072D01*
X306926Y96047D01*
X306955Y96016D01*
X307018Y95984D01*
X307076Y95943D01*
X307117Y95933D01*
X307155Y95913D01*
X307244Y95900D01*
X307293Y95888D01*
X307314Y95890D01*
X307340Y95886D01*
X320014Y95886D01*
X320055Y95893D01*
X320098Y95891D01*
X320165Y95913D01*
X320234Y95925D01*
X320271Y95947D01*
X320311Y95960D01*
X320384Y96014D01*
X320428Y96040D01*
X320441Y96056D01*
X320462Y96072D01*
X333823Y109433D01*
X333848Y109468D01*
X333879Y109496D01*
X333911Y109559D01*
X333952Y109617D01*
X333962Y109658D01*
X333982Y109696D01*
X333995Y109786D01*
X334008Y109834D01*
X334005Y109855D01*
X334009Y109881D01*
X334009Y112395D01*
X334002Y112437D01*
X334004Y112479D01*
X333982Y112546D01*
X333970Y112616D01*
X333948Y112652D01*
X333935Y112693D01*
X333881Y112766D01*
X333855Y112809D01*
X333839Y112822D01*
X333823Y112843D01*
X314959Y131708D01*
X314959Y157845D01*
X314952Y157887D01*
X314954Y157929D01*
X314932Y157996D01*
X314920Y158066D01*
X314898Y158103D01*
X314885Y158143D01*
X314831Y158216D01*
X314805Y158259D01*
X314789Y158272D01*
X314773Y158294D01*
X313817Y159250D01*
X312927Y161398D01*
X312927Y163722D01*
X313817Y165870D01*
X314773Y166826D01*
X314798Y166861D01*
X314829Y166890D01*
X314861Y166953D01*
X314902Y167011D01*
X314912Y167052D01*
X314932Y167089D01*
X314945Y167179D01*
X314958Y167228D01*
X314955Y167249D01*
X314959Y167275D01*
X314959Y188967D01*
X315858Y189866D01*
X326762Y189866D01*
X350072Y166557D01*
X350106Y166532D01*
X350135Y166501D01*
X350198Y166469D01*
X350256Y166428D01*
X350297Y166418D01*
X350335Y166398D01*
X350424Y166385D01*
X350473Y166373D01*
X350494Y166375D01*
X350520Y166371D01*
X356587Y166371D01*
X356686Y166389D01*
X356786Y166403D01*
X356796Y166408D01*
X356808Y166410D01*
X356894Y166461D01*
X356983Y166510D01*
X356991Y166519D01*
X357001Y166525D01*
X357064Y166602D01*
X357131Y166678D01*
X357135Y166690D01*
X357142Y166699D01*
X357175Y166794D01*
X357210Y166888D01*
X357210Y166900D01*
X357214Y166911D01*
X357211Y167012D01*
X357212Y167112D01*
X357208Y167124D01*
X357208Y167136D01*
X357170Y167228D01*
X357135Y167323D01*
X357128Y167333D01*
X357123Y167343D01*
X357055Y167418D01*
X356990Y167494D01*
X356979Y167501D01*
X356972Y167509D01*
X356931Y167530D01*
X356830Y167591D01*
X354839Y168415D01*
X353200Y170054D01*
X352313Y172196D01*
X352313Y174514D01*
X353200Y176656D01*
X354839Y178295D01*
X356981Y179182D01*
X359299Y179182D01*
X361441Y178295D01*
X363080Y176656D01*
X363967Y174514D01*
X363967Y172196D01*
X363080Y170054D01*
X361441Y168415D01*
X359450Y167591D01*
X359366Y167537D01*
X359279Y167485D01*
X359272Y167476D01*
X359262Y167470D01*
X359201Y167389D01*
X359138Y167311D01*
X359134Y167300D01*
X359127Y167290D01*
X359098Y167194D01*
X359066Y167099D01*
X359066Y167087D01*
X359063Y167075D01*
X359069Y166975D01*
X359072Y166874D01*
X359077Y166863D01*
X359078Y166852D01*
X359119Y166759D01*
X359157Y166667D01*
X359165Y166658D01*
X359170Y166647D01*
X359240Y166575D01*
X359308Y166501D01*
X359319Y166496D01*
X359327Y166487D01*
X359418Y166445D01*
X359508Y166398D01*
X359521Y166397D01*
X359530Y166392D01*
X359576Y166388D01*
X359693Y166371D01*
X382905Y166371D01*
X382947Y166378D01*
X382989Y166376D01*
X383056Y166398D01*
X383126Y166410D01*
X383162Y166432D01*
X383203Y166445D01*
X383276Y166499D01*
X383319Y166525D01*
X383332Y166541D01*
X383353Y166557D01*
X390320Y173523D01*
X390357Y173577D01*
X390402Y173625D01*
X390418Y173661D01*
X390423Y173668D01*
X390426Y173675D01*
X390448Y173707D01*
X390464Y173770D01*
X390490Y173831D01*
X390491Y173869D01*
X390495Y173881D01*
X390495Y173890D01*
X390504Y173924D01*
X390497Y173990D01*
X390500Y174055D01*
X390489Y174089D01*
X390489Y174105D01*
X390483Y174117D01*
X390480Y174147D01*
X390451Y174206D01*
X390431Y174269D01*
X390411Y174296D01*
X390404Y174313D01*
X390392Y174326D01*
X390381Y174348D01*
X390352Y174375D01*
X390320Y174420D01*
X389395Y175345D01*
X388371Y177817D01*
X388341Y177862D01*
X388321Y177912D01*
X388281Y177956D01*
X388249Y178006D01*
X388206Y178038D01*
X388170Y178078D01*
X388117Y178105D01*
X388070Y178140D01*
X388018Y178156D01*
X387970Y178181D01*
X387900Y178191D01*
X387855Y178204D01*
X387824Y178202D01*
X387785Y178208D01*
X387312Y178208D01*
X384895Y179210D01*
X383045Y181060D01*
X382043Y183477D01*
X382043Y185011D01*
X382036Y185053D01*
X382038Y185095D01*
X382016Y185162D01*
X382004Y185232D01*
X381982Y185268D01*
X381969Y185309D01*
X381915Y185382D01*
X381889Y185425D01*
X381873Y185438D01*
X381857Y185459D01*
X375181Y192136D01*
X375137Y192166D01*
X375099Y192205D01*
X375046Y192230D01*
X374997Y192264D01*
X374945Y192277D01*
X374896Y192300D01*
X374837Y192305D01*
X374780Y192320D01*
X374726Y192314D01*
X374672Y192318D01*
X374603Y192301D01*
X374557Y192296D01*
X374551Y192293D01*
X372221Y192293D01*
X370079Y193180D01*
X370018Y193241D01*
X369964Y193279D01*
X369916Y193324D01*
X369873Y193342D01*
X369834Y193369D01*
X369770Y193386D01*
X369710Y193411D01*
X369663Y193414D01*
X369617Y193425D01*
X369552Y193418D01*
X369486Y193421D01*
X369441Y193407D01*
X369394Y193402D01*
X369335Y193373D01*
X369272Y193353D01*
X369228Y193320D01*
X369193Y193303D01*
X369166Y193274D01*
X369121Y193241D01*
X369061Y193180D01*
X366919Y192293D01*
X364601Y192293D01*
X362459Y193180D01*
X362398Y193241D01*
X362344Y193279D01*
X362296Y193324D01*
X362253Y193342D01*
X362214Y193369D01*
X362150Y193386D01*
X362090Y193411D01*
X362043Y193414D01*
X361997Y193425D01*
X361932Y193418D01*
X361866Y193421D01*
X361821Y193407D01*
X361774Y193402D01*
X361715Y193373D01*
X361652Y193353D01*
X361608Y193320D01*
X361573Y193303D01*
X361546Y193274D01*
X361501Y193241D01*
X361441Y193180D01*
X359299Y192293D01*
X356981Y192293D01*
X354839Y193180D01*
X353200Y194819D01*
X352313Y196961D01*
X352313Y199279D01*
X353200Y201421D01*
X354839Y203060D01*
X356981Y203947D01*
X359299Y203947D01*
X361441Y203060D01*
X361501Y202999D01*
X361556Y202961D01*
X361603Y202916D01*
X361647Y202898D01*
X361686Y202871D01*
X361749Y202854D01*
X361810Y202829D01*
X361857Y202826D01*
X361903Y202815D01*
X361968Y202822D01*
X362034Y202819D01*
X362079Y202833D01*
X362126Y202838D01*
X362185Y202867D01*
X362248Y202887D01*
X362292Y202920D01*
X362327Y202937D01*
X362354Y202966D01*
X362398Y202999D01*
X362459Y203060D01*
X362854Y203223D01*
X362919Y203265D01*
X362988Y203299D01*
X363013Y203325D01*
X363043Y203344D01*
X363089Y203406D01*
X363142Y203462D01*
X363156Y203495D01*
X363177Y203523D01*
X363200Y203598D01*
X363230Y203669D01*
X363231Y203705D01*
X363241Y203739D01*
X363236Y203816D01*
X363240Y203893D01*
X363229Y203927D01*
X363226Y203962D01*
X363195Y204033D01*
X363171Y204107D01*
X363147Y204139D01*
X363135Y204167D01*
X363102Y204200D01*
X363060Y204257D01*
X360044Y207273D01*
X360044Y208804D01*
X360033Y208869D01*
X360031Y208935D01*
X360013Y208978D01*
X360005Y209025D01*
X359971Y209082D01*
X359946Y209142D01*
X359915Y209177D01*
X359890Y209218D01*
X359839Y209260D01*
X359795Y209308D01*
X359753Y209330D01*
X359716Y209359D01*
X359654Y209380D01*
X359650Y209383D01*
X359638Y209390D01*
X359627Y209394D01*
X359595Y209411D01*
X359584Y209412D01*
X358494Y209864D01*
X358418Y209880D01*
X358345Y209905D01*
X358309Y209904D01*
X358275Y209912D01*
X358198Y209901D01*
X358120Y209898D01*
X358088Y209885D01*
X358052Y209880D01*
X357984Y209843D01*
X357913Y209814D01*
X357886Y209790D01*
X357855Y209773D01*
X357804Y209715D01*
X357747Y209663D01*
X357731Y209631D01*
X357707Y209604D01*
X357680Y209532D01*
X357644Y209463D01*
X357638Y209423D01*
X357628Y209395D01*
X357627Y209348D01*
X357617Y209278D01*
X357617Y209132D01*
X356730Y206990D01*
X355091Y205351D01*
X353907Y204861D01*
X353871Y204838D01*
X353831Y204823D01*
X353777Y204778D01*
X353718Y204740D01*
X353692Y204706D01*
X353660Y204678D01*
X353613Y204601D01*
X353583Y204560D01*
X353577Y204540D01*
X353563Y204518D01*
X352920Y202963D01*
X351281Y201324D01*
X349139Y200437D01*
X346821Y200437D01*
X344679Y201324D01*
X343040Y202963D01*
X342153Y205105D01*
X342153Y207423D01*
X343040Y209565D01*
X344679Y211204D01*
X345863Y211694D01*
X345899Y211717D01*
X345939Y211731D01*
X345993Y211777D01*
X346052Y211815D01*
X346078Y211849D01*
X346110Y211877D01*
X346157Y211954D01*
X346187Y211995D01*
X346193Y212015D01*
X346207Y212037D01*
X346850Y213592D01*
X348489Y215231D01*
X350631Y216118D01*
X352949Y216118D01*
X353976Y215692D01*
X354052Y215676D01*
X354125Y215651D01*
X354161Y215652D01*
X354195Y215644D01*
X354272Y215655D01*
X354350Y215657D01*
X354382Y215671D01*
X354418Y215676D01*
X354486Y215713D01*
X354557Y215742D01*
X354584Y215766D01*
X354615Y215783D01*
X354666Y215841D01*
X354723Y215893D01*
X354739Y215925D01*
X354763Y215951D01*
X354790Y216024D01*
X354826Y216093D01*
X354832Y216133D01*
X354842Y216161D01*
X354843Y216208D01*
X354853Y216278D01*
X354853Y216424D01*
X355740Y218566D01*
X357379Y220205D01*
X359606Y221127D01*
X359631Y221131D01*
X359688Y221165D01*
X359748Y221190D01*
X359783Y221221D01*
X359824Y221246D01*
X359866Y221297D01*
X359914Y221341D01*
X359936Y221383D01*
X359965Y221420D01*
X359986Y221482D01*
X360017Y221541D01*
X360025Y221595D01*
X360037Y221632D01*
X360036Y221672D01*
X360044Y221726D01*
X360044Y232193D01*
X360033Y232258D01*
X360031Y232324D01*
X360013Y232367D01*
X360005Y232414D01*
X359971Y232471D01*
X359946Y232532D01*
X359915Y232566D01*
X359890Y232607D01*
X359839Y232649D01*
X359795Y232697D01*
X359753Y232719D01*
X359716Y232748D01*
X359654Y232770D01*
X359595Y232800D01*
X359541Y232808D01*
X359504Y232820D01*
X359464Y232819D01*
X359410Y232827D01*
X358251Y232827D01*
X356109Y233714D01*
X354470Y235353D01*
X353583Y237495D01*
X353583Y239813D01*
X354470Y241955D01*
X356109Y243594D01*
X358251Y244481D01*
X358596Y244481D01*
X358695Y244499D01*
X358795Y244513D01*
X358805Y244518D01*
X358817Y244520D01*
X358904Y244572D01*
X358992Y244620D01*
X359000Y244629D01*
X359010Y244635D01*
X359073Y244713D01*
X359140Y244788D01*
X359144Y244800D01*
X359151Y244809D01*
X359184Y244904D01*
X359219Y244998D01*
X359219Y245010D01*
X359223Y245021D01*
X359220Y245122D01*
X359221Y245223D01*
X359217Y245234D01*
X359217Y245246D01*
X359179Y245338D01*
X359145Y245433D01*
X359137Y245443D01*
X359132Y245454D01*
X359064Y245528D01*
X358999Y245605D01*
X358988Y245611D01*
X358981Y245619D01*
X358940Y245640D01*
X358839Y245701D01*
X358649Y245779D01*
X357010Y247418D01*
X356123Y249560D01*
X356123Y251878D01*
X357010Y254020D01*
X358649Y255659D01*
X360791Y256546D01*
X363109Y256546D01*
X363883Y256225D01*
X363936Y256213D01*
X363986Y256192D01*
X364045Y256190D01*
X364102Y256177D01*
X364156Y256185D01*
X364210Y256182D01*
X364266Y256200D01*
X364325Y256209D01*
X364372Y256234D01*
X364424Y256251D01*
X364481Y256293D01*
X364522Y256316D01*
X364542Y256339D01*
X364574Y256363D01*
X371923Y263712D01*
X371948Y263746D01*
X371979Y263775D01*
X372011Y263838D01*
X372052Y263896D01*
X372062Y263937D01*
X372082Y263975D01*
X372095Y264064D01*
X372108Y264113D01*
X372105Y264134D01*
X372109Y264160D01*
X372109Y289560D01*
X372102Y289602D01*
X372104Y289644D01*
X372082Y289711D01*
X372070Y289781D01*
X372048Y289817D01*
X372035Y289858D01*
X371981Y289931D01*
X371955Y289974D01*
X371939Y289987D01*
X371923Y290008D01*
X363779Y298152D01*
X363745Y298177D01*
X363716Y298208D01*
X363653Y298240D01*
X363595Y298281D01*
X363554Y298291D01*
X363516Y298311D01*
X363427Y298324D01*
X363378Y298337D01*
X363357Y298334D01*
X363331Y298338D01*
X361426Y298338D01*
X361275Y298401D01*
X361245Y298408D01*
X361217Y298422D01*
X361100Y298439D01*
X361055Y298449D01*
X361045Y298447D01*
X361032Y298449D01*
X353307Y298449D01*
X353265Y298442D01*
X353223Y298444D01*
X353156Y298422D01*
X353086Y298410D01*
X353050Y298388D01*
X353009Y298375D01*
X352937Y298321D01*
X352893Y298295D01*
X352880Y298279D01*
X352859Y298263D01*
X351281Y296685D01*
X349714Y296036D01*
X349649Y295995D01*
X349579Y295960D01*
X349555Y295934D01*
X349525Y295915D01*
X349479Y295853D01*
X349426Y295797D01*
X349412Y295764D01*
X349390Y295736D01*
X349368Y295662D01*
X349338Y295590D01*
X349337Y295555D01*
X349326Y295521D01*
X349332Y295444D01*
X349328Y295366D01*
X349339Y295333D01*
X349341Y295297D01*
X349373Y295226D01*
X349397Y295153D01*
X349421Y295120D01*
X349433Y295092D01*
X349466Y295059D01*
X349508Y295002D01*
X351015Y293496D01*
X351902Y291354D01*
X351902Y290664D01*
X351914Y290597D01*
X351915Y290546D01*
X351923Y290528D01*
X351927Y290488D01*
X351937Y290467D01*
X351941Y290443D01*
X351987Y290366D01*
X351994Y290353D01*
X352000Y290338D01*
X352002Y290335D01*
X352026Y290287D01*
X352043Y290270D01*
X352056Y290250D01*
X352125Y290194D01*
X352189Y290133D01*
X352211Y290124D01*
X352230Y290109D01*
X352314Y290080D01*
X352396Y290045D01*
X352420Y290044D01*
X352442Y290037D01*
X352531Y290039D01*
X352620Y290035D01*
X352643Y290043D01*
X352667Y290043D01*
X352749Y290077D01*
X352758Y290080D01*
X352769Y290082D01*
X352775Y290085D01*
X352834Y290104D01*
X352855Y290120D01*
X352874Y290128D01*
X352912Y290162D01*
X352940Y290183D01*
X352962Y290196D01*
X352969Y290204D01*
X352984Y290216D01*
X353569Y290801D01*
X355711Y291688D01*
X358029Y291688D01*
X360171Y290801D01*
X361810Y289162D01*
X362697Y287020D01*
X362697Y284702D01*
X361810Y282560D01*
X360171Y280921D01*
X358029Y280034D01*
X355711Y280034D01*
X353569Y280921D01*
X351930Y282560D01*
X351709Y283094D01*
X351661Y283168D01*
X351619Y283247D01*
X351601Y283262D01*
X351588Y283282D01*
X351517Y283336D01*
X351450Y283395D01*
X351428Y283403D01*
X351409Y283417D01*
X351324Y283443D01*
X351240Y283474D01*
X351217Y283474D01*
X351194Y283481D01*
X351105Y283475D01*
X351016Y283476D01*
X350994Y283468D01*
X350970Y283466D01*
X350889Y283430D01*
X350805Y283399D01*
X350787Y283384D01*
X350765Y283374D01*
X350702Y283312D01*
X350634Y283254D01*
X350620Y283232D01*
X350606Y283217D01*
X350584Y283171D01*
X350538Y283094D01*
X349745Y281179D01*
X348106Y279540D01*
X345964Y278653D01*
X343646Y278653D01*
X341715Y279453D01*
X341663Y279464D01*
X341613Y279486D01*
X341554Y279488D01*
X341496Y279501D01*
X341443Y279493D01*
X341389Y279496D01*
X341332Y279478D01*
X341274Y279469D01*
X341227Y279444D01*
X341175Y279427D01*
X341118Y279385D01*
X341077Y279362D01*
X341057Y279339D01*
X341024Y279315D01*
X340495Y278786D01*
X339532Y278387D01*
X339467Y278345D01*
X339397Y278311D01*
X339373Y278285D01*
X339343Y278266D01*
X339296Y278204D01*
X339244Y278148D01*
X339230Y278115D01*
X339208Y278087D01*
X339186Y278012D01*
X339156Y277941D01*
X339154Y277906D01*
X339144Y277872D01*
X339150Y277794D01*
X339146Y277717D01*
X339157Y277683D01*
X339159Y277648D01*
X339191Y277577D01*
X339215Y277503D01*
X339239Y277471D01*
X339251Y277443D01*
X339284Y277410D01*
X339326Y277353D01*
X340960Y275719D01*
X341850Y273571D01*
X341850Y271247D01*
X340960Y269099D01*
X339317Y267456D01*
X338307Y267037D01*
X338271Y267015D01*
X338231Y267000D01*
X338177Y266954D01*
X338118Y266916D01*
X338093Y266882D01*
X338060Y266855D01*
X338014Y266777D01*
X337983Y266737D01*
X337977Y266717D01*
X337964Y266694D01*
X337166Y264768D01*
X335522Y263124D01*
X333375Y262235D01*
X331050Y262235D01*
X328903Y263124D01*
X327259Y264768D01*
X326370Y266915D01*
X326370Y269240D01*
X327259Y271387D01*
X328903Y273031D01*
X329913Y273449D01*
X329948Y273472D01*
X329988Y273486D01*
X330042Y273532D01*
X330102Y273570D01*
X330127Y273604D01*
X330159Y273632D01*
X330206Y273709D01*
X330236Y273750D01*
X330242Y273770D01*
X330256Y273792D01*
X331054Y275719D01*
X332697Y277362D01*
X333660Y277761D01*
X333725Y277803D01*
X333795Y277837D01*
X333819Y277863D01*
X333849Y277882D01*
X333896Y277944D01*
X333949Y278000D01*
X333962Y278033D01*
X333984Y278061D01*
X334006Y278136D01*
X334036Y278207D01*
X334038Y278242D01*
X334048Y278276D01*
X334043Y278354D01*
X334046Y278431D01*
X334035Y278465D01*
X334033Y278500D01*
X334001Y278571D01*
X333977Y278645D01*
X333953Y278677D01*
X333941Y278705D01*
X333908Y278738D01*
X333866Y278795D01*
X332232Y280429D01*
X331342Y282577D01*
X331342Y284901D01*
X332232Y287049D01*
X333458Y288275D01*
X333495Y288329D01*
X333540Y288377D01*
X333559Y288420D01*
X333586Y288459D01*
X333602Y288522D01*
X333628Y288583D01*
X333630Y288630D01*
X333642Y288676D01*
X333635Y288742D01*
X333638Y288807D01*
X333623Y288852D01*
X333618Y288899D01*
X333589Y288958D01*
X333569Y289021D01*
X333536Y289065D01*
X333519Y289100D01*
X333490Y289127D01*
X333458Y289172D01*
X332040Y290589D01*
X331150Y292737D01*
X331150Y295061D01*
X332040Y297209D01*
X332198Y297367D01*
X332248Y297440D01*
X332305Y297509D01*
X332312Y297531D01*
X332326Y297551D01*
X332348Y297637D01*
X332376Y297721D01*
X332376Y297745D01*
X332382Y297768D01*
X332372Y297857D01*
X332370Y297946D01*
X332361Y297968D01*
X332358Y297991D01*
X332319Y298071D01*
X332286Y298153D01*
X332270Y298171D01*
X332259Y298192D01*
X332194Y298253D01*
X332134Y298319D01*
X332113Y298330D01*
X332096Y298346D01*
X332014Y298381D01*
X331935Y298422D01*
X331908Y298425D01*
X331889Y298434D01*
X331839Y298436D01*
X331749Y298449D01*
X326025Y298449D01*
X325937Y298433D01*
X325849Y298424D01*
X325827Y298414D01*
X325804Y298410D01*
X325727Y298364D01*
X325648Y298325D01*
X325631Y298308D01*
X325611Y298295D01*
X325555Y298226D01*
X325494Y298162D01*
X325484Y298140D01*
X325469Y298121D01*
X325441Y298037D01*
X325406Y297955D01*
X325405Y297931D01*
X325398Y297909D01*
X325400Y297820D01*
X325396Y297731D01*
X325403Y297708D01*
X325404Y297684D01*
X325438Y297602D01*
X325465Y297517D01*
X325481Y297496D01*
X325488Y297477D01*
X325522Y297439D01*
X325576Y297367D01*
X326263Y296680D01*
X327153Y294532D01*
X327153Y292208D01*
X326263Y290060D01*
X324620Y288417D01*
X322472Y287527D01*
X320148Y287527D01*
X318000Y288417D01*
X316357Y290060D01*
X315467Y292208D01*
X315467Y294532D01*
X316357Y296680D01*
X317044Y297367D01*
X317094Y297440D01*
X317151Y297509D01*
X317158Y297531D01*
X317172Y297551D01*
X317194Y297637D01*
X317222Y297721D01*
X317222Y297745D01*
X317228Y297768D01*
X317218Y297857D01*
X317216Y297946D01*
X317207Y297968D01*
X317204Y297991D01*
X317165Y298071D01*
X317132Y298153D01*
X317116Y298171D01*
X317105Y298192D01*
X317040Y298253D01*
X316980Y298319D01*
X316959Y298330D01*
X316942Y298346D01*
X316860Y298381D01*
X316781Y298422D01*
X316754Y298425D01*
X316735Y298434D01*
X316685Y298436D01*
X316595Y298449D01*
X314960Y298449D01*
X314918Y298442D01*
X314876Y298444D01*
X314809Y298422D01*
X314739Y298410D01*
X314703Y298388D01*
X314662Y298375D01*
X314589Y298321D01*
X314546Y298295D01*
X314533Y298279D01*
X314512Y298263D01*
X303014Y286765D01*
X302989Y286731D01*
X302958Y286702D01*
X302926Y286639D01*
X302885Y286581D01*
X302875Y286540D01*
X302855Y286502D01*
X302842Y286413D01*
X302829Y286364D01*
X302832Y286343D01*
X302828Y286317D01*
X302828Y284229D01*
X302822Y284202D01*
X302796Y284116D01*
X302798Y284092D01*
X302793Y284069D01*
X302805Y283981D01*
X302811Y283892D01*
X302821Y283871D01*
X302824Y283847D01*
X302867Y283769D01*
X302903Y283688D01*
X302920Y283671D01*
X302931Y283650D01*
X302998Y283591D01*
X303061Y283528D01*
X303082Y283518D01*
X303100Y283502D01*
X303183Y283470D01*
X303264Y283433D01*
X303288Y283431D01*
X303310Y283422D01*
X303399Y283422D01*
X303488Y283414D01*
X303513Y283421D01*
X303534Y283421D01*
X303582Y283438D01*
X303669Y283460D01*
X304908Y283973D01*
X307232Y283973D01*
X309380Y283083D01*
X309822Y282641D01*
X309866Y282610D01*
X309905Y282571D01*
X309958Y282546D01*
X310006Y282513D01*
X310059Y282499D01*
X310108Y282476D01*
X310167Y282471D01*
X310224Y282457D01*
X310277Y282462D01*
X310331Y282458D01*
X310400Y282475D01*
X310447Y282480D01*
X310474Y282494D01*
X310513Y282503D01*
X312528Y283338D01*
X314852Y283338D01*
X317000Y282448D01*
X318643Y280805D01*
X319533Y278657D01*
X319533Y276333D01*
X318643Y274185D01*
X317956Y273498D01*
X317919Y273444D01*
X317874Y273397D01*
X317855Y273353D01*
X317828Y273314D01*
X317812Y273251D01*
X317786Y273190D01*
X317784Y273143D01*
X317772Y273097D01*
X317779Y273032D01*
X317776Y272966D01*
X317791Y272921D01*
X317796Y272874D01*
X317825Y272815D01*
X317845Y272752D01*
X317878Y272708D01*
X317895Y272673D01*
X317924Y272646D01*
X317956Y272601D01*
X318643Y271915D01*
X319533Y269767D01*
X319533Y267443D01*
X318643Y265295D01*
X317000Y263652D01*
X314852Y262762D01*
X312486Y262762D01*
X312403Y262787D01*
X312379Y262786D01*
X312356Y262791D01*
X312268Y262778D01*
X312179Y262772D01*
X312157Y262763D01*
X312134Y262759D01*
X312056Y262717D01*
X311974Y262680D01*
X311957Y262664D01*
X311937Y262652D01*
X311878Y262585D01*
X311814Y262523D01*
X311804Y262501D01*
X311789Y262484D01*
X311757Y262400D01*
X311719Y262320D01*
X311717Y262296D01*
X311709Y262274D01*
X311708Y262185D01*
X311701Y262096D01*
X311707Y262070D01*
X311707Y262050D01*
X311720Y262013D01*
X311721Y262004D01*
X311729Y261985D01*
X311746Y261914D01*
X311913Y261512D01*
X311913Y259207D01*
X311924Y259142D01*
X311926Y259076D01*
X311944Y259033D01*
X311952Y258986D01*
X311986Y258929D01*
X312011Y258869D01*
X312042Y258834D01*
X312067Y258793D01*
X312118Y258751D01*
X312162Y258703D01*
X312204Y258681D01*
X312241Y258652D01*
X312303Y258631D01*
X312362Y258600D01*
X312416Y258592D01*
X312453Y258580D01*
X312493Y258581D01*
X312547Y258573D01*
X314852Y258573D01*
X316942Y257707D01*
X316994Y257696D01*
X317044Y257675D01*
X317103Y257672D01*
X317161Y257659D01*
X317214Y257667D01*
X317269Y257665D01*
X317325Y257683D01*
X317383Y257691D01*
X317431Y257717D01*
X317482Y257733D01*
X317539Y257776D01*
X317580Y257798D01*
X317600Y257821D01*
X317633Y257845D01*
X318000Y258212D01*
X320148Y259102D01*
X322472Y259102D01*
X324620Y258212D01*
X326263Y256569D01*
X327153Y254421D01*
X327153Y252097D01*
X326288Y250009D01*
X326279Y249968D01*
X326261Y249929D01*
X326255Y249859D01*
X326240Y249790D01*
X326246Y249748D01*
X326243Y249706D01*
X326265Y249618D01*
X326272Y249568D01*
X326282Y249550D01*
X326288Y249524D01*
X327153Y247436D01*
X327153Y245112D01*
X326263Y242964D01*
X325629Y242331D01*
X325592Y242276D01*
X325547Y242229D01*
X325528Y242185D01*
X325501Y242146D01*
X325485Y242083D01*
X325459Y242022D01*
X325457Y241975D01*
X325445Y241929D01*
X325452Y241864D01*
X325449Y241798D01*
X325464Y241753D01*
X325469Y241706D01*
X325498Y241647D01*
X325518Y241584D01*
X325551Y241540D01*
X325568Y241505D01*
X325597Y241478D01*
X325629Y241434D01*
X326323Y240740D01*
X327213Y238592D01*
X327213Y236268D01*
X326323Y234120D01*
X324680Y232477D01*
X322532Y231587D01*
X320208Y231587D01*
X318060Y232477D01*
X316417Y234120D01*
X315527Y236268D01*
X315527Y238592D01*
X316417Y240740D01*
X317051Y241374D01*
X317088Y241428D01*
X317133Y241475D01*
X317152Y241519D01*
X317179Y241558D01*
X317195Y241621D01*
X317221Y241682D01*
X317223Y241729D01*
X317235Y241775D01*
X317228Y241840D01*
X317231Y241906D01*
X317216Y241951D01*
X317211Y241998D01*
X317182Y242057D01*
X317162Y242120D01*
X317130Y242164D01*
X317112Y242199D01*
X317083Y242226D01*
X317051Y242271D01*
X316357Y242964D01*
X315467Y245112D01*
X315467Y246253D01*
X315456Y246318D01*
X315454Y246384D01*
X315436Y246427D01*
X315428Y246474D01*
X315394Y246531D01*
X315369Y246591D01*
X315338Y246626D01*
X315313Y246667D01*
X315262Y246709D01*
X315218Y246757D01*
X315176Y246779D01*
X315139Y246808D01*
X315077Y246829D01*
X315018Y246860D01*
X314964Y246868D01*
X314927Y246880D01*
X314887Y246879D01*
X314833Y246887D01*
X312528Y246887D01*
X310380Y247777D01*
X310328Y247829D01*
X310274Y247866D01*
X310226Y247911D01*
X310183Y247930D01*
X310144Y247957D01*
X310080Y247973D01*
X310020Y247999D01*
X309973Y248001D01*
X309927Y248013D01*
X309862Y248006D01*
X309796Y248009D01*
X309751Y247994D01*
X309704Y247989D01*
X309645Y247960D01*
X309582Y247940D01*
X309538Y247907D01*
X309503Y247890D01*
X309476Y247861D01*
X309431Y247829D01*
X309380Y247777D01*
X307232Y246887D01*
X304908Y246887D01*
X302760Y247777D01*
X301117Y249420D01*
X300227Y251568D01*
X300227Y253892D01*
X301117Y256040D01*
X301169Y256092D01*
X301206Y256146D01*
X301251Y256194D01*
X301270Y256237D01*
X301297Y256276D01*
X301313Y256340D01*
X301339Y256400D01*
X301341Y256447D01*
X301353Y256493D01*
X301346Y256558D01*
X301349Y256624D01*
X301334Y256669D01*
X301329Y256716D01*
X301300Y256775D01*
X301280Y256838D01*
X301247Y256882D01*
X301230Y256917D01*
X301201Y256944D01*
X301169Y256989D01*
X301117Y257040D01*
X300227Y259188D01*
X300227Y261512D01*
X301117Y263660D01*
X302760Y265303D01*
X304908Y266193D01*
X307274Y266193D01*
X307357Y266168D01*
X307381Y266169D01*
X307404Y266164D01*
X307492Y266177D01*
X307581Y266183D01*
X307603Y266192D01*
X307626Y266196D01*
X307704Y266238D01*
X307786Y266275D01*
X307803Y266291D01*
X307823Y266303D01*
X307882Y266370D01*
X307946Y266432D01*
X307956Y266454D01*
X307971Y266471D01*
X308003Y266555D01*
X308041Y266635D01*
X308043Y266659D01*
X308051Y266681D01*
X308052Y266770D01*
X308059Y266859D01*
X308053Y266885D01*
X308053Y266905D01*
X308036Y266953D01*
X308014Y267041D01*
X307847Y267443D01*
X307847Y269767D01*
X308649Y271702D01*
X308668Y271789D01*
X308693Y271874D01*
X308692Y271898D01*
X308697Y271921D01*
X308684Y272009D01*
X308678Y272098D01*
X308668Y272120D01*
X308665Y272143D01*
X308623Y272222D01*
X308586Y272303D01*
X308570Y272320D01*
X308558Y272341D01*
X308491Y272399D01*
X308429Y272463D01*
X308407Y272473D01*
X308389Y272488D01*
X308306Y272520D01*
X308226Y272558D01*
X308202Y272560D01*
X308180Y272568D01*
X308090Y272569D01*
X308002Y272576D01*
X307976Y272570D01*
X307955Y272570D01*
X307908Y272553D01*
X307820Y272531D01*
X307232Y272287D01*
X304908Y272287D01*
X302760Y273177D01*
X302073Y273864D01*
X302019Y273901D01*
X301972Y273946D01*
X301928Y273965D01*
X301889Y273992D01*
X301826Y274008D01*
X301765Y274034D01*
X301718Y274036D01*
X301672Y274048D01*
X301607Y274041D01*
X301541Y274044D01*
X301496Y274029D01*
X301449Y274024D01*
X301390Y273995D01*
X301327Y273975D01*
X301283Y273942D01*
X301248Y273925D01*
X301221Y273896D01*
X301176Y273864D01*
X300490Y273177D01*
X298342Y272287D01*
X296018Y272287D01*
X295747Y272399D01*
X295661Y272418D01*
X295575Y272444D01*
X295551Y272442D01*
X295528Y272447D01*
X295440Y272435D01*
X295351Y272429D01*
X295330Y272419D01*
X295306Y272416D01*
X295228Y272373D01*
X295147Y272337D01*
X295130Y272320D01*
X295109Y272309D01*
X295050Y272242D01*
X294987Y272179D01*
X294977Y272158D01*
X294961Y272140D01*
X294929Y272057D01*
X294892Y271976D01*
X294890Y271952D01*
X294881Y271930D01*
X294881Y271841D01*
X294873Y271752D01*
X294880Y271727D01*
X294880Y271706D01*
X294897Y271658D01*
X294919Y271571D01*
X295403Y270402D01*
X295403Y268078D01*
X294513Y265930D01*
X292870Y264287D01*
X290722Y263397D01*
X288290Y263397D01*
X288225Y263386D01*
X288159Y263384D01*
X288116Y263366D01*
X288069Y263358D01*
X288012Y263324D01*
X287952Y263299D01*
X287917Y263268D01*
X287876Y263243D01*
X287835Y263192D01*
X287786Y263148D01*
X287764Y263106D01*
X287735Y263069D01*
X287714Y263007D01*
X287683Y262948D01*
X287675Y262894D01*
X287663Y262857D01*
X287664Y262817D01*
X287656Y262763D01*
X287656Y245354D01*
X287665Y245300D01*
X287665Y245246D01*
X287685Y245191D01*
X287695Y245133D01*
X287723Y245086D01*
X287741Y245035D01*
X287780Y244990D01*
X287810Y244939D01*
X287852Y244905D01*
X287887Y244864D01*
X287948Y244827D01*
X287984Y244798D01*
X288013Y244788D01*
X288047Y244768D01*
X289060Y244348D01*
X290703Y242705D01*
X291593Y240557D01*
X291593Y238233D01*
X290703Y236085D01*
X289661Y235043D01*
X289616Y234979D01*
X289565Y234921D01*
X289553Y234888D01*
X289532Y234858D01*
X289513Y234783D01*
X289486Y234711D01*
X289485Y234676D01*
X289476Y234641D01*
X289484Y234564D01*
X289484Y234487D01*
X289496Y234453D01*
X289500Y234418D01*
X289534Y234349D01*
X289560Y234276D01*
X289583Y234249D01*
X289599Y234217D01*
X289656Y234164D01*
X289706Y234105D01*
X289740Y234084D01*
X289762Y234063D01*
X289805Y234045D01*
X289866Y234008D01*
X290965Y233553D01*
X292608Y231910D01*
X293498Y229762D01*
X293498Y227438D01*
X292608Y225290D01*
X290965Y223647D01*
X288817Y222757D01*
X286493Y222757D01*
X284345Y223647D01*
X282702Y225290D01*
X281812Y227438D01*
X281812Y229762D01*
X282702Y231910D01*
X283744Y232952D01*
X283789Y233016D01*
X283840Y233074D01*
X283852Y233107D01*
X283873Y233137D01*
X283892Y233212D01*
X283919Y233284D01*
X283920Y233319D01*
X283929Y233354D01*
X283921Y233431D01*
X283921Y233508D01*
X283909Y233542D01*
X283905Y233577D01*
X283871Y233646D01*
X283845Y233719D01*
X283822Y233746D01*
X283806Y233778D01*
X283749Y233831D01*
X283699Y233890D01*
X283665Y233911D01*
X283643Y233932D01*
X283600Y233950D01*
X283539Y233987D01*
X282440Y234442D01*
X280949Y235934D01*
X280885Y235978D01*
X280827Y236029D01*
X280794Y236041D01*
X280764Y236062D01*
X280689Y236081D01*
X280617Y236108D01*
X280582Y236109D01*
X280547Y236118D01*
X280470Y236110D01*
X280393Y236110D01*
X280359Y236098D01*
X280324Y236094D01*
X280255Y236060D01*
X280182Y236034D01*
X280155Y236011D01*
X280123Y235995D01*
X280070Y235939D01*
X280011Y235888D01*
X279990Y235854D01*
X279969Y235832D01*
X279951Y235789D01*
X279914Y235728D01*
X279273Y234180D01*
X279221Y234129D01*
X279184Y234074D01*
X279139Y234027D01*
X279120Y233983D01*
X279093Y233944D01*
X279077Y233881D01*
X279051Y233820D01*
X279049Y233773D01*
X279037Y233727D01*
X279044Y233662D01*
X279041Y233596D01*
X279056Y233551D01*
X279061Y233504D01*
X279090Y233445D01*
X279110Y233382D01*
X279143Y233338D01*
X279160Y233303D01*
X279189Y233276D01*
X279221Y233232D01*
X279273Y233180D01*
X280163Y231032D01*
X280163Y228708D01*
X279273Y226560D01*
X277630Y224917D01*
X275482Y224027D01*
X273158Y224027D01*
X271010Y224917D01*
X270323Y225604D01*
X270269Y225641D01*
X270222Y225686D01*
X270178Y225705D01*
X270139Y225732D01*
X270076Y225748D01*
X270015Y225774D01*
X269968Y225776D01*
X269922Y225788D01*
X269857Y225781D01*
X269791Y225784D01*
X269746Y225769D01*
X269699Y225764D01*
X269640Y225735D01*
X269577Y225715D01*
X269533Y225682D01*
X269498Y225665D01*
X269471Y225636D01*
X269426Y225604D01*
X268740Y224917D01*
X266592Y224027D01*
X264268Y224027D01*
X262120Y224917D01*
X262068Y224969D01*
X262014Y225006D01*
X261966Y225051D01*
X261923Y225070D01*
X261884Y225097D01*
X261820Y225113D01*
X261760Y225139D01*
X261713Y225141D01*
X261667Y225153D01*
X261602Y225146D01*
X261536Y225149D01*
X261491Y225134D01*
X261444Y225129D01*
X261385Y225100D01*
X261322Y225080D01*
X261278Y225047D01*
X261243Y225030D01*
X261216Y225001D01*
X261171Y224969D01*
X261120Y224917D01*
X258972Y224027D01*
X256648Y224027D01*
X254500Y224917D01*
X254448Y224969D01*
X254394Y225006D01*
X254346Y225051D01*
X254303Y225070D01*
X254264Y225097D01*
X254200Y225113D01*
X254140Y225139D01*
X254093Y225141D01*
X254047Y225153D01*
X253982Y225146D01*
X253916Y225149D01*
X253871Y225134D01*
X253824Y225129D01*
X253765Y225100D01*
X253702Y225080D01*
X253658Y225047D01*
X253623Y225030D01*
X253596Y225001D01*
X253551Y224969D01*
X253500Y224917D01*
X251352Y224027D01*
X249028Y224027D01*
X246880Y224917D01*
X245237Y226560D01*
X244347Y228708D01*
X244347Y231032D01*
X245237Y233180D01*
X245289Y233232D01*
X245326Y233286D01*
X245371Y233334D01*
X245390Y233377D01*
X245417Y233416D01*
X245433Y233480D01*
X245459Y233540D01*
X245461Y233587D01*
X245473Y233633D01*
X245466Y233698D01*
X245469Y233764D01*
X245454Y233809D01*
X245449Y233856D01*
X245420Y233915D01*
X245400Y233978D01*
X245367Y234022D01*
X245350Y234057D01*
X245321Y234084D01*
X245289Y234129D01*
X245237Y234180D01*
X244426Y236138D01*
X244378Y236213D01*
X244335Y236291D01*
X244318Y236307D01*
X244305Y236327D01*
X244234Y236380D01*
X244167Y236439D01*
X244144Y236447D01*
X244125Y236461D01*
X244040Y236487D01*
X243957Y236518D01*
X243933Y236519D01*
X243910Y236525D01*
X243821Y236520D01*
X243733Y236520D01*
X243710Y236512D01*
X243687Y236511D01*
X243605Y236474D01*
X243522Y236444D01*
X243503Y236428D01*
X243482Y236419D01*
X243418Y236356D01*
X243351Y236298D01*
X243337Y236276D01*
X243322Y236261D01*
X243301Y236215D01*
X243254Y236138D01*
X242443Y234180D01*
X240800Y232537D01*
X238652Y231647D01*
X236328Y231647D01*
X234180Y232537D01*
X232537Y234180D01*
X231647Y236328D01*
X231647Y238652D01*
X232537Y240800D01*
X234180Y242443D01*
X236328Y243333D01*
X238652Y243333D01*
X240800Y242443D01*
X242443Y240800D01*
X243254Y238842D01*
X243302Y238767D01*
X243344Y238689D01*
X243362Y238673D01*
X243375Y238653D01*
X243446Y238600D01*
X243513Y238541D01*
X243536Y238533D01*
X243555Y238519D01*
X243640Y238493D01*
X243723Y238462D01*
X243747Y238461D01*
X243770Y238455D01*
X243858Y238460D01*
X243947Y238460D01*
X243970Y238468D01*
X243993Y238469D01*
X244075Y238506D01*
X244158Y238536D01*
X244176Y238552D01*
X244198Y238561D01*
X244261Y238624D01*
X244329Y238681D01*
X244343Y238704D01*
X244358Y238719D01*
X244379Y238765D01*
X244426Y238842D01*
X245237Y240800D01*
X245924Y241486D01*
X245961Y241541D01*
X246006Y241588D01*
X246025Y241632D01*
X246052Y241671D01*
X246068Y241734D01*
X246094Y241795D01*
X246096Y241842D01*
X246108Y241888D01*
X246101Y241953D01*
X246104Y242019D01*
X246089Y242064D01*
X246084Y242111D01*
X246055Y242170D01*
X246035Y242233D01*
X246002Y242277D01*
X245985Y242312D01*
X245956Y242339D01*
X245924Y242383D01*
X245237Y243070D01*
X244347Y245218D01*
X244347Y247542D01*
X245212Y249630D01*
X245221Y249671D01*
X245239Y249710D01*
X245245Y249780D01*
X245260Y249849D01*
X245254Y249891D01*
X245257Y249933D01*
X245235Y250021D01*
X245228Y250071D01*
X245218Y250090D01*
X245212Y250115D01*
X244319Y252271D01*
X244315Y252297D01*
X244310Y252308D01*
X244308Y252319D01*
X244257Y252406D01*
X244209Y252495D01*
X244200Y252502D01*
X244193Y252513D01*
X244116Y252576D01*
X244040Y252642D01*
X244028Y252647D01*
X244019Y252654D01*
X243924Y252686D01*
X243830Y252722D01*
X243818Y252722D01*
X243807Y252726D01*
X243707Y252723D01*
X243606Y252724D01*
X243594Y252720D01*
X243582Y252719D01*
X243490Y252682D01*
X243395Y252647D01*
X243386Y252639D01*
X243375Y252635D01*
X243300Y252567D01*
X243224Y252502D01*
X243217Y252491D01*
X243209Y252484D01*
X243188Y252443D01*
X243127Y252341D01*
X242443Y250690D01*
X240800Y249047D01*
X238652Y248157D01*
X236328Y248157D01*
X234180Y249047D01*
X232537Y250690D01*
X231647Y252838D01*
X231647Y255162D01*
X232537Y257310D01*
X234180Y258953D01*
X236328Y259843D01*
X238652Y259843D01*
X240800Y258953D01*
X242443Y257310D01*
X243361Y255094D01*
X243365Y255068D01*
X243370Y255057D01*
X243372Y255046D01*
X243423Y254959D01*
X243471Y254870D01*
X243480Y254863D01*
X243487Y254852D01*
X243564Y254789D01*
X243640Y254723D01*
X243652Y254718D01*
X243661Y254711D01*
X243756Y254679D01*
X243850Y254643D01*
X243862Y254643D01*
X243873Y254639D01*
X243973Y254642D01*
X244074Y254641D01*
X244086Y254645D01*
X244098Y254646D01*
X244190Y254683D01*
X244285Y254718D01*
X244294Y254726D01*
X244305Y254730D01*
X244380Y254798D01*
X244456Y254863D01*
X244463Y254874D01*
X244471Y254881D01*
X244492Y254922D01*
X244553Y255024D01*
X245237Y256675D01*
X246880Y258318D01*
X248838Y259129D01*
X248913Y259177D01*
X248991Y259219D01*
X249007Y259237D01*
X249027Y259250D01*
X249080Y259321D01*
X249139Y259388D01*
X249147Y259411D01*
X249161Y259430D01*
X249187Y259515D01*
X249218Y259598D01*
X249219Y259622D01*
X249225Y259645D01*
X249220Y259733D01*
X249220Y259822D01*
X249212Y259845D01*
X249211Y259868D01*
X249174Y259950D01*
X249144Y260033D01*
X249128Y260051D01*
X249119Y260073D01*
X249056Y260136D01*
X248999Y260204D01*
X248976Y260218D01*
X248961Y260233D01*
X248915Y260254D01*
X248838Y260301D01*
X246880Y261112D01*
X245237Y262755D01*
X244347Y264903D01*
X244347Y267227D01*
X245237Y269375D01*
X246880Y271018D01*
X249028Y271908D01*
X250190Y271908D01*
X250255Y271919D01*
X250321Y271921D01*
X250364Y271939D01*
X250411Y271947D01*
X250468Y271981D01*
X250528Y272006D01*
X250563Y272037D01*
X250604Y272062D01*
X250646Y272113D01*
X250694Y272157D01*
X250716Y272199D01*
X250745Y272236D01*
X250766Y272298D01*
X250797Y272357D01*
X250805Y272411D01*
X250817Y272448D01*
X250816Y272488D01*
X250824Y272542D01*
X250824Y275265D01*
X250819Y275295D01*
X250821Y275326D01*
X250793Y275441D01*
X250785Y275486D01*
X250779Y275495D01*
X250776Y275508D01*
X250697Y275698D01*
X250697Y278022D01*
X250776Y278212D01*
X250783Y278242D01*
X250797Y278270D01*
X250814Y278387D01*
X250824Y278431D01*
X250822Y278442D01*
X250824Y278455D01*
X250824Y294133D01*
X250811Y294210D01*
X250805Y294287D01*
X250791Y294319D01*
X250785Y294354D01*
X250745Y294421D01*
X250713Y294492D01*
X250689Y294517D01*
X250670Y294547D01*
X250610Y294596D01*
X250556Y294651D01*
X250524Y294666D01*
X250496Y294689D01*
X250423Y294714D01*
X250353Y294746D01*
X250317Y294749D01*
X250284Y294761D01*
X250206Y294758D01*
X250129Y294765D01*
X250090Y294755D01*
X250059Y294754D01*
X250016Y294737D01*
X249947Y294719D01*
X249447Y294512D01*
X248396Y294512D01*
X248331Y294501D01*
X248265Y294499D01*
X248222Y294481D01*
X248175Y294473D01*
X248118Y294439D01*
X248058Y294414D01*
X248023Y294383D01*
X247982Y294358D01*
X247940Y294307D01*
X247892Y294263D01*
X247870Y294221D01*
X247841Y294184D01*
X247820Y294122D01*
X247789Y294063D01*
X247781Y294009D01*
X247769Y293972D01*
X247770Y293944D01*
X247769Y293941D01*
X247769Y293927D01*
X247762Y293878D01*
X247762Y292846D01*
X246875Y290704D01*
X245236Y289065D01*
X243094Y288178D01*
X240776Y288178D01*
X238634Y289065D01*
X238267Y289432D01*
X238213Y289470D01*
X238165Y289515D01*
X238122Y289534D01*
X238083Y289561D01*
X238019Y289577D01*
X237959Y289603D01*
X237912Y289605D01*
X237866Y289616D01*
X237800Y289610D01*
X237735Y289613D01*
X237690Y289598D01*
X237643Y289593D01*
X237584Y289564D01*
X237521Y289544D01*
X237477Y289511D01*
X237442Y289494D01*
X237414Y289465D01*
X237370Y289432D01*
X236990Y289052D01*
X234842Y288162D01*
X232518Y288162D01*
X230370Y289052D01*
X228727Y290695D01*
X227837Y292843D01*
X227837Y295167D01*
X228727Y297315D01*
X229169Y297757D01*
X229200Y297801D01*
X229239Y297840D01*
X229264Y297893D01*
X229297Y297941D01*
X229311Y297994D01*
X229334Y298043D01*
X229339Y298102D01*
X229353Y298159D01*
X229348Y298212D01*
X229352Y298266D01*
X229335Y298335D01*
X229330Y298382D01*
X229316Y298409D01*
X229307Y298448D01*
X228472Y300463D01*
X228472Y302787D01*
X229362Y304935D01*
X231005Y306578D01*
X233153Y307468D01*
X235477Y307468D01*
X237625Y306578D01*
X237881Y306322D01*
X237926Y306291D01*
X237964Y306252D01*
X238017Y306227D01*
X238065Y306194D01*
X238118Y306180D01*
X238167Y306157D01*
X238225Y306152D01*
X238283Y306138D01*
X238336Y306143D01*
X238390Y306139D01*
X238459Y306156D01*
X238506Y306161D01*
X238533Y306175D01*
X238572Y306184D01*
X240138Y306833D01*
X241808Y306833D01*
X241873Y306844D01*
X241939Y306846D01*
X241982Y306864D01*
X242029Y306872D01*
X242086Y306906D01*
X242146Y306931D01*
X242181Y306962D01*
X242222Y306987D01*
X242264Y307038D01*
X242312Y307082D01*
X242334Y307124D01*
X242363Y307161D01*
X242384Y307223D01*
X242415Y307282D01*
X242423Y307336D01*
X242435Y307373D01*
X242434Y307413D01*
X242442Y307467D01*
X242442Y309772D01*
X243332Y311920D01*
X244975Y313563D01*
X247123Y314453D01*
X249447Y314453D01*
X249947Y314246D01*
X250023Y314229D01*
X250096Y314204D01*
X250132Y314205D01*
X250166Y314198D01*
X250243Y314209D01*
X250321Y314211D01*
X250353Y314224D01*
X250389Y314229D01*
X250457Y314266D01*
X250528Y314295D01*
X250555Y314319D01*
X250586Y314336D01*
X250637Y314394D01*
X250694Y314447D01*
X250710Y314478D01*
X250734Y314505D01*
X250761Y314577D01*
X250797Y314646D01*
X250803Y314686D01*
X250813Y314715D01*
X250814Y314761D01*
X250824Y314832D01*
X250824Y319179D01*
X250815Y319232D01*
X250815Y319286D01*
X250795Y319342D01*
X250785Y319400D01*
X250757Y319446D01*
X250739Y319497D01*
X250700Y319542D01*
X250670Y319593D01*
X250628Y319627D01*
X250593Y319668D01*
X250532Y319705D01*
X250496Y319734D01*
X250467Y319744D01*
X250433Y319765D01*
X249429Y320180D01*
X247790Y321819D01*
X246903Y323961D01*
X246903Y326279D01*
X247790Y328421D01*
X249429Y330060D01*
X251571Y330947D01*
X251613Y330954D01*
X251655Y330952D01*
X251722Y330974D01*
X251792Y330986D01*
X251828Y331008D01*
X251869Y331021D01*
X251942Y331075D01*
X251985Y331101D01*
X251998Y331117D01*
X252019Y331133D01*
X260163Y339277D01*
X260188Y339311D01*
X260219Y339340D01*
X260251Y339403D01*
X260292Y339461D01*
X260302Y339502D01*
X260322Y339540D01*
X260335Y339629D01*
X260348Y339678D01*
X260345Y339699D01*
X260349Y339725D01*
X260349Y374403D01*
X260337Y374469D01*
X260336Y374528D01*
X260328Y374548D01*
X260324Y374579D01*
X260314Y374600D01*
X260310Y374624D01*
X260269Y374693D01*
X260251Y374736D01*
X260241Y374747D01*
X260225Y374780D01*
X260208Y374796D01*
X260195Y374817D01*
X260126Y374873D01*
X260123Y374876D01*
X260100Y374901D01*
X260092Y374906D01*
X260062Y374934D01*
X260040Y374943D01*
X260021Y374958D01*
X259937Y374987D01*
X259918Y374995D01*
X259900Y375004D01*
X259895Y375005D01*
X259855Y375021D01*
X259831Y375022D01*
X259809Y375030D01*
X259738Y375028D01*
X259715Y375031D01*
X259709Y375031D01*
X259694Y375029D01*
X259631Y375031D01*
X259608Y375024D01*
X259584Y375023D01*
X259521Y374998D01*
X259489Y374992D01*
X259466Y374979D01*
X259417Y374963D01*
X259396Y374947D01*
X259377Y374939D01*
X259339Y374905D01*
X259329Y374898D01*
X259295Y374878D01*
X259285Y374865D01*
X259267Y374851D01*
X259206Y374790D01*
X257064Y373903D01*
X254746Y373903D01*
X252604Y374790D01*
X250965Y376429D01*
X250078Y378571D01*
X250078Y380889D01*
X250965Y383031D01*
X252604Y384670D01*
X254746Y385557D01*
X257064Y385557D01*
X259206Y384670D01*
X259267Y384609D01*
X259340Y384558D01*
X259409Y384502D01*
X259431Y384494D01*
X259451Y384481D01*
X259537Y384458D01*
X259621Y384430D01*
X259645Y384431D01*
X259668Y384425D01*
X259757Y384434D01*
X259846Y384437D01*
X259868Y384445D01*
X259891Y384448D01*
X259971Y384487D01*
X260053Y384521D01*
X260071Y384537D01*
X260092Y384547D01*
X260153Y384612D01*
X260219Y384672D01*
X260230Y384693D01*
X260246Y384711D01*
X260281Y384793D01*
X260322Y384872D01*
X260325Y384898D01*
X260334Y384917D01*
X260336Y384968D01*
X260349Y385057D01*
X260349Y396240D01*
X260342Y396282D01*
X260344Y396324D01*
X260322Y396391D01*
X260310Y396461D01*
X260288Y396497D01*
X260275Y396538D01*
X260221Y396611D01*
X260195Y396654D01*
X260179Y396667D01*
X260163Y396688D01*
X254200Y402652D01*
X254117Y402709D01*
X254037Y402770D01*
X254025Y402774D01*
X254015Y402780D01*
X253918Y402805D01*
X253822Y402834D01*
X253810Y402833D01*
X253798Y402836D01*
X253699Y402826D01*
X253598Y402819D01*
X253587Y402814D01*
X253575Y402813D01*
X253485Y402769D01*
X253393Y402727D01*
X253385Y402719D01*
X253374Y402714D01*
X253305Y402640D01*
X253233Y402570D01*
X253228Y402559D01*
X253220Y402550D01*
X253181Y402458D01*
X253138Y402367D01*
X253137Y402355D01*
X253133Y402344D01*
X253128Y402243D01*
X253120Y402143D01*
X253123Y402130D01*
X253123Y402120D01*
X253137Y402076D01*
X253165Y401961D01*
X253477Y401209D01*
X253477Y399486D01*
X253486Y399433D01*
X253486Y399379D01*
X253506Y399323D01*
X253516Y399265D01*
X253544Y399219D01*
X253562Y399168D01*
X253601Y399123D01*
X253631Y399072D01*
X253673Y399038D01*
X253708Y398997D01*
X253769Y398960D01*
X253805Y398931D01*
X253834Y398921D01*
X253868Y398900D01*
X256031Y398005D01*
X257670Y396366D01*
X258557Y394224D01*
X258557Y391906D01*
X257670Y389764D01*
X256031Y388125D01*
X253889Y387238D01*
X251571Y387238D01*
X249429Y388125D01*
X247790Y389764D01*
X246903Y391906D01*
X246903Y393629D01*
X246894Y393682D01*
X246894Y393736D01*
X246874Y393792D01*
X246864Y393850D01*
X246836Y393896D01*
X246818Y393947D01*
X246779Y393992D01*
X246749Y394043D01*
X246707Y394077D01*
X246672Y394118D01*
X246611Y394155D01*
X246575Y394184D01*
X246546Y394194D01*
X246512Y394215D01*
X244349Y395110D01*
X242710Y396749D01*
X241823Y398891D01*
X241823Y399870D01*
X241814Y399923D01*
X241814Y399977D01*
X241794Y400033D01*
X241784Y400091D01*
X241756Y400137D01*
X241738Y400188D01*
X241699Y400233D01*
X241669Y400284D01*
X241627Y400318D01*
X241592Y400359D01*
X241531Y400396D01*
X241495Y400425D01*
X241466Y400435D01*
X241432Y400456D01*
X240539Y400825D01*
X238900Y402464D01*
X238013Y404606D01*
X238013Y406924D01*
X238900Y409066D01*
X240539Y410705D01*
X242681Y411592D01*
X243729Y411592D01*
X243817Y411608D01*
X243905Y411617D01*
X243926Y411627D01*
X243950Y411631D01*
X244027Y411677D01*
X244106Y411716D01*
X244123Y411733D01*
X244143Y411746D01*
X244199Y411815D01*
X244260Y411879D01*
X244269Y411901D01*
X244284Y411920D01*
X244313Y412004D01*
X244348Y412086D01*
X244349Y412110D01*
X244356Y412132D01*
X244354Y412221D01*
X244358Y412310D01*
X244350Y412333D01*
X244350Y412357D01*
X244316Y412439D01*
X244289Y412524D01*
X244273Y412545D01*
X244265Y412564D01*
X244231Y412602D01*
X244177Y412674D01*
X216534Y440318D01*
X216534Y459741D01*
X295028Y459741D01*
X295116Y459757D01*
X295204Y459766D01*
X295225Y459776D01*
X295249Y459780D01*
X295325Y459826D01*
X295405Y459865D01*
X295421Y459882D01*
X295442Y459895D01*
X295498Y459964D01*
X295559Y460028D01*
X295568Y460050D01*
X295583Y460069D01*
X295612Y460153D01*
X295646Y460235D01*
X295647Y460259D01*
X295655Y460281D01*
X295652Y460370D01*
X295656Y460459D01*
X295649Y460482D01*
X295648Y460506D01*
X295615Y460588D01*
X295588Y460673D01*
X295572Y460694D01*
X295564Y460713D01*
X295530Y460751D01*
X295476Y460824D01*
X294780Y461519D01*
X293893Y463661D01*
X293893Y465979D01*
X294780Y468121D01*
X296419Y469760D01*
X297947Y470392D01*
X297992Y470422D01*
X298042Y470442D01*
X298086Y470482D01*
X298136Y470513D01*
X298168Y470557D01*
X298208Y470593D01*
X298235Y470646D01*
X298270Y470693D01*
X298286Y470745D01*
X298311Y470793D01*
X298321Y470863D01*
X298334Y470908D01*
X298332Y470938D01*
X298338Y470978D01*
X298338Y471059D01*
X299225Y473201D01*
X300864Y474840D01*
X303006Y475727D01*
X305324Y475727D01*
X307466Y474840D01*
X309105Y473201D01*
X309992Y471059D01*
X309992Y468741D01*
X309105Y466599D01*
X308409Y465903D01*
X308358Y465830D01*
X308302Y465761D01*
X308294Y465739D01*
X308281Y465719D01*
X308258Y465633D01*
X308230Y465549D01*
X308231Y465525D01*
X308225Y465502D01*
X308234Y465413D01*
X308237Y465324D01*
X308245Y465302D01*
X308248Y465279D01*
X308287Y465199D01*
X308321Y465117D01*
X308337Y465099D01*
X308347Y465078D01*
X308412Y465017D01*
X308472Y464951D01*
X308493Y464940D01*
X308511Y464924D01*
X308593Y464889D01*
X308672Y464848D01*
X308698Y464845D01*
X308717Y464836D01*
X308768Y464834D01*
X308857Y464821D01*
X408279Y464821D01*
X408320Y464828D01*
X408363Y464826D01*
X408430Y464848D01*
X408499Y464860D01*
X408536Y464882D01*
X408576Y464895D01*
X408649Y464949D01*
X408693Y464975D01*
X408706Y464991D01*
X408727Y465007D01*
X413572Y469851D01*
X416519Y472799D01*
X418073Y473442D01*
X418118Y473472D01*
X418168Y473492D01*
X418212Y473532D01*
X418262Y473563D01*
X418294Y473607D01*
X418334Y473643D01*
X418361Y473696D01*
X418396Y473743D01*
X418412Y473795D01*
X418437Y473843D01*
X418447Y473913D01*
X418460Y473958D01*
X418458Y473988D01*
X418464Y474028D01*
X418464Y481330D01*
X418457Y481372D01*
X418459Y481414D01*
X418437Y481481D01*
X418425Y481551D01*
X418403Y481587D01*
X418390Y481628D01*
X418336Y481701D01*
X418310Y481744D01*
X418294Y481757D01*
X418278Y481778D01*
X406277Y493780D01*
X406242Y493804D01*
X406213Y493836D01*
X406151Y493868D01*
X406093Y493908D01*
X406052Y493919D01*
X406014Y493938D01*
X405924Y493951D01*
X405875Y493964D01*
X405855Y493962D01*
X405828Y493966D01*
X378976Y493966D01*
X378899Y493952D01*
X378822Y493947D01*
X378790Y493932D01*
X378755Y493926D01*
X378688Y493887D01*
X378617Y493855D01*
X378592Y493830D01*
X378561Y493812D01*
X378513Y493752D01*
X378458Y493698D01*
X378442Y493665D01*
X378420Y493638D01*
X378395Y493564D01*
X378363Y493494D01*
X378360Y493459D01*
X378348Y493425D01*
X378351Y493348D01*
X378344Y493271D01*
X378354Y493232D01*
X378355Y493201D01*
X378372Y493158D01*
X378390Y493089D01*
X378572Y492649D01*
X378572Y490331D01*
X377837Y488558D01*
X377828Y488516D01*
X377810Y488478D01*
X377804Y488408D01*
X377789Y488339D01*
X377795Y488296D01*
X377792Y488254D01*
X377814Y488166D01*
X377821Y488116D01*
X377831Y488098D01*
X377837Y488072D01*
X378572Y486299D01*
X378572Y483981D01*
X377685Y481839D01*
X376046Y480200D01*
X373904Y479313D01*
X371586Y479313D01*
X369495Y480179D01*
X369454Y480188D01*
X369415Y480206D01*
X369345Y480212D01*
X369276Y480227D01*
X369234Y480221D01*
X369192Y480225D01*
X369104Y480203D01*
X369054Y480196D01*
X369035Y480186D01*
X369010Y480179D01*
X366919Y479313D01*
X364601Y479313D01*
X362459Y480200D01*
X360820Y481839D01*
X359933Y483981D01*
X359933Y486299D01*
X360668Y488072D01*
X360677Y488114D01*
X360695Y488152D01*
X360701Y488223D01*
X360716Y488292D01*
X360710Y488334D01*
X360713Y488376D01*
X360691Y488464D01*
X360684Y488514D01*
X360674Y488532D01*
X360668Y488558D01*
X359933Y490331D01*
X359933Y492649D01*
X360115Y493089D01*
X360132Y493165D01*
X360157Y493238D01*
X360156Y493273D01*
X360163Y493308D01*
X360152Y493385D01*
X360150Y493462D01*
X360137Y493495D01*
X360132Y493530D01*
X360095Y493598D01*
X360066Y493670D01*
X360042Y493696D01*
X360025Y493727D01*
X359967Y493778D01*
X359914Y493836D01*
X359883Y493852D01*
X359856Y493875D01*
X359784Y493903D01*
X359715Y493938D01*
X359675Y493944D01*
X359646Y493955D01*
X359600Y493955D01*
X359529Y493966D01*
X285656Y493966D01*
X285580Y493952D01*
X285502Y493947D01*
X285470Y493932D01*
X285435Y493926D01*
X285368Y493887D01*
X285298Y493855D01*
X285272Y493830D01*
X285242Y493812D01*
X285193Y493752D01*
X285138Y493698D01*
X285123Y493665D01*
X285100Y493638D01*
X285076Y493564D01*
X285043Y493494D01*
X285040Y493459D01*
X285029Y493425D01*
X285031Y493348D01*
X285025Y493271D01*
X285034Y493232D01*
X285035Y493201D01*
X285053Y493158D01*
X285070Y493089D01*
X286171Y490431D01*
X286171Y486429D01*
X284639Y482731D01*
X281809Y479901D01*
X278111Y478369D01*
X274109Y478369D01*
X270411Y479901D01*
X267581Y482731D01*
X266790Y484640D01*
X266748Y484705D01*
X266714Y484774D01*
X266688Y484799D01*
X266669Y484829D01*
X266607Y484875D01*
X266551Y484928D01*
X266518Y484942D01*
X266490Y484963D01*
X266416Y484986D01*
X266344Y485016D01*
X266309Y485017D01*
X266275Y485027D01*
X266197Y485022D01*
X266120Y485026D01*
X266086Y485015D01*
X266051Y485013D01*
X265980Y484981D01*
X265906Y484957D01*
X265874Y484933D01*
X265846Y484921D01*
X265813Y484888D01*
X265756Y484846D01*
X265534Y484624D01*
X265476Y484598D01*
X265443Y484565D01*
X265403Y484539D01*
X265363Y484487D01*
X265317Y484440D01*
X265297Y484398D01*
X265268Y484360D01*
X265249Y484297D01*
X265222Y484237D01*
X265218Y484190D01*
X265204Y484145D01*
X265209Y484079D01*
X265203Y484014D01*
X265217Y483960D01*
X265219Y483921D01*
X265235Y483885D01*
X265249Y483832D01*
X265542Y483124D01*
X265542Y480806D01*
X264655Y478664D01*
X263016Y477025D01*
X260874Y476138D01*
X258556Y476138D01*
X256414Y477025D01*
X254775Y478664D01*
X254684Y478884D01*
X254643Y478949D01*
X254608Y479019D01*
X254583Y479043D01*
X254563Y479073D01*
X254501Y479119D01*
X254445Y479172D01*
X254412Y479186D01*
X254384Y479208D01*
X254310Y479230D01*
X254238Y479260D01*
X254203Y479261D01*
X254169Y479272D01*
X254092Y479266D01*
X254014Y479270D01*
X253980Y479259D01*
X253945Y479257D01*
X253874Y479225D01*
X253801Y479201D01*
X253768Y479177D01*
X253740Y479165D01*
X253707Y479132D01*
X253650Y479090D01*
X252221Y477660D01*
X250079Y476773D01*
X247761Y476773D01*
X246189Y477425D01*
X246136Y477436D01*
X246086Y477457D01*
X246027Y477460D01*
X245969Y477472D01*
X245916Y477465D01*
X245862Y477467D01*
X245806Y477449D01*
X245747Y477441D01*
X245700Y477415D01*
X245648Y477399D01*
X245591Y477356D01*
X245550Y477334D01*
X245530Y477311D01*
X245497Y477287D01*
X245236Y477025D01*
X243094Y476138D01*
X240776Y476138D01*
X238634Y477025D01*
X236995Y478664D01*
X236108Y480806D01*
X236108Y483124D01*
X236760Y484696D01*
X236771Y484749D01*
X236792Y484799D01*
X236795Y484858D01*
X236807Y484916D01*
X236800Y484969D01*
X236802Y485023D01*
X236784Y485079D01*
X236776Y485138D01*
X236750Y485185D01*
X236734Y485237D01*
X236691Y485294D01*
X236669Y485335D01*
X236646Y485355D01*
X236622Y485388D01*
X235725Y486284D01*
X234838Y488426D01*
X234838Y490744D01*
X235726Y492888D01*
X235774Y492956D01*
X235830Y493025D01*
X235837Y493048D01*
X235851Y493067D01*
X235873Y493154D01*
X235902Y493238D01*
X235901Y493261D01*
X235907Y493284D01*
X235898Y493373D01*
X235895Y493462D01*
X235886Y493484D01*
X235884Y493508D01*
X235844Y493588D01*
X235811Y493670D01*
X235795Y493687D01*
X235784Y493709D01*
X235719Y493770D01*
X235659Y493836D01*
X235638Y493846D01*
X235621Y493863D01*
X235539Y493897D01*
X235460Y493938D01*
X235434Y493942D01*
X235414Y493950D01*
X235364Y493952D01*
X235274Y493966D01*
X205656Y493966D01*
X205580Y493952D01*
X205502Y493947D01*
X205470Y493932D01*
X205435Y493926D01*
X205368Y493887D01*
X205298Y493855D01*
X205272Y493830D01*
X205242Y493812D01*
X205193Y493752D01*
X205138Y493698D01*
X205123Y493665D01*
X205100Y493638D01*
X205076Y493564D01*
X205043Y493494D01*
X205040Y493459D01*
X205029Y493425D01*
X205031Y493348D01*
X205025Y493271D01*
X205034Y493232D01*
X205035Y493201D01*
X205053Y493158D01*
X205070Y493089D01*
X206171Y490431D01*
X206171Y486429D01*
X204639Y482731D01*
X201809Y479901D01*
X198111Y478369D01*
X194109Y478369D01*
X190411Y479901D01*
X188156Y482156D01*
X188093Y482200D01*
X188034Y482251D01*
X188001Y482264D01*
X187972Y482284D01*
X187897Y482303D01*
X187824Y482331D01*
X187789Y482331D01*
X187755Y482340D01*
X187678Y482332D01*
X187600Y482333D01*
X187567Y482320D01*
X187531Y482317D01*
X187462Y482283D01*
X187389Y482256D01*
X187362Y482233D01*
X187330Y482217D01*
X187277Y482161D01*
X187218Y482111D01*
X187197Y482076D01*
X187176Y482054D01*
X187158Y482011D01*
X187122Y481950D01*
X186550Y480569D01*
X184911Y478930D01*
X182769Y478043D01*
X180451Y478043D01*
X178309Y478930D01*
X176670Y480569D01*
X175783Y482711D01*
X175783Y485029D01*
X176670Y487171D01*
X178309Y488810D01*
X180451Y489697D01*
X182769Y489697D01*
X184911Y488810D01*
X184966Y488754D01*
X185040Y488703D01*
X185109Y488647D01*
X185131Y488639D01*
X185151Y488626D01*
X185237Y488603D01*
X185321Y488575D01*
X185345Y488576D01*
X185368Y488570D01*
X185457Y488579D01*
X185546Y488582D01*
X185567Y488590D01*
X185591Y488593D01*
X185671Y488632D01*
X185753Y488666D01*
X185771Y488682D01*
X185792Y488692D01*
X185853Y488757D01*
X185919Y488817D01*
X185930Y488838D01*
X185946Y488856D01*
X185981Y488937D01*
X186022Y489017D01*
X186025Y489043D01*
X186034Y489062D01*
X186036Y489112D01*
X186049Y489202D01*
X186049Y490431D01*
X187150Y493089D01*
X187167Y493164D01*
X187191Y493238D01*
X187190Y493273D01*
X187198Y493308D01*
X187187Y493385D01*
X187185Y493462D01*
X187171Y493495D01*
X187166Y493530D01*
X187130Y493598D01*
X187101Y493670D01*
X187077Y493696D01*
X187060Y493727D01*
X187001Y493778D01*
X186949Y493836D01*
X186917Y493852D01*
X186891Y493875D01*
X186819Y493903D01*
X186750Y493938D01*
X186710Y493944D01*
X186681Y493955D01*
X186635Y493955D01*
X186564Y493966D01*
X133287Y493966D01*
X133245Y493958D01*
X133202Y493960D01*
X133135Y493939D01*
X133066Y493926D01*
X133029Y493905D01*
X132989Y493892D01*
X132916Y493838D01*
X132872Y493812D01*
X132859Y493796D01*
X132838Y493780D01*
X131632Y492573D01*
X131607Y492539D01*
X131576Y492510D01*
X131544Y492447D01*
X131503Y492389D01*
X131493Y492348D01*
X131473Y492310D01*
X131460Y492221D01*
X131448Y492172D01*
X131450Y492151D01*
X131446Y492125D01*
X131446Y474980D01*
X131453Y474938D01*
X131451Y474896D01*
X131473Y474829D01*
X131485Y474759D01*
X131507Y474723D01*
X131520Y474682D01*
X131574Y474609D01*
X131600Y474566D01*
X131616Y474553D01*
X131632Y474532D01*
X147507Y458657D01*
X147541Y458632D01*
X147570Y458601D01*
X147633Y458569D01*
X147691Y458528D01*
X147732Y458518D01*
X147770Y458498D01*
X147859Y458485D01*
X147908Y458473D01*
X147929Y458475D01*
X147955Y458471D01*
X157852Y458471D01*
X167703Y448620D01*
X167757Y448583D01*
X167805Y448537D01*
X167848Y448519D01*
X167887Y448492D01*
X167951Y448476D01*
X168011Y448450D01*
X168059Y448448D01*
X168104Y448436D01*
X168170Y448443D01*
X168236Y448440D01*
X168281Y448454D01*
X168328Y448459D01*
X168386Y448488D01*
X168449Y448509D01*
X168493Y448541D01*
X168529Y448559D01*
X168556Y448587D01*
X168600Y448620D01*
X170054Y450075D01*
X172196Y450962D01*
X174514Y450962D01*
X176656Y450075D01*
X178295Y448436D01*
X179182Y446294D01*
X179182Y443976D01*
X178295Y441834D01*
X176964Y440504D01*
X176926Y440449D01*
X176881Y440402D01*
X176863Y440358D01*
X176836Y440319D01*
X176819Y440256D01*
X176794Y440195D01*
X176791Y440148D01*
X176780Y440102D01*
X176787Y440037D01*
X176784Y439971D01*
X176798Y439926D01*
X176803Y439879D01*
X176832Y439820D01*
X176852Y439757D01*
X176885Y439713D01*
X176902Y439678D01*
X176931Y439651D01*
X176964Y439607D01*
X178295Y438276D01*
X178421Y437970D01*
X178438Y437944D01*
X178447Y437915D01*
X178518Y437820D01*
X178542Y437781D01*
X178551Y437775D01*
X178559Y437764D01*
X182246Y434077D01*
X182246Y426196D01*
X182257Y426131D01*
X182259Y426065D01*
X182277Y426022D01*
X182285Y425975D01*
X182319Y425918D01*
X182344Y425858D01*
X182375Y425823D01*
X182400Y425782D01*
X182451Y425740D01*
X182495Y425692D01*
X182537Y425670D01*
X182574Y425641D01*
X182636Y425620D01*
X182695Y425589D01*
X182749Y425581D01*
X182786Y425569D01*
X182826Y425570D01*
X182880Y425562D01*
X185309Y425562D01*
X187400Y424696D01*
X187441Y424687D01*
X187480Y424669D01*
X187550Y424663D01*
X187619Y424648D01*
X187661Y424654D01*
X187703Y424650D01*
X187791Y424672D01*
X187841Y424679D01*
X187860Y424689D01*
X187885Y424696D01*
X189976Y425562D01*
X192294Y425562D01*
X194436Y424675D01*
X196075Y423036D01*
X196962Y420894D01*
X196962Y418576D01*
X196075Y416434D01*
X195466Y415826D01*
X195422Y415763D01*
X195371Y415704D01*
X195358Y415671D01*
X195338Y415642D01*
X195319Y415567D01*
X195291Y415494D01*
X195291Y415459D01*
X195282Y415425D01*
X195290Y415348D01*
X195290Y415270D01*
X195302Y415237D01*
X195305Y415201D01*
X195340Y415132D01*
X195366Y415059D01*
X195389Y415032D01*
X195405Y415000D01*
X195461Y414947D01*
X195511Y414888D01*
X195546Y414867D01*
X195568Y414846D01*
X195611Y414828D01*
X195672Y414792D01*
X196341Y414515D01*
X197980Y412876D01*
X198867Y410734D01*
X198867Y410281D01*
X198876Y410228D01*
X198876Y410174D01*
X198896Y410118D01*
X198906Y410060D01*
X198934Y410014D01*
X198952Y409963D01*
X198991Y409918D01*
X199021Y409867D01*
X199063Y409833D01*
X199098Y409792D01*
X199159Y409755D01*
X199195Y409726D01*
X199224Y409716D01*
X199258Y409695D01*
X201421Y408800D01*
X203060Y407161D01*
X203947Y405019D01*
X203947Y402701D01*
X203060Y400559D01*
X201421Y398920D01*
X199279Y398033D01*
X196961Y398033D01*
X194819Y398920D01*
X193600Y400139D01*
X193518Y400197D01*
X193437Y400257D01*
X193426Y400261D01*
X193416Y400267D01*
X193319Y400292D01*
X193222Y400321D01*
X193210Y400320D01*
X193199Y400323D01*
X193099Y400313D01*
X192998Y400306D01*
X192988Y400301D01*
X192976Y400300D01*
X192886Y400256D01*
X192794Y400214D01*
X192785Y400206D01*
X192775Y400201D01*
X192706Y400128D01*
X192634Y400057D01*
X192629Y400046D01*
X192621Y400037D01*
X192581Y399945D01*
X192539Y399854D01*
X192538Y399842D01*
X192533Y399831D01*
X192529Y399730D01*
X192521Y399630D01*
X192524Y399617D01*
X192523Y399607D01*
X192537Y399563D01*
X192566Y399448D01*
X193152Y398034D01*
X193152Y395716D01*
X192265Y393574D01*
X190626Y391935D01*
X188484Y391048D01*
X186166Y391048D01*
X184024Y391935D01*
X183329Y392631D01*
X183300Y392651D01*
X183292Y392660D01*
X183273Y392670D01*
X183255Y392682D01*
X183186Y392738D01*
X183164Y392746D01*
X183144Y392759D01*
X183058Y392782D01*
X182974Y392810D01*
X182950Y392809D01*
X182927Y392815D01*
X182838Y392806D01*
X182749Y392803D01*
X182727Y392795D01*
X182704Y392792D01*
X182624Y392753D01*
X182542Y392719D01*
X182524Y392703D01*
X182503Y392693D01*
X182442Y392628D01*
X182376Y392568D01*
X182365Y392547D01*
X182349Y392529D01*
X182314Y392447D01*
X182273Y392368D01*
X182270Y392342D01*
X182261Y392323D01*
X182259Y392272D01*
X182258Y392266D01*
X182253Y392250D01*
X182253Y392233D01*
X182246Y392183D01*
X182246Y376179D01*
X154673Y347979D01*
X128270Y347979D01*
X128228Y347972D01*
X128186Y347974D01*
X128119Y347952D01*
X128049Y347940D01*
X128013Y347918D01*
X127972Y347905D01*
X127899Y347851D01*
X127856Y347825D01*
X127843Y347809D01*
X127822Y347793D01*
X109407Y329378D01*
X109382Y329344D01*
X109351Y329315D01*
X109319Y329252D01*
X109278Y329194D01*
X109268Y329153D01*
X109248Y329115D01*
X109235Y329026D01*
X109223Y328977D01*
X109225Y328956D01*
X109221Y328930D01*
X109221Y271392D01*
X109228Y271350D01*
X109226Y271308D01*
X109248Y271241D01*
X109260Y271171D01*
X109282Y271135D01*
X109295Y271094D01*
X109349Y271022D01*
X109375Y270978D01*
X109391Y270965D01*
X109407Y270944D01*
X110985Y269366D01*
X111872Y267224D01*
X111872Y264906D01*
X110985Y262764D01*
X109407Y261186D01*
X109382Y261151D01*
X109351Y261123D01*
X109319Y261060D01*
X109278Y261002D01*
X109268Y260961D01*
X109248Y260923D01*
X109235Y260834D01*
X109223Y260785D01*
X109225Y260764D01*
X109221Y260738D01*
X109221Y258692D01*
X109228Y258650D01*
X109226Y258608D01*
X109248Y258541D01*
X109260Y258471D01*
X109282Y258435D01*
X109295Y258394D01*
X109349Y258322D01*
X109375Y258278D01*
X109391Y258265D01*
X109407Y258244D01*
X110985Y256666D01*
X111872Y254524D01*
X111872Y252206D01*
X110985Y250064D01*
X109407Y248486D01*
X109382Y248451D01*
X109351Y248423D01*
X109319Y248360D01*
X109278Y248302D01*
X109268Y248261D01*
X109248Y248223D01*
X109235Y248134D01*
X109223Y248085D01*
X109225Y248064D01*
X109221Y248038D01*
X109221Y226806D01*
X109232Y226741D01*
X109234Y226675D01*
X109252Y226632D01*
X109260Y226585D01*
X109294Y226528D01*
X109319Y226468D01*
X109350Y226433D01*
X109375Y226392D01*
X109426Y226350D01*
X109470Y226302D01*
X109512Y226280D01*
X109549Y226251D01*
X109611Y226230D01*
X109670Y226199D01*
X109724Y226191D01*
X109761Y226179D01*
X109801Y226180D01*
X109855Y226172D01*
X110379Y226172D01*
X112521Y225285D01*
X114160Y223646D01*
X115047Y221504D01*
X115047Y219186D01*
X114160Y217044D01*
X112521Y215405D01*
X110379Y214518D01*
X109855Y214518D01*
X109790Y214507D01*
X109724Y214505D01*
X109681Y214487D01*
X109634Y214479D01*
X109577Y214445D01*
X109517Y214420D01*
X109482Y214389D01*
X109441Y214364D01*
X109400Y214313D01*
X109351Y214269D01*
X109329Y214227D01*
X109300Y214190D01*
X109279Y214128D01*
X109248Y214069D01*
X109240Y214015D01*
X109228Y213978D01*
X109229Y213938D01*
X109221Y213884D01*
X109221Y182508D01*
X101910Y175197D01*
X101873Y175143D01*
X101827Y175095D01*
X101809Y175052D01*
X101782Y175013D01*
X101766Y174949D01*
X101740Y174889D01*
X101738Y174841D01*
X101726Y174796D01*
X101733Y174730D01*
X101730Y174664D01*
X101744Y174619D01*
X101749Y174572D01*
X101778Y174514D01*
X101799Y174451D01*
X101831Y174407D01*
X101849Y174371D01*
X101877Y174344D01*
X101910Y174300D01*
X103365Y172846D01*
X104252Y170704D01*
X104252Y168386D01*
X104238Y168352D01*
X104224Y168287D01*
X104200Y168226D01*
X104200Y168179D01*
X104190Y168133D01*
X104199Y168068D01*
X104198Y168002D01*
X104215Y167957D01*
X104221Y167910D01*
X104253Y167853D01*
X104275Y167791D01*
X104306Y167755D01*
X104328Y167713D01*
X104378Y167670D01*
X104420Y167620D01*
X104467Y167591D01*
X104497Y167565D01*
X104534Y167551D01*
X104581Y167523D01*
X106171Y166865D01*
X107810Y165226D01*
X108697Y163084D01*
X108697Y160766D01*
X107810Y158624D01*
X106171Y156985D01*
X104029Y156098D01*
X101711Y156098D01*
X99569Y156985D01*
X99147Y157408D01*
X99084Y157452D01*
X99025Y157503D01*
X98992Y157516D01*
X98963Y157536D01*
X98888Y157555D01*
X98815Y157583D01*
X98780Y157583D01*
X98746Y157592D01*
X98669Y157584D01*
X98591Y157584D01*
X98558Y157572D01*
X98522Y157569D01*
X98453Y157534D01*
X98380Y157508D01*
X98353Y157485D01*
X98321Y157469D01*
X98268Y157413D01*
X98209Y157363D01*
X98188Y157328D01*
X98167Y157306D01*
X98149Y157263D01*
X98113Y157202D01*
X97650Y156084D01*
X97589Y156024D01*
X97551Y155969D01*
X97506Y155922D01*
X97496Y155897D01*
X97488Y155887D01*
X97482Y155870D01*
X97461Y155839D01*
X97444Y155776D01*
X97419Y155715D01*
X97417Y155678D01*
X97416Y155675D01*
X97416Y155666D01*
X97405Y155622D01*
X97412Y155557D01*
X97409Y155491D01*
X97423Y155446D01*
X97428Y155399D01*
X97457Y155340D01*
X97477Y155277D01*
X97510Y155233D01*
X97527Y155198D01*
X97556Y155171D01*
X97589Y155127D01*
X98920Y153796D01*
X99807Y151654D01*
X99807Y149336D01*
X98920Y147194D01*
X97281Y145555D01*
X95139Y144668D01*
X93980Y144668D01*
X93915Y144657D01*
X93849Y144655D01*
X93806Y144637D01*
X93759Y144629D01*
X93702Y144595D01*
X93642Y144570D01*
X93607Y144539D01*
X93566Y144514D01*
X93525Y144463D01*
X93476Y144419D01*
X93454Y144377D01*
X93425Y144340D01*
X93404Y144278D01*
X93373Y144219D01*
X93365Y144165D01*
X93353Y144128D01*
X93354Y144088D01*
X93346Y144034D01*
X93346Y129803D01*
X46092Y82549D01*
X28575Y82549D01*
X28533Y82542D01*
X28491Y82544D01*
X28424Y82522D01*
X28354Y82510D01*
X28318Y82488D01*
X28277Y82475D01*
X28204Y82421D01*
X28161Y82395D01*
X28148Y82379D01*
X28127Y82363D01*
X26222Y80458D01*
X26197Y80424D01*
X26166Y80395D01*
X26134Y80332D01*
X26093Y80274D01*
X26083Y80233D01*
X26063Y80195D01*
X26050Y80106D01*
X26037Y80057D01*
X26040Y80036D01*
X26036Y80010D01*
X26036Y57275D01*
X26047Y57210D01*
X26049Y57144D01*
X26067Y57101D01*
X26075Y57054D01*
X26109Y56997D01*
X26134Y56937D01*
X26165Y56902D01*
X26190Y56861D01*
X26241Y56819D01*
X26285Y56771D01*
X26327Y56749D01*
X26364Y56720D01*
X26426Y56699D01*
X26485Y56668D01*
X26539Y56660D01*
X26576Y56648D01*
X26616Y56649D01*
X26670Y56641D01*
X33647Y56641D01*
X37849Y54900D01*
X38463Y54287D01*
X38507Y54256D01*
X38545Y54217D01*
X38598Y54192D01*
X38647Y54159D01*
X38699Y54145D01*
X38748Y54122D01*
X38807Y54117D01*
X38864Y54103D01*
X38918Y54108D01*
G37*
%LPC*%
G36*
X215373Y270382D02*
X215373Y270382D01*
X213225Y271272D01*
X211582Y272915D01*
X210692Y275063D01*
X210692Y277387D01*
X211265Y278770D01*
X211282Y278846D01*
X211306Y278919D01*
X211305Y278955D01*
X211313Y278990D01*
X211302Y279066D01*
X211300Y279144D01*
X211287Y279176D01*
X211282Y279212D01*
X211245Y279280D01*
X211216Y279351D01*
X211192Y279378D01*
X211175Y279409D01*
X211116Y279460D01*
X211064Y279517D01*
X211033Y279533D01*
X211006Y279557D01*
X210934Y279584D01*
X210865Y279620D01*
X210825Y279626D01*
X210796Y279636D01*
X210750Y279637D01*
X210679Y279647D01*
X208648Y279647D01*
X206500Y280537D01*
X204857Y282180D01*
X203967Y284328D01*
X203967Y286652D01*
X204857Y288800D01*
X206500Y290443D01*
X208648Y291333D01*
X210972Y291333D01*
X212282Y290790D01*
X212369Y290771D01*
X212454Y290746D01*
X212478Y290747D01*
X212501Y290742D01*
X212589Y290755D01*
X212678Y290761D01*
X212700Y290771D01*
X212723Y290774D01*
X212802Y290816D01*
X212883Y290853D01*
X212900Y290869D01*
X212921Y290881D01*
X212979Y290948D01*
X213043Y291010D01*
X213053Y291032D01*
X213068Y291050D01*
X213100Y291133D01*
X213138Y291213D01*
X213140Y291237D01*
X213148Y291259D01*
X213149Y291348D01*
X213156Y291437D01*
X213150Y291463D01*
X213150Y291484D01*
X213132Y291531D01*
X213111Y291619D01*
X212704Y292600D01*
X212704Y294925D01*
X213594Y297072D01*
X215237Y298716D01*
X217385Y299605D01*
X219709Y299605D01*
X221857Y298716D01*
X223500Y297072D01*
X224390Y294925D01*
X224390Y292600D01*
X223555Y290586D01*
X223544Y290533D01*
X223522Y290483D01*
X223520Y290424D01*
X223507Y290366D01*
X223515Y290313D01*
X223512Y290259D01*
X223530Y290203D01*
X223539Y290144D01*
X223565Y290097D01*
X223581Y290045D01*
X223623Y289988D01*
X223646Y289947D01*
X223669Y289927D01*
X223693Y289894D01*
X225405Y288182D01*
X226295Y286035D01*
X226295Y283972D01*
X226306Y283907D01*
X226308Y283841D01*
X226326Y283798D01*
X226334Y283751D01*
X226368Y283694D01*
X226392Y283634D01*
X226424Y283599D01*
X226448Y283558D01*
X226499Y283516D01*
X226544Y283468D01*
X226586Y283446D01*
X226623Y283417D01*
X226685Y283396D01*
X226743Y283365D01*
X226798Y283357D01*
X226835Y283345D01*
X226874Y283346D01*
X226929Y283338D01*
X229127Y283338D01*
X231275Y282448D01*
X232918Y280805D01*
X233808Y278657D01*
X233808Y276333D01*
X232918Y274185D01*
X231275Y272542D01*
X229127Y271652D01*
X226803Y271652D01*
X224655Y272542D01*
X222978Y274219D01*
X222914Y274264D01*
X222856Y274315D01*
X222823Y274327D01*
X222793Y274348D01*
X222718Y274367D01*
X222646Y274394D01*
X222611Y274395D01*
X222576Y274404D01*
X222499Y274396D01*
X222422Y274396D01*
X222388Y274384D01*
X222353Y274380D01*
X222284Y274346D01*
X222211Y274320D01*
X222184Y274297D01*
X222152Y274281D01*
X222099Y274224D01*
X222040Y274174D01*
X222019Y274140D01*
X221998Y274118D01*
X221980Y274075D01*
X221943Y274014D01*
X221488Y272915D01*
X219845Y271272D01*
X217697Y270382D01*
X215373Y270382D01*
G37*
%LPD*%
%LPC*%
G36*
X187436Y307228D02*
X187436Y307228D01*
X185294Y308115D01*
X183655Y309754D01*
X182768Y311896D01*
X182768Y314214D01*
X183655Y316356D01*
X184471Y317172D01*
X184496Y317207D01*
X184527Y317235D01*
X184559Y317298D01*
X184600Y317356D01*
X184610Y317397D01*
X184630Y317435D01*
X184643Y317524D01*
X184656Y317573D01*
X184653Y317594D01*
X184657Y317620D01*
X184657Y319932D01*
X185547Y322080D01*
X186758Y323291D01*
X186809Y323364D01*
X186865Y323433D01*
X186872Y323455D01*
X186886Y323475D01*
X186908Y323561D01*
X186936Y323645D01*
X186936Y323669D01*
X186942Y323692D01*
X186932Y323781D01*
X186930Y323870D01*
X186921Y323892D01*
X186918Y323915D01*
X186879Y323995D01*
X186846Y324077D01*
X186830Y324095D01*
X186819Y324116D01*
X186754Y324177D01*
X186694Y324243D01*
X186673Y324254D01*
X186656Y324270D01*
X186574Y324305D01*
X186495Y324346D01*
X186468Y324349D01*
X186449Y324358D01*
X186399Y324360D01*
X186309Y324373D01*
X184261Y324373D01*
X182119Y325260D01*
X180480Y326899D01*
X179593Y329041D01*
X179593Y330563D01*
X179580Y330639D01*
X179574Y330716D01*
X179560Y330749D01*
X179554Y330784D01*
X179514Y330850D01*
X179482Y330921D01*
X179458Y330946D01*
X179439Y330977D01*
X179379Y331026D01*
X179325Y331081D01*
X179293Y331096D01*
X179265Y331118D01*
X179192Y331143D01*
X179122Y331176D01*
X179086Y331179D01*
X179053Y331190D01*
X178975Y331188D01*
X178898Y331194D01*
X178859Y331184D01*
X178828Y331183D01*
X178785Y331166D01*
X178716Y331149D01*
X177689Y330723D01*
X175371Y330723D01*
X173229Y331610D01*
X171590Y333249D01*
X170703Y335391D01*
X170703Y337709D01*
X171590Y339851D01*
X173229Y341490D01*
X175371Y342377D01*
X177689Y342377D01*
X179831Y341490D01*
X181470Y339851D01*
X182357Y337709D01*
X182357Y336187D01*
X182370Y336111D01*
X182376Y336034D01*
X182390Y336001D01*
X182396Y335966D01*
X182436Y335900D01*
X182468Y335829D01*
X182492Y335804D01*
X182511Y335773D01*
X182571Y335724D01*
X182625Y335669D01*
X182657Y335654D01*
X182685Y335632D01*
X182758Y335607D01*
X182828Y335574D01*
X182864Y335571D01*
X182897Y335560D01*
X182975Y335562D01*
X183052Y335556D01*
X183091Y335566D01*
X183122Y335567D01*
X183165Y335584D01*
X183234Y335601D01*
X184261Y336027D01*
X186579Y336027D01*
X188721Y335140D01*
X190360Y333501D01*
X190794Y332453D01*
X190829Y332398D01*
X190856Y332337D01*
X190889Y332304D01*
X190915Y332264D01*
X190967Y332224D01*
X191014Y332178D01*
X191056Y332158D01*
X191094Y332129D01*
X191157Y332110D01*
X191217Y332083D01*
X191264Y332079D01*
X191309Y332065D01*
X191375Y332070D01*
X191440Y332064D01*
X191494Y332078D01*
X191533Y332080D01*
X191569Y332096D01*
X191622Y332110D01*
X191881Y332217D01*
X194199Y332217D01*
X196341Y331330D01*
X197980Y329691D01*
X198867Y327549D01*
X198867Y325231D01*
X197980Y323089D01*
X196318Y321428D01*
X196276Y321409D01*
X196243Y321376D01*
X196203Y321350D01*
X196163Y321298D01*
X196116Y321252D01*
X196096Y321209D01*
X196068Y321171D01*
X196049Y321108D01*
X196021Y321048D01*
X196018Y321001D01*
X196004Y320956D01*
X196008Y320890D01*
X196003Y320825D01*
X196016Y320771D01*
X196019Y320732D01*
X196035Y320696D01*
X196048Y320643D01*
X196343Y319932D01*
X196343Y317608D01*
X195453Y315460D01*
X194608Y314615D01*
X194583Y314580D01*
X194552Y314551D01*
X194520Y314488D01*
X194479Y314430D01*
X194469Y314389D01*
X194449Y314352D01*
X194436Y314262D01*
X194433Y314249D01*
X194429Y314237D01*
X194429Y314234D01*
X194423Y314213D01*
X194426Y314192D01*
X194422Y314166D01*
X194422Y311896D01*
X193535Y309754D01*
X191896Y308115D01*
X189754Y307228D01*
X187436Y307228D01*
G37*
%LPD*%
%LPC*%
G36*
X185528Y240643D02*
X185528Y240643D01*
X183380Y241533D01*
X183051Y241862D01*
X183006Y241893D01*
X182968Y241932D01*
X182915Y241957D01*
X182866Y241991D01*
X182814Y242004D01*
X182765Y242027D01*
X182706Y242032D01*
X182649Y242046D01*
X182595Y242041D01*
X182541Y242045D01*
X182472Y242028D01*
X182426Y242023D01*
X182398Y242010D01*
X182359Y242000D01*
X181933Y241823D01*
X179615Y241823D01*
X177473Y242710D01*
X177332Y242852D01*
X177287Y242883D01*
X177249Y242921D01*
X177196Y242946D01*
X177148Y242980D01*
X177095Y242993D01*
X177046Y243016D01*
X176987Y243021D01*
X176930Y243036D01*
X176876Y243030D01*
X176822Y243035D01*
X176753Y243017D01*
X176707Y243013D01*
X176680Y242999D01*
X176641Y242989D01*
X176636Y242987D01*
X174318Y242987D01*
X173071Y243504D01*
X173030Y243513D01*
X172991Y243531D01*
X172921Y243537D01*
X172852Y243552D01*
X172810Y243546D01*
X172768Y243549D01*
X172680Y243527D01*
X172630Y243520D01*
X172611Y243510D01*
X172586Y243504D01*
X171339Y242987D01*
X169021Y242987D01*
X166879Y243874D01*
X165240Y245513D01*
X164353Y247655D01*
X164353Y248061D01*
X164344Y248114D01*
X164344Y248168D01*
X164324Y248224D01*
X164314Y248282D01*
X164286Y248328D01*
X164268Y248379D01*
X164229Y248424D01*
X164199Y248475D01*
X164157Y248509D01*
X164122Y248550D01*
X164061Y248587D01*
X164025Y248616D01*
X163996Y248626D01*
X163962Y248647D01*
X162963Y249060D01*
X161324Y250699D01*
X160437Y252841D01*
X160437Y255159D01*
X161324Y257301D01*
X162963Y258940D01*
X165105Y259827D01*
X167423Y259827D01*
X169565Y258940D01*
X171204Y257301D01*
X172091Y255159D01*
X172091Y254753D01*
X172100Y254700D01*
X172100Y254646D01*
X172120Y254590D01*
X172130Y254532D01*
X172158Y254486D01*
X172176Y254435D01*
X172215Y254390D01*
X172245Y254339D01*
X172287Y254305D01*
X172322Y254264D01*
X172383Y254227D01*
X172419Y254198D01*
X172448Y254188D01*
X172482Y254167D01*
X172586Y254124D01*
X172627Y254115D01*
X172666Y254097D01*
X172736Y254092D01*
X172805Y254077D01*
X172847Y254082D01*
X172889Y254079D01*
X172977Y254101D01*
X173027Y254108D01*
X173046Y254118D01*
X173071Y254124D01*
X174318Y254641D01*
X176636Y254641D01*
X178778Y253754D01*
X178919Y253612D01*
X178963Y253581D01*
X179002Y253543D01*
X179055Y253518D01*
X179103Y253484D01*
X179156Y253471D01*
X179205Y253448D01*
X179263Y253443D01*
X179320Y253428D01*
X179374Y253434D01*
X179428Y253429D01*
X179497Y253447D01*
X179544Y253451D01*
X179571Y253465D01*
X179610Y253475D01*
X179615Y253477D01*
X181933Y253477D01*
X184074Y252590D01*
X184385Y252279D01*
X184429Y252248D01*
X184467Y252210D01*
X184521Y252185D01*
X184569Y252151D01*
X184622Y252138D01*
X184671Y252115D01*
X184729Y252110D01*
X184786Y252095D01*
X184840Y252101D01*
X184894Y252096D01*
X184963Y252113D01*
X185010Y252118D01*
X185037Y252132D01*
X185076Y252142D01*
X185528Y252329D01*
X187852Y252329D01*
X190000Y251439D01*
X191643Y249796D01*
X192533Y247648D01*
X192533Y245324D01*
X191643Y243176D01*
X190000Y241533D01*
X187852Y240643D01*
X185528Y240643D01*
G37*
%LPD*%
%LPC*%
G36*
X334118Y224027D02*
X334118Y224027D01*
X331970Y224917D01*
X330327Y226560D01*
X329437Y228708D01*
X329437Y231032D01*
X330247Y232986D01*
X330258Y233039D01*
X330279Y233089D01*
X330282Y233148D01*
X330294Y233205D01*
X330287Y233259D01*
X330289Y233313D01*
X330271Y233369D01*
X330263Y233427D01*
X330237Y233475D01*
X330220Y233527D01*
X330178Y233584D01*
X330156Y233625D01*
X330140Y233639D01*
X329245Y235799D01*
X329245Y238123D01*
X330135Y240271D01*
X331778Y241914D01*
X333491Y242623D01*
X333536Y242653D01*
X333586Y242673D01*
X333630Y242713D01*
X333680Y242745D01*
X333712Y242788D01*
X333752Y242824D01*
X333779Y242877D01*
X333814Y242924D01*
X333830Y242976D01*
X333855Y243024D01*
X333865Y243094D01*
X333878Y243139D01*
X333876Y243170D01*
X333882Y243209D01*
X333882Y243732D01*
X333947Y243889D01*
X333961Y243953D01*
X333984Y244014D01*
X333985Y244062D01*
X333995Y244108D01*
X333986Y244173D01*
X333986Y244239D01*
X333970Y244283D01*
X333963Y244330D01*
X333932Y244388D01*
X333910Y244450D01*
X333879Y244486D01*
X333857Y244527D01*
X333807Y244570D01*
X333764Y244621D01*
X333717Y244649D01*
X333688Y244675D01*
X333651Y244689D01*
X333604Y244717D01*
X332605Y245131D01*
X330962Y246774D01*
X330072Y248922D01*
X330072Y251246D01*
X330962Y253394D01*
X332605Y255037D01*
X334753Y255927D01*
X337077Y255927D01*
X339225Y255037D01*
X340868Y253394D01*
X341758Y251246D01*
X341758Y248922D01*
X341693Y248765D01*
X341679Y248701D01*
X341656Y248640D01*
X341655Y248592D01*
X341645Y248546D01*
X341654Y248481D01*
X341654Y248415D01*
X341670Y248371D01*
X341677Y248324D01*
X341708Y248266D01*
X341730Y248204D01*
X341761Y248168D01*
X341783Y248127D01*
X341833Y248084D01*
X341876Y248033D01*
X341923Y248005D01*
X341952Y247979D01*
X341989Y247965D01*
X342036Y247937D01*
X343035Y247523D01*
X344678Y245880D01*
X345568Y243732D01*
X345568Y241408D01*
X344678Y239260D01*
X343035Y237617D01*
X341322Y236908D01*
X341277Y236878D01*
X341227Y236858D01*
X341183Y236818D01*
X341134Y236786D01*
X341101Y236743D01*
X341061Y236707D01*
X341034Y236654D01*
X340999Y236607D01*
X340983Y236555D01*
X340958Y236507D01*
X340948Y236437D01*
X340935Y236392D01*
X340937Y236361D01*
X340931Y236322D01*
X340931Y235799D01*
X340122Y233845D01*
X340110Y233792D01*
X340089Y233742D01*
X340086Y233683D01*
X340074Y233626D01*
X340081Y233572D01*
X340079Y233518D01*
X340095Y233467D01*
X340095Y233463D01*
X340097Y233458D01*
X340105Y233404D01*
X340131Y233356D01*
X340148Y233305D01*
X340175Y233268D01*
X340180Y233255D01*
X340194Y233240D01*
X340212Y233206D01*
X340228Y233192D01*
X341123Y231032D01*
X341123Y228708D01*
X340233Y226560D01*
X338590Y224917D01*
X336442Y224027D01*
X334118Y224027D01*
G37*
%LPD*%
%LPC*%
G36*
X174318Y267223D02*
X174318Y267223D01*
X172176Y268110D01*
X170709Y269577D01*
X170678Y269599D01*
X170663Y269616D01*
X170660Y269617D01*
X170646Y269633D01*
X170583Y269665D01*
X170525Y269706D01*
X170484Y269716D01*
X170446Y269736D01*
X170356Y269749D01*
X170308Y269762D01*
X170287Y269759D01*
X170261Y269763D01*
X169021Y269763D01*
X166879Y270650D01*
X165240Y272289D01*
X164353Y274431D01*
X164353Y276749D01*
X165240Y278891D01*
X166879Y280530D01*
X169021Y281417D01*
X171339Y281417D01*
X173481Y280530D01*
X173948Y280063D01*
X173978Y280041D01*
X173994Y280024D01*
X174028Y280007D01*
X174030Y280005D01*
X174111Y279945D01*
X174122Y279941D01*
X174132Y279935D01*
X174229Y279910D01*
X174326Y279881D01*
X174338Y279882D01*
X174349Y279879D01*
X174449Y279889D01*
X174549Y279896D01*
X174560Y279901D01*
X174572Y279902D01*
X174663Y279947D01*
X174754Y279988D01*
X174763Y279996D01*
X174773Y280001D01*
X174842Y280075D01*
X174914Y280145D01*
X174919Y280156D01*
X174927Y280165D01*
X174967Y280258D01*
X175009Y280348D01*
X175010Y280360D01*
X175015Y280371D01*
X175019Y280472D01*
X175027Y280572D01*
X175024Y280585D01*
X175025Y280595D01*
X175011Y280639D01*
X175010Y280641D01*
X175010Y280659D01*
X175000Y280684D01*
X174982Y280754D01*
X174720Y281386D01*
X174720Y283704D01*
X175607Y285846D01*
X177246Y287485D01*
X179388Y288372D01*
X181706Y288372D01*
X182646Y287983D01*
X182699Y287971D01*
X182749Y287950D01*
X182808Y287947D01*
X182865Y287935D01*
X182919Y287942D01*
X182973Y287940D01*
X183029Y287958D01*
X183087Y287966D01*
X183135Y287992D01*
X183186Y288008D01*
X183244Y288051D01*
X183285Y288073D01*
X183305Y288096D01*
X183337Y288120D01*
X183380Y288163D01*
X185528Y289053D01*
X187852Y289053D01*
X190000Y288163D01*
X191643Y286520D01*
X192533Y284372D01*
X192533Y282048D01*
X191643Y279900D01*
X190000Y278257D01*
X187852Y277367D01*
X185528Y277367D01*
X184563Y277767D01*
X184510Y277779D01*
X184460Y277800D01*
X184401Y277802D01*
X184343Y277815D01*
X184290Y277807D01*
X184236Y277810D01*
X184180Y277792D01*
X184121Y277783D01*
X184074Y277758D01*
X184022Y277741D01*
X183965Y277699D01*
X183924Y277677D01*
X183904Y277654D01*
X183871Y277630D01*
X183847Y277606D01*
X181706Y276718D01*
X181213Y276718D01*
X181137Y276705D01*
X181060Y276700D01*
X181028Y276685D01*
X180993Y276679D01*
X180926Y276639D01*
X180855Y276608D01*
X180830Y276583D01*
X180799Y276565D01*
X180751Y276505D01*
X180695Y276450D01*
X180680Y276418D01*
X180658Y276390D01*
X180633Y276317D01*
X180600Y276247D01*
X180598Y276212D01*
X180586Y276178D01*
X180588Y276101D01*
X180582Y276023D01*
X180592Y275984D01*
X180593Y275954D01*
X180610Y275911D01*
X180627Y275841D01*
X181304Y274209D01*
X181304Y271891D01*
X180417Y269749D01*
X178778Y268110D01*
X176636Y267223D01*
X174318Y267223D01*
G37*
%LPD*%
%LPC*%
G36*
X200778Y255777D02*
X200778Y255777D01*
X198630Y256667D01*
X196987Y258310D01*
X196097Y260458D01*
X196097Y262782D01*
X196987Y264930D01*
X198630Y266573D01*
X200778Y267463D01*
X203102Y267463D01*
X205250Y266573D01*
X205297Y266526D01*
X205351Y266489D01*
X205399Y266444D01*
X205442Y266425D01*
X205481Y266398D01*
X205545Y266382D01*
X205605Y266356D01*
X205652Y266354D01*
X205698Y266342D01*
X205763Y266349D01*
X205829Y266346D01*
X205874Y266361D01*
X205921Y266366D01*
X205980Y266395D01*
X206043Y266415D01*
X206087Y266448D01*
X206122Y266465D01*
X206149Y266494D01*
X206194Y266526D01*
X206240Y266573D01*
X208388Y267463D01*
X210712Y267463D01*
X212598Y266682D01*
X212651Y266670D01*
X212701Y266649D01*
X212760Y266646D01*
X212817Y266634D01*
X212871Y266641D01*
X212925Y266639D01*
X212981Y266657D01*
X213039Y266665D01*
X213087Y266691D01*
X213138Y266708D01*
X213196Y266750D01*
X213237Y266772D01*
X213257Y266795D01*
X213289Y266819D01*
X213452Y266982D01*
X215599Y267871D01*
X217924Y267871D01*
X220071Y266982D01*
X221715Y265338D01*
X222604Y263191D01*
X222604Y260866D01*
X221715Y258719D01*
X220071Y257075D01*
X217924Y256186D01*
X215599Y256186D01*
X213714Y256967D01*
X213661Y256979D01*
X213611Y257000D01*
X213552Y257002D01*
X213494Y257015D01*
X213441Y257007D01*
X213387Y257010D01*
X213330Y256992D01*
X213272Y256983D01*
X213225Y256958D01*
X213173Y256941D01*
X213116Y256899D01*
X213075Y256876D01*
X213055Y256853D01*
X213022Y256829D01*
X212860Y256667D01*
X210712Y255777D01*
X208388Y255777D01*
X206240Y256667D01*
X206194Y256714D01*
X206139Y256751D01*
X206092Y256796D01*
X206048Y256815D01*
X206009Y256842D01*
X205946Y256858D01*
X205885Y256884D01*
X205838Y256886D01*
X205792Y256898D01*
X205727Y256891D01*
X205661Y256894D01*
X205616Y256879D01*
X205569Y256874D01*
X205510Y256845D01*
X205447Y256825D01*
X205403Y256792D01*
X205368Y256775D01*
X205341Y256746D01*
X205297Y256714D01*
X205250Y256667D01*
X203102Y255777D01*
X200778Y255777D01*
G37*
%LPD*%
%LPC*%
G36*
X271888Y183387D02*
X271888Y183387D01*
X269740Y184277D01*
X268097Y185920D01*
X267207Y188068D01*
X267207Y190392D01*
X268097Y192540D01*
X269101Y193544D01*
X269139Y193598D01*
X269184Y193646D01*
X269202Y193689D01*
X269229Y193728D01*
X269246Y193792D01*
X269271Y193853D01*
X269273Y193900D01*
X269285Y193946D01*
X269278Y194011D01*
X269281Y194077D01*
X269267Y194122D01*
X269262Y194169D01*
X269233Y194228D01*
X269213Y194290D01*
X269180Y194334D01*
X269163Y194370D01*
X269134Y194397D01*
X269101Y194441D01*
X268732Y194810D01*
X267842Y196958D01*
X267842Y199282D01*
X268732Y201430D01*
X270375Y203073D01*
X272523Y203963D01*
X274847Y203963D01*
X276995Y203073D01*
X278638Y201430D01*
X279528Y199282D01*
X279528Y196958D01*
X278638Y194810D01*
X277634Y193806D01*
X277596Y193752D01*
X277551Y193704D01*
X277533Y193661D01*
X277506Y193622D01*
X277489Y193558D01*
X277464Y193497D01*
X277462Y193450D01*
X277450Y193405D01*
X277457Y193339D01*
X277454Y193273D01*
X277468Y193228D01*
X277473Y193181D01*
X277502Y193122D01*
X277522Y193060D01*
X277555Y193016D01*
X277572Y192980D01*
X277601Y192953D01*
X277634Y192909D01*
X278003Y192540D01*
X278893Y190392D01*
X278893Y188068D01*
X278003Y185920D01*
X276360Y184277D01*
X274212Y183387D01*
X271888Y183387D01*
G37*
%LPD*%
%LPC*%
G36*
X294751Y144033D02*
X294751Y144033D01*
X292609Y144920D01*
X290970Y146559D01*
X290083Y148701D01*
X290083Y151019D01*
X290970Y153161D01*
X292609Y154800D01*
X294751Y155687D01*
X297069Y155687D01*
X298842Y154952D01*
X298884Y154943D01*
X298922Y154925D01*
X298992Y154919D01*
X299061Y154904D01*
X299104Y154910D01*
X299146Y154907D01*
X299234Y154929D01*
X299284Y154936D01*
X299302Y154946D01*
X299328Y154952D01*
X301101Y155687D01*
X303419Y155687D01*
X305561Y154800D01*
X307200Y153161D01*
X308087Y151019D01*
X308087Y148701D01*
X307200Y146559D01*
X305561Y144920D01*
X303419Y144033D01*
X301101Y144033D01*
X299328Y144768D01*
X299286Y144777D01*
X299248Y144795D01*
X299177Y144801D01*
X299108Y144816D01*
X299066Y144810D01*
X299024Y144813D01*
X298936Y144791D01*
X298886Y144784D01*
X298868Y144774D01*
X298842Y144768D01*
X297069Y144033D01*
X294751Y144033D01*
G37*
%LPD*%
%LPC*%
G36*
X165062Y478563D02*
X165062Y478563D01*
X162645Y479565D01*
X160795Y481415D01*
X159793Y483832D01*
X159793Y486448D01*
X160795Y488865D01*
X162645Y490715D01*
X165062Y491717D01*
X167678Y491717D01*
X170095Y490715D01*
X171945Y488865D01*
X172947Y486448D01*
X172947Y483832D01*
X171945Y481415D01*
X170095Y479565D01*
X167678Y478563D01*
X165062Y478563D01*
G37*
%LPD*%
%LPC*%
G36*
X168967Y198373D02*
X168967Y198373D01*
X166726Y199301D01*
X165011Y201016D01*
X164083Y203257D01*
X164083Y205683D01*
X165011Y207924D01*
X166726Y209639D01*
X168967Y210567D01*
X171393Y210567D01*
X173634Y209639D01*
X175349Y207924D01*
X176277Y205683D01*
X176277Y203257D01*
X175349Y201016D01*
X173634Y199301D01*
X171393Y198373D01*
X168967Y198373D01*
G37*
%LPD*%
%LPC*%
G36*
X228708Y311022D02*
X228708Y311022D01*
X226560Y311912D01*
X224917Y313555D01*
X224027Y315703D01*
X224027Y318027D01*
X224917Y320175D01*
X226560Y321818D01*
X228708Y322708D01*
X231032Y322708D01*
X233180Y321818D01*
X234823Y320175D01*
X235713Y318027D01*
X235713Y315703D01*
X234823Y313555D01*
X233180Y311912D01*
X231032Y311022D01*
X228708Y311022D01*
G37*
%LPD*%
%LPC*%
G36*
X200133Y295782D02*
X200133Y295782D01*
X197985Y296672D01*
X196342Y298315D01*
X195452Y300463D01*
X195452Y302787D01*
X196342Y304935D01*
X197985Y306578D01*
X200133Y307468D01*
X202457Y307468D01*
X204605Y306578D01*
X206248Y304935D01*
X207138Y302787D01*
X207138Y300463D01*
X206248Y298315D01*
X204605Y296672D01*
X202457Y295782D01*
X200133Y295782D01*
G37*
%LPD*%
%LPC*%
G36*
X216008Y239267D02*
X216008Y239267D01*
X213860Y240157D01*
X212217Y241800D01*
X211327Y243948D01*
X211327Y246272D01*
X212217Y248420D01*
X213860Y250063D01*
X216008Y250953D01*
X218332Y250953D01*
X220480Y250063D01*
X222123Y248420D01*
X223013Y246272D01*
X223013Y243948D01*
X222123Y241800D01*
X220480Y240157D01*
X218332Y239267D01*
X216008Y239267D01*
G37*
%LPD*%
%LPC*%
G36*
X186163Y223392D02*
X186163Y223392D01*
X184015Y224282D01*
X182372Y225925D01*
X181482Y228073D01*
X181482Y230397D01*
X182372Y232545D01*
X184015Y234188D01*
X186163Y235078D01*
X188487Y235078D01*
X190635Y234188D01*
X192278Y232545D01*
X193168Y230397D01*
X193168Y228073D01*
X192278Y225925D01*
X190635Y224282D01*
X188487Y223392D01*
X186163Y223392D01*
G37*
%LPD*%
%LPC*%
G36*
X308458Y222757D02*
X308458Y222757D01*
X306310Y223647D01*
X304667Y225290D01*
X303777Y227438D01*
X303777Y229762D01*
X304667Y231910D01*
X306310Y233553D01*
X308458Y234443D01*
X310782Y234443D01*
X312930Y233553D01*
X314573Y231910D01*
X315463Y229762D01*
X315463Y227438D01*
X314573Y225290D01*
X312930Y223647D01*
X310782Y222757D01*
X308458Y222757D01*
G37*
%LPD*%
%LPC*%
G36*
X311828Y208087D02*
X311828Y208087D01*
X309680Y208977D01*
X308037Y210620D01*
X307147Y212768D01*
X307147Y215092D01*
X308037Y217240D01*
X309680Y218883D01*
X311828Y219773D01*
X314152Y219773D01*
X316300Y218883D01*
X317943Y217240D01*
X318833Y215092D01*
X318833Y212768D01*
X317943Y210620D01*
X316300Y208977D01*
X314152Y208087D01*
X311828Y208087D01*
G37*
%LPD*%
%LPC*%
G36*
X297288Y207517D02*
X297288Y207517D01*
X295140Y208407D01*
X293497Y210050D01*
X292607Y212198D01*
X292607Y214522D01*
X293497Y216670D01*
X295140Y218313D01*
X297288Y219203D01*
X299612Y219203D01*
X301760Y218313D01*
X303403Y216670D01*
X304293Y214522D01*
X304293Y212198D01*
X303403Y210050D01*
X301760Y208407D01*
X299612Y207517D01*
X297288Y207517D01*
G37*
%LPD*%
%LPC*%
G36*
X199501Y359933D02*
X199501Y359933D01*
X197359Y360820D01*
X195720Y362459D01*
X194833Y364601D01*
X194833Y366919D01*
X195720Y369061D01*
X197359Y370700D01*
X199501Y371587D01*
X201819Y371587D01*
X203961Y370700D01*
X205600Y369061D01*
X206487Y366919D01*
X206487Y364601D01*
X205600Y362459D01*
X203961Y360820D01*
X201819Y359933D01*
X199501Y359933D01*
G37*
%LPD*%
%LPC*%
G36*
X234426Y357393D02*
X234426Y357393D01*
X232284Y358280D01*
X230645Y359919D01*
X229758Y362061D01*
X229758Y364379D01*
X230645Y366521D01*
X232284Y368160D01*
X234426Y369047D01*
X236744Y369047D01*
X238886Y368160D01*
X240525Y366521D01*
X241412Y364379D01*
X241412Y362061D01*
X240525Y359919D01*
X238886Y358280D01*
X236744Y357393D01*
X234426Y357393D01*
G37*
%LPD*%
%LPC*%
G36*
X204581Y324373D02*
X204581Y324373D01*
X202439Y325260D01*
X200800Y326899D01*
X199913Y329041D01*
X199913Y331359D01*
X200800Y333501D01*
X202439Y335140D01*
X204581Y336027D01*
X206899Y336027D01*
X209041Y335140D01*
X210680Y333501D01*
X211567Y331359D01*
X211567Y329041D01*
X210680Y326899D01*
X209041Y325260D01*
X206899Y324373D01*
X204581Y324373D01*
G37*
%LPD*%
%LPC*%
G36*
X130286Y304688D02*
X130286Y304688D01*
X128144Y305575D01*
X126505Y307214D01*
X125618Y309356D01*
X125618Y311674D01*
X126505Y313816D01*
X128144Y315455D01*
X130286Y316342D01*
X132604Y316342D01*
X134746Y315455D01*
X136385Y313816D01*
X137272Y311674D01*
X137272Y309356D01*
X136385Y307214D01*
X134746Y305575D01*
X132604Y304688D01*
X130286Y304688D01*
G37*
%LPD*%
%LPC*%
G36*
X131556Y283098D02*
X131556Y283098D01*
X129414Y283985D01*
X127775Y285624D01*
X126888Y287766D01*
X126888Y290084D01*
X127775Y292226D01*
X129414Y293865D01*
X131556Y294752D01*
X133874Y294752D01*
X136016Y293865D01*
X137655Y292226D01*
X138542Y290084D01*
X138542Y287766D01*
X137655Y285624D01*
X136016Y283985D01*
X133874Y283098D01*
X131556Y283098D01*
G37*
%LPD*%
%LPC*%
G36*
X116951Y283098D02*
X116951Y283098D01*
X114809Y283985D01*
X113170Y285624D01*
X112283Y287766D01*
X112283Y290084D01*
X113170Y292226D01*
X114809Y293865D01*
X116951Y294752D01*
X119269Y294752D01*
X121411Y293865D01*
X123050Y292226D01*
X123937Y290084D01*
X123937Y287766D01*
X123050Y285624D01*
X121411Y283985D01*
X119269Y283098D01*
X116951Y283098D01*
G37*
%LPD*%
%LPC*%
G36*
X126476Y91328D02*
X126476Y91328D01*
X124334Y92215D01*
X122695Y93854D01*
X121808Y95996D01*
X121808Y98314D01*
X122695Y100456D01*
X124334Y102095D01*
X126476Y102982D01*
X128794Y102982D01*
X130936Y102095D01*
X132575Y100456D01*
X133462Y98314D01*
X133462Y95996D01*
X132575Y93854D01*
X130936Y92215D01*
X128794Y91328D01*
X126476Y91328D01*
G37*
%LPD*%
D10*
X195715Y205105D03*
D11*
X83820Y265430D03*
X358140Y67310D03*
D12*
X166370Y485140D03*
X110490Y453390D03*
X290830Y104140D03*
X280670Y104140D03*
X271780Y104140D03*
X411480Y157480D03*
X401320Y172085D03*
X394970Y179070D03*
X388620Y184785D03*
X497840Y339090D03*
X487680Y339090D03*
X455930Y345440D03*
X497840Y448310D03*
X487680Y448310D03*
X477520Y453390D03*
X468630Y462280D03*
X463550Y482600D03*
X463550Y491490D03*
X450850Y492760D03*
X436880Y492760D03*
X472440Y443230D03*
D11*
X100330Y311785D03*
X8890Y229870D03*
D10*
X250190Y246380D03*
X274320Y254000D03*
X265430Y254000D03*
X257810Y254000D03*
X217170Y245110D03*
X290195Y180975D03*
X312990Y213930D03*
X321370Y237430D03*
X309620Y228600D03*
X313690Y252730D03*
X264795Y293370D03*
X241300Y300990D03*
X201295Y301625D03*
X201940Y261620D03*
X321310Y293370D03*
X330835Y305435D03*
X280670Y293370D03*
X218440Y196850D03*
D13*
X427990Y443230D03*
X166370Y408940D03*
D10*
X325755Y167640D03*
X250190Y253365D03*
X274320Y246380D03*
X250190Y237490D03*
X250190Y229870D03*
X257810Y229870D03*
X265430Y246380D03*
X257810Y246380D03*
X274320Y237490D03*
X265430Y237490D03*
X265430Y229870D03*
X257810Y237490D03*
X274320Y229870D03*
X194310Y173990D03*
D13*
X422910Y181610D03*
D12*
X252730Y149860D03*
X245110Y149860D03*
D13*
X170180Y107950D03*
X163830Y107950D03*
X467981Y390525D03*
X433599Y393700D03*
X235585Y363220D03*
X372745Y491490D03*
X365760Y491490D03*
X365760Y485140D03*
X173355Y153035D03*
D12*
X202565Y140970D03*
X212090Y149860D03*
D13*
X372745Y485140D03*
X400050Y344064D03*
X408940Y344064D03*
X418465Y344064D03*
X426720Y344064D03*
X433070Y344064D03*
X361950Y250719D03*
X370840Y251354D03*
X378460Y251354D03*
X386080Y251354D03*
X393700Y251354D03*
X421640Y262255D03*
X151765Y134620D03*
X359410Y238654D03*
D10*
X335915Y250084D03*
X321310Y246274D03*
X321310Y253259D03*
D12*
X279400Y19050D03*
X279400Y11430D03*
D13*
X466550Y132370D03*
X257810Y189230D03*
X46355Y19050D03*
X61595Y19050D03*
X50800Y13970D03*
X93345Y15240D03*
X70485Y13335D03*
X83185Y9525D03*
X73660Y6985D03*
X58420Y6985D03*
X44450Y6350D03*
X92710Y5080D03*
X109220Y19685D03*
X102870Y14605D03*
X107950Y5080D03*
X114300Y6350D03*
X118745Y13970D03*
X126365Y5715D03*
X139065Y14605D03*
X144780Y77470D03*
X149860Y67945D03*
X152400Y74295D03*
X158750Y67310D03*
X78740Y164465D03*
X86360Y166370D03*
X98425Y169545D03*
X92710Y159385D03*
X86360Y153670D03*
X102870Y161925D03*
X93980Y150495D03*
X73025Y170180D03*
X6985Y193675D03*
X23495Y194310D03*
X15240Y196850D03*
X15240Y187960D03*
X29845Y202565D03*
X31115Y195580D03*
X33655Y187325D03*
X38735Y234315D03*
X44450Y227330D03*
X50800Y217170D03*
X74295Y235585D03*
X96520Y234950D03*
X86360Y228600D03*
X75565Y222885D03*
X75565Y211455D03*
X89535Y210820D03*
X96520Y220980D03*
X85725Y218440D03*
X109220Y220345D03*
X106045Y266065D03*
X106045Y253365D03*
X118110Y288925D03*
X132715Y288925D03*
X175895Y419735D03*
X184150Y419735D03*
X191135Y419735D03*
X183515Y409575D03*
X198120Y403860D03*
X187325Y396875D03*
X193040Y409575D03*
X358140Y198120D03*
X365760Y198120D03*
X373380Y198120D03*
X381635Y197485D03*
X360680Y215265D03*
X370205Y215265D03*
X381635Y215265D03*
X394335Y215265D03*
X399415Y210185D03*
X404495Y204470D03*
X418465Y213360D03*
X422910Y208280D03*
X428625Y201930D03*
X440055Y215265D03*
X444500Y209550D03*
X448945Y203200D03*
X434340Y208915D03*
X408305Y213995D03*
X414655Y204470D03*
X358140Y173355D03*
X385445Y191135D03*
X47625Y424180D03*
X50800Y443230D03*
X53975Y494030D03*
X76835Y494030D03*
X5080Y446405D03*
X5080Y457835D03*
X21590Y450850D03*
X17145Y457200D03*
X12065Y450215D03*
X48260Y463550D03*
X65405Y494030D03*
X3810Y466725D03*
X43815Y481965D03*
X43815Y488950D03*
X136525Y424180D03*
X146050Y424180D03*
X156210Y421005D03*
X154305Y412750D03*
X147320Y417195D03*
X165735Y421640D03*
X173355Y445135D03*
X173355Y434975D03*
X181610Y483870D03*
X240665Y489585D03*
X251460Y489585D03*
X262255Y489585D03*
X241935Y481965D03*
X248920Y482600D03*
X259715Y481965D03*
X273685Y441325D03*
X267970Y447040D03*
X243840Y405765D03*
X247650Y400050D03*
X252730Y393065D03*
X311785Y436245D03*
X311785Y406400D03*
X308610Y366395D03*
X308610Y360045D03*
X347345Y435610D03*
X351155Y428625D03*
X377190Y386080D03*
X383540Y381635D03*
X389255Y377825D03*
X389255Y382905D03*
X479425Y423545D03*
X488950Y424180D03*
X483870Y415290D03*
X490855Y405130D03*
X495300Y392430D03*
X497840Y378460D03*
X497840Y367665D03*
X480060Y394335D03*
X480060Y381000D03*
X479425Y370205D03*
X479425Y356870D03*
X487045Y384810D03*
X487045Y370840D03*
X487680Y356870D03*
X497840Y353695D03*
X473710Y344805D03*
X499745Y423545D03*
X127635Y97155D03*
X375920Y11430D03*
X386080Y10795D03*
X391795Y19050D03*
X381000Y18415D03*
X379095Y4445D03*
X368300Y6985D03*
X453390Y12065D03*
X389890Y3810D03*
X368935Y18415D03*
X460375Y6985D03*
X453390Y5080D03*
X454660Y21590D03*
X461010Y33020D03*
X469900Y40005D03*
X461645Y23495D03*
X474980Y5080D03*
X466725Y10795D03*
X465455Y16510D03*
X465455Y26035D03*
X470535Y31750D03*
X479425Y39370D03*
X492125Y40005D03*
X498475Y36830D03*
X497840Y46990D03*
X480695Y47625D03*
X475615Y54610D03*
X499745Y56515D03*
X5080Y36195D03*
X497205Y458470D03*
X487680Y457835D03*
X188595Y313055D03*
X131445Y310515D03*
X32385Y280035D03*
X42545Y318135D03*
X51435Y255270D03*
X60325Y246380D03*
X73660Y376555D03*
X83185Y376555D03*
X92710Y376555D03*
X93345Y397510D03*
X103505Y397510D03*
X103505Y376555D03*
X73660Y397510D03*
X83820Y397510D03*
X273685Y370840D03*
X273685Y361315D03*
X273685Y352425D03*
X78740Y405130D03*
X88900Y405130D03*
X99060Y405130D03*
X42545Y312420D03*
X42545Y306705D03*
D11*
X82550Y320040D03*
D13*
X45085Y413385D03*
X3810Y431165D03*
X12065Y440055D03*
X11430Y431165D03*
X20955Y439420D03*
X19685Y431165D03*
X450850Y194310D03*
D14*
X450850Y146050D01*
D13*
X450850Y146050D03*
D11*
X471170Y109220D03*
X471170Y102870D03*
X471170Y96520D03*
X477520Y96520D03*
X477520Y102870D03*
X477520Y109220D03*
X501650Y109220D03*
X501650Y102870D03*
X501650Y96520D03*
D12*
X292100Y41910D03*
X292100Y50800D03*
X283210Y50800D03*
X275590Y50800D03*
X275590Y41910D03*
X266700Y50800D03*
X266700Y41910D03*
X283210Y41910D03*
X443230Y412750D03*
D14*
X275590Y50800D02*
X266700Y50800D01*
X275590Y50800D02*
X283210Y50800D01*
X292100Y50800D01*
X283210Y50800D02*
X283210Y41910D01*
X275590Y41910D02*
X275590Y45720D01*
X275590Y50800D01*
D15*
X471170Y77470D02*
X471170Y102870D01*
X439420Y45720D02*
X275590Y45720D01*
X439420Y45720D02*
X471170Y77470D01*
D16*
X477520Y103505D02*
X477520Y109220D01*
X477520Y103505D02*
X477520Y102870D01*
D17*
X443230Y308610D02*
X443230Y412750D01*
X468630Y308610D02*
X468630Y290830D01*
X468630Y111760D02*
X471170Y109220D01*
D13*
X288925Y443865D03*
D17*
X443230Y308610D02*
X468630Y308610D01*
X443230Y308610D02*
X410210Y308610D01*
X356870Y361950D01*
D13*
X356870Y361950D03*
D17*
X352425Y366395D01*
X291465Y440055D02*
X291465Y441960D01*
D13*
X294640Y443865D03*
X350520Y361950D03*
X350520Y367030D03*
X356870Y367030D03*
X291465Y440055D03*
X372110Y154940D03*
X41910Y132080D03*
X36830Y132080D03*
D14*
X41910Y132080D01*
X52070Y132080D01*
X44450Y134620D02*
X59690Y134620D01*
X44450Y134620D02*
X41910Y132080D01*
X59690Y134620D02*
X59690Y226060D01*
X9525Y409575D02*
X40640Y440690D01*
X9525Y276225D02*
X59690Y226060D01*
X9525Y276225D02*
X9525Y409575D01*
X40640Y440690D02*
X40640Y473075D01*
D13*
X40640Y473075D03*
D14*
X435610Y140970D02*
X464820Y111760D01*
X468630Y111760D01*
D13*
X497840Y288290D03*
X491490Y288290D03*
X483870Y288290D03*
D14*
X476250Y288290D02*
X471170Y288290D01*
X468630Y290830D01*
D13*
X466090Y264160D03*
D18*
X476250Y274320D01*
X476250Y288290D01*
D15*
X283210Y41910D02*
X280035Y38735D01*
X45085Y38735D01*
D19*
X37849Y38735D01*
X31374Y45210D01*
X19685Y45210D01*
X14605Y50290D01*
X14605Y114935D01*
X31750Y132080D01*
X41910Y132080D01*
D17*
X412750Y454660D02*
X422275Y464185D01*
X438785Y464185D01*
X451485Y451485D01*
X451485Y421005D01*
X443230Y412750D01*
X306070Y454660D02*
X291465Y440055D01*
X306070Y454660D02*
X412750Y454660D01*
X483870Y288290D02*
X497840Y288290D01*
X483870Y288290D02*
X476250Y288290D01*
X477520Y103505D02*
X477520Y96520D01*
X477520Y103505D02*
X477520Y111760D01*
X486410Y120650D01*
X486410Y285750D01*
X483870Y288290D01*
X497840Y288290D02*
X497840Y123825D01*
X477520Y103505D01*
D20*
X356870Y367030D02*
X350520Y367030D01*
X356870Y367030D02*
X356870Y361950D01*
X350520Y361950D01*
X350520Y367030D01*
D14*
X372110Y154940D02*
X372110Y143510D01*
X374650Y140970D01*
X435610Y140970D01*
D13*
X416560Y106680D03*
X424180Y114300D03*
X416560Y114300D03*
X424180Y123190D03*
X416560Y123190D03*
X234950Y107950D03*
X234950Y100330D03*
X229870Y100330D03*
X217170Y100330D03*
X217170Y91440D03*
X229870Y91440D03*
X234950Y91440D03*
X207010Y91440D03*
D17*
X292100Y91440D01*
X307340Y76200D01*
X328930Y76200D01*
X359410Y106680D01*
X361950Y123190D02*
X424180Y123190D01*
X217170Y81280D02*
X207010Y91440D01*
X320040Y81280D02*
X361950Y123190D01*
X422910Y114300D02*
X424180Y114300D01*
X422910Y114300D02*
X364490Y114300D01*
X359410Y109220D02*
X359410Y106680D01*
X359410Y109220D02*
X364490Y114300D01*
X415290Y106680D02*
X422910Y114300D01*
X415290Y106680D02*
X364490Y106680D01*
X361950Y109220D02*
X359410Y106680D01*
X361950Y109220D02*
X361950Y123190D01*
X320040Y81280D02*
X270510Y81280D01*
X217170Y81280D01*
X275590Y76200D02*
X307340Y76200D01*
X275590Y76200D02*
X270510Y81280D01*
D13*
X350520Y76631D03*
D11*
X140970Y219710D03*
X119380Y196850D03*
D10*
X194445Y220980D03*
D12*
X44450Y73660D03*
X54610Y63500D03*
X44450Y63500D03*
X54610Y73660D03*
X34290Y63500D03*
D10*
X250190Y213360D03*
X234950Y214630D03*
X297180Y220980D03*
X269240Y214630D03*
X282575Y205740D03*
X297180Y237490D03*
X297180Y254000D03*
X232410Y228600D03*
X289560Y172720D03*
X321945Y261620D03*
X241300Y309245D03*
X229620Y261620D03*
X241300Y273300D03*
X265430Y276860D03*
X274294Y276886D03*
X328295Y291465D03*
X332740Y200660D03*
D12*
X360045Y269875D03*
X361950Y279400D03*
X354330Y274320D03*
D13*
X234950Y394970D03*
X234950Y401320D03*
X229870Y485140D03*
X222250Y485140D03*
X146050Y483870D03*
X343535Y421640D03*
X208280Y345440D03*
X259715Y345440D03*
X117205Y325120D03*
X261411Y139560D03*
X317500Y102870D03*
X393700Y490220D03*
X393700Y476250D03*
X393700Y483235D03*
X254000Y345440D03*
D12*
X34290Y73660D03*
X65405Y73660D03*
X76200Y73660D03*
D16*
X328295Y288290D02*
X328295Y291465D01*
X321945Y281940D02*
X321945Y261620D01*
X321945Y281940D02*
X328295Y288290D01*
X321945Y261620D02*
X325755Y257810D01*
X347980Y257810D01*
X358775Y269875D02*
X354330Y274320D01*
X358775Y269875D02*
X360045Y269875D01*
X360045Y277495D01*
X361950Y279400D01*
X356870Y274320D01*
X354330Y274320D01*
D13*
X389255Y154305D03*
X395605Y154305D03*
X382905Y156845D03*
D16*
X265430Y276860D02*
X265456Y276886D01*
X274294Y276886D01*
X297180Y220345D02*
X282575Y205740D01*
X297180Y220345D02*
X297180Y220980D01*
X289560Y173355D02*
X289560Y172720D01*
X289560Y173355D02*
X284358Y178557D01*
X284358Y203957D02*
X282575Y205740D01*
X284358Y203957D02*
X284358Y178557D01*
X297180Y220980D02*
X325120Y220980D01*
X333375Y212725D01*
X333375Y201295D01*
X332740Y200660D01*
X251845Y273300D02*
X241300Y273300D01*
X254122Y271023D02*
X259593Y271023D01*
X265430Y276860D01*
X254122Y271023D02*
X251845Y273300D01*
X241300Y309245D02*
X226695Y309245D01*
X225425Y307975D01*
X225425Y292735D01*
X241300Y276860D02*
X241300Y273300D01*
X241300Y276860D02*
X225425Y292735D01*
X194445Y224925D02*
X194445Y220980D01*
X222885Y238125D02*
X232410Y228600D01*
X207645Y238125D02*
X194445Y224925D01*
X207645Y238125D02*
X222885Y238125D01*
X232410Y228600D02*
X235585Y228600D01*
X243205Y220980D01*
X297180Y220980D01*
X347980Y257810D02*
X360045Y269875D01*
X347980Y257810D02*
X347980Y215900D01*
X333375Y201295D01*
X222885Y238125D02*
X222885Y242570D01*
X223007Y242692D01*
X223007Y255007D02*
X229620Y261620D01*
X223007Y255007D02*
X223007Y242692D01*
X229620Y261620D02*
X241300Y273300D01*
X297180Y237490D02*
X297180Y220980D01*
X297180Y237490D02*
X297180Y254000D01*
D14*
X65405Y73660D02*
X34290Y73660D01*
X65405Y73660D02*
X76200Y73660D01*
X101494Y98954D01*
X101494Y105172D01*
X125095Y128773D01*
X125095Y191135D02*
X119380Y196850D01*
X125095Y191135D02*
X125095Y128773D01*
X119380Y196850D02*
X140970Y218440D01*
X140970Y219710D01*
X141605Y220345D01*
X194188Y220345D01*
X194188Y220980D01*
X234950Y228600D02*
X250190Y213360D01*
X234950Y228600D02*
X232410Y228600D01*
X250190Y213360D02*
X267970Y213360D01*
X269240Y214630D01*
X273685Y214630D01*
X282575Y205740D01*
X229870Y345440D02*
X208280Y345440D01*
X229870Y345440D02*
X259715Y345440D01*
X241300Y334010D02*
X241300Y319405D01*
X241300Y334010D02*
X229870Y345440D01*
X254635Y350520D02*
X259715Y345440D01*
X234950Y382905D02*
X234950Y401320D01*
X254635Y363220D02*
X254635Y350520D01*
X254635Y363220D02*
X234950Y382905D01*
X208280Y345440D02*
X137525Y345440D01*
X117205Y325120D01*
X261411Y139560D02*
X280810Y139560D01*
X317500Y102870D01*
X289560Y161925D02*
X289560Y172720D01*
X267195Y139560D02*
X261411Y139560D01*
X267195Y139560D02*
X289560Y161925D01*
X234950Y394970D02*
X234950Y409575D01*
X207010Y437515D02*
X207010Y443865D01*
X207010Y437515D02*
X234950Y409575D01*
X207010Y443865D02*
X179705Y471170D01*
X158750Y471170D01*
X146050Y483870D01*
X179705Y471170D02*
X216535Y471170D01*
X216535Y479425D01*
X222250Y485140D01*
X223203Y474028D02*
X220345Y471170D01*
X223203Y474028D02*
X223203Y478473D01*
X229870Y485140D01*
X385445Y154305D02*
X395605Y154305D01*
X385445Y154305D02*
X382905Y156845D01*
X382905Y166370D01*
X347345Y187325D02*
X333375Y201295D01*
X361950Y187325D02*
X382905Y166370D01*
X361950Y187325D02*
X347345Y187325D01*
X66040Y63500D02*
X34290Y63500D01*
X66040Y63500D02*
X76200Y73660D01*
X393700Y476250D02*
X393700Y490220D01*
X393700Y483235D02*
X384810Y474345D01*
X276860Y471170D02*
X229235Y471170D01*
X220345Y471170D02*
X216535Y471170D01*
X340995Y474345D02*
X384810Y474345D01*
X340995Y474345D02*
X330200Y485140D01*
X290830Y485140D01*
X276860Y471170D01*
X342265Y422910D02*
X343535Y421640D01*
X277495Y422910D02*
X229235Y471170D01*
X220345Y471170D01*
X277495Y422910D02*
X342265Y422910D01*
X259715Y345440D02*
X254000Y345440D01*
X76200Y64135D02*
X75565Y63500D01*
X66040Y63500D01*
D16*
X194188Y224668D02*
X194445Y224925D01*
X194188Y224668D02*
X194188Y220980D01*
X236220Y213360D02*
X250190Y213360D01*
X236220Y213360D02*
X234950Y214630D01*
D21*
X241300Y309245D02*
X241300Y319405D01*
D13*
X321310Y375920D03*
D14*
X310515Y375920D01*
X287655Y398780D01*
X283210Y398780D01*
D13*
X283210Y398780D03*
X229870Y440690D03*
X229730Y446960D03*
D14*
X387350Y421640D02*
X391160Y425450D01*
X387350Y421640D02*
X370840Y421640D01*
D13*
X397510Y425450D03*
X397510Y419100D03*
X391160Y419100D03*
D14*
X391160Y425450D02*
X397510Y425450D01*
X397510Y419100D01*
D13*
X391160Y425450D03*
D14*
X391160Y419100D02*
X397510Y419100D01*
D13*
X287020Y394970D03*
X290830Y391160D03*
D17*
X321310Y375920D02*
X367030Y421640D01*
X387350Y421640D01*
X277910Y398780D02*
X229730Y446960D01*
X277910Y398780D02*
X283210Y398780D01*
X287020Y394970D02*
X302260Y394970D01*
X321310Y375920D01*
D12*
X138430Y361950D03*
X88900Y339090D03*
X53340Y415290D03*
X88900Y429260D03*
X137160Y440690D03*
X129540Y440690D03*
X148590Y448310D03*
D14*
X65405Y429260D02*
X53340Y417195D01*
X53340Y415290D01*
X65405Y429260D02*
X88900Y429260D01*
X100330Y440690D01*
X137160Y440690D01*
X144780Y448310D01*
D12*
X111911Y426499D03*
D14*
X124460Y361950D02*
X138430Y361950D01*
X124460Y361950D02*
X111760Y361950D01*
X88900Y339090D01*
X124460Y361950D02*
X124460Y392430D01*
X124425Y395005D01*
X90170Y429260D02*
X88900Y429260D01*
X90170Y429260D02*
X124425Y395005D01*
D12*
X53340Y402369D03*
D14*
X53340Y415290D01*
D12*
X96520Y256540D03*
D16*
X91440Y336550D02*
X88900Y339090D01*
X91440Y261620D02*
X96520Y256540D01*
X91440Y261620D02*
X91440Y336550D01*
D14*
X144780Y448310D02*
X148590Y448310D01*
D13*
X72681Y435319D03*
D16*
X78740Y429260D01*
X88900Y429260D01*
D10*
X256540Y276860D03*
X274426Y316865D03*
D11*
X174307Y146368D03*
D10*
X306070Y252730D03*
X218357Y220855D03*
X187325Y193781D03*
D11*
X170180Y163830D03*
D10*
X217805Y231140D03*
X191770Y199390D03*
X210185Y197485D03*
D11*
X165100Y167640D03*
D10*
X209810Y285490D03*
D13*
X166264Y254000D03*
X22860Y229870D03*
D10*
X226060Y172085D03*
X240665Y180975D03*
D13*
X176530Y336550D03*
X193040Y326390D03*
X111760Y486410D03*
D10*
X233680Y294005D03*
X227965Y277495D03*
D13*
X290828Y378968D03*
D10*
X220452Y284872D03*
D13*
X285531Y378241D03*
D10*
X225425Y196850D03*
X201620Y181436D03*
X217805Y205105D03*
X209144Y167234D03*
X313690Y268605D03*
D13*
X290724Y331491D03*
D10*
X273791Y293934D03*
X274320Y284480D03*
X306070Y278130D03*
D13*
X347804Y310056D03*
X347980Y301625D03*
X349639Y323321D03*
X456565Y286279D03*
X490220Y300990D03*
D10*
X296985Y285419D03*
X322171Y308504D03*
D13*
X323215Y334010D03*
X304165Y469900D03*
D10*
X297180Y302260D03*
D13*
X299720Y464820D03*
D10*
X261980Y167871D03*
D13*
X200660Y365760D03*
X180547Y282545D03*
X180774Y247650D03*
D10*
X281940Y172720D03*
X248285Y308610D03*
D13*
X285856Y346850D03*
D10*
X337185Y283739D03*
X339725Y242570D03*
X287655Y228600D03*
X285750Y239395D03*
X262890Y266065D03*
X250190Y266065D03*
X257810Y285115D03*
X297180Y278130D03*
D13*
X300884Y326540D03*
D10*
X336410Y307200D03*
D13*
X334860Y333862D03*
D10*
X226060Y222250D03*
X237490Y237490D03*
X237490Y254000D03*
X259715Y325120D03*
D13*
X266700Y379730D03*
X241935Y294005D03*
D10*
X248285Y300355D03*
D13*
X252730Y325120D03*
X255905Y379730D03*
D10*
X257810Y163830D03*
X190500Y163830D03*
D11*
X167857Y174794D03*
D13*
X175477Y273050D03*
X175477Y248814D03*
D10*
X227965Y163971D03*
X218440Y167005D03*
X201536Y212090D03*
X186690Y283210D03*
X186690Y246486D03*
D12*
X424180Y377190D03*
D10*
X210820Y220980D03*
X300990Y312420D03*
D12*
X430270Y368470D03*
X423551Y369570D03*
D10*
X289560Y300990D03*
X286708Y316230D03*
X190500Y318770D03*
D13*
X205740Y330200D03*
D10*
X216535Y276225D03*
D13*
X185420Y330200D03*
X318135Y328295D03*
D10*
X335280Y229870D03*
X273050Y174625D03*
D13*
X295910Y149860D03*
D10*
X297815Y187960D03*
X306070Y260350D03*
D13*
X356870Y285861D03*
D10*
X289560Y269240D03*
D13*
X362585Y304165D03*
D10*
X289560Y276860D03*
X340613Y302642D03*
X335088Y236961D03*
X298450Y213360D03*
X335280Y322580D03*
X229870Y316865D03*
D13*
X274320Y345440D03*
D10*
X295910Y322580D03*
X218547Y293762D03*
X297180Y316230D03*
X267158Y325120D03*
D13*
X342900Y324485D03*
X121920Y486410D03*
D10*
X234315Y301625D03*
X282575Y300990D03*
X273685Y302895D03*
X323850Y157480D03*
D13*
X250190Y62971D03*
D10*
X273685Y198120D03*
X249555Y174625D03*
X313690Y277495D03*
D13*
X344805Y284480D03*
X346075Y290195D03*
D10*
X336993Y293899D03*
X281940Y284480D03*
X342900Y314960D03*
X283210Y277495D03*
D13*
X365125Y323215D03*
D10*
X201295Y220345D03*
X187325Y229235D03*
D11*
X170180Y204470D03*
D13*
X31750Y220980D03*
D10*
X216761Y262029D03*
D13*
X95250Y189590D03*
D10*
X209550Y261620D03*
D13*
X95250Y194887D03*
D10*
X318770Y162560D03*
D13*
X302260Y149860D03*
D11*
X168346Y181504D03*
D13*
X170180Y275590D03*
X170180Y248814D03*
D12*
X49530Y373380D03*
X54610Y293370D03*
X41910Y378460D03*
X46990Y384810D03*
X45085Y400050D03*
X45720Y391983D03*
X154425Y372301D03*
X138430Y378460D03*
X137160Y403860D03*
X142240Y398399D03*
X148590Y394399D03*
X149308Y385528D03*
X101600Y276860D03*
X72540Y264160D03*
D10*
X273050Y189230D03*
D13*
X351790Y210291D03*
D10*
X336007Y272409D03*
D13*
X347980Y206264D03*
D10*
X332213Y268078D03*
M02*
