G04 EAGLE Gerber RS-274X export*
G75*
%MOMM*%
%FSLAX34Y34*%
%LPD*%
%INCopper Layer 2*%
%IPPOS*%
%AMOC8*
5,1,8,0,0,1.08239X$1,22.5*%
G01*
%ADD10C,0.406400*%
%ADD11C,0.457200*%
%ADD12C,0.553200*%
%ADD13C,0.403200*%

G36*
X490107Y1068D02*
X490107Y1068D01*
X490135Y1066D01*
X490295Y1083D01*
X492863Y1528D01*
X492956Y1557D01*
X493052Y1576D01*
X493149Y1616D01*
X493168Y1621D01*
X493177Y1627D01*
X493201Y1637D01*
X497939Y3937D01*
X497940Y3937D01*
X497945Y3940D01*
X498074Y4024D01*
X498207Y4109D01*
X498210Y4112D01*
X498211Y4113D01*
X498215Y4117D01*
X498323Y4221D01*
X501900Y8095D01*
X501991Y8223D01*
X502082Y8349D01*
X502084Y8353D01*
X502085Y8354D01*
X502087Y8359D01*
X502150Y8495D01*
X504066Y13408D01*
X504090Y13502D01*
X504123Y13594D01*
X504139Y13697D01*
X504144Y13716D01*
X504144Y13728D01*
X504148Y13753D01*
X504390Y16390D01*
X504390Y16411D01*
X504396Y16508D01*
X504394Y17429D01*
X504395Y17434D01*
X504394Y17443D01*
X504394Y17451D01*
X504396Y17474D01*
X504396Y91699D01*
X504381Y91817D01*
X504373Y91936D01*
X504361Y91974D01*
X504356Y92015D01*
X504312Y92125D01*
X504275Y92239D01*
X504254Y92273D01*
X504239Y92310D01*
X504169Y92407D01*
X504105Y92507D01*
X504076Y92535D01*
X504052Y92568D01*
X503960Y92644D01*
X503874Y92725D01*
X503838Y92745D01*
X503807Y92770D01*
X503699Y92821D01*
X503595Y92879D01*
X503556Y92889D01*
X503519Y92906D01*
X503403Y92928D01*
X503287Y92958D01*
X503227Y92962D01*
X503207Y92966D01*
X503187Y92965D01*
X503127Y92968D01*
X500179Y92968D01*
X498098Y95049D01*
X498098Y97991D01*
X498905Y98798D01*
X498978Y98892D01*
X499056Y98981D01*
X499075Y99017D01*
X499100Y99049D01*
X499147Y99158D01*
X499201Y99264D01*
X499210Y99303D01*
X499226Y99341D01*
X499245Y99458D01*
X499271Y99574D01*
X499270Y99615D01*
X499276Y99655D01*
X499265Y99773D01*
X499261Y99892D01*
X499250Y99931D01*
X499246Y99971D01*
X499206Y100083D01*
X499173Y100198D01*
X499152Y100233D01*
X499138Y100271D01*
X499072Y100369D01*
X499011Y100472D01*
X498971Y100517D01*
X498960Y100534D01*
X498944Y100547D01*
X498905Y100593D01*
X498098Y101399D01*
X498098Y104341D01*
X498905Y105148D01*
X498978Y105242D01*
X499056Y105331D01*
X499075Y105367D01*
X499100Y105399D01*
X499147Y105508D01*
X499201Y105614D01*
X499210Y105653D01*
X499226Y105691D01*
X499245Y105808D01*
X499271Y105924D01*
X499270Y105965D01*
X499276Y106005D01*
X499265Y106123D01*
X499261Y106242D01*
X499250Y106281D01*
X499246Y106321D01*
X499206Y106433D01*
X499173Y106548D01*
X499152Y106583D01*
X499138Y106621D01*
X499072Y106719D01*
X499011Y106822D01*
X498971Y106867D01*
X498960Y106884D01*
X498944Y106897D01*
X498905Y106943D01*
X498098Y107749D01*
X498098Y110691D01*
X500179Y112772D01*
X503127Y112772D01*
X503245Y112787D01*
X503363Y112794D01*
X503402Y112806D01*
X503442Y112811D01*
X503553Y112855D01*
X503666Y112892D01*
X503700Y112914D01*
X503738Y112929D01*
X503834Y112998D01*
X503935Y113062D01*
X503962Y113092D01*
X503995Y113115D01*
X504071Y113207D01*
X504153Y113294D01*
X504172Y113329D01*
X504198Y113360D01*
X504249Y113468D01*
X504306Y113572D01*
X504316Y113611D01*
X504333Y113648D01*
X504356Y113765D01*
X504386Y113880D01*
X504389Y113940D01*
X504393Y113960D01*
X504392Y113981D01*
X504396Y114041D01*
X504396Y474019D01*
X504387Y474088D01*
X504388Y474158D01*
X504367Y474245D01*
X504356Y474334D01*
X504330Y474399D01*
X504314Y474467D01*
X504272Y474546D01*
X504239Y474630D01*
X504198Y474686D01*
X504165Y474748D01*
X504105Y474815D01*
X504052Y474887D01*
X503998Y474932D01*
X503951Y474983D01*
X503876Y475033D01*
X503807Y475090D01*
X503744Y475120D01*
X503686Y475158D01*
X503601Y475187D01*
X503519Y475226D01*
X503451Y475239D01*
X503385Y475261D01*
X503295Y475268D01*
X503207Y475285D01*
X503137Y475281D01*
X503068Y475287D01*
X502979Y475271D01*
X502890Y475266D01*
X502823Y475244D01*
X502754Y475232D01*
X502672Y475195D01*
X502587Y475168D01*
X502528Y475130D01*
X502464Y475102D01*
X502394Y475046D01*
X502318Y474997D01*
X502271Y474947D01*
X502216Y474903D01*
X502162Y474831D01*
X502100Y474766D01*
X502067Y474705D01*
X502025Y474649D01*
X501954Y474504D01*
X499975Y469726D01*
X495474Y465225D01*
X489593Y462789D01*
X483227Y462789D01*
X477346Y465225D01*
X472845Y469726D01*
X470409Y475607D01*
X470409Y481973D01*
X472845Y487854D01*
X477346Y492355D01*
X482124Y494334D01*
X482185Y494368D01*
X482250Y494394D01*
X482322Y494447D01*
X482401Y494491D01*
X482451Y494540D01*
X482507Y494581D01*
X482565Y494650D01*
X482629Y494713D01*
X482665Y494772D01*
X482710Y494826D01*
X482748Y494907D01*
X482795Y494984D01*
X482816Y495051D01*
X482846Y495114D01*
X482862Y495202D01*
X482889Y495288D01*
X482892Y495357D01*
X482905Y495426D01*
X482900Y495516D01*
X482904Y495605D01*
X482890Y495674D01*
X482886Y495743D01*
X482858Y495829D01*
X482840Y495917D01*
X482809Y495980D01*
X482788Y496046D01*
X482740Y496122D01*
X482700Y496203D01*
X482655Y496256D01*
X482617Y496315D01*
X482552Y496376D01*
X482494Y496445D01*
X482437Y496485D01*
X482386Y496533D01*
X482307Y496576D01*
X482234Y496628D01*
X482168Y496652D01*
X482107Y496686D01*
X482020Y496708D01*
X481936Y496740D01*
X481867Y496748D01*
X481799Y496766D01*
X481639Y496776D01*
X281083Y496776D01*
X280945Y496758D01*
X280806Y496745D01*
X280787Y496738D01*
X280767Y496736D01*
X280638Y496685D01*
X280507Y496638D01*
X280490Y496626D01*
X280471Y496619D01*
X280359Y496537D01*
X280244Y496459D01*
X280230Y496444D01*
X280214Y496432D01*
X280125Y496325D01*
X280033Y496221D01*
X280024Y496203D01*
X280011Y496187D01*
X279952Y496061D01*
X279889Y495937D01*
X279884Y495918D01*
X279876Y495899D01*
X279850Y495763D01*
X279819Y495627D01*
X279820Y495607D01*
X279816Y495587D01*
X279824Y495449D01*
X279829Y495309D01*
X279834Y495290D01*
X279836Y495270D01*
X279878Y495138D01*
X279917Y495004D01*
X279927Y494986D01*
X279934Y494967D01*
X280008Y494849D01*
X280079Y494730D01*
X280097Y494709D01*
X280104Y494698D01*
X280119Y494684D01*
X280185Y494609D01*
X282257Y492537D01*
X283361Y489872D01*
X283361Y486988D01*
X282257Y484323D01*
X280217Y482283D01*
X277552Y481179D01*
X274668Y481179D01*
X272003Y482283D01*
X269963Y484323D01*
X268859Y486988D01*
X268859Y489872D01*
X269963Y492537D01*
X272035Y494609D01*
X272120Y494719D01*
X272209Y494826D01*
X272217Y494844D01*
X272230Y494860D01*
X272285Y494988D01*
X272344Y495114D01*
X272348Y495133D01*
X272356Y495152D01*
X272378Y495290D01*
X272404Y495426D01*
X272403Y495446D01*
X272406Y495466D01*
X272393Y495605D01*
X272384Y495743D01*
X272378Y495763D01*
X272376Y495783D01*
X272329Y495914D01*
X272286Y496046D01*
X272276Y496063D01*
X272269Y496082D01*
X272191Y496197D01*
X272116Y496315D01*
X272101Y496329D01*
X272090Y496345D01*
X271986Y496437D01*
X271885Y496533D01*
X271867Y496542D01*
X271852Y496556D01*
X271728Y496619D01*
X271606Y496686D01*
X271587Y496691D01*
X271568Y496700D01*
X271433Y496731D01*
X271298Y496766D01*
X271270Y496767D01*
X271258Y496770D01*
X271238Y496769D01*
X271137Y496776D01*
X201083Y496776D01*
X200945Y496758D01*
X200806Y496745D01*
X200787Y496738D01*
X200767Y496736D01*
X200638Y496685D01*
X200507Y496638D01*
X200490Y496626D01*
X200471Y496619D01*
X200359Y496537D01*
X200244Y496459D01*
X200230Y496444D01*
X200214Y496432D01*
X200125Y496325D01*
X200033Y496221D01*
X200024Y496203D01*
X200011Y496187D01*
X199952Y496061D01*
X199889Y495937D01*
X199884Y495918D01*
X199876Y495899D01*
X199850Y495763D01*
X199819Y495627D01*
X199820Y495607D01*
X199816Y495587D01*
X199824Y495449D01*
X199829Y495309D01*
X199834Y495290D01*
X199836Y495270D01*
X199878Y495138D01*
X199917Y495004D01*
X199927Y494986D01*
X199934Y494967D01*
X200008Y494849D01*
X200079Y494730D01*
X200097Y494709D01*
X200104Y494698D01*
X200119Y494684D01*
X200185Y494609D01*
X202257Y492537D01*
X203361Y489872D01*
X203361Y486988D01*
X202257Y484323D01*
X200217Y482283D01*
X197552Y481179D01*
X194668Y481179D01*
X192003Y482283D01*
X189963Y484323D01*
X188859Y486988D01*
X188859Y489872D01*
X189963Y492537D01*
X192035Y494609D01*
X192120Y494719D01*
X192209Y494826D01*
X192217Y494844D01*
X192230Y494860D01*
X192285Y494988D01*
X192344Y495114D01*
X192348Y495133D01*
X192356Y495152D01*
X192378Y495290D01*
X192404Y495426D01*
X192403Y495446D01*
X192406Y495466D01*
X192393Y495605D01*
X192384Y495743D01*
X192378Y495763D01*
X192376Y495783D01*
X192329Y495914D01*
X192286Y496046D01*
X192276Y496063D01*
X192269Y496082D01*
X192191Y496197D01*
X192116Y496315D01*
X192101Y496329D01*
X192090Y496345D01*
X191986Y496437D01*
X191885Y496533D01*
X191867Y496542D01*
X191852Y496556D01*
X191728Y496619D01*
X191606Y496686D01*
X191587Y496691D01*
X191568Y496700D01*
X191433Y496731D01*
X191298Y496766D01*
X191270Y496767D01*
X191258Y496770D01*
X191238Y496769D01*
X191137Y496776D01*
X15381Y496776D01*
X15353Y496772D01*
X15325Y496774D01*
X15165Y496757D01*
X12597Y496312D01*
X12504Y496283D01*
X12408Y496264D01*
X12311Y496224D01*
X12292Y496219D01*
X12283Y496213D01*
X12259Y496203D01*
X7521Y493903D01*
X7520Y493903D01*
X7515Y493900D01*
X7386Y493816D01*
X7253Y493731D01*
X7250Y493728D01*
X7249Y493727D01*
X7245Y493723D01*
X7137Y493619D01*
X3560Y489745D01*
X3469Y489617D01*
X3378Y489491D01*
X3376Y489487D01*
X3375Y489486D01*
X3373Y489481D01*
X3310Y489345D01*
X1394Y484432D01*
X1370Y484338D01*
X1337Y484246D01*
X1321Y484143D01*
X1316Y484124D01*
X1316Y484112D01*
X1312Y484087D01*
X1070Y481450D01*
X1070Y481429D01*
X1064Y481332D01*
X1066Y480411D01*
X1065Y480406D01*
X1066Y480397D01*
X1066Y480389D01*
X1064Y480366D01*
X1064Y15381D01*
X1068Y15353D01*
X1066Y15325D01*
X1083Y15165D01*
X1528Y12597D01*
X1557Y12504D01*
X1576Y12408D01*
X1616Y12311D01*
X1621Y12292D01*
X1627Y12283D01*
X1637Y12259D01*
X3940Y7515D01*
X4024Y7386D01*
X4109Y7253D01*
X4112Y7250D01*
X4113Y7249D01*
X4117Y7245D01*
X4221Y7137D01*
X8095Y3560D01*
X8223Y3469D01*
X8349Y3378D01*
X8353Y3376D01*
X8354Y3375D01*
X8359Y3373D01*
X8495Y3310D01*
X13408Y1394D01*
X13502Y1370D01*
X13594Y1337D01*
X13697Y1321D01*
X13716Y1316D01*
X13728Y1316D01*
X13753Y1312D01*
X16390Y1070D01*
X16411Y1070D01*
X16508Y1064D01*
X17429Y1066D01*
X17434Y1065D01*
X17443Y1066D01*
X17451Y1066D01*
X17474Y1064D01*
X490079Y1064D01*
X490107Y1068D01*
G37*
%LPC*%
G36*
X17137Y461519D02*
X17137Y461519D01*
X11256Y463955D01*
X6755Y468456D01*
X4319Y474337D01*
X4319Y480703D01*
X6755Y486584D01*
X11256Y491085D01*
X17137Y493521D01*
X23503Y493521D01*
X29384Y491085D01*
X33885Y486584D01*
X36321Y480703D01*
X36321Y476461D01*
X36338Y476323D01*
X36351Y476185D01*
X36358Y476166D01*
X36361Y476145D01*
X36412Y476016D01*
X36459Y475885D01*
X36470Y475868D01*
X36478Y475850D01*
X36559Y475737D01*
X36637Y475622D01*
X36653Y475609D01*
X36664Y475592D01*
X36772Y475504D01*
X36876Y475412D01*
X36894Y475402D01*
X36909Y475390D01*
X37035Y475330D01*
X37159Y475267D01*
X37179Y475263D01*
X37197Y475254D01*
X37334Y475228D01*
X37469Y475197D01*
X37490Y475198D01*
X37509Y475194D01*
X37648Y475203D01*
X37787Y475207D01*
X37807Y475213D01*
X37827Y475214D01*
X37959Y475257D01*
X38093Y475295D01*
X38110Y475306D01*
X38129Y475312D01*
X38247Y475386D01*
X38367Y475457D01*
X38388Y475476D01*
X38398Y475482D01*
X38412Y475497D01*
X38487Y475563D01*
X39281Y476357D01*
X41999Y476357D01*
X43922Y474434D01*
X43922Y471716D01*
X41999Y469793D01*
X39281Y469793D01*
X37200Y471874D01*
X37161Y471905D01*
X37127Y471941D01*
X37036Y472002D01*
X36949Y472069D01*
X36903Y472089D01*
X36862Y472116D01*
X36758Y472152D01*
X36657Y472195D01*
X36608Y472203D01*
X36561Y472219D01*
X36451Y472228D01*
X36343Y472245D01*
X36293Y472241D01*
X36244Y472244D01*
X36136Y472226D01*
X36026Y472215D01*
X35979Y472199D01*
X35930Y472190D01*
X35830Y472145D01*
X35727Y472108D01*
X35686Y472080D01*
X35640Y472059D01*
X35555Y471991D01*
X35464Y471929D01*
X35431Y471892D01*
X35392Y471861D01*
X35326Y471773D01*
X35253Y471691D01*
X35231Y471646D01*
X35201Y471607D01*
X35130Y471462D01*
X33885Y468456D01*
X29384Y463955D01*
X23503Y461519D01*
X17137Y461519D01*
G37*
%LPD*%
%LPC*%
G36*
X18407Y5589D02*
X18407Y5589D01*
X12526Y8025D01*
X8025Y12526D01*
X5589Y18407D01*
X5589Y24773D01*
X8025Y30654D01*
X12526Y35155D01*
X18407Y37591D01*
X24773Y37591D01*
X30654Y35155D01*
X35155Y30654D01*
X37591Y24773D01*
X37591Y18407D01*
X35155Y12526D01*
X30654Y8025D01*
X24773Y5589D01*
X18407Y5589D01*
G37*
%LPD*%
%LPC*%
G36*
X481957Y4319D02*
X481957Y4319D01*
X476076Y6755D01*
X471575Y11256D01*
X469139Y17137D01*
X469139Y23503D01*
X471575Y29384D01*
X476076Y33885D01*
X481957Y36321D01*
X488323Y36321D01*
X494204Y33885D01*
X498705Y29384D01*
X501141Y23503D01*
X501141Y17137D01*
X498705Y11256D01*
X494204Y6755D01*
X488323Y4319D01*
X481957Y4319D01*
G37*
%LPD*%
%LPC*%
G36*
X312324Y265307D02*
X312324Y265307D01*
X310392Y267239D01*
X310392Y269971D01*
X312574Y272153D01*
X312647Y272247D01*
X312726Y272336D01*
X312744Y272372D01*
X312769Y272404D01*
X312816Y272513D01*
X312870Y272619D01*
X312879Y272658D01*
X312895Y272696D01*
X312914Y272813D01*
X312940Y272929D01*
X312939Y272970D01*
X312945Y273010D01*
X312934Y273128D01*
X312930Y273247D01*
X312919Y273286D01*
X312915Y273326D01*
X312875Y273438D01*
X312842Y273553D01*
X312821Y273588D01*
X312808Y273626D01*
X312741Y273724D01*
X312680Y273827D01*
X312641Y273872D01*
X312629Y273889D01*
X312614Y273902D01*
X312574Y273948D01*
X310460Y276061D01*
X310366Y276135D01*
X310277Y276213D01*
X310241Y276232D01*
X310209Y276256D01*
X310099Y276304D01*
X309993Y276358D01*
X309954Y276367D01*
X309917Y276383D01*
X309799Y276401D01*
X309683Y276427D01*
X309643Y276426D01*
X309603Y276433D01*
X309484Y276421D01*
X309365Y276418D01*
X309326Y276407D01*
X309286Y276403D01*
X309174Y276362D01*
X309060Y276329D01*
X309025Y276309D01*
X308987Y276295D01*
X308888Y276228D01*
X308786Y276168D01*
X308741Y276128D01*
X308724Y276117D01*
X308710Y276101D01*
X308665Y276061D01*
X307436Y274832D01*
X304704Y274832D01*
X302523Y277014D01*
X302428Y277087D01*
X302339Y277166D01*
X302303Y277184D01*
X302271Y277209D01*
X302162Y277256D01*
X302056Y277310D01*
X302017Y277319D01*
X301979Y277335D01*
X301862Y277354D01*
X301746Y277380D01*
X301705Y277379D01*
X301665Y277385D01*
X301547Y277374D01*
X301428Y277370D01*
X301389Y277359D01*
X301349Y277355D01*
X301236Y277315D01*
X301122Y277282D01*
X301088Y277261D01*
X301049Y277248D01*
X300951Y277181D01*
X300848Y277120D01*
X300803Y277080D01*
X300786Y277069D01*
X300773Y277054D01*
X300728Y277014D01*
X298546Y274832D01*
X295814Y274832D01*
X294902Y275744D01*
X294808Y275817D01*
X294719Y275896D01*
X294683Y275914D01*
X294651Y275939D01*
X294542Y275986D01*
X294436Y276040D01*
X294397Y276049D01*
X294359Y276065D01*
X294242Y276084D01*
X294126Y276110D01*
X294085Y276109D01*
X294045Y276115D01*
X293927Y276104D01*
X293808Y276100D01*
X293769Y276089D01*
X293729Y276085D01*
X293616Y276045D01*
X293502Y276012D01*
X293467Y275991D01*
X293429Y275978D01*
X293331Y275911D01*
X293228Y275850D01*
X293183Y275810D01*
X293166Y275799D01*
X293153Y275784D01*
X293107Y275744D01*
X291311Y273948D01*
X291238Y273853D01*
X291159Y273764D01*
X291141Y273728D01*
X291116Y273696D01*
X291069Y273587D01*
X291015Y273481D01*
X291006Y273442D01*
X290990Y273404D01*
X290971Y273287D01*
X290945Y273171D01*
X290946Y273130D01*
X290940Y273090D01*
X290951Y272972D01*
X290955Y272853D01*
X290966Y272814D01*
X290970Y272774D01*
X291010Y272661D01*
X291043Y272547D01*
X291064Y272513D01*
X291077Y272474D01*
X291144Y272376D01*
X291205Y272273D01*
X291245Y272228D01*
X291256Y272211D01*
X291271Y272198D01*
X291311Y272153D01*
X292858Y270606D01*
X292858Y267874D01*
X290926Y265942D01*
X288194Y265942D01*
X286262Y267874D01*
X286262Y270606D01*
X287809Y272153D01*
X287882Y272247D01*
X287961Y272336D01*
X287979Y272372D01*
X288004Y272404D01*
X288051Y272513D01*
X288105Y272619D01*
X288114Y272658D01*
X288130Y272696D01*
X288149Y272813D01*
X288175Y272929D01*
X288174Y272970D01*
X288180Y273010D01*
X288169Y273128D01*
X288165Y273247D01*
X288154Y273286D01*
X288150Y273326D01*
X288110Y273439D01*
X288077Y273553D01*
X288056Y273588D01*
X288043Y273626D01*
X287976Y273724D01*
X287915Y273827D01*
X287875Y273872D01*
X287864Y273889D01*
X287849Y273902D01*
X287809Y273948D01*
X286965Y274791D01*
X286871Y274865D01*
X286782Y274943D01*
X286746Y274962D01*
X286714Y274986D01*
X286604Y275034D01*
X286498Y275088D01*
X286459Y275097D01*
X286422Y275113D01*
X286304Y275131D01*
X286188Y275157D01*
X286148Y275156D01*
X286108Y275163D01*
X285989Y275151D01*
X285870Y275148D01*
X285831Y275137D01*
X285791Y275133D01*
X285679Y275092D01*
X285565Y275059D01*
X285530Y275039D01*
X285492Y275025D01*
X285393Y274958D01*
X285291Y274898D01*
X285246Y274858D01*
X285229Y274847D01*
X285215Y274831D01*
X285170Y274791D01*
X284576Y274197D01*
X281844Y274197D01*
X279759Y276283D01*
X279649Y276368D01*
X279542Y276457D01*
X279523Y276465D01*
X279507Y276478D01*
X279379Y276533D01*
X279254Y276592D01*
X279234Y276596D01*
X279216Y276604D01*
X279078Y276626D01*
X278942Y276652D01*
X278922Y276651D01*
X278901Y276654D01*
X278762Y276641D01*
X278624Y276632D01*
X278605Y276626D01*
X278585Y276624D01*
X278454Y276577D01*
X278322Y276534D01*
X278305Y276523D01*
X278286Y276517D01*
X278170Y276438D01*
X278053Y276364D01*
X278039Y276349D01*
X278022Y276338D01*
X277930Y276234D01*
X277835Y276132D01*
X277825Y276115D01*
X277812Y276100D01*
X277749Y275975D01*
X277682Y275854D01*
X277677Y275834D01*
X277667Y275816D01*
X277637Y275680D01*
X277602Y275546D01*
X277601Y275529D01*
X275660Y273588D01*
X272928Y273588D01*
X270772Y275744D01*
X270678Y275817D01*
X270589Y275896D01*
X270553Y275914D01*
X270521Y275939D01*
X270412Y275986D01*
X270306Y276040D01*
X270267Y276049D01*
X270229Y276065D01*
X270112Y276084D01*
X269996Y276110D01*
X269955Y276109D01*
X269915Y276115D01*
X269797Y276104D01*
X269678Y276100D01*
X269639Y276089D01*
X269599Y276085D01*
X269487Y276045D01*
X269372Y276012D01*
X269337Y275991D01*
X269299Y275978D01*
X269201Y275911D01*
X269098Y275850D01*
X269053Y275811D01*
X269036Y275799D01*
X269023Y275784D01*
X268977Y275744D01*
X266796Y273562D01*
X264064Y273562D01*
X261882Y275744D01*
X261788Y275817D01*
X261699Y275896D01*
X261663Y275914D01*
X261631Y275939D01*
X261522Y275986D01*
X261416Y276040D01*
X261377Y276049D01*
X261339Y276065D01*
X261222Y276084D01*
X261106Y276110D01*
X261065Y276109D01*
X261025Y276115D01*
X260907Y276104D01*
X260788Y276100D01*
X260749Y276089D01*
X260709Y276085D01*
X260597Y276045D01*
X260482Y276012D01*
X260447Y275991D01*
X260409Y275978D01*
X260311Y275911D01*
X260208Y275850D01*
X260163Y275811D01*
X260146Y275799D01*
X260133Y275784D01*
X260087Y275744D01*
X257906Y273562D01*
X255174Y273562D01*
X253242Y275494D01*
X253242Y278226D01*
X255193Y280176D01*
X255316Y280188D01*
X255335Y280195D01*
X255355Y280197D01*
X255484Y280248D01*
X255615Y280296D01*
X255632Y280307D01*
X255651Y280315D01*
X255763Y280396D01*
X255878Y280474D01*
X255892Y280489D01*
X255908Y280501D01*
X255997Y280609D01*
X256089Y280713D01*
X256098Y280731D01*
X256111Y280746D01*
X256170Y280872D01*
X256233Y280996D01*
X256238Y281016D01*
X256246Y281034D01*
X256273Y281170D01*
X256303Y281306D01*
X256302Y281327D01*
X256306Y281346D01*
X256298Y281485D01*
X256293Y281624D01*
X256288Y281644D01*
X256287Y281664D01*
X256244Y281796D01*
X256205Y281930D01*
X256195Y281947D01*
X256188Y281966D01*
X256114Y282084D01*
X256043Y282204D01*
X256025Y282225D01*
X256018Y282235D01*
X256003Y282249D01*
X255937Y282324D01*
X254512Y283749D01*
X254512Y286481D01*
X256444Y288413D01*
X259176Y288413D01*
X261108Y286481D01*
X261108Y283749D01*
X259157Y281799D01*
X259034Y281787D01*
X259015Y281780D01*
X258995Y281778D01*
X258866Y281726D01*
X258735Y281679D01*
X258718Y281668D01*
X258699Y281660D01*
X258587Y281579D01*
X258472Y281501D01*
X258458Y281486D01*
X258442Y281474D01*
X258353Y281366D01*
X258261Y281262D01*
X258252Y281244D01*
X258239Y281229D01*
X258180Y281103D01*
X258117Y280979D01*
X258112Y280959D01*
X258104Y280941D01*
X258077Y280805D01*
X258047Y280669D01*
X258048Y280648D01*
X258044Y280629D01*
X258052Y280490D01*
X258057Y280351D01*
X258062Y280331D01*
X258063Y280311D01*
X258106Y280179D01*
X258145Y280045D01*
X258155Y280028D01*
X258162Y280009D01*
X258236Y279891D01*
X258307Y279771D01*
X258325Y279750D01*
X258332Y279740D01*
X258347Y279726D01*
X258413Y279651D01*
X260087Y277976D01*
X260182Y277903D01*
X260271Y277824D01*
X260307Y277806D01*
X260339Y277781D01*
X260448Y277734D01*
X260554Y277680D01*
X260593Y277671D01*
X260631Y277655D01*
X260748Y277636D01*
X260864Y277610D01*
X260905Y277611D01*
X260945Y277605D01*
X261063Y277616D01*
X261182Y277620D01*
X261221Y277631D01*
X261261Y277635D01*
X261374Y277675D01*
X261488Y277708D01*
X261522Y277729D01*
X261561Y277742D01*
X261659Y277809D01*
X261762Y277870D01*
X261807Y277910D01*
X261824Y277921D01*
X261837Y277936D01*
X261882Y277976D01*
X264064Y280158D01*
X266796Y280158D01*
X268952Y278002D01*
X269046Y277929D01*
X269135Y277850D01*
X269171Y277832D01*
X269203Y277807D01*
X269312Y277760D01*
X269418Y277705D01*
X269458Y277697D01*
X269495Y277681D01*
X269613Y277662D01*
X269729Y277636D01*
X269769Y277637D01*
X269809Y277631D01*
X269928Y277642D01*
X270046Y277645D01*
X270085Y277657D01*
X270126Y277660D01*
X270238Y277701D01*
X270352Y277734D01*
X270387Y277754D01*
X270425Y277768D01*
X270523Y277835D01*
X270626Y277895D01*
X270671Y277935D01*
X270688Y277947D01*
X270701Y277962D01*
X270747Y278002D01*
X272543Y279798D01*
X272616Y279892D01*
X272695Y279982D01*
X272713Y280018D01*
X272738Y280050D01*
X272786Y280159D01*
X272840Y280265D01*
X272848Y280304D01*
X272864Y280341D01*
X272883Y280459D01*
X272909Y280575D01*
X272908Y280615D01*
X272914Y280655D01*
X272903Y280774D01*
X272900Y280893D01*
X272888Y280932D01*
X272885Y280972D01*
X272844Y281084D01*
X272811Y281198D01*
X272791Y281233D01*
X272777Y281271D01*
X272710Y281370D01*
X272650Y281472D01*
X272610Y281518D01*
X272598Y281535D01*
X272583Y281548D01*
X272543Y281593D01*
X271022Y283114D01*
X271022Y285846D01*
X272954Y287778D01*
X275686Y287778D01*
X277232Y286231D01*
X277327Y286158D01*
X277416Y286079D01*
X277452Y286061D01*
X277484Y286036D01*
X277593Y285989D01*
X277699Y285935D01*
X277738Y285926D01*
X277776Y285910D01*
X277893Y285891D01*
X278009Y285865D01*
X278050Y285866D01*
X278090Y285860D01*
X278208Y285871D01*
X278327Y285875D01*
X278366Y285886D01*
X278406Y285890D01*
X278519Y285930D01*
X278633Y285963D01*
X278667Y285984D01*
X278706Y285997D01*
X278804Y286064D01*
X278907Y286125D01*
X278952Y286165D01*
X278969Y286176D01*
X278982Y286191D01*
X279027Y286231D01*
X280574Y287778D01*
X283306Y287778D01*
X285238Y285846D01*
X285238Y283114D01*
X284644Y282520D01*
X284571Y282426D01*
X284492Y282337D01*
X284473Y282301D01*
X284449Y282269D01*
X284401Y282160D01*
X284347Y282053D01*
X284338Y282014D01*
X284322Y281977D01*
X284304Y281859D01*
X284278Y281743D01*
X284279Y281703D01*
X284272Y281663D01*
X284284Y281544D01*
X284287Y281425D01*
X284298Y281386D01*
X284302Y281346D01*
X284343Y281234D01*
X284376Y281120D01*
X284396Y281085D01*
X284410Y281047D01*
X284477Y280948D01*
X284537Y280846D01*
X284577Y280800D01*
X284588Y280784D01*
X284604Y280770D01*
X284644Y280725D01*
X285805Y279564D01*
X285899Y279490D01*
X285988Y279412D01*
X286024Y279393D01*
X286056Y279369D01*
X286166Y279321D01*
X286272Y279267D01*
X286311Y279258D01*
X286348Y279242D01*
X286466Y279224D01*
X286582Y279198D01*
X286622Y279199D01*
X286662Y279192D01*
X286781Y279204D01*
X286900Y279207D01*
X286939Y279218D01*
X286979Y279222D01*
X287091Y279263D01*
X287205Y279296D01*
X287240Y279316D01*
X287278Y279330D01*
X287377Y279397D01*
X287479Y279457D01*
X287524Y279497D01*
X287541Y279508D01*
X287555Y279524D01*
X287600Y279564D01*
X288194Y280158D01*
X290926Y280158D01*
X291837Y279246D01*
X291931Y279173D01*
X292021Y279094D01*
X292057Y279076D01*
X292089Y279051D01*
X292198Y279004D01*
X292304Y278950D01*
X292343Y278941D01*
X292381Y278925D01*
X292498Y278906D01*
X292614Y278880D01*
X292655Y278881D01*
X292695Y278875D01*
X292813Y278886D01*
X292932Y278890D01*
X292971Y278901D01*
X293011Y278905D01*
X293124Y278945D01*
X293238Y278978D01*
X293272Y278999D01*
X293311Y279012D01*
X293409Y279079D01*
X293512Y279140D01*
X293557Y279180D01*
X293574Y279191D01*
X293587Y279206D01*
X293632Y279246D01*
X295166Y280780D01*
X295239Y280874D01*
X295318Y280963D01*
X295336Y280999D01*
X295361Y281031D01*
X295408Y281140D01*
X295462Y281246D01*
X295471Y281286D01*
X295487Y281323D01*
X295506Y281441D01*
X295532Y281556D01*
X295531Y281597D01*
X295537Y281637D01*
X295526Y281755D01*
X295522Y281874D01*
X295511Y281913D01*
X295507Y281953D01*
X295467Y282066D01*
X295434Y282180D01*
X295413Y282215D01*
X295400Y282253D01*
X295333Y282351D01*
X295272Y282454D01*
X295233Y282499D01*
X295221Y282516D01*
X295206Y282529D01*
X295166Y282575D01*
X293687Y284053D01*
X293687Y286785D01*
X295619Y288717D01*
X298351Y288717D01*
X300283Y286785D01*
X300283Y284053D01*
X298999Y282770D01*
X298926Y282675D01*
X298847Y282586D01*
X298829Y282550D01*
X298804Y282518D01*
X298757Y282409D01*
X298703Y282303D01*
X298694Y282264D01*
X298678Y282226D01*
X298659Y282109D01*
X298633Y281993D01*
X298634Y281952D01*
X298628Y281912D01*
X298639Y281794D01*
X298643Y281675D01*
X298654Y281636D01*
X298658Y281596D01*
X298698Y281484D01*
X298731Y281369D01*
X298752Y281335D01*
X298765Y281296D01*
X298832Y281198D01*
X298893Y281095D01*
X298932Y281050D01*
X298944Y281033D01*
X298959Y281020D01*
X298999Y280975D01*
X300728Y279246D01*
X300822Y279173D01*
X300911Y279094D01*
X300947Y279076D01*
X300979Y279051D01*
X301088Y279004D01*
X301194Y278950D01*
X301233Y278941D01*
X301271Y278925D01*
X301388Y278906D01*
X301504Y278880D01*
X301545Y278881D01*
X301585Y278875D01*
X301703Y278886D01*
X301822Y278890D01*
X301861Y278901D01*
X301901Y278905D01*
X302013Y278945D01*
X302128Y278978D01*
X302163Y278999D01*
X302201Y279012D01*
X302299Y279079D01*
X302402Y279140D01*
X302447Y279179D01*
X302464Y279191D01*
X302477Y279206D01*
X302523Y279246D01*
X304704Y281428D01*
X307436Y281428D01*
X309300Y279564D01*
X309394Y279490D01*
X309483Y279412D01*
X309519Y279393D01*
X309551Y279369D01*
X309661Y279321D01*
X309767Y279267D01*
X309806Y279258D01*
X309843Y279242D01*
X309961Y279224D01*
X310077Y279198D01*
X310117Y279199D01*
X310157Y279192D01*
X310276Y279204D01*
X310395Y279207D01*
X310434Y279218D01*
X310474Y279222D01*
X310586Y279263D01*
X310700Y279296D01*
X310735Y279316D01*
X310773Y279330D01*
X310872Y279397D01*
X310974Y279457D01*
X311019Y279497D01*
X311036Y279508D01*
X311050Y279524D01*
X311095Y279564D01*
X312324Y280793D01*
X315056Y280793D01*
X316988Y278861D01*
X316988Y276129D01*
X314806Y273948D01*
X314733Y273853D01*
X314654Y273764D01*
X314636Y273728D01*
X314611Y273696D01*
X314564Y273587D01*
X314510Y273481D01*
X314501Y273442D01*
X314485Y273404D01*
X314466Y273287D01*
X314440Y273171D01*
X314441Y273130D01*
X314435Y273090D01*
X314446Y272972D01*
X314450Y272853D01*
X314461Y272814D01*
X314465Y272774D01*
X314505Y272661D01*
X314538Y272547D01*
X314559Y272513D01*
X314572Y272474D01*
X314639Y272376D01*
X314700Y272273D01*
X314740Y272228D01*
X314751Y272211D01*
X314766Y272198D01*
X314806Y272153D01*
X316988Y269971D01*
X316988Y267239D01*
X315056Y265307D01*
X312324Y265307D01*
G37*
%LPD*%
%LPC*%
G36*
X265030Y37878D02*
X265030Y37878D01*
X262668Y40240D01*
X262668Y43580D01*
X264546Y45458D01*
X264619Y45552D01*
X264698Y45641D01*
X264716Y45677D01*
X264741Y45709D01*
X264788Y45818D01*
X264842Y45924D01*
X264851Y45963D01*
X264867Y46001D01*
X264886Y46118D01*
X264912Y46234D01*
X264911Y46275D01*
X264917Y46315D01*
X264906Y46433D01*
X264902Y46552D01*
X264891Y46591D01*
X264887Y46631D01*
X264847Y46743D01*
X264814Y46858D01*
X264793Y46893D01*
X264780Y46931D01*
X264713Y47029D01*
X264652Y47132D01*
X264613Y47177D01*
X264601Y47194D01*
X264586Y47207D01*
X264546Y47253D01*
X262668Y49130D01*
X262668Y52470D01*
X265030Y54832D01*
X268370Y54832D01*
X270248Y52954D01*
X270342Y52881D01*
X270431Y52802D01*
X270467Y52784D01*
X270499Y52759D01*
X270608Y52712D01*
X270714Y52658D01*
X270753Y52649D01*
X270791Y52633D01*
X270908Y52614D01*
X271024Y52588D01*
X271065Y52589D01*
X271105Y52583D01*
X271223Y52594D01*
X271342Y52598D01*
X271381Y52609D01*
X271421Y52613D01*
X271533Y52653D01*
X271648Y52686D01*
X271683Y52707D01*
X271721Y52720D01*
X271819Y52787D01*
X271922Y52848D01*
X271967Y52887D01*
X271984Y52899D01*
X271997Y52914D01*
X272043Y52954D01*
X273920Y54832D01*
X277260Y54832D01*
X278503Y53589D01*
X278597Y53516D01*
X278686Y53437D01*
X278722Y53419D01*
X278754Y53394D01*
X278863Y53347D01*
X278969Y53293D01*
X279008Y53284D01*
X279046Y53268D01*
X279163Y53249D01*
X279279Y53223D01*
X279320Y53224D01*
X279360Y53218D01*
X279478Y53229D01*
X279597Y53233D01*
X279636Y53244D01*
X279676Y53248D01*
X279788Y53288D01*
X279903Y53321D01*
X279938Y53342D01*
X279976Y53355D01*
X280074Y53422D01*
X280177Y53483D01*
X280222Y53522D01*
X280239Y53534D01*
X280252Y53549D01*
X280298Y53589D01*
X281540Y54832D01*
X284880Y54832D01*
X286758Y52954D01*
X286852Y52881D01*
X286941Y52802D01*
X286977Y52784D01*
X287009Y52759D01*
X287118Y52712D01*
X287224Y52658D01*
X287263Y52649D01*
X287301Y52633D01*
X287418Y52614D01*
X287534Y52588D01*
X287575Y52589D01*
X287615Y52583D01*
X287733Y52594D01*
X287852Y52598D01*
X287891Y52609D01*
X287931Y52613D01*
X288043Y52653D01*
X288158Y52686D01*
X288193Y52707D01*
X288231Y52720D01*
X288329Y52787D01*
X288432Y52848D01*
X288477Y52887D01*
X288494Y52899D01*
X288507Y52914D01*
X288553Y52954D01*
X290430Y54832D01*
X293770Y54832D01*
X296132Y52470D01*
X296132Y49130D01*
X294254Y47252D01*
X294181Y47158D01*
X294102Y47069D01*
X294084Y47033D01*
X294059Y47001D01*
X294012Y46892D01*
X293958Y46786D01*
X293949Y46747D01*
X293933Y46709D01*
X293914Y46592D01*
X293888Y46476D01*
X293889Y46435D01*
X293883Y46395D01*
X293894Y46277D01*
X293898Y46158D01*
X293909Y46119D01*
X293913Y46079D01*
X293953Y45967D01*
X293986Y45852D01*
X294007Y45817D01*
X294020Y45779D01*
X294087Y45681D01*
X294148Y45578D01*
X294187Y45533D01*
X294199Y45516D01*
X294214Y45503D01*
X294254Y45457D01*
X296132Y43580D01*
X296132Y40240D01*
X293770Y37878D01*
X290430Y37878D01*
X288553Y39756D01*
X288458Y39829D01*
X288369Y39908D01*
X288333Y39926D01*
X288301Y39951D01*
X288192Y39998D01*
X288086Y40052D01*
X288047Y40061D01*
X288009Y40077D01*
X287892Y40096D01*
X287776Y40122D01*
X287735Y40121D01*
X287695Y40127D01*
X287577Y40116D01*
X287458Y40112D01*
X287419Y40101D01*
X287379Y40097D01*
X287266Y40057D01*
X287152Y40024D01*
X287118Y40003D01*
X287079Y39990D01*
X286981Y39923D01*
X286878Y39862D01*
X286833Y39822D01*
X286816Y39811D01*
X286803Y39796D01*
X286758Y39756D01*
X284880Y37878D01*
X281540Y37878D01*
X280297Y39121D01*
X280203Y39194D01*
X280114Y39273D01*
X280078Y39291D01*
X280046Y39316D01*
X279937Y39363D01*
X279831Y39417D01*
X279792Y39426D01*
X279754Y39442D01*
X279637Y39461D01*
X279521Y39487D01*
X279480Y39486D01*
X279440Y39492D01*
X279322Y39481D01*
X279203Y39477D01*
X279164Y39466D01*
X279124Y39462D01*
X279012Y39422D01*
X278897Y39389D01*
X278862Y39368D01*
X278824Y39355D01*
X278726Y39288D01*
X278623Y39227D01*
X278578Y39188D01*
X278561Y39176D01*
X278548Y39161D01*
X278502Y39121D01*
X277260Y37878D01*
X273920Y37878D01*
X272043Y39756D01*
X271948Y39829D01*
X271859Y39908D01*
X271823Y39926D01*
X271791Y39951D01*
X271682Y39998D01*
X271576Y40052D01*
X271537Y40061D01*
X271499Y40077D01*
X271382Y40096D01*
X271266Y40122D01*
X271225Y40121D01*
X271185Y40127D01*
X271067Y40116D01*
X270948Y40112D01*
X270909Y40101D01*
X270869Y40097D01*
X270756Y40057D01*
X270642Y40024D01*
X270608Y40003D01*
X270569Y39990D01*
X270471Y39923D01*
X270368Y39862D01*
X270323Y39822D01*
X270306Y39811D01*
X270293Y39796D01*
X270248Y39756D01*
X268370Y37878D01*
X265030Y37878D01*
G37*
%LPD*%
%LPC*%
G36*
X32620Y59468D02*
X32620Y59468D01*
X30258Y61830D01*
X30258Y65170D01*
X32771Y67683D01*
X32844Y67777D01*
X32923Y67866D01*
X32941Y67902D01*
X32966Y67934D01*
X33013Y68043D01*
X33067Y68149D01*
X33076Y68188D01*
X33092Y68226D01*
X33111Y68343D01*
X33137Y68459D01*
X33136Y68500D01*
X33142Y68540D01*
X33131Y68658D01*
X33127Y68777D01*
X33116Y68816D01*
X33112Y68856D01*
X33072Y68968D01*
X33039Y69083D01*
X33018Y69118D01*
X33005Y69156D01*
X32938Y69254D01*
X32877Y69357D01*
X32838Y69402D01*
X32826Y69419D01*
X32811Y69432D01*
X32771Y69478D01*
X30258Y71990D01*
X30258Y75330D01*
X32620Y77692D01*
X35960Y77692D01*
X38473Y75179D01*
X38567Y75106D01*
X38656Y75027D01*
X38692Y75009D01*
X38724Y74984D01*
X38833Y74937D01*
X38939Y74883D01*
X38978Y74874D01*
X39016Y74858D01*
X39133Y74839D01*
X39249Y74813D01*
X39290Y74814D01*
X39330Y74808D01*
X39448Y74819D01*
X39567Y74823D01*
X39606Y74834D01*
X39646Y74838D01*
X39758Y74878D01*
X39873Y74911D01*
X39908Y74932D01*
X39946Y74945D01*
X40044Y75012D01*
X40147Y75073D01*
X40192Y75112D01*
X40209Y75124D01*
X40222Y75139D01*
X40268Y75179D01*
X42780Y77692D01*
X46120Y77692D01*
X48632Y75179D01*
X48727Y75106D01*
X48816Y75027D01*
X48852Y75009D01*
X48884Y74984D01*
X48993Y74937D01*
X49099Y74883D01*
X49138Y74874D01*
X49176Y74858D01*
X49293Y74839D01*
X49409Y74813D01*
X49450Y74814D01*
X49490Y74808D01*
X49608Y74819D01*
X49727Y74823D01*
X49766Y74834D01*
X49806Y74838D01*
X49919Y74878D01*
X50033Y74911D01*
X50067Y74932D01*
X50106Y74945D01*
X50204Y75012D01*
X50307Y75073D01*
X50352Y75113D01*
X50369Y75124D01*
X50382Y75139D01*
X50427Y75179D01*
X52940Y77692D01*
X56280Y77692D01*
X58642Y75330D01*
X58642Y71990D01*
X56129Y69477D01*
X56056Y69383D01*
X55977Y69294D01*
X55959Y69258D01*
X55934Y69226D01*
X55887Y69117D01*
X55833Y69011D01*
X55824Y68972D01*
X55808Y68934D01*
X55789Y68817D01*
X55763Y68701D01*
X55764Y68660D01*
X55758Y68620D01*
X55769Y68502D01*
X55773Y68383D01*
X55784Y68344D01*
X55788Y68304D01*
X55828Y68192D01*
X55861Y68077D01*
X55882Y68042D01*
X55895Y68004D01*
X55962Y67906D01*
X56023Y67803D01*
X56062Y67758D01*
X56074Y67741D01*
X56089Y67728D01*
X56129Y67682D01*
X58642Y65170D01*
X58642Y61830D01*
X56280Y59468D01*
X52940Y59468D01*
X50428Y61981D01*
X50333Y62054D01*
X50244Y62133D01*
X50208Y62151D01*
X50176Y62176D01*
X50067Y62223D01*
X49961Y62277D01*
X49922Y62286D01*
X49884Y62302D01*
X49767Y62321D01*
X49651Y62347D01*
X49610Y62346D01*
X49570Y62352D01*
X49452Y62341D01*
X49333Y62337D01*
X49294Y62326D01*
X49254Y62322D01*
X49141Y62282D01*
X49027Y62249D01*
X48993Y62228D01*
X48954Y62215D01*
X48856Y62148D01*
X48753Y62087D01*
X48708Y62047D01*
X48691Y62036D01*
X48678Y62021D01*
X48633Y61981D01*
X46120Y59468D01*
X42780Y59468D01*
X40268Y61981D01*
X40173Y62054D01*
X40084Y62133D01*
X40048Y62151D01*
X40016Y62176D01*
X39907Y62223D01*
X39801Y62277D01*
X39762Y62286D01*
X39724Y62302D01*
X39607Y62321D01*
X39491Y62347D01*
X39450Y62346D01*
X39410Y62352D01*
X39292Y62341D01*
X39173Y62337D01*
X39134Y62326D01*
X39094Y62322D01*
X38981Y62282D01*
X38867Y62249D01*
X38833Y62228D01*
X38794Y62215D01*
X38696Y62148D01*
X38593Y62087D01*
X38548Y62047D01*
X38531Y62036D01*
X38518Y62021D01*
X38473Y61981D01*
X35960Y59468D01*
X32620Y59468D01*
G37*
%LPD*%
%LPC*%
G36*
X47860Y369348D02*
X47860Y369348D01*
X45498Y371710D01*
X45498Y373283D01*
X45481Y373421D01*
X45468Y373559D01*
X45461Y373578D01*
X45459Y373598D01*
X45407Y373727D01*
X45360Y373858D01*
X45349Y373875D01*
X45341Y373894D01*
X45260Y374006D01*
X45182Y374121D01*
X45167Y374135D01*
X45155Y374151D01*
X45047Y374240D01*
X44943Y374332D01*
X44925Y374341D01*
X44910Y374354D01*
X44784Y374413D01*
X44660Y374476D01*
X44640Y374481D01*
X44622Y374489D01*
X44486Y374515D01*
X44350Y374546D01*
X44329Y374545D01*
X44310Y374549D01*
X44171Y374541D01*
X44032Y374536D01*
X44012Y374531D01*
X43992Y374529D01*
X43860Y374487D01*
X43726Y374448D01*
X43709Y374438D01*
X43690Y374431D01*
X43685Y374428D01*
X40240Y374428D01*
X37878Y376790D01*
X37878Y380130D01*
X40240Y382492D01*
X41689Y382492D01*
X41807Y382507D01*
X41926Y382514D01*
X41964Y382526D01*
X42005Y382531D01*
X42115Y382575D01*
X42229Y382612D01*
X42263Y382634D01*
X42300Y382649D01*
X42397Y382718D01*
X42497Y382782D01*
X42525Y382812D01*
X42558Y382835D01*
X42634Y382927D01*
X42715Y383014D01*
X42735Y383049D01*
X42760Y383080D01*
X42811Y383188D01*
X42869Y383292D01*
X42879Y383331D01*
X42896Y383368D01*
X42918Y383485D01*
X42948Y383600D01*
X42952Y383660D01*
X42956Y383680D01*
X42955Y383701D01*
X42958Y383761D01*
X42958Y386480D01*
X43342Y386864D01*
X43415Y386958D01*
X43494Y387047D01*
X43513Y387083D01*
X43537Y387115D01*
X43585Y387225D01*
X43639Y387331D01*
X43648Y387370D01*
X43664Y387407D01*
X43682Y387525D01*
X43708Y387641D01*
X43707Y387681D01*
X43714Y387721D01*
X43702Y387840D01*
X43699Y387959D01*
X43688Y387998D01*
X43684Y388038D01*
X43643Y388150D01*
X43610Y388264D01*
X43590Y388299D01*
X43576Y388337D01*
X43509Y388435D01*
X43449Y388538D01*
X43409Y388583D01*
X43398Y388600D01*
X43382Y388614D01*
X43342Y388659D01*
X41688Y390313D01*
X41688Y393653D01*
X42837Y394802D01*
X42910Y394896D01*
X42989Y394985D01*
X43007Y395021D01*
X43032Y395053D01*
X43079Y395162D01*
X43133Y395268D01*
X43142Y395307D01*
X43158Y395345D01*
X43177Y395462D01*
X43203Y395578D01*
X43202Y395619D01*
X43208Y395659D01*
X43197Y395777D01*
X43193Y395896D01*
X43182Y395935D01*
X43178Y395975D01*
X43138Y396088D01*
X43105Y396202D01*
X43084Y396237D01*
X43071Y396275D01*
X43004Y396373D01*
X42943Y396476D01*
X42903Y396521D01*
X42892Y396538D01*
X42877Y396551D01*
X42837Y396597D01*
X41053Y398380D01*
X41053Y401720D01*
X43415Y404082D01*
X46755Y404082D01*
X47155Y403681D01*
X47250Y403608D01*
X47339Y403529D01*
X47375Y403511D01*
X47407Y403486D01*
X47516Y403439D01*
X47622Y403385D01*
X47661Y403376D01*
X47699Y403360D01*
X47816Y403341D01*
X47932Y403315D01*
X47973Y403316D01*
X48013Y403310D01*
X48131Y403321D01*
X48250Y403325D01*
X48289Y403336D01*
X48329Y403340D01*
X48442Y403380D01*
X48556Y403413D01*
X48590Y403434D01*
X48629Y403447D01*
X48727Y403514D01*
X48830Y403575D01*
X48875Y403615D01*
X48892Y403626D01*
X48905Y403641D01*
X48950Y403681D01*
X51670Y406401D01*
X55010Y406401D01*
X57372Y404039D01*
X57372Y400699D01*
X55010Y398337D01*
X51670Y398337D01*
X51270Y398738D01*
X51176Y398811D01*
X51086Y398890D01*
X51050Y398908D01*
X51018Y398933D01*
X50909Y398980D01*
X50803Y399034D01*
X50764Y399043D01*
X50726Y399059D01*
X50609Y399078D01*
X50493Y399104D01*
X50452Y399103D01*
X50412Y399109D01*
X50294Y399098D01*
X50175Y399094D01*
X50136Y399083D01*
X50096Y399079D01*
X49984Y399039D01*
X49869Y399006D01*
X49834Y398985D01*
X49796Y398972D01*
X49698Y398905D01*
X49595Y398844D01*
X49550Y398804D01*
X49533Y398793D01*
X49520Y398778D01*
X49475Y398738D01*
X47968Y397232D01*
X47895Y397137D01*
X47816Y397048D01*
X47798Y397012D01*
X47773Y396980D01*
X47726Y396871D01*
X47672Y396765D01*
X47663Y396726D01*
X47647Y396688D01*
X47628Y396571D01*
X47602Y396455D01*
X47603Y396414D01*
X47597Y396374D01*
X47608Y396256D01*
X47612Y396137D01*
X47623Y396098D01*
X47627Y396058D01*
X47667Y395946D01*
X47700Y395831D01*
X47721Y395797D01*
X47734Y395758D01*
X47801Y395660D01*
X47862Y395557D01*
X47902Y395512D01*
X47913Y395495D01*
X47928Y395482D01*
X47968Y395437D01*
X49752Y393653D01*
X49752Y390313D01*
X49368Y389929D01*
X49294Y389835D01*
X49216Y389746D01*
X49197Y389710D01*
X49173Y389678D01*
X49125Y389568D01*
X49071Y389462D01*
X49062Y389423D01*
X49046Y389386D01*
X49028Y389268D01*
X49002Y389152D01*
X49003Y389112D01*
X48996Y389072D01*
X49008Y388953D01*
X49011Y388834D01*
X49022Y388795D01*
X49026Y388755D01*
X49067Y388643D01*
X49100Y388529D01*
X49120Y388494D01*
X49134Y388456D01*
X49201Y388357D01*
X49261Y388255D01*
X49301Y388210D01*
X49312Y388193D01*
X49328Y388179D01*
X49368Y388134D01*
X51022Y386480D01*
X51022Y383140D01*
X48660Y380778D01*
X47211Y380778D01*
X47093Y380763D01*
X46974Y380756D01*
X46936Y380744D01*
X46895Y380739D01*
X46785Y380695D01*
X46671Y380658D01*
X46637Y380636D01*
X46600Y380621D01*
X46503Y380552D01*
X46403Y380488D01*
X46375Y380458D01*
X46342Y380435D01*
X46266Y380343D01*
X46185Y380256D01*
X46165Y380221D01*
X46140Y380190D01*
X46089Y380082D01*
X46031Y379978D01*
X46021Y379939D01*
X46004Y379902D01*
X45982Y379785D01*
X45952Y379670D01*
X45948Y379610D01*
X45944Y379590D01*
X45945Y379569D01*
X45942Y379509D01*
X45942Y378557D01*
X45959Y378419D01*
X45972Y378281D01*
X45979Y378262D01*
X45981Y378242D01*
X46033Y378113D01*
X46080Y377982D01*
X46091Y377965D01*
X46099Y377946D01*
X46180Y377834D01*
X46258Y377719D01*
X46273Y377705D01*
X46285Y377689D01*
X46393Y377600D01*
X46497Y377508D01*
X46515Y377499D01*
X46530Y377486D01*
X46656Y377427D01*
X46780Y377364D01*
X46800Y377359D01*
X46818Y377351D01*
X46954Y377325D01*
X47090Y377294D01*
X47111Y377295D01*
X47130Y377291D01*
X47269Y377299D01*
X47408Y377304D01*
X47428Y377309D01*
X47448Y377311D01*
X47580Y377353D01*
X47714Y377392D01*
X47731Y377402D01*
X47750Y377409D01*
X47755Y377412D01*
X51200Y377412D01*
X53562Y375050D01*
X53562Y371710D01*
X51200Y369348D01*
X47860Y369348D01*
G37*
%LPD*%
%LPC*%
G36*
X469699Y92968D02*
X469699Y92968D01*
X467618Y95049D01*
X467618Y97991D01*
X468425Y98797D01*
X468498Y98891D01*
X468576Y98981D01*
X468595Y99017D01*
X468620Y99049D01*
X468667Y99158D01*
X468721Y99264D01*
X468730Y99303D01*
X468746Y99341D01*
X468765Y99458D01*
X468791Y99574D01*
X468790Y99615D01*
X468796Y99655D01*
X468785Y99773D01*
X468781Y99892D01*
X468770Y99931D01*
X468766Y99971D01*
X468726Y100084D01*
X468693Y100198D01*
X468672Y100232D01*
X468658Y100271D01*
X468592Y100369D01*
X468531Y100472D01*
X468491Y100517D01*
X468480Y100534D01*
X468465Y100547D01*
X468425Y100592D01*
X467618Y101399D01*
X467618Y104341D01*
X468425Y105148D01*
X468498Y105242D01*
X468576Y105331D01*
X468595Y105367D01*
X468620Y105399D01*
X468667Y105508D01*
X468721Y105614D01*
X468730Y105653D01*
X468746Y105691D01*
X468765Y105808D01*
X468791Y105924D01*
X468790Y105965D01*
X468796Y106005D01*
X468785Y106123D01*
X468781Y106242D01*
X468770Y106281D01*
X468766Y106321D01*
X468726Y106433D01*
X468693Y106548D01*
X468672Y106583D01*
X468658Y106621D01*
X468592Y106719D01*
X468531Y106822D01*
X468491Y106867D01*
X468480Y106884D01*
X468464Y106897D01*
X468425Y106943D01*
X467618Y107749D01*
X467618Y110691D01*
X469699Y112772D01*
X472641Y112772D01*
X473448Y111965D01*
X473542Y111892D01*
X473631Y111814D01*
X473667Y111795D01*
X473699Y111770D01*
X473808Y111723D01*
X473914Y111669D01*
X473953Y111660D01*
X473991Y111644D01*
X474108Y111625D01*
X474224Y111599D01*
X474265Y111600D01*
X474305Y111594D01*
X474423Y111605D01*
X474542Y111609D01*
X474581Y111620D01*
X474621Y111624D01*
X474733Y111664D01*
X474848Y111697D01*
X474883Y111718D01*
X474921Y111732D01*
X475019Y111798D01*
X475122Y111859D01*
X475167Y111899D01*
X475184Y111910D01*
X475197Y111926D01*
X475243Y111965D01*
X476049Y112772D01*
X478991Y112772D01*
X481072Y110691D01*
X481072Y107749D01*
X480265Y106942D01*
X480192Y106848D01*
X480114Y106759D01*
X480095Y106723D01*
X480070Y106691D01*
X480023Y106582D01*
X479969Y106476D01*
X479960Y106437D01*
X479944Y106399D01*
X479925Y106282D01*
X479899Y106166D01*
X479900Y106125D01*
X479894Y106085D01*
X479905Y105967D01*
X479909Y105848D01*
X479920Y105809D01*
X479924Y105769D01*
X479964Y105657D01*
X479997Y105542D01*
X480018Y105507D01*
X480032Y105469D01*
X480098Y105371D01*
X480159Y105268D01*
X480199Y105223D01*
X480210Y105206D01*
X480226Y105193D01*
X480265Y105147D01*
X481072Y104341D01*
X481072Y101399D01*
X480265Y100592D01*
X480192Y100498D01*
X480114Y100409D01*
X480095Y100373D01*
X480070Y100341D01*
X480023Y100232D01*
X479969Y100126D01*
X479960Y100087D01*
X479944Y100049D01*
X479925Y99932D01*
X479899Y99816D01*
X479900Y99775D01*
X479894Y99735D01*
X479905Y99617D01*
X479909Y99498D01*
X479920Y99459D01*
X479924Y99419D01*
X479964Y99307D01*
X479997Y99192D01*
X480018Y99157D01*
X480032Y99119D01*
X480098Y99021D01*
X480159Y98918D01*
X480199Y98873D01*
X480210Y98856D01*
X480226Y98843D01*
X480265Y98797D01*
X481072Y97991D01*
X481072Y95049D01*
X478991Y92968D01*
X476049Y92968D01*
X475242Y93775D01*
X475148Y93848D01*
X475059Y93926D01*
X475023Y93945D01*
X474991Y93970D01*
X474882Y94017D01*
X474776Y94071D01*
X474737Y94080D01*
X474699Y94096D01*
X474582Y94115D01*
X474466Y94141D01*
X474425Y94140D01*
X474385Y94146D01*
X474267Y94135D01*
X474148Y94131D01*
X474109Y94120D01*
X474069Y94116D01*
X473957Y94076D01*
X473842Y94043D01*
X473807Y94022D01*
X473769Y94008D01*
X473671Y93942D01*
X473568Y93881D01*
X473523Y93841D01*
X473506Y93830D01*
X473493Y93814D01*
X473447Y93775D01*
X472641Y92968D01*
X469699Y92968D01*
G37*
%LPD*%
%LPC*%
G36*
X232314Y290707D02*
X232314Y290707D01*
X230382Y292639D01*
X230382Y295371D01*
X232246Y297235D01*
X232320Y297329D01*
X232398Y297418D01*
X232417Y297454D01*
X232441Y297486D01*
X232489Y297596D01*
X232543Y297702D01*
X232552Y297741D01*
X232568Y297778D01*
X232586Y297896D01*
X232612Y298012D01*
X232611Y298052D01*
X232618Y298092D01*
X232606Y298211D01*
X232603Y298330D01*
X232592Y298369D01*
X232588Y298409D01*
X232547Y298521D01*
X232514Y298635D01*
X232494Y298670D01*
X232480Y298708D01*
X232413Y298807D01*
X232353Y298909D01*
X232313Y298954D01*
X232302Y298971D01*
X232286Y298985D01*
X232246Y299030D01*
X231017Y300259D01*
X231017Y302991D01*
X232949Y304923D01*
X235681Y304923D01*
X237613Y302991D01*
X237613Y300259D01*
X235749Y298395D01*
X235675Y298301D01*
X235597Y298212D01*
X235578Y298176D01*
X235554Y298144D01*
X235506Y298034D01*
X235452Y297928D01*
X235443Y297889D01*
X235427Y297852D01*
X235409Y297734D01*
X235383Y297618D01*
X235384Y297578D01*
X235377Y297538D01*
X235389Y297419D01*
X235392Y297300D01*
X235403Y297261D01*
X235407Y297221D01*
X235448Y297109D01*
X235481Y296995D01*
X235501Y296960D01*
X235515Y296922D01*
X235582Y296823D01*
X235642Y296721D01*
X235682Y296676D01*
X235693Y296659D01*
X235709Y296645D01*
X235749Y296600D01*
X236921Y295427D01*
X237016Y295354D01*
X237105Y295275D01*
X237141Y295257D01*
X237173Y295232D01*
X237282Y295185D01*
X237388Y295131D01*
X237427Y295122D01*
X237464Y295106D01*
X237582Y295087D01*
X237698Y295061D01*
X237739Y295062D01*
X237779Y295056D01*
X237897Y295067D01*
X238016Y295071D01*
X238055Y295082D01*
X238095Y295086D01*
X238207Y295126D01*
X238322Y295159D01*
X238356Y295180D01*
X238394Y295194D01*
X238493Y295261D01*
X238595Y295321D01*
X238641Y295361D01*
X238658Y295372D01*
X238671Y295387D01*
X238716Y295427D01*
X240576Y297287D01*
X243718Y297287D01*
X243836Y297302D01*
X243955Y297309D01*
X243993Y297321D01*
X244034Y297326D01*
X244144Y297370D01*
X244258Y297407D01*
X244292Y297429D01*
X244329Y297444D01*
X244426Y297513D01*
X244526Y297577D01*
X244554Y297607D01*
X244587Y297630D01*
X244663Y297722D01*
X244744Y297809D01*
X244764Y297844D01*
X244789Y297875D01*
X244840Y297983D01*
X244898Y298087D01*
X244908Y298126D01*
X244925Y298163D01*
X244947Y298280D01*
X244977Y298395D01*
X244981Y298455D01*
X244985Y298475D01*
X244984Y298496D01*
X244987Y298556D01*
X244987Y301721D01*
X246851Y303585D01*
X246924Y303679D01*
X247003Y303768D01*
X247022Y303804D01*
X247046Y303836D01*
X247094Y303946D01*
X247148Y304052D01*
X247157Y304091D01*
X247173Y304128D01*
X247191Y304246D01*
X247217Y304362D01*
X247216Y304402D01*
X247223Y304442D01*
X247211Y304561D01*
X247208Y304680D01*
X247197Y304719D01*
X247193Y304759D01*
X247152Y304871D01*
X247119Y304985D01*
X247099Y305020D01*
X247085Y305058D01*
X247018Y305157D01*
X246958Y305259D01*
X246918Y305304D01*
X246907Y305321D01*
X246891Y305335D01*
X246851Y305380D01*
X245373Y306859D01*
X245278Y306932D01*
X245189Y307011D01*
X245153Y307029D01*
X245121Y307054D01*
X245012Y307101D01*
X244906Y307155D01*
X244867Y307164D01*
X244829Y307180D01*
X244712Y307199D01*
X244596Y307225D01*
X244555Y307224D01*
X244515Y307230D01*
X244397Y307219D01*
X244278Y307215D01*
X244239Y307204D01*
X244199Y307200D01*
X244086Y307160D01*
X243972Y307127D01*
X243938Y307106D01*
X243899Y307093D01*
X243801Y307026D01*
X243698Y306965D01*
X243653Y306925D01*
X243636Y306914D01*
X243623Y306899D01*
X243578Y306859D01*
X242666Y305947D01*
X239934Y305947D01*
X238002Y307879D01*
X238002Y310611D01*
X239934Y312543D01*
X242666Y312543D01*
X244213Y310996D01*
X244307Y310923D01*
X244396Y310844D01*
X244432Y310826D01*
X244464Y310801D01*
X244573Y310754D01*
X244679Y310700D01*
X244718Y310691D01*
X244756Y310675D01*
X244873Y310656D01*
X244989Y310630D01*
X245030Y310631D01*
X245070Y310625D01*
X245188Y310636D01*
X245307Y310640D01*
X245346Y310651D01*
X245386Y310655D01*
X245498Y310695D01*
X245613Y310728D01*
X245648Y310749D01*
X245686Y310762D01*
X245784Y310829D01*
X245887Y310890D01*
X245932Y310929D01*
X245949Y310941D01*
X245962Y310956D01*
X246008Y310996D01*
X246919Y311908D01*
X249651Y311908D01*
X251583Y309976D01*
X251583Y307244D01*
X249719Y305380D01*
X249645Y305286D01*
X249567Y305197D01*
X249548Y305161D01*
X249524Y305129D01*
X249476Y305019D01*
X249422Y304913D01*
X249413Y304874D01*
X249397Y304837D01*
X249379Y304719D01*
X249353Y304603D01*
X249354Y304563D01*
X249347Y304523D01*
X249359Y304404D01*
X249362Y304285D01*
X249373Y304246D01*
X249377Y304206D01*
X249418Y304094D01*
X249451Y303980D01*
X249471Y303945D01*
X249485Y303907D01*
X249552Y303808D01*
X249612Y303706D01*
X249652Y303661D01*
X249663Y303644D01*
X249679Y303630D01*
X249719Y303585D01*
X251583Y301721D01*
X251583Y298989D01*
X249651Y297057D01*
X246486Y297057D01*
X246368Y297042D01*
X246249Y297035D01*
X246211Y297023D01*
X246170Y297018D01*
X246060Y296974D01*
X245946Y296937D01*
X245912Y296915D01*
X245875Y296900D01*
X245778Y296831D01*
X245678Y296767D01*
X245650Y296737D01*
X245617Y296714D01*
X245541Y296622D01*
X245460Y296535D01*
X245440Y296500D01*
X245415Y296469D01*
X245364Y296361D01*
X245306Y296257D01*
X245296Y296218D01*
X245279Y296181D01*
X245257Y296064D01*
X245227Y295949D01*
X245223Y295889D01*
X245219Y295869D01*
X245220Y295848D01*
X245217Y295788D01*
X245217Y292646D01*
X243294Y290723D01*
X240576Y290723D01*
X238716Y292583D01*
X238622Y292656D01*
X238533Y292735D01*
X238497Y292753D01*
X238465Y292778D01*
X238356Y292825D01*
X238250Y292879D01*
X238210Y292888D01*
X238173Y292904D01*
X238055Y292923D01*
X237939Y292949D01*
X237899Y292948D01*
X237859Y292954D01*
X237740Y292943D01*
X237622Y292939D01*
X237583Y292928D01*
X237542Y292924D01*
X237430Y292884D01*
X237316Y292851D01*
X237281Y292830D01*
X237243Y292816D01*
X237145Y292750D01*
X237042Y292689D01*
X236997Y292649D01*
X236980Y292638D01*
X236967Y292623D01*
X236921Y292583D01*
X235046Y290707D01*
X232314Y290707D01*
G37*
%LPD*%
%LPC*%
G36*
X415201Y103398D02*
X415201Y103398D01*
X413278Y105321D01*
X413278Y108039D01*
X414832Y109592D01*
X414905Y109687D01*
X414983Y109776D01*
X415002Y109812D01*
X415027Y109844D01*
X415074Y109953D01*
X415128Y110059D01*
X415137Y110098D01*
X415153Y110136D01*
X415172Y110253D01*
X415198Y110369D01*
X415196Y110410D01*
X415203Y110450D01*
X415192Y110568D01*
X415188Y110687D01*
X415177Y110726D01*
X415173Y110766D01*
X415133Y110879D01*
X415100Y110993D01*
X415079Y111027D01*
X415065Y111066D01*
X414998Y111164D01*
X414938Y111267D01*
X414898Y111312D01*
X414887Y111329D01*
X414871Y111342D01*
X414832Y111387D01*
X413278Y112941D01*
X413278Y115659D01*
X415467Y117847D01*
X415540Y117942D01*
X415618Y118031D01*
X415637Y118067D01*
X415662Y118099D01*
X415709Y118208D01*
X415763Y118314D01*
X415772Y118353D01*
X415788Y118391D01*
X415807Y118508D01*
X415833Y118624D01*
X415831Y118665D01*
X415838Y118705D01*
X415827Y118823D01*
X415823Y118942D01*
X415812Y118981D01*
X415808Y119021D01*
X415768Y119134D01*
X415735Y119248D01*
X415714Y119282D01*
X415700Y119321D01*
X415633Y119419D01*
X415573Y119522D01*
X415533Y119567D01*
X415522Y119584D01*
X415506Y119597D01*
X415467Y119642D01*
X413278Y121831D01*
X413278Y124549D01*
X415201Y126472D01*
X417919Y126472D01*
X419473Y124918D01*
X419567Y124845D01*
X419656Y124767D01*
X419692Y124748D01*
X419724Y124723D01*
X419833Y124676D01*
X419939Y124622D01*
X419978Y124613D01*
X420016Y124597D01*
X420133Y124578D01*
X420249Y124552D01*
X420290Y124554D01*
X420330Y124547D01*
X420448Y124558D01*
X420567Y124562D01*
X420606Y124573D01*
X420646Y124577D01*
X420758Y124617D01*
X420873Y124650D01*
X420908Y124671D01*
X420946Y124685D01*
X421044Y124752D01*
X421147Y124812D01*
X421192Y124852D01*
X421209Y124863D01*
X421222Y124879D01*
X421268Y124918D01*
X422821Y126472D01*
X425539Y126472D01*
X427462Y124549D01*
X427462Y121831D01*
X425273Y119642D01*
X425200Y119548D01*
X425122Y119459D01*
X425103Y119423D01*
X425078Y119391D01*
X425031Y119282D01*
X424977Y119176D01*
X424968Y119137D01*
X424952Y119099D01*
X424933Y118982D01*
X424907Y118866D01*
X424909Y118825D01*
X424902Y118785D01*
X424913Y118667D01*
X424917Y118548D01*
X424928Y118509D01*
X424932Y118469D01*
X424972Y118357D01*
X425005Y118242D01*
X425026Y118207D01*
X425040Y118169D01*
X425107Y118071D01*
X425167Y117968D01*
X425207Y117923D01*
X425218Y117906D01*
X425234Y117893D01*
X425273Y117847D01*
X427462Y115659D01*
X427462Y112941D01*
X425539Y111018D01*
X422821Y111018D01*
X421268Y112572D01*
X421173Y112645D01*
X421084Y112723D01*
X421048Y112742D01*
X421016Y112767D01*
X420907Y112814D01*
X420801Y112868D01*
X420762Y112877D01*
X420724Y112893D01*
X420607Y112912D01*
X420491Y112938D01*
X420450Y112936D01*
X420410Y112943D01*
X420292Y112932D01*
X420173Y112928D01*
X420134Y112917D01*
X420094Y112913D01*
X419981Y112873D01*
X419867Y112840D01*
X419833Y112819D01*
X419794Y112805D01*
X419696Y112738D01*
X419593Y112678D01*
X419548Y112638D01*
X419531Y112627D01*
X419518Y112611D01*
X419473Y112572D01*
X418288Y111387D01*
X418215Y111293D01*
X418137Y111204D01*
X418118Y111168D01*
X418093Y111136D01*
X418046Y111027D01*
X417992Y110921D01*
X417983Y110882D01*
X417967Y110844D01*
X417948Y110727D01*
X417922Y110611D01*
X417924Y110570D01*
X417917Y110530D01*
X417928Y110412D01*
X417932Y110293D01*
X417943Y110254D01*
X417947Y110214D01*
X417987Y110102D01*
X418020Y109987D01*
X418041Y109952D01*
X418055Y109914D01*
X418122Y109816D01*
X418182Y109713D01*
X418222Y109668D01*
X418233Y109651D01*
X418249Y109638D01*
X418288Y109592D01*
X419842Y108039D01*
X419842Y105321D01*
X417919Y103398D01*
X415201Y103398D01*
G37*
%LPD*%
%LPC*%
G36*
X147638Y381497D02*
X147638Y381497D01*
X145277Y383858D01*
X145277Y387198D01*
X146785Y388707D01*
X146859Y388801D01*
X146937Y388890D01*
X146956Y388926D01*
X146980Y388958D01*
X147028Y389068D01*
X147082Y389174D01*
X147091Y389213D01*
X147107Y389250D01*
X147125Y389368D01*
X147151Y389484D01*
X147150Y389524D01*
X147157Y389564D01*
X147145Y389683D01*
X147142Y389802D01*
X147131Y389841D01*
X147127Y389881D01*
X147086Y389993D01*
X147053Y390107D01*
X147033Y390142D01*
X147019Y390180D01*
X146952Y390279D01*
X146892Y390381D01*
X146852Y390426D01*
X146841Y390443D01*
X146825Y390457D01*
X146785Y390502D01*
X144558Y392729D01*
X144558Y393098D01*
X144543Y393216D01*
X144536Y393335D01*
X144524Y393374D01*
X144519Y393414D01*
X144475Y393524D01*
X144438Y393638D01*
X144416Y393672D01*
X144401Y393709D01*
X144332Y393806D01*
X144268Y393906D01*
X144238Y393934D01*
X144215Y393967D01*
X144123Y394043D01*
X144036Y394124D01*
X144001Y394144D01*
X143970Y394170D01*
X143862Y394220D01*
X143758Y394278D01*
X143719Y394288D01*
X143682Y394305D01*
X143565Y394327D01*
X143450Y394357D01*
X143390Y394361D01*
X143370Y394365D01*
X143349Y394364D01*
X143289Y394367D01*
X140570Y394367D01*
X138208Y396729D01*
X138208Y398559D01*
X138193Y398677D01*
X138186Y398796D01*
X138174Y398834D01*
X138169Y398875D01*
X138125Y398985D01*
X138088Y399099D01*
X138066Y399133D01*
X138051Y399170D01*
X137982Y399267D01*
X137918Y399367D01*
X137888Y399395D01*
X137865Y399428D01*
X137773Y399504D01*
X137686Y399585D01*
X137651Y399605D01*
X137620Y399630D01*
X137512Y399681D01*
X137408Y399739D01*
X137369Y399749D01*
X137332Y399766D01*
X137215Y399788D01*
X137100Y399818D01*
X137040Y399822D01*
X137020Y399826D01*
X136999Y399825D01*
X136939Y399828D01*
X135490Y399828D01*
X133128Y402190D01*
X133128Y405530D01*
X135490Y407892D01*
X138830Y407892D01*
X141192Y405530D01*
X141192Y403700D01*
X141207Y403582D01*
X141214Y403463D01*
X141226Y403425D01*
X141231Y403384D01*
X141275Y403274D01*
X141312Y403161D01*
X141334Y403126D01*
X141349Y403089D01*
X141418Y402992D01*
X141482Y402892D01*
X141512Y402864D01*
X141535Y402831D01*
X141627Y402755D01*
X141714Y402674D01*
X141749Y402654D01*
X141780Y402629D01*
X141888Y402578D01*
X141992Y402520D01*
X142031Y402510D01*
X142068Y402493D01*
X142185Y402471D01*
X142300Y402441D01*
X142360Y402437D01*
X142380Y402433D01*
X142401Y402435D01*
X142461Y402431D01*
X143910Y402431D01*
X146272Y400069D01*
X146272Y399700D01*
X146287Y399582D01*
X146294Y399463D01*
X146306Y399425D01*
X146311Y399384D01*
X146355Y399274D01*
X146392Y399161D01*
X146414Y399126D01*
X146429Y399089D01*
X146498Y398992D01*
X146562Y398892D01*
X146592Y398864D01*
X146615Y398831D01*
X146707Y398755D01*
X146794Y398674D01*
X146829Y398654D01*
X146860Y398629D01*
X146968Y398578D01*
X147072Y398520D01*
X147111Y398510D01*
X147148Y398493D01*
X147265Y398471D01*
X147380Y398441D01*
X147440Y398437D01*
X147460Y398433D01*
X147481Y398435D01*
X147541Y398431D01*
X150260Y398431D01*
X152622Y396069D01*
X152622Y392729D01*
X151113Y391220D01*
X151040Y391126D01*
X150961Y391037D01*
X150943Y391001D01*
X150918Y390969D01*
X150871Y390860D01*
X150817Y390754D01*
X150808Y390714D01*
X150792Y390677D01*
X150773Y390560D01*
X150747Y390444D01*
X150748Y390403D01*
X150742Y390363D01*
X150753Y390245D01*
X150757Y390126D01*
X150768Y390087D01*
X150772Y390047D01*
X150812Y389934D01*
X150845Y389820D01*
X150866Y389785D01*
X150879Y389747D01*
X150946Y389649D01*
X151007Y389546D01*
X151046Y389501D01*
X151058Y389484D01*
X151073Y389471D01*
X151113Y389425D01*
X153340Y387198D01*
X153340Y383858D01*
X150978Y381497D01*
X147638Y381497D01*
G37*
%LPD*%
%LPC*%
G36*
X358375Y265843D02*
X358375Y265843D01*
X356013Y268205D01*
X356013Y269019D01*
X355998Y269137D01*
X355991Y269256D01*
X355979Y269294D01*
X355974Y269335D01*
X355930Y269445D01*
X355893Y269559D01*
X355871Y269593D01*
X355856Y269630D01*
X355787Y269727D01*
X355723Y269827D01*
X355693Y269855D01*
X355670Y269888D01*
X355578Y269964D01*
X355491Y270045D01*
X355456Y270065D01*
X355425Y270090D01*
X355317Y270141D01*
X355213Y270199D01*
X355174Y270209D01*
X355137Y270226D01*
X355020Y270248D01*
X354905Y270278D01*
X354845Y270282D01*
X354825Y270286D01*
X354804Y270285D01*
X354744Y270288D01*
X352660Y270288D01*
X350298Y272650D01*
X350298Y275990D01*
X352660Y278352D01*
X356126Y278352D01*
X356130Y278350D01*
X356256Y278291D01*
X356276Y278287D01*
X356295Y278279D01*
X356432Y278257D01*
X356569Y278231D01*
X356589Y278232D01*
X356609Y278229D01*
X356747Y278242D01*
X356886Y278251D01*
X356905Y278257D01*
X356925Y278259D01*
X357056Y278306D01*
X357189Y278349D01*
X357206Y278359D01*
X357225Y278366D01*
X357340Y278444D01*
X357457Y278519D01*
X357471Y278533D01*
X357488Y278545D01*
X357580Y278649D01*
X357675Y278750D01*
X357685Y278768D01*
X357698Y278783D01*
X357762Y278907D01*
X357829Y279029D01*
X357834Y279048D01*
X357843Y279066D01*
X357873Y279202D01*
X357908Y279337D01*
X357910Y279365D01*
X357913Y279377D01*
X357912Y279397D01*
X357918Y279497D01*
X357918Y281310D01*
X357903Y281428D01*
X357896Y281547D01*
X357884Y281585D01*
X357879Y281626D01*
X357835Y281736D01*
X357798Y281849D01*
X357776Y281884D01*
X357761Y281921D01*
X357692Y282017D01*
X357628Y282118D01*
X357598Y282146D01*
X357575Y282179D01*
X357483Y282254D01*
X357396Y282336D01*
X357361Y282356D01*
X357330Y282381D01*
X357222Y282432D01*
X357118Y282490D01*
X357079Y282500D01*
X357042Y282517D01*
X356925Y282539D01*
X356810Y282569D01*
X356750Y282573D01*
X356730Y282577D01*
X356709Y282575D01*
X356649Y282579D01*
X355511Y282579D01*
X353588Y284502D01*
X353588Y287220D01*
X355511Y289143D01*
X358229Y289143D01*
X360152Y287220D01*
X360152Y284701D01*
X360167Y284583D01*
X360174Y284464D01*
X360186Y284426D01*
X360191Y284385D01*
X360235Y284275D01*
X360272Y284161D01*
X360294Y284127D01*
X360309Y284090D01*
X360378Y283993D01*
X360442Y283893D01*
X360472Y283865D01*
X360495Y283832D01*
X360587Y283756D01*
X360674Y283675D01*
X360709Y283655D01*
X360740Y283630D01*
X360848Y283579D01*
X360952Y283521D01*
X360991Y283511D01*
X361028Y283494D01*
X361145Y283472D01*
X361260Y283442D01*
X361320Y283438D01*
X361340Y283434D01*
X361361Y283435D01*
X361421Y283432D01*
X363620Y283432D01*
X365982Y281070D01*
X365982Y277730D01*
X363620Y275368D01*
X363317Y275368D01*
X363180Y275351D01*
X363041Y275338D01*
X363022Y275331D01*
X363002Y275329D01*
X362873Y275278D01*
X362742Y275230D01*
X362725Y275219D01*
X362706Y275211D01*
X362594Y275130D01*
X362479Y275052D01*
X362465Y275037D01*
X362449Y275025D01*
X362360Y274917D01*
X362268Y274813D01*
X362259Y274795D01*
X362246Y274780D01*
X362187Y274654D01*
X362124Y274530D01*
X362119Y274510D01*
X362111Y274492D01*
X362084Y274356D01*
X362054Y274220D01*
X362055Y274199D01*
X362051Y274180D01*
X362059Y274041D01*
X362064Y273902D01*
X362069Y273882D01*
X362071Y273862D01*
X362113Y273730D01*
X362152Y273596D01*
X362162Y273579D01*
X362169Y273560D01*
X362243Y273442D01*
X362314Y273322D01*
X362332Y273301D01*
X362339Y273291D01*
X362354Y273277D01*
X362420Y273202D01*
X364077Y271545D01*
X364077Y268205D01*
X361715Y265843D01*
X358375Y265843D01*
G37*
%LPD*%
%LPC*%
G36*
X228511Y88158D02*
X228511Y88158D01*
X226588Y90081D01*
X226588Y92799D01*
X228777Y94988D01*
X228850Y95082D01*
X228928Y95171D01*
X228947Y95207D01*
X228972Y95239D01*
X229019Y95348D01*
X229073Y95454D01*
X229082Y95493D01*
X229098Y95531D01*
X229117Y95648D01*
X229143Y95764D01*
X229141Y95805D01*
X229148Y95845D01*
X229137Y95963D01*
X229133Y96082D01*
X229122Y96121D01*
X229118Y96161D01*
X229078Y96273D01*
X229045Y96388D01*
X229024Y96423D01*
X229010Y96461D01*
X228943Y96559D01*
X228883Y96662D01*
X228843Y96707D01*
X228832Y96724D01*
X228816Y96737D01*
X228777Y96783D01*
X226588Y98971D01*
X226588Y101689D01*
X228511Y103612D01*
X231583Y103612D01*
X231721Y103629D01*
X231860Y103642D01*
X231879Y103649D01*
X231899Y103651D01*
X232028Y103703D01*
X232159Y103750D01*
X232176Y103761D01*
X232194Y103769D01*
X232307Y103850D01*
X232422Y103928D01*
X232435Y103943D01*
X232452Y103955D01*
X232541Y104063D01*
X232632Y104167D01*
X232642Y104185D01*
X232655Y104200D01*
X232714Y104326D01*
X232777Y104450D01*
X232781Y104470D01*
X232790Y104488D01*
X232816Y104624D01*
X232847Y104760D01*
X232846Y104781D01*
X232850Y104800D01*
X232841Y104939D01*
X232837Y105078D01*
X232831Y105098D01*
X232830Y105118D01*
X232787Y105250D01*
X232749Y105384D01*
X232738Y105401D01*
X232732Y105420D01*
X232658Y105538D01*
X232587Y105658D01*
X232569Y105679D01*
X232562Y105689D01*
X232547Y105703D01*
X232481Y105778D01*
X231668Y106591D01*
X231668Y109309D01*
X233591Y111232D01*
X236309Y111232D01*
X238232Y109309D01*
X238232Y106591D01*
X236678Y105038D01*
X236605Y104943D01*
X236527Y104854D01*
X236508Y104818D01*
X236483Y104786D01*
X236436Y104677D01*
X236382Y104571D01*
X236373Y104532D01*
X236357Y104494D01*
X236338Y104377D01*
X236312Y104261D01*
X236314Y104220D01*
X236307Y104180D01*
X236318Y104062D01*
X236322Y103943D01*
X236333Y103904D01*
X236337Y103864D01*
X236377Y103751D01*
X236410Y103637D01*
X236431Y103603D01*
X236445Y103564D01*
X236512Y103466D01*
X236572Y103363D01*
X236612Y103318D01*
X236623Y103301D01*
X236639Y103288D01*
X236678Y103243D01*
X238232Y101689D01*
X238232Y98971D01*
X236043Y96783D01*
X235970Y96688D01*
X235892Y96599D01*
X235873Y96563D01*
X235848Y96531D01*
X235801Y96422D01*
X235747Y96316D01*
X235738Y96277D01*
X235722Y96239D01*
X235703Y96122D01*
X235677Y96006D01*
X235679Y95965D01*
X235672Y95925D01*
X235683Y95807D01*
X235687Y95688D01*
X235698Y95649D01*
X235702Y95609D01*
X235742Y95496D01*
X235775Y95382D01*
X235796Y95348D01*
X235810Y95309D01*
X235877Y95211D01*
X235937Y95108D01*
X235977Y95063D01*
X235988Y95046D01*
X236004Y95033D01*
X236043Y94988D01*
X238232Y92799D01*
X238232Y90081D01*
X236309Y88158D01*
X233591Y88158D01*
X233307Y88442D01*
X233213Y88515D01*
X233124Y88593D01*
X233088Y88612D01*
X233056Y88637D01*
X232947Y88684D01*
X232841Y88738D01*
X232802Y88747D01*
X232764Y88763D01*
X232647Y88782D01*
X232531Y88808D01*
X232490Y88806D01*
X232450Y88813D01*
X232332Y88802D01*
X232213Y88798D01*
X232174Y88787D01*
X232134Y88783D01*
X232022Y88743D01*
X231907Y88710D01*
X231872Y88689D01*
X231834Y88675D01*
X231736Y88608D01*
X231633Y88548D01*
X231588Y88508D01*
X231571Y88497D01*
X231558Y88481D01*
X231512Y88442D01*
X231229Y88158D01*
X228511Y88158D01*
G37*
%LPD*%
%LPC*%
G36*
X346621Y298343D02*
X346621Y298343D01*
X344697Y300267D01*
X344607Y300337D01*
X344578Y300364D01*
X344572Y300368D01*
X344513Y300419D01*
X344478Y300437D01*
X344446Y300462D01*
X344336Y300510D01*
X344230Y300564D01*
X344191Y300572D01*
X344154Y300589D01*
X344036Y300607D01*
X343920Y300633D01*
X343880Y300632D01*
X343840Y300638D01*
X343721Y300627D01*
X343602Y300624D01*
X343563Y300612D01*
X343523Y300609D01*
X343411Y300568D01*
X343297Y300535D01*
X343262Y300515D01*
X343224Y300501D01*
X343125Y300434D01*
X343023Y300374D01*
X342977Y300334D01*
X342961Y300322D01*
X342947Y300307D01*
X342902Y300267D01*
X341979Y299344D01*
X339276Y299344D01*
X339248Y299341D01*
X339228Y299363D01*
X337315Y301276D01*
X337315Y302633D01*
X337300Y302751D01*
X337293Y302870D01*
X337281Y302908D01*
X337276Y302948D01*
X337232Y303059D01*
X337195Y303172D01*
X337173Y303206D01*
X337158Y303244D01*
X337089Y303340D01*
X337025Y303441D01*
X336995Y303468D01*
X336972Y303501D01*
X336880Y303577D01*
X336793Y303659D01*
X336758Y303678D01*
X336727Y303704D01*
X336619Y303755D01*
X336515Y303812D01*
X336476Y303822D01*
X336439Y303840D01*
X336322Y303862D01*
X336207Y303892D01*
X336147Y303895D01*
X336127Y303899D01*
X336106Y303898D01*
X336046Y303902D01*
X335044Y303902D01*
X333112Y305834D01*
X333112Y308565D01*
X335044Y310497D01*
X337775Y310497D01*
X339707Y308565D01*
X339707Y307209D01*
X339722Y307091D01*
X339729Y306972D01*
X339742Y306934D01*
X339747Y306893D01*
X339791Y306783D01*
X339827Y306669D01*
X339849Y306635D01*
X339864Y306598D01*
X339934Y306501D01*
X339998Y306401D01*
X340027Y306373D01*
X340051Y306340D01*
X340143Y306264D01*
X340229Y306183D01*
X340265Y306163D01*
X340296Y306138D01*
X340403Y306087D01*
X340508Y306029D01*
X340547Y306019D01*
X340584Y306002D01*
X340700Y305980D01*
X340816Y305950D01*
X340876Y305946D01*
X340896Y305942D01*
X340916Y305943D01*
X340976Y305940D01*
X341979Y305940D01*
X343919Y304000D01*
X344013Y303927D01*
X344102Y303848D01*
X344138Y303830D01*
X344170Y303805D01*
X344279Y303757D01*
X344385Y303703D01*
X344425Y303695D01*
X344462Y303678D01*
X344580Y303660D01*
X344696Y303634D01*
X344736Y303635D01*
X344776Y303629D01*
X344895Y303640D01*
X345014Y303643D01*
X345052Y303655D01*
X345093Y303658D01*
X345205Y303699D01*
X345319Y303732D01*
X345354Y303752D01*
X345392Y303766D01*
X345490Y303833D01*
X345593Y303893D01*
X345638Y303933D01*
X345655Y303945D01*
X345669Y303960D01*
X345714Y304000D01*
X346569Y304855D01*
X346642Y304949D01*
X346721Y305038D01*
X346739Y305074D01*
X346764Y305106D01*
X346811Y305216D01*
X346865Y305322D01*
X346874Y305361D01*
X346890Y305398D01*
X346909Y305516D01*
X346935Y305632D01*
X346934Y305672D01*
X346940Y305712D01*
X346929Y305831D01*
X346925Y305950D01*
X346914Y305989D01*
X346910Y306029D01*
X346870Y306141D01*
X346837Y306255D01*
X346817Y306290D01*
X346803Y306328D01*
X346736Y306427D01*
X346675Y306529D01*
X346636Y306574D01*
X346624Y306591D01*
X346609Y306605D01*
X346569Y306650D01*
X344522Y308697D01*
X344522Y310393D01*
X344507Y310511D01*
X344500Y310630D01*
X344488Y310668D01*
X344482Y310709D01*
X344439Y310819D01*
X344402Y310933D01*
X344380Y310967D01*
X344365Y311004D01*
X344296Y311101D01*
X344232Y311201D01*
X344202Y311229D01*
X344179Y311262D01*
X344087Y311338D01*
X344000Y311419D01*
X343965Y311439D01*
X343934Y311464D01*
X343826Y311515D01*
X343722Y311573D01*
X343682Y311583D01*
X343646Y311600D01*
X343529Y311622D01*
X343414Y311652D01*
X343354Y311656D01*
X343334Y311660D01*
X343313Y311659D01*
X343253Y311662D01*
X341534Y311662D01*
X339602Y313594D01*
X339602Y316326D01*
X341534Y318258D01*
X344266Y318258D01*
X346198Y316326D01*
X346198Y314607D01*
X346213Y314489D01*
X346220Y314370D01*
X346232Y314332D01*
X346237Y314291D01*
X346281Y314181D01*
X346318Y314067D01*
X346340Y314033D01*
X346355Y313996D01*
X346424Y313899D01*
X346488Y313799D01*
X346518Y313771D01*
X346541Y313738D01*
X346633Y313662D01*
X346720Y313581D01*
X346755Y313561D01*
X346786Y313536D01*
X346894Y313485D01*
X346998Y313427D01*
X347037Y313417D01*
X347074Y313400D01*
X347191Y313378D01*
X347306Y313348D01*
X347366Y313344D01*
X347386Y313340D01*
X347407Y313341D01*
X347467Y313338D01*
X349163Y313338D01*
X351086Y311415D01*
X351086Y308697D01*
X349215Y306826D01*
X349142Y306732D01*
X349063Y306643D01*
X349045Y306607D01*
X349020Y306575D01*
X348973Y306465D01*
X348919Y306360D01*
X348910Y306320D01*
X348894Y306283D01*
X348875Y306165D01*
X348849Y306049D01*
X348850Y306009D01*
X348844Y305969D01*
X348855Y305850D01*
X348859Y305731D01*
X348870Y305692D01*
X348874Y305652D01*
X348914Y305540D01*
X348947Y305426D01*
X348967Y305391D01*
X348981Y305353D01*
X349048Y305254D01*
X349108Y305152D01*
X349148Y305107D01*
X349160Y305090D01*
X349175Y305076D01*
X349215Y305031D01*
X351262Y302984D01*
X351262Y300266D01*
X349339Y298343D01*
X346621Y298343D01*
G37*
%LPD*%
%LPC*%
G36*
X185324Y243188D02*
X185324Y243188D01*
X184036Y244476D01*
X183942Y244549D01*
X183853Y244628D01*
X183817Y244646D01*
X183785Y244671D01*
X183675Y244719D01*
X183570Y244773D01*
X183530Y244781D01*
X183493Y244798D01*
X183375Y244816D01*
X183259Y244842D01*
X183219Y244841D01*
X183179Y244847D01*
X183060Y244836D01*
X182941Y244833D01*
X182903Y244821D01*
X182862Y244818D01*
X182750Y244777D01*
X182636Y244744D01*
X182601Y244724D01*
X182563Y244710D01*
X182465Y244643D01*
X182362Y244583D01*
X182317Y244543D01*
X182300Y244531D01*
X182286Y244516D01*
X182241Y244476D01*
X182133Y244368D01*
X179415Y244368D01*
X178441Y245342D01*
X178347Y245415D01*
X178257Y245494D01*
X178221Y245512D01*
X178190Y245537D01*
X178080Y245584D01*
X177974Y245638D01*
X177935Y245647D01*
X177898Y245663D01*
X177780Y245682D01*
X177664Y245708D01*
X177624Y245707D01*
X177584Y245713D01*
X177465Y245702D01*
X177346Y245698D01*
X177307Y245687D01*
X177267Y245683D01*
X177155Y245643D01*
X177041Y245610D01*
X177006Y245589D01*
X176968Y245576D01*
X176904Y245532D01*
X174118Y245532D01*
X173726Y245924D01*
X173632Y245997D01*
X173543Y246076D01*
X173507Y246094D01*
X173475Y246119D01*
X173365Y246166D01*
X173259Y246220D01*
X173220Y246229D01*
X173183Y246245D01*
X173065Y246264D01*
X172949Y246290D01*
X172909Y246289D01*
X172869Y246295D01*
X172750Y246284D01*
X172631Y246280D01*
X172592Y246269D01*
X172552Y246265D01*
X172440Y246225D01*
X172326Y246192D01*
X172291Y246172D01*
X172253Y246158D01*
X172154Y246091D01*
X172052Y246030D01*
X172007Y245991D01*
X171990Y245979D01*
X171976Y245964D01*
X171931Y245924D01*
X171539Y245532D01*
X168821Y245532D01*
X166898Y247455D01*
X166898Y249449D01*
X166883Y249567D01*
X166876Y249686D01*
X166864Y249724D01*
X166859Y249765D01*
X166815Y249875D01*
X166778Y249989D01*
X166756Y250023D01*
X166741Y250060D01*
X166672Y250157D01*
X166608Y250257D01*
X166578Y250285D01*
X166555Y250318D01*
X166463Y250394D01*
X166376Y250475D01*
X166341Y250495D01*
X166310Y250520D01*
X166202Y250571D01*
X166098Y250629D01*
X166059Y250639D01*
X166022Y250656D01*
X165905Y250678D01*
X165790Y250708D01*
X165730Y250712D01*
X165710Y250716D01*
X165689Y250715D01*
X165629Y250718D01*
X164905Y250718D01*
X162982Y252641D01*
X162982Y255359D01*
X164905Y257282D01*
X167623Y257282D01*
X169546Y255359D01*
X169546Y253365D01*
X169561Y253247D01*
X169568Y253128D01*
X169580Y253090D01*
X169586Y253049D01*
X169629Y252939D01*
X169666Y252826D01*
X169688Y252791D01*
X169703Y252754D01*
X169772Y252657D01*
X169836Y252557D01*
X169866Y252529D01*
X169889Y252496D01*
X169981Y252420D01*
X170068Y252339D01*
X170103Y252319D01*
X170134Y252294D01*
X170242Y252243D01*
X170346Y252185D01*
X170386Y252175D01*
X170422Y252158D01*
X170539Y252136D01*
X170654Y252106D01*
X170714Y252102D01*
X170734Y252098D01*
X170755Y252100D01*
X170815Y252096D01*
X171539Y252096D01*
X171931Y251704D01*
X172025Y251631D01*
X172114Y251552D01*
X172150Y251534D01*
X172182Y251509D01*
X172291Y251462D01*
X172397Y251408D01*
X172437Y251399D01*
X172474Y251383D01*
X172592Y251364D01*
X172708Y251338D01*
X172748Y251339D01*
X172788Y251333D01*
X172907Y251344D01*
X173026Y251348D01*
X173065Y251359D01*
X173105Y251363D01*
X173217Y251403D01*
X173331Y251436D01*
X173366Y251457D01*
X173404Y251470D01*
X173502Y251537D01*
X173605Y251598D01*
X173650Y251637D01*
X173667Y251649D01*
X173681Y251664D01*
X173726Y251704D01*
X174118Y252096D01*
X176836Y252096D01*
X177810Y251122D01*
X177904Y251049D01*
X177993Y250970D01*
X178029Y250952D01*
X178061Y250927D01*
X178170Y250880D01*
X178276Y250826D01*
X178316Y250817D01*
X178353Y250801D01*
X178471Y250782D01*
X178587Y250756D01*
X178627Y250757D01*
X178667Y250751D01*
X178786Y250762D01*
X178905Y250766D01*
X178943Y250777D01*
X178984Y250781D01*
X179096Y250821D01*
X179210Y250854D01*
X179245Y250875D01*
X179283Y250888D01*
X179347Y250932D01*
X182133Y250932D01*
X183405Y249660D01*
X183499Y249587D01*
X183589Y249508D01*
X183625Y249489D01*
X183656Y249465D01*
X183766Y249417D01*
X183872Y249363D01*
X183911Y249354D01*
X183948Y249338D01*
X184066Y249320D01*
X184182Y249294D01*
X184222Y249295D01*
X184262Y249289D01*
X184381Y249300D01*
X184500Y249303D01*
X184539Y249315D01*
X184579Y249318D01*
X184691Y249359D01*
X184805Y249392D01*
X184840Y249412D01*
X184878Y249426D01*
X184977Y249493D01*
X185079Y249553D01*
X185125Y249593D01*
X185141Y249605D01*
X185155Y249620D01*
X185200Y249660D01*
X185324Y249784D01*
X188056Y249784D01*
X189988Y247852D01*
X189988Y245120D01*
X188056Y243188D01*
X185324Y243188D01*
G37*
%LPD*%
%LPC*%
G36*
X168709Y160278D02*
X168709Y160278D01*
X166628Y162359D01*
X166628Y162819D01*
X166613Y162937D01*
X166606Y163056D01*
X166594Y163094D01*
X166589Y163135D01*
X166545Y163245D01*
X166508Y163359D01*
X166486Y163393D01*
X166471Y163430D01*
X166402Y163527D01*
X166338Y163627D01*
X166308Y163655D01*
X166285Y163688D01*
X166193Y163764D01*
X166106Y163845D01*
X166071Y163865D01*
X166040Y163890D01*
X165932Y163941D01*
X165828Y163999D01*
X165789Y164009D01*
X165752Y164026D01*
X165635Y164048D01*
X165520Y164078D01*
X165460Y164082D01*
X165440Y164086D01*
X165419Y164085D01*
X165359Y164088D01*
X163629Y164088D01*
X161548Y166169D01*
X161548Y169111D01*
X163665Y171228D01*
X163668Y171229D01*
X163688Y171231D01*
X163817Y171283D01*
X163948Y171330D01*
X163965Y171341D01*
X163984Y171349D01*
X164096Y171430D01*
X164211Y171508D01*
X164225Y171523D01*
X164241Y171535D01*
X164330Y171643D01*
X164422Y171747D01*
X164431Y171765D01*
X164444Y171780D01*
X164503Y171906D01*
X164566Y172030D01*
X164571Y172050D01*
X164580Y172068D01*
X164606Y172204D01*
X164636Y172340D01*
X164635Y172361D01*
X164639Y172380D01*
X164631Y172519D01*
X164626Y172658D01*
X164621Y172678D01*
X164620Y172698D01*
X164577Y172830D01*
X164538Y172964D01*
X164528Y172981D01*
X164522Y173000D01*
X164447Y173118D01*
X164376Y173238D01*
X164358Y173259D01*
X164351Y173269D01*
X164336Y173283D01*
X164305Y173318D01*
X164305Y176265D01*
X165536Y177496D01*
X165609Y177590D01*
X165688Y177679D01*
X165706Y177715D01*
X165731Y177747D01*
X165779Y177857D01*
X165833Y177963D01*
X165841Y178002D01*
X165858Y178039D01*
X165876Y178157D01*
X165902Y178273D01*
X165901Y178313D01*
X165907Y178353D01*
X165896Y178472D01*
X165893Y178591D01*
X165881Y178630D01*
X165878Y178670D01*
X165837Y178782D01*
X165804Y178896D01*
X165784Y178931D01*
X165770Y178969D01*
X165703Y179068D01*
X165643Y179170D01*
X165603Y179215D01*
X165591Y179232D01*
X165576Y179246D01*
X165536Y179291D01*
X164794Y180033D01*
X164794Y182975D01*
X166875Y185056D01*
X169817Y185056D01*
X171898Y182975D01*
X171898Y180033D01*
X170667Y178802D01*
X170594Y178708D01*
X170515Y178619D01*
X170497Y178583D01*
X170472Y178551D01*
X170425Y178442D01*
X170371Y178336D01*
X170362Y178296D01*
X170346Y178259D01*
X170327Y178141D01*
X170301Y178025D01*
X170302Y177985D01*
X170296Y177945D01*
X170307Y177826D01*
X170311Y177707D01*
X170322Y177669D01*
X170326Y177628D01*
X170366Y177516D01*
X170399Y177402D01*
X170419Y177367D01*
X170433Y177329D01*
X170500Y177231D01*
X170560Y177128D01*
X170600Y177083D01*
X170612Y177066D01*
X170627Y177052D01*
X170667Y177007D01*
X171409Y176265D01*
X171409Y173323D01*
X169292Y171206D01*
X169289Y171205D01*
X169269Y171203D01*
X169140Y171151D01*
X169009Y171104D01*
X168992Y171093D01*
X168973Y171086D01*
X168861Y171004D01*
X168746Y170926D01*
X168732Y170911D01*
X168716Y170899D01*
X168627Y170792D01*
X168535Y170687D01*
X168526Y170669D01*
X168513Y170654D01*
X168454Y170528D01*
X168391Y170404D01*
X168386Y170384D01*
X168378Y170366D01*
X168352Y170230D01*
X168321Y170094D01*
X168322Y170074D01*
X168318Y170054D01*
X168326Y169915D01*
X168331Y169776D01*
X168336Y169756D01*
X168338Y169736D01*
X168380Y169604D01*
X168419Y169470D01*
X168429Y169453D01*
X168436Y169434D01*
X168510Y169316D01*
X168581Y169197D01*
X168599Y169175D01*
X168606Y169165D01*
X168621Y169151D01*
X168652Y169116D01*
X168652Y168651D01*
X168667Y168533D01*
X168674Y168414D01*
X168686Y168376D01*
X168691Y168335D01*
X168735Y168225D01*
X168772Y168111D01*
X168794Y168077D01*
X168809Y168040D01*
X168878Y167943D01*
X168942Y167843D01*
X168972Y167815D01*
X168995Y167782D01*
X169087Y167706D01*
X169174Y167625D01*
X169209Y167605D01*
X169240Y167580D01*
X169348Y167529D01*
X169452Y167471D01*
X169491Y167461D01*
X169528Y167444D01*
X169645Y167422D01*
X169760Y167392D01*
X169820Y167388D01*
X169840Y167384D01*
X169861Y167385D01*
X169921Y167382D01*
X171651Y167382D01*
X173732Y165301D01*
X173732Y162359D01*
X171651Y160278D01*
X168709Y160278D01*
G37*
%LPD*%
%LPC*%
G36*
X428600Y364438D02*
X428600Y364438D01*
X427258Y365780D01*
X427164Y365854D01*
X427075Y365932D01*
X427039Y365951D01*
X427007Y365975D01*
X426897Y366023D01*
X426791Y366077D01*
X426752Y366086D01*
X426715Y366102D01*
X426597Y366120D01*
X426481Y366146D01*
X426441Y366145D01*
X426401Y366152D01*
X426282Y366140D01*
X426163Y366137D01*
X426124Y366126D01*
X426084Y366122D01*
X425972Y366081D01*
X425858Y366048D01*
X425823Y366028D01*
X425785Y366014D01*
X425686Y365947D01*
X425584Y365887D01*
X425539Y365847D01*
X425522Y365836D01*
X425508Y365820D01*
X425463Y365780D01*
X425221Y365538D01*
X421881Y365538D01*
X419519Y367900D01*
X419519Y371240D01*
X421076Y372797D01*
X421149Y372891D01*
X421228Y372980D01*
X421246Y373016D01*
X421271Y373048D01*
X421319Y373158D01*
X421373Y373264D01*
X421382Y373303D01*
X421398Y373340D01*
X421416Y373458D01*
X421442Y373574D01*
X421441Y373614D01*
X421447Y373654D01*
X421436Y373773D01*
X421433Y373892D01*
X421421Y373931D01*
X421418Y373971D01*
X421377Y374083D01*
X421344Y374197D01*
X421324Y374232D01*
X421310Y374270D01*
X421243Y374369D01*
X421183Y374471D01*
X421143Y374516D01*
X421131Y374533D01*
X421116Y374547D01*
X421076Y374592D01*
X420148Y375520D01*
X420148Y378860D01*
X422510Y381222D01*
X425850Y381222D01*
X428212Y378860D01*
X428212Y375520D01*
X427360Y374668D01*
X427275Y374559D01*
X427186Y374451D01*
X427177Y374433D01*
X427165Y374417D01*
X427110Y374289D01*
X427051Y374164D01*
X427047Y374144D01*
X427039Y374125D01*
X427017Y373987D01*
X426991Y373851D01*
X426992Y373831D01*
X426989Y373811D01*
X427002Y373672D01*
X427011Y373534D01*
X427017Y373515D01*
X427019Y373495D01*
X427066Y373363D01*
X427109Y373231D01*
X427119Y373214D01*
X427126Y373195D01*
X427204Y373080D01*
X427279Y372963D01*
X427293Y372949D01*
X427305Y372932D01*
X427409Y372840D01*
X427510Y372745D01*
X427528Y372735D01*
X427543Y372722D01*
X427667Y372659D01*
X427789Y372591D01*
X427808Y372586D01*
X427826Y372577D01*
X427962Y372547D01*
X428097Y372512D01*
X428125Y372510D01*
X428137Y372507D01*
X428157Y372508D01*
X428257Y372502D01*
X431940Y372502D01*
X434302Y370140D01*
X434302Y366800D01*
X431940Y364438D01*
X428600Y364438D01*
G37*
%LPD*%
%LPC*%
G36*
X216991Y217557D02*
X216991Y217557D01*
X215424Y219125D01*
X215329Y219198D01*
X215240Y219277D01*
X215204Y219295D01*
X215172Y219320D01*
X215063Y219367D01*
X214957Y219421D01*
X214918Y219430D01*
X214880Y219446D01*
X214763Y219465D01*
X214647Y219491D01*
X214606Y219490D01*
X214566Y219496D01*
X214448Y219485D01*
X214329Y219481D01*
X214290Y219470D01*
X214250Y219466D01*
X214138Y219426D01*
X214023Y219393D01*
X213989Y219372D01*
X213950Y219359D01*
X213852Y219292D01*
X213749Y219231D01*
X213704Y219192D01*
X213687Y219180D01*
X213674Y219165D01*
X213629Y219125D01*
X212186Y217682D01*
X209454Y217682D01*
X207522Y219614D01*
X207522Y222346D01*
X209454Y224278D01*
X212186Y224278D01*
X213754Y222710D01*
X213848Y222637D01*
X213937Y222558D01*
X213973Y222540D01*
X214005Y222515D01*
X214114Y222468D01*
X214220Y222414D01*
X214260Y222405D01*
X214297Y222389D01*
X214415Y222370D01*
X214530Y222344D01*
X214571Y222345D01*
X214611Y222339D01*
X214729Y222350D01*
X214848Y222354D01*
X214887Y222365D01*
X214927Y222369D01*
X215040Y222409D01*
X215154Y222442D01*
X215189Y222463D01*
X215227Y222476D01*
X215325Y222543D01*
X215428Y222604D01*
X215473Y222643D01*
X215490Y222655D01*
X215503Y222670D01*
X215549Y222710D01*
X216991Y224153D01*
X219723Y224153D01*
X220614Y223262D01*
X220707Y223189D01*
X220797Y223110D01*
X220833Y223092D01*
X220865Y223067D01*
X220974Y223020D01*
X221080Y222966D01*
X221120Y222957D01*
X221157Y222941D01*
X221274Y222922D01*
X221390Y222896D01*
X221431Y222897D01*
X221471Y222891D01*
X221589Y222902D01*
X221708Y222906D01*
X221747Y222917D01*
X221787Y222921D01*
X221900Y222961D01*
X222014Y222994D01*
X222049Y223015D01*
X222087Y223028D01*
X222185Y223095D01*
X222288Y223156D01*
X222333Y223196D01*
X222350Y223207D01*
X222363Y223222D01*
X222409Y223262D01*
X224694Y225548D01*
X227843Y225548D01*
X227961Y225563D01*
X228080Y225570D01*
X228118Y225582D01*
X228159Y225587D01*
X228269Y225631D01*
X228383Y225668D01*
X228417Y225690D01*
X228454Y225705D01*
X228551Y225774D01*
X228651Y225838D01*
X228679Y225868D01*
X228712Y225891D01*
X228788Y225983D01*
X228869Y226070D01*
X228889Y226105D01*
X228914Y226136D01*
X228965Y226244D01*
X229023Y226348D01*
X229033Y226387D01*
X229050Y226424D01*
X229072Y226541D01*
X229102Y226656D01*
X229106Y226716D01*
X229110Y226736D01*
X229109Y226757D01*
X229112Y226817D01*
X229112Y229966D01*
X231044Y231898D01*
X233776Y231898D01*
X235708Y229966D01*
X235708Y227234D01*
X233776Y225302D01*
X230627Y225302D01*
X230509Y225287D01*
X230390Y225280D01*
X230352Y225268D01*
X230311Y225263D01*
X230201Y225219D01*
X230087Y225182D01*
X230053Y225160D01*
X230016Y225145D01*
X229919Y225076D01*
X229819Y225012D01*
X229791Y224982D01*
X229758Y224959D01*
X229682Y224867D01*
X229601Y224780D01*
X229581Y224745D01*
X229556Y224714D01*
X229505Y224606D01*
X229447Y224502D01*
X229437Y224463D01*
X229420Y224426D01*
X229398Y224309D01*
X229368Y224194D01*
X229364Y224134D01*
X229360Y224114D01*
X229361Y224093D01*
X229358Y224033D01*
X229358Y220884D01*
X227426Y218952D01*
X224694Y218952D01*
X223804Y219843D01*
X223709Y219916D01*
X223620Y219995D01*
X223584Y220013D01*
X223552Y220038D01*
X223443Y220085D01*
X223337Y220139D01*
X223298Y220148D01*
X223260Y220164D01*
X223143Y220183D01*
X223027Y220209D01*
X222986Y220208D01*
X222946Y220214D01*
X222828Y220203D01*
X222709Y220199D01*
X222670Y220188D01*
X222630Y220184D01*
X222518Y220144D01*
X222403Y220111D01*
X222369Y220090D01*
X222330Y220077D01*
X222232Y220010D01*
X222129Y219949D01*
X222084Y219909D01*
X222067Y219898D01*
X222054Y219883D01*
X222009Y219843D01*
X219723Y217557D01*
X216991Y217557D01*
G37*
%LPD*%
%LPC*%
G36*
X389801Y415818D02*
X389801Y415818D01*
X387878Y417741D01*
X387878Y420459D01*
X388797Y421377D01*
X388870Y421472D01*
X388948Y421561D01*
X388967Y421597D01*
X388991Y421629D01*
X389039Y421738D01*
X389093Y421844D01*
X389102Y421883D01*
X389118Y421921D01*
X389137Y422038D01*
X389163Y422154D01*
X389161Y422195D01*
X389168Y422235D01*
X389157Y422353D01*
X389153Y422472D01*
X389142Y422511D01*
X389138Y422551D01*
X389098Y422664D01*
X389065Y422778D01*
X389044Y422812D01*
X389030Y422851D01*
X388963Y422949D01*
X388903Y423052D01*
X388863Y423097D01*
X388852Y423114D01*
X388836Y423127D01*
X388797Y423172D01*
X387878Y424091D01*
X387878Y426809D01*
X389801Y428732D01*
X392519Y428732D01*
X393438Y427813D01*
X393532Y427740D01*
X393621Y427662D01*
X393657Y427643D01*
X393689Y427618D01*
X393798Y427571D01*
X393904Y427517D01*
X393943Y427508D01*
X393981Y427492D01*
X394098Y427473D01*
X394214Y427447D01*
X394255Y427449D01*
X394295Y427442D01*
X394413Y427453D01*
X394532Y427457D01*
X394571Y427468D01*
X394611Y427472D01*
X394723Y427512D01*
X394838Y427545D01*
X394873Y427566D01*
X394911Y427580D01*
X395009Y427647D01*
X395112Y427707D01*
X395157Y427747D01*
X395174Y427758D01*
X395187Y427774D01*
X395233Y427813D01*
X396151Y428732D01*
X398869Y428732D01*
X400792Y426809D01*
X400792Y424091D01*
X399873Y423173D01*
X399800Y423078D01*
X399722Y422989D01*
X399703Y422953D01*
X399679Y422921D01*
X399631Y422812D01*
X399577Y422706D01*
X399568Y422667D01*
X399552Y422629D01*
X399533Y422512D01*
X399507Y422396D01*
X399509Y422355D01*
X399502Y422315D01*
X399513Y422197D01*
X399517Y422078D01*
X399528Y422039D01*
X399532Y421999D01*
X399572Y421886D01*
X399605Y421772D01*
X399626Y421738D01*
X399640Y421699D01*
X399707Y421601D01*
X399767Y421498D01*
X399807Y421453D01*
X399818Y421436D01*
X399834Y421423D01*
X399873Y421378D01*
X400792Y420459D01*
X400792Y417741D01*
X398869Y415818D01*
X396151Y415818D01*
X395233Y416737D01*
X395138Y416810D01*
X395049Y416888D01*
X395013Y416907D01*
X394981Y416931D01*
X394872Y416979D01*
X394766Y417033D01*
X394727Y417042D01*
X394689Y417058D01*
X394572Y417077D01*
X394456Y417103D01*
X394415Y417101D01*
X394375Y417108D01*
X394257Y417097D01*
X394138Y417093D01*
X394099Y417082D01*
X394059Y417078D01*
X393946Y417038D01*
X393832Y417005D01*
X393798Y416984D01*
X393759Y416970D01*
X393661Y416903D01*
X393558Y416843D01*
X393513Y416803D01*
X393496Y416792D01*
X393483Y416776D01*
X393438Y416737D01*
X392519Y415818D01*
X389801Y415818D01*
G37*
%LPD*%
%LPC*%
G36*
X299624Y309122D02*
X299624Y309122D01*
X297692Y311054D01*
X297692Y311663D01*
X297677Y311781D01*
X297670Y311900D01*
X297658Y311938D01*
X297653Y311979D01*
X297609Y312089D01*
X297572Y312203D01*
X297550Y312237D01*
X297535Y312274D01*
X297466Y312371D01*
X297402Y312471D01*
X297372Y312499D01*
X297349Y312532D01*
X297257Y312608D01*
X297170Y312689D01*
X297135Y312709D01*
X297104Y312734D01*
X296996Y312785D01*
X296892Y312843D01*
X296853Y312853D01*
X296816Y312870D01*
X296699Y312892D01*
X296584Y312922D01*
X296524Y312926D01*
X296504Y312930D01*
X296483Y312929D01*
X296423Y312932D01*
X295814Y312932D01*
X293882Y314864D01*
X293882Y317596D01*
X294159Y317873D01*
X294232Y317967D01*
X294311Y318056D01*
X294329Y318092D01*
X294354Y318124D01*
X294401Y318233D01*
X294455Y318339D01*
X294464Y318378D01*
X294480Y318416D01*
X294499Y318533D01*
X294525Y318649D01*
X294524Y318690D01*
X294530Y318730D01*
X294519Y318848D01*
X294515Y318967D01*
X294504Y319006D01*
X294500Y319046D01*
X294460Y319158D01*
X294427Y319273D01*
X294406Y319308D01*
X294393Y319346D01*
X294326Y319444D01*
X294265Y319547D01*
X294226Y319592D01*
X294214Y319609D01*
X294199Y319622D01*
X294159Y319668D01*
X292612Y321214D01*
X292612Y323946D01*
X294544Y325878D01*
X296333Y325878D01*
X296451Y325893D01*
X296570Y325900D01*
X296609Y325912D01*
X296649Y325917D01*
X296759Y325961D01*
X296873Y325998D01*
X296907Y326020D01*
X296944Y326035D01*
X297041Y326104D01*
X297141Y326168D01*
X297169Y326198D01*
X297202Y326221D01*
X297278Y326313D01*
X297359Y326400D01*
X297379Y326435D01*
X297405Y326466D01*
X297455Y326574D01*
X297513Y326678D01*
X297523Y326717D01*
X297540Y326754D01*
X297562Y326871D01*
X297592Y326986D01*
X297596Y327046D01*
X297600Y327066D01*
X297599Y327087D01*
X297602Y327147D01*
X297602Y327899D01*
X299525Y329822D01*
X302243Y329822D01*
X304166Y327899D01*
X304166Y325181D01*
X302243Y323258D01*
X300477Y323258D01*
X300359Y323243D01*
X300240Y323236D01*
X300202Y323224D01*
X300161Y323219D01*
X300051Y323175D01*
X299937Y323138D01*
X299903Y323116D01*
X299866Y323102D01*
X299769Y323032D01*
X299669Y322968D01*
X299641Y322938D01*
X299608Y322915D01*
X299532Y322823D01*
X299451Y322736D01*
X299431Y322701D01*
X299406Y322670D01*
X299355Y322562D01*
X299297Y322458D01*
X299287Y322419D01*
X299270Y322382D01*
X299248Y322265D01*
X299218Y322150D01*
X299214Y322090D01*
X299210Y322070D01*
X299211Y322049D01*
X299208Y321989D01*
X299208Y321214D01*
X298931Y320938D01*
X298858Y320843D01*
X298779Y320754D01*
X298761Y320718D01*
X298736Y320686D01*
X298689Y320577D01*
X298635Y320471D01*
X298626Y320432D01*
X298610Y320394D01*
X298591Y320277D01*
X298565Y320161D01*
X298566Y320120D01*
X298560Y320080D01*
X298571Y319962D01*
X298575Y319843D01*
X298586Y319804D01*
X298590Y319764D01*
X298630Y319652D01*
X298663Y319537D01*
X298684Y319502D01*
X298697Y319464D01*
X298764Y319366D01*
X298825Y319263D01*
X298865Y319218D01*
X298876Y319201D01*
X298891Y319188D01*
X298931Y319143D01*
X300478Y317596D01*
X300478Y316987D01*
X300493Y316869D01*
X300500Y316750D01*
X300512Y316712D01*
X300517Y316671D01*
X300561Y316561D01*
X300598Y316447D01*
X300620Y316413D01*
X300635Y316376D01*
X300704Y316279D01*
X300768Y316179D01*
X300798Y316151D01*
X300821Y316118D01*
X300913Y316042D01*
X301000Y315961D01*
X301035Y315941D01*
X301066Y315916D01*
X301174Y315865D01*
X301278Y315807D01*
X301317Y315797D01*
X301354Y315780D01*
X301471Y315758D01*
X301586Y315728D01*
X301646Y315724D01*
X301666Y315720D01*
X301687Y315721D01*
X301747Y315718D01*
X302356Y315718D01*
X304288Y313786D01*
X304288Y311054D01*
X302356Y309122D01*
X299624Y309122D01*
G37*
%LPD*%
%LPC*%
G36*
X349161Y358668D02*
X349161Y358668D01*
X347238Y360591D01*
X347238Y363309D01*
X347522Y363592D01*
X347595Y363687D01*
X347673Y363776D01*
X347692Y363812D01*
X347716Y363844D01*
X347764Y363953D01*
X347818Y364059D01*
X347827Y364098D01*
X347843Y364136D01*
X347862Y364253D01*
X347888Y364369D01*
X347886Y364410D01*
X347893Y364450D01*
X347882Y364568D01*
X347878Y364687D01*
X347867Y364726D01*
X347863Y364766D01*
X347823Y364878D01*
X347790Y364993D01*
X347769Y365028D01*
X347755Y365066D01*
X347689Y365164D01*
X347628Y365267D01*
X347588Y365312D01*
X347577Y365329D01*
X347561Y365342D01*
X347522Y365387D01*
X347238Y365671D01*
X347238Y368389D01*
X349161Y370312D01*
X351879Y370312D01*
X352797Y369393D01*
X352892Y369320D01*
X352981Y369242D01*
X353017Y369223D01*
X353049Y369199D01*
X353158Y369151D01*
X353264Y369097D01*
X353303Y369088D01*
X353341Y369072D01*
X353458Y369053D01*
X353574Y369027D01*
X353615Y369029D01*
X353655Y369022D01*
X353773Y369033D01*
X353892Y369037D01*
X353931Y369048D01*
X353971Y369052D01*
X354084Y369092D01*
X354198Y369125D01*
X354232Y369146D01*
X354271Y369160D01*
X354369Y369227D01*
X354472Y369287D01*
X354517Y369327D01*
X354534Y369338D01*
X354547Y369354D01*
X354592Y369393D01*
X355511Y370312D01*
X358229Y370312D01*
X360152Y368389D01*
X360152Y365671D01*
X359868Y365387D01*
X359795Y365293D01*
X359717Y365204D01*
X359698Y365168D01*
X359673Y365136D01*
X359626Y365027D01*
X359572Y364921D01*
X359563Y364882D01*
X359547Y364844D01*
X359528Y364727D01*
X359502Y364611D01*
X359504Y364570D01*
X359497Y364530D01*
X359508Y364412D01*
X359512Y364293D01*
X359523Y364254D01*
X359527Y364214D01*
X359567Y364102D01*
X359600Y363987D01*
X359621Y363952D01*
X359635Y363914D01*
X359702Y363816D01*
X359762Y363713D01*
X359802Y363668D01*
X359813Y363651D01*
X359829Y363638D01*
X359868Y363592D01*
X360152Y363309D01*
X360152Y360591D01*
X358229Y358668D01*
X355511Y358668D01*
X354593Y359587D01*
X354498Y359660D01*
X354409Y359738D01*
X354373Y359757D01*
X354341Y359781D01*
X354232Y359829D01*
X354126Y359883D01*
X354087Y359892D01*
X354049Y359908D01*
X353932Y359927D01*
X353816Y359953D01*
X353775Y359951D01*
X353735Y359958D01*
X353617Y359947D01*
X353498Y359943D01*
X353459Y359932D01*
X353419Y359928D01*
X353306Y359888D01*
X353192Y359855D01*
X353158Y359834D01*
X353119Y359820D01*
X353021Y359753D01*
X352918Y359693D01*
X352873Y359653D01*
X352856Y359642D01*
X352843Y359626D01*
X352798Y359587D01*
X351879Y358668D01*
X349161Y358668D01*
G37*
%LPD*%
%LPC*%
G36*
X281209Y297692D02*
X281209Y297692D01*
X279277Y299624D01*
X279277Y300760D01*
X279260Y300897D01*
X279247Y301036D01*
X279240Y301055D01*
X279238Y301075D01*
X279187Y301204D01*
X279139Y301335D01*
X279128Y301352D01*
X279120Y301371D01*
X279039Y301483D01*
X278961Y301598D01*
X278946Y301612D01*
X278934Y301628D01*
X278826Y301717D01*
X278722Y301809D01*
X278704Y301818D01*
X278689Y301831D01*
X278563Y301890D01*
X278548Y301898D01*
X278621Y301921D01*
X278755Y301960D01*
X278772Y301970D01*
X278791Y301977D01*
X278877Y302031D01*
X278883Y302033D01*
X278899Y302045D01*
X278909Y302051D01*
X279029Y302122D01*
X279050Y302140D01*
X279060Y302147D01*
X279074Y302162D01*
X279140Y302220D01*
X279141Y302220D01*
X279141Y302221D01*
X279149Y302228D01*
X281209Y304288D01*
X283941Y304288D01*
X285170Y303059D01*
X285264Y302985D01*
X285353Y302907D01*
X285389Y302888D01*
X285421Y302864D01*
X285531Y302816D01*
X285637Y302762D01*
X285676Y302753D01*
X285713Y302737D01*
X285831Y302719D01*
X285947Y302693D01*
X285987Y302694D01*
X286027Y302687D01*
X286146Y302699D01*
X286265Y302702D01*
X286304Y302713D01*
X286344Y302717D01*
X286456Y302758D01*
X286570Y302791D01*
X286605Y302811D01*
X286643Y302825D01*
X286742Y302892D01*
X286844Y302952D01*
X286889Y302992D01*
X286906Y303003D01*
X286920Y303019D01*
X286965Y303059D01*
X288194Y304288D01*
X290926Y304288D01*
X291838Y303376D01*
X291932Y303303D01*
X292021Y303224D01*
X292057Y303206D01*
X292089Y303181D01*
X292198Y303134D01*
X292304Y303080D01*
X292343Y303071D01*
X292381Y303055D01*
X292498Y303036D01*
X292614Y303010D01*
X292655Y303011D01*
X292695Y303005D01*
X292813Y303016D01*
X292932Y303020D01*
X292971Y303031D01*
X293011Y303035D01*
X293123Y303075D01*
X293238Y303108D01*
X293273Y303129D01*
X293311Y303142D01*
X293409Y303209D01*
X293512Y303270D01*
X293557Y303309D01*
X293574Y303321D01*
X293587Y303336D01*
X293633Y303376D01*
X295814Y305558D01*
X298546Y305558D01*
X300478Y303626D01*
X300478Y300894D01*
X298546Y298962D01*
X295814Y298962D01*
X294903Y299874D01*
X294809Y299947D01*
X294719Y300026D01*
X294683Y300044D01*
X294651Y300069D01*
X294542Y300116D01*
X294436Y300170D01*
X294397Y300179D01*
X294359Y300195D01*
X294242Y300214D01*
X294126Y300240D01*
X294085Y300239D01*
X294045Y300245D01*
X293927Y300234D01*
X293808Y300230D01*
X293769Y300219D01*
X293729Y300215D01*
X293616Y300175D01*
X293502Y300142D01*
X293468Y300121D01*
X293429Y300108D01*
X293331Y300041D01*
X293228Y299980D01*
X293183Y299940D01*
X293166Y299929D01*
X293153Y299914D01*
X293108Y299874D01*
X290926Y297692D01*
X288194Y297692D01*
X286965Y298921D01*
X286871Y298995D01*
X286782Y299073D01*
X286746Y299092D01*
X286714Y299116D01*
X286604Y299164D01*
X286498Y299218D01*
X286459Y299227D01*
X286422Y299243D01*
X286304Y299261D01*
X286188Y299287D01*
X286148Y299286D01*
X286108Y299293D01*
X285989Y299281D01*
X285870Y299278D01*
X285831Y299267D01*
X285791Y299263D01*
X285679Y299222D01*
X285565Y299189D01*
X285530Y299169D01*
X285492Y299155D01*
X285393Y299088D01*
X285291Y299028D01*
X285246Y298988D01*
X285229Y298977D01*
X285215Y298961D01*
X285170Y298921D01*
X283941Y297692D01*
X281209Y297692D01*
G37*
%LPD*%
%LPC*%
G36*
X200170Y208792D02*
X200170Y208792D01*
X198238Y210724D01*
X198238Y213456D01*
X199982Y215200D01*
X200055Y215294D01*
X200134Y215383D01*
X200152Y215419D01*
X200177Y215451D01*
X200224Y215560D01*
X200278Y215666D01*
X200287Y215705D01*
X200303Y215743D01*
X200322Y215860D01*
X200348Y215976D01*
X200347Y216017D01*
X200353Y216057D01*
X200342Y216175D01*
X200338Y216294D01*
X200327Y216333D01*
X200323Y216373D01*
X200283Y216486D01*
X200250Y216600D01*
X200229Y216635D01*
X200216Y216673D01*
X200149Y216771D01*
X200088Y216874D01*
X200048Y216919D01*
X200037Y216936D01*
X200022Y216949D01*
X199982Y216995D01*
X198450Y218526D01*
X198356Y218600D01*
X198267Y218678D01*
X198231Y218697D01*
X198199Y218721D01*
X198089Y218769D01*
X197983Y218823D01*
X197944Y218832D01*
X197907Y218848D01*
X197789Y218866D01*
X197673Y218892D01*
X197633Y218891D01*
X197593Y218898D01*
X197474Y218886D01*
X197355Y218883D01*
X197316Y218872D01*
X197276Y218868D01*
X197164Y218827D01*
X197050Y218794D01*
X197015Y218774D01*
X196977Y218760D01*
X196878Y218693D01*
X196776Y218633D01*
X196731Y218593D01*
X196714Y218582D01*
X196700Y218566D01*
X196655Y218526D01*
X195811Y217682D01*
X193079Y217682D01*
X191147Y219614D01*
X191147Y222346D01*
X193079Y224278D01*
X195811Y224278D01*
X197290Y222799D01*
X197384Y222725D01*
X197473Y222647D01*
X197509Y222628D01*
X197541Y222604D01*
X197651Y222556D01*
X197757Y222502D01*
X197796Y222493D01*
X197833Y222477D01*
X197951Y222459D01*
X198067Y222433D01*
X198107Y222434D01*
X198147Y222427D01*
X198266Y222439D01*
X198385Y222442D01*
X198424Y222453D01*
X198464Y222457D01*
X198576Y222498D01*
X198690Y222531D01*
X198725Y222551D01*
X198763Y222565D01*
X198862Y222632D01*
X198964Y222692D01*
X199009Y222732D01*
X199026Y222743D01*
X199040Y222759D01*
X199085Y222799D01*
X199929Y223643D01*
X202661Y223643D01*
X204593Y221711D01*
X204593Y218979D01*
X202849Y217235D01*
X202776Y217141D01*
X202697Y217052D01*
X202679Y217016D01*
X202654Y216984D01*
X202607Y216875D01*
X202553Y216769D01*
X202544Y216730D01*
X202528Y216692D01*
X202509Y216575D01*
X202483Y216459D01*
X202484Y216418D01*
X202478Y216378D01*
X202489Y216260D01*
X202493Y216141D01*
X202504Y216102D01*
X202508Y216062D01*
X202548Y215949D01*
X202581Y215835D01*
X202602Y215800D01*
X202615Y215762D01*
X202682Y215664D01*
X202743Y215561D01*
X202782Y215516D01*
X202794Y215499D01*
X202809Y215486D01*
X202849Y215440D01*
X204834Y213456D01*
X204834Y210724D01*
X202902Y208792D01*
X200170Y208792D01*
G37*
%LPD*%
%LPC*%
G36*
X304704Y249432D02*
X304704Y249432D01*
X302772Y251364D01*
X302772Y251865D01*
X302755Y252002D01*
X302742Y252141D01*
X302735Y252160D01*
X302733Y252180D01*
X302682Y252309D01*
X302634Y252440D01*
X302623Y252457D01*
X302615Y252476D01*
X302534Y252588D01*
X302456Y252703D01*
X302441Y252717D01*
X302429Y252733D01*
X302321Y252822D01*
X302217Y252914D01*
X302199Y252923D01*
X302184Y252936D01*
X302058Y252995D01*
X301934Y253058D01*
X301914Y253063D01*
X301896Y253071D01*
X301760Y253098D01*
X301624Y253128D01*
X301603Y253127D01*
X301584Y253131D01*
X301445Y253123D01*
X301306Y253118D01*
X301286Y253113D01*
X301266Y253112D01*
X301134Y253069D01*
X301000Y253030D01*
X300983Y253020D01*
X300964Y253013D01*
X300846Y252939D01*
X300726Y252868D01*
X300705Y252850D01*
X300695Y252843D01*
X300681Y252828D01*
X300606Y252762D01*
X298546Y250702D01*
X295814Y250702D01*
X293882Y252634D01*
X293882Y255366D01*
X295814Y257298D01*
X298546Y257298D01*
X300478Y255366D01*
X300478Y254865D01*
X300495Y254728D01*
X300508Y254589D01*
X300515Y254570D01*
X300517Y254550D01*
X300569Y254421D01*
X300616Y254290D01*
X300627Y254273D01*
X300635Y254254D01*
X300716Y254142D01*
X300794Y254027D01*
X300809Y254013D01*
X300821Y253997D01*
X300929Y253908D01*
X301033Y253816D01*
X301051Y253807D01*
X301066Y253794D01*
X301192Y253735D01*
X301316Y253672D01*
X301336Y253667D01*
X301354Y253659D01*
X301490Y253632D01*
X301626Y253602D01*
X301647Y253603D01*
X301666Y253599D01*
X301805Y253607D01*
X301944Y253612D01*
X301964Y253617D01*
X301984Y253618D01*
X302116Y253661D01*
X302250Y253700D01*
X302267Y253710D01*
X302286Y253717D01*
X302404Y253791D01*
X302524Y253862D01*
X302545Y253880D01*
X302555Y253887D01*
X302569Y253902D01*
X302644Y253968D01*
X304319Y255642D01*
X304392Y255737D01*
X304471Y255826D01*
X304489Y255862D01*
X304514Y255894D01*
X304561Y256003D01*
X304615Y256109D01*
X304624Y256148D01*
X304640Y256186D01*
X304659Y256303D01*
X304685Y256419D01*
X304684Y256460D01*
X304690Y256500D01*
X304679Y256618D01*
X304675Y256737D01*
X304664Y256776D01*
X304660Y256816D01*
X304620Y256929D01*
X304587Y257043D01*
X304566Y257077D01*
X304553Y257116D01*
X304486Y257214D01*
X304425Y257317D01*
X304385Y257362D01*
X304374Y257379D01*
X304359Y257392D01*
X304319Y257437D01*
X302772Y258984D01*
X302772Y261716D01*
X304704Y263648D01*
X307436Y263648D01*
X309368Y261716D01*
X309368Y258984D01*
X307821Y257437D01*
X307748Y257343D01*
X307669Y257254D01*
X307651Y257218D01*
X307626Y257186D01*
X307579Y257077D01*
X307525Y256971D01*
X307516Y256932D01*
X307500Y256894D01*
X307481Y256777D01*
X307455Y256661D01*
X307456Y256620D01*
X307450Y256580D01*
X307461Y256462D01*
X307465Y256343D01*
X307476Y256304D01*
X307480Y256264D01*
X307520Y256152D01*
X307553Y256037D01*
X307574Y256002D01*
X307587Y255964D01*
X307654Y255866D01*
X307715Y255763D01*
X307754Y255718D01*
X307766Y255701D01*
X307781Y255688D01*
X307821Y255642D01*
X309368Y254096D01*
X309368Y251364D01*
X307436Y249432D01*
X304704Y249432D01*
G37*
%LPD*%
%LPC*%
G36*
X333914Y319282D02*
X333914Y319282D01*
X331982Y321214D01*
X331982Y323946D01*
X333914Y325878D01*
X336646Y325878D01*
X337452Y325072D01*
X337538Y325005D01*
X337579Y324966D01*
X337600Y324955D01*
X337669Y324898D01*
X337687Y324889D01*
X337703Y324877D01*
X337831Y324822D01*
X337956Y324763D01*
X337976Y324759D01*
X337995Y324751D01*
X338133Y324729D01*
X338269Y324703D01*
X338289Y324704D01*
X338309Y324701D01*
X338448Y324714D01*
X338586Y324722D01*
X338605Y324729D01*
X338625Y324731D01*
X338757Y324778D01*
X338889Y324821D01*
X338906Y324831D01*
X338925Y324838D01*
X339040Y324916D01*
X339157Y324991D01*
X339171Y325005D01*
X339188Y325017D01*
X339280Y325121D01*
X339375Y325222D01*
X339385Y325240D01*
X339398Y325255D01*
X339461Y325379D01*
X339529Y325501D01*
X339534Y325520D01*
X339543Y325538D01*
X339573Y325674D01*
X339608Y325809D01*
X339610Y325836D01*
X341541Y327767D01*
X344259Y327767D01*
X345954Y326072D01*
X346048Y325999D01*
X346137Y325920D01*
X346173Y325902D01*
X346205Y325877D01*
X346315Y325830D01*
X346421Y325776D01*
X346460Y325767D01*
X346497Y325751D01*
X346615Y325732D01*
X346731Y325706D01*
X346771Y325707D01*
X346811Y325701D01*
X346930Y325712D01*
X347049Y325716D01*
X347088Y325727D01*
X347128Y325731D01*
X347240Y325771D01*
X347354Y325804D01*
X347389Y325825D01*
X347427Y325838D01*
X347526Y325905D01*
X347628Y325966D01*
X347673Y326005D01*
X347690Y326017D01*
X347704Y326032D01*
X347749Y326072D01*
X348280Y326603D01*
X350998Y326603D01*
X352921Y324680D01*
X352921Y321962D01*
X350998Y320039D01*
X348280Y320039D01*
X346585Y321734D01*
X346491Y321807D01*
X346402Y321886D01*
X346366Y321904D01*
X346334Y321929D01*
X346224Y321976D01*
X346118Y322030D01*
X346079Y322039D01*
X346042Y322055D01*
X345924Y322074D01*
X345808Y322100D01*
X345768Y322099D01*
X345728Y322105D01*
X345609Y322094D01*
X345490Y322090D01*
X345451Y322079D01*
X345411Y322075D01*
X345299Y322035D01*
X345185Y322002D01*
X345150Y321981D01*
X345112Y321968D01*
X345013Y321901D01*
X344911Y321840D01*
X344865Y321801D01*
X344849Y321789D01*
X344835Y321774D01*
X344790Y321734D01*
X344259Y321203D01*
X341541Y321203D01*
X340744Y322000D01*
X340635Y322084D01*
X340527Y322174D01*
X340509Y322182D01*
X340493Y322195D01*
X340365Y322250D01*
X340240Y322309D01*
X340220Y322313D01*
X340201Y322321D01*
X340063Y322343D01*
X339927Y322369D01*
X339907Y322368D01*
X339887Y322371D01*
X339748Y322358D01*
X339610Y322349D01*
X339591Y322343D01*
X339571Y322341D01*
X339439Y322294D01*
X339307Y322251D01*
X339290Y322240D01*
X339271Y322233D01*
X339156Y322155D01*
X339039Y322081D01*
X339025Y322066D01*
X339008Y322055D01*
X338916Y321951D01*
X338821Y321849D01*
X338811Y321832D01*
X338798Y321816D01*
X338735Y321693D01*
X338667Y321571D01*
X338662Y321551D01*
X338653Y321533D01*
X338623Y321397D01*
X338588Y321263D01*
X338586Y321235D01*
X338583Y321223D01*
X338583Y321220D01*
X336646Y319282D01*
X333914Y319282D01*
G37*
%LPD*%
%LPC*%
G36*
X333914Y226572D02*
X333914Y226572D01*
X331982Y228504D01*
X331982Y231236D01*
X333168Y232422D01*
X333242Y232516D01*
X333320Y232605D01*
X333339Y232641D01*
X333363Y232673D01*
X333411Y232783D01*
X333465Y232889D01*
X333474Y232928D01*
X333490Y232965D01*
X333508Y233083D01*
X333534Y233199D01*
X333533Y233239D01*
X333540Y233279D01*
X333528Y233398D01*
X333525Y233517D01*
X333514Y233556D01*
X333510Y233596D01*
X333469Y233708D01*
X333436Y233822D01*
X333416Y233857D01*
X333402Y233895D01*
X333335Y233994D01*
X333275Y234096D01*
X333235Y234141D01*
X333224Y234158D01*
X333208Y234172D01*
X333168Y234217D01*
X331790Y235595D01*
X331790Y238327D01*
X333722Y240259D01*
X335158Y240259D01*
X335276Y240274D01*
X335395Y240281D01*
X335433Y240293D01*
X335474Y240298D01*
X335584Y240342D01*
X335698Y240379D01*
X335732Y240401D01*
X335769Y240415D01*
X335866Y240485D01*
X335966Y240549D01*
X335994Y240579D01*
X336027Y240602D01*
X336103Y240694D01*
X336184Y240781D01*
X336204Y240816D01*
X336229Y240847D01*
X336280Y240955D01*
X336338Y241059D01*
X336348Y241098D01*
X336365Y241135D01*
X336387Y241252D01*
X336417Y241367D01*
X336421Y241427D01*
X336425Y241447D01*
X336424Y241468D01*
X336427Y241528D01*
X336427Y243936D01*
X338359Y245868D01*
X341091Y245868D01*
X343023Y243936D01*
X343023Y241204D01*
X341091Y239272D01*
X339655Y239272D01*
X339537Y239257D01*
X339418Y239250D01*
X339380Y239238D01*
X339339Y239233D01*
X339229Y239189D01*
X339116Y239152D01*
X339081Y239130D01*
X339044Y239115D01*
X338947Y239046D01*
X338847Y238982D01*
X338819Y238952D01*
X338786Y238929D01*
X338710Y238837D01*
X338629Y238750D01*
X338609Y238715D01*
X338584Y238684D01*
X338533Y238576D01*
X338475Y238472D01*
X338465Y238433D01*
X338448Y238396D01*
X338426Y238279D01*
X338396Y238164D01*
X338392Y238104D01*
X338388Y238084D01*
X338390Y238063D01*
X338386Y238003D01*
X338386Y235595D01*
X337200Y234409D01*
X337127Y234315D01*
X337048Y234226D01*
X337029Y234190D01*
X337005Y234158D01*
X336957Y234048D01*
X336903Y233942D01*
X336894Y233903D01*
X336878Y233866D01*
X336860Y233748D01*
X336834Y233632D01*
X336835Y233592D01*
X336828Y233552D01*
X336840Y233433D01*
X336843Y233314D01*
X336855Y233275D01*
X336858Y233235D01*
X336899Y233123D01*
X336932Y233009D01*
X336952Y232974D01*
X336966Y232936D01*
X337033Y232837D01*
X337093Y232735D01*
X337133Y232690D01*
X337144Y232673D01*
X337160Y232659D01*
X337200Y232614D01*
X338578Y231236D01*
X338578Y228504D01*
X336646Y226572D01*
X333914Y226572D01*
G37*
%LPD*%
%LPC*%
G36*
X189134Y315472D02*
X189134Y315472D01*
X187202Y317404D01*
X187202Y320136D01*
X189134Y322068D01*
X189657Y322068D01*
X189795Y322085D01*
X189934Y322098D01*
X189953Y322105D01*
X189973Y322107D01*
X190102Y322159D01*
X190233Y322206D01*
X190250Y322217D01*
X190268Y322225D01*
X190381Y322306D01*
X190496Y322384D01*
X190509Y322399D01*
X190526Y322411D01*
X190615Y322519D01*
X190706Y322623D01*
X190716Y322641D01*
X190729Y322656D01*
X190788Y322782D01*
X190851Y322906D01*
X190855Y322926D01*
X190864Y322944D01*
X190890Y323080D01*
X190921Y323216D01*
X190920Y323237D01*
X190924Y323256D01*
X190915Y323395D01*
X190911Y323534D01*
X190905Y323554D01*
X190904Y323574D01*
X190861Y323706D01*
X190823Y323840D01*
X190812Y323857D01*
X190806Y323876D01*
X190732Y323994D01*
X190661Y324114D01*
X190643Y324135D01*
X190636Y324145D01*
X190621Y324159D01*
X190555Y324234D01*
X189758Y325031D01*
X189758Y326833D01*
X189741Y326971D01*
X189728Y327110D01*
X189721Y327129D01*
X189719Y327149D01*
X189667Y327278D01*
X189620Y327409D01*
X189609Y327426D01*
X189601Y327444D01*
X189520Y327557D01*
X189442Y327672D01*
X189427Y327685D01*
X189415Y327702D01*
X189307Y327791D01*
X189203Y327882D01*
X189185Y327892D01*
X189170Y327905D01*
X189044Y327964D01*
X188920Y328027D01*
X188900Y328031D01*
X188882Y328040D01*
X188746Y328066D01*
X188610Y328097D01*
X188589Y328096D01*
X188570Y328100D01*
X188431Y328091D01*
X188292Y328087D01*
X188272Y328081D01*
X188252Y328080D01*
X188120Y328037D01*
X187986Y327999D01*
X187969Y327988D01*
X187950Y327982D01*
X187832Y327908D01*
X187712Y327837D01*
X187691Y327819D01*
X187681Y327812D01*
X187667Y327797D01*
X187592Y327731D01*
X186779Y326918D01*
X184061Y326918D01*
X182138Y328841D01*
X182138Y331559D01*
X184061Y333482D01*
X186779Y333482D01*
X188702Y331559D01*
X188702Y329757D01*
X188719Y329619D01*
X188723Y329574D01*
X188724Y329563D01*
X188724Y329561D01*
X188732Y329480D01*
X188739Y329461D01*
X188741Y329441D01*
X188793Y329312D01*
X188840Y329181D01*
X188851Y329164D01*
X188859Y329146D01*
X188940Y329033D01*
X189018Y328918D01*
X189033Y328905D01*
X189045Y328888D01*
X189153Y328799D01*
X189257Y328708D01*
X189275Y328698D01*
X189290Y328685D01*
X189416Y328626D01*
X189540Y328563D01*
X189560Y328559D01*
X189578Y328550D01*
X189714Y328524D01*
X189850Y328493D01*
X189871Y328494D01*
X189890Y328490D01*
X190029Y328499D01*
X190168Y328503D01*
X190188Y328509D01*
X190208Y328510D01*
X190340Y328553D01*
X190474Y328591D01*
X190491Y328602D01*
X190510Y328608D01*
X190628Y328682D01*
X190748Y328753D01*
X190769Y328771D01*
X190779Y328778D01*
X190793Y328793D01*
X190868Y328859D01*
X191681Y329672D01*
X194399Y329672D01*
X196322Y327749D01*
X196322Y325031D01*
X194399Y323108D01*
X193889Y323108D01*
X193751Y323091D01*
X193613Y323078D01*
X193594Y323071D01*
X193574Y323069D01*
X193445Y323017D01*
X193314Y322970D01*
X193297Y322959D01*
X193278Y322951D01*
X193166Y322870D01*
X193051Y322792D01*
X193037Y322777D01*
X193021Y322765D01*
X192932Y322657D01*
X192840Y322553D01*
X192831Y322535D01*
X192818Y322520D01*
X192759Y322394D01*
X192696Y322270D01*
X192691Y322250D01*
X192683Y322232D01*
X192656Y322096D01*
X192626Y321960D01*
X192627Y321939D01*
X192623Y321920D01*
X192631Y321781D01*
X192636Y321642D01*
X192641Y321622D01*
X192642Y321602D01*
X192685Y321470D01*
X192724Y321336D01*
X192734Y321319D01*
X192741Y321300D01*
X192815Y321182D01*
X192886Y321062D01*
X192904Y321041D01*
X192911Y321031D01*
X192926Y321017D01*
X192992Y320942D01*
X193798Y320136D01*
X193798Y317404D01*
X191866Y315472D01*
X189134Y315472D01*
G37*
%LPD*%
%LPC*%
G36*
X258349Y321822D02*
X258349Y321822D01*
X257109Y323063D01*
X257015Y323136D01*
X256925Y323215D01*
X256889Y323233D01*
X256857Y323258D01*
X256748Y323305D01*
X256642Y323359D01*
X256603Y323368D01*
X256566Y323384D01*
X256448Y323403D01*
X256332Y323429D01*
X256292Y323428D01*
X256251Y323434D01*
X256133Y323423D01*
X256014Y323419D01*
X255975Y323408D01*
X255935Y323404D01*
X255823Y323364D01*
X255708Y323331D01*
X255674Y323310D01*
X255636Y323296D01*
X255537Y323230D01*
X255435Y323169D01*
X255389Y323129D01*
X255372Y323118D01*
X255359Y323103D01*
X255314Y323063D01*
X254089Y321838D01*
X251371Y321838D01*
X249448Y323761D01*
X249448Y326479D01*
X251371Y328402D01*
X254089Y328402D01*
X255314Y327177D01*
X255408Y327104D01*
X255497Y327025D01*
X255533Y327007D01*
X255565Y326982D01*
X255674Y326935D01*
X255780Y326881D01*
X255820Y326872D01*
X255857Y326856D01*
X255975Y326837D01*
X256091Y326811D01*
X256131Y326812D01*
X256171Y326806D01*
X256290Y326817D01*
X256408Y326821D01*
X256447Y326832D01*
X256488Y326836D01*
X256600Y326876D01*
X256714Y326909D01*
X256749Y326930D01*
X256787Y326944D01*
X256885Y327010D01*
X256988Y327071D01*
X257033Y327111D01*
X257050Y327122D01*
X257063Y327137D01*
X257109Y327177D01*
X258349Y328418D01*
X261081Y328418D01*
X262539Y326960D01*
X262633Y326886D01*
X262722Y326808D01*
X262758Y326789D01*
X262790Y326765D01*
X262900Y326717D01*
X263006Y326663D01*
X263045Y326654D01*
X263082Y326638D01*
X263200Y326620D01*
X263316Y326594D01*
X263356Y326595D01*
X263396Y326588D01*
X263515Y326600D01*
X263634Y326603D01*
X263673Y326614D01*
X263713Y326618D01*
X263825Y326659D01*
X263939Y326692D01*
X263974Y326712D01*
X264012Y326726D01*
X264111Y326793D01*
X264213Y326853D01*
X264258Y326893D01*
X264275Y326904D01*
X264289Y326920D01*
X264334Y326960D01*
X265792Y328418D01*
X268524Y328418D01*
X270456Y326486D01*
X270456Y323754D01*
X268524Y321822D01*
X265792Y321822D01*
X264334Y323280D01*
X264240Y323354D01*
X264151Y323432D01*
X264115Y323451D01*
X264083Y323475D01*
X263973Y323523D01*
X263867Y323577D01*
X263828Y323586D01*
X263791Y323602D01*
X263673Y323620D01*
X263557Y323646D01*
X263517Y323645D01*
X263477Y323652D01*
X263358Y323640D01*
X263239Y323637D01*
X263200Y323626D01*
X263160Y323622D01*
X263048Y323581D01*
X262934Y323548D01*
X262899Y323528D01*
X262861Y323514D01*
X262762Y323447D01*
X262660Y323387D01*
X262615Y323347D01*
X262598Y323336D01*
X262584Y323320D01*
X262539Y323280D01*
X261081Y321822D01*
X258349Y321822D01*
G37*
%LPD*%
%LPC*%
G36*
X392341Y472968D02*
X392341Y472968D01*
X390418Y474891D01*
X390418Y477609D01*
X391654Y478845D01*
X391727Y478939D01*
X391806Y479028D01*
X391824Y479064D01*
X391849Y479096D01*
X391896Y479206D01*
X391950Y479312D01*
X391959Y479351D01*
X391975Y479388D01*
X391994Y479506D01*
X392020Y479622D01*
X392019Y479662D01*
X392025Y479702D01*
X392014Y479821D01*
X392010Y479940D01*
X391999Y479979D01*
X391995Y480019D01*
X391955Y480131D01*
X391922Y480245D01*
X391901Y480280D01*
X391888Y480318D01*
X391821Y480417D01*
X391760Y480519D01*
X391721Y480564D01*
X391709Y480581D01*
X391694Y480595D01*
X391654Y480640D01*
X390418Y481876D01*
X390418Y484594D01*
X391654Y485830D01*
X391727Y485924D01*
X391806Y486013D01*
X391824Y486049D01*
X391849Y486081D01*
X391896Y486191D01*
X391950Y486297D01*
X391959Y486336D01*
X391975Y486373D01*
X391994Y486491D01*
X392020Y486607D01*
X392019Y486647D01*
X392025Y486687D01*
X392014Y486806D01*
X392010Y486925D01*
X391999Y486964D01*
X391995Y487004D01*
X391955Y487116D01*
X391922Y487230D01*
X391901Y487265D01*
X391888Y487303D01*
X391821Y487402D01*
X391760Y487504D01*
X391721Y487549D01*
X391709Y487566D01*
X391694Y487580D01*
X391654Y487625D01*
X390418Y488861D01*
X390418Y491579D01*
X392341Y493502D01*
X395059Y493502D01*
X396982Y491579D01*
X396982Y488861D01*
X395746Y487625D01*
X395673Y487531D01*
X395594Y487442D01*
X395576Y487406D01*
X395551Y487374D01*
X395504Y487264D01*
X395450Y487158D01*
X395441Y487119D01*
X395425Y487082D01*
X395406Y486964D01*
X395380Y486848D01*
X395381Y486808D01*
X395375Y486768D01*
X395386Y486649D01*
X395390Y486530D01*
X395401Y486491D01*
X395405Y486451D01*
X395445Y486339D01*
X395478Y486225D01*
X395499Y486190D01*
X395512Y486152D01*
X395579Y486053D01*
X395640Y485951D01*
X395679Y485906D01*
X395691Y485889D01*
X395706Y485875D01*
X395746Y485830D01*
X396982Y484594D01*
X396982Y481876D01*
X395746Y480640D01*
X395673Y480546D01*
X395594Y480457D01*
X395576Y480421D01*
X395551Y480389D01*
X395504Y480279D01*
X395450Y480173D01*
X395441Y480134D01*
X395425Y480097D01*
X395406Y479979D01*
X395380Y479863D01*
X395381Y479823D01*
X395375Y479783D01*
X395386Y479664D01*
X395390Y479545D01*
X395401Y479506D01*
X395405Y479466D01*
X395445Y479354D01*
X395478Y479240D01*
X395499Y479205D01*
X395512Y479167D01*
X395579Y479068D01*
X395640Y478966D01*
X395679Y478921D01*
X395691Y478904D01*
X395706Y478890D01*
X395746Y478845D01*
X396982Y477609D01*
X396982Y474891D01*
X395059Y472968D01*
X392341Y472968D01*
G37*
%LPD*%
%LPC*%
G36*
X387896Y151023D02*
X387896Y151023D01*
X385708Y153212D01*
X385613Y153285D01*
X385524Y153363D01*
X385488Y153382D01*
X385456Y153407D01*
X385347Y153454D01*
X385241Y153508D01*
X385202Y153517D01*
X385164Y153533D01*
X385047Y153552D01*
X384931Y153578D01*
X384890Y153576D01*
X384850Y153583D01*
X384732Y153572D01*
X384613Y153568D01*
X384597Y153563D01*
X381546Y153563D01*
X379623Y155486D01*
X379623Y158204D01*
X381546Y160127D01*
X384264Y160127D01*
X386453Y157938D01*
X386547Y157865D01*
X386637Y157786D01*
X386672Y157768D01*
X386704Y157743D01*
X386814Y157696D01*
X386920Y157642D01*
X386959Y157633D01*
X386996Y157617D01*
X387114Y157598D01*
X387230Y157572D01*
X387270Y157574D01*
X387310Y157567D01*
X387429Y157579D01*
X387548Y157582D01*
X387563Y157587D01*
X390614Y157587D01*
X391532Y156668D01*
X391627Y156595D01*
X391716Y156517D01*
X391752Y156498D01*
X391784Y156474D01*
X391893Y156426D01*
X391999Y156372D01*
X392038Y156363D01*
X392076Y156347D01*
X392193Y156328D01*
X392309Y156302D01*
X392350Y156304D01*
X392390Y156297D01*
X392508Y156308D01*
X392627Y156312D01*
X392666Y156323D01*
X392706Y156327D01*
X392819Y156367D01*
X392933Y156400D01*
X392967Y156421D01*
X393006Y156435D01*
X393104Y156502D01*
X393207Y156562D01*
X393252Y156602D01*
X393269Y156613D01*
X393282Y156629D01*
X393327Y156668D01*
X394246Y157587D01*
X396964Y157587D01*
X398887Y155664D01*
X398887Y152946D01*
X396964Y151023D01*
X394246Y151023D01*
X393327Y151942D01*
X393233Y152015D01*
X393144Y152093D01*
X393108Y152112D01*
X393076Y152137D01*
X392967Y152184D01*
X392861Y152238D01*
X392822Y152247D01*
X392784Y152263D01*
X392667Y152282D01*
X392551Y152308D01*
X392510Y152306D01*
X392470Y152313D01*
X392352Y152302D01*
X392233Y152298D01*
X392194Y152287D01*
X392154Y152283D01*
X392042Y152243D01*
X391927Y152210D01*
X391892Y152189D01*
X391854Y152175D01*
X391756Y152108D01*
X391653Y152048D01*
X391608Y152008D01*
X391591Y151997D01*
X391578Y151981D01*
X391532Y151942D01*
X390614Y151023D01*
X387896Y151023D01*
G37*
%LPD*%
%LPC*%
G36*
X482511Y285008D02*
X482511Y285008D01*
X480588Y286931D01*
X480588Y289649D01*
X482511Y291572D01*
X485229Y291572D01*
X486783Y290018D01*
X486877Y289945D01*
X486966Y289867D01*
X487002Y289848D01*
X487034Y289823D01*
X487143Y289776D01*
X487249Y289722D01*
X487288Y289713D01*
X487326Y289697D01*
X487443Y289678D01*
X487559Y289652D01*
X487600Y289654D01*
X487640Y289647D01*
X487758Y289658D01*
X487877Y289662D01*
X487916Y289673D01*
X487956Y289677D01*
X488068Y289717D01*
X488183Y289750D01*
X488218Y289771D01*
X488256Y289785D01*
X488354Y289852D01*
X488457Y289912D01*
X488502Y289952D01*
X488519Y289963D01*
X488532Y289979D01*
X488578Y290018D01*
X490131Y291572D01*
X492849Y291572D01*
X493768Y290653D01*
X493862Y290580D01*
X493951Y290502D01*
X493987Y290483D01*
X494019Y290458D01*
X494128Y290411D01*
X494234Y290357D01*
X494273Y290348D01*
X494311Y290332D01*
X494428Y290313D01*
X494544Y290287D01*
X494585Y290289D01*
X494625Y290282D01*
X494743Y290293D01*
X494862Y290297D01*
X494901Y290308D01*
X494941Y290312D01*
X495053Y290352D01*
X495168Y290385D01*
X495203Y290406D01*
X495241Y290420D01*
X495339Y290487D01*
X495442Y290547D01*
X495487Y290587D01*
X495504Y290598D01*
X495517Y290614D01*
X495563Y290653D01*
X496481Y291572D01*
X499199Y291572D01*
X501122Y289649D01*
X501122Y286931D01*
X499199Y285008D01*
X496481Y285008D01*
X495563Y285927D01*
X495468Y286000D01*
X495379Y286078D01*
X495343Y286097D01*
X495311Y286121D01*
X495202Y286169D01*
X495096Y286223D01*
X495057Y286232D01*
X495019Y286248D01*
X494902Y286267D01*
X494786Y286293D01*
X494745Y286291D01*
X494705Y286298D01*
X494587Y286287D01*
X494468Y286283D01*
X494429Y286272D01*
X494389Y286268D01*
X494276Y286228D01*
X494162Y286195D01*
X494128Y286174D01*
X494089Y286160D01*
X493991Y286093D01*
X493888Y286033D01*
X493843Y285993D01*
X493826Y285982D01*
X493813Y285966D01*
X493768Y285927D01*
X492849Y285008D01*
X490131Y285008D01*
X488578Y286562D01*
X488483Y286635D01*
X488394Y286713D01*
X488358Y286732D01*
X488326Y286757D01*
X488217Y286804D01*
X488111Y286858D01*
X488072Y286867D01*
X488034Y286883D01*
X487917Y286902D01*
X487801Y286928D01*
X487760Y286926D01*
X487720Y286933D01*
X487602Y286922D01*
X487483Y286918D01*
X487444Y286907D01*
X487404Y286903D01*
X487291Y286863D01*
X487177Y286830D01*
X487143Y286809D01*
X487104Y286795D01*
X487006Y286728D01*
X486903Y286668D01*
X486858Y286628D01*
X486841Y286617D01*
X486828Y286601D01*
X486783Y286562D01*
X485229Y285008D01*
X482511Y285008D01*
G37*
%LPD*%
%LPC*%
G36*
X335819Y280441D02*
X335819Y280441D01*
X333887Y282373D01*
X333887Y285105D01*
X335819Y287037D01*
X338551Y287037D01*
X339738Y285849D01*
X339833Y285776D01*
X339922Y285698D01*
X339958Y285679D01*
X339990Y285654D01*
X340099Y285607D01*
X340205Y285553D01*
X340244Y285544D01*
X340281Y285528D01*
X340399Y285509D01*
X340515Y285483D01*
X340556Y285484D01*
X340596Y285478D01*
X340714Y285489D01*
X340833Y285493D01*
X340872Y285504D01*
X340912Y285508D01*
X341024Y285548D01*
X341139Y285581D01*
X341173Y285602D01*
X341211Y285616D01*
X341310Y285682D01*
X341413Y285743D01*
X341458Y285783D01*
X341475Y285794D01*
X341488Y285809D01*
X341533Y285849D01*
X342759Y287075D01*
X342832Y287169D01*
X342911Y287258D01*
X342929Y287294D01*
X342954Y287326D01*
X343001Y287436D01*
X343055Y287542D01*
X343064Y287581D01*
X343080Y287618D01*
X343099Y287736D01*
X343125Y287852D01*
X343124Y287892D01*
X343130Y287932D01*
X343119Y288051D01*
X343115Y288170D01*
X343104Y288208D01*
X343100Y288249D01*
X343060Y288361D01*
X343027Y288475D01*
X343006Y288510D01*
X342993Y288548D01*
X342926Y288647D01*
X342865Y288749D01*
X342826Y288794D01*
X342814Y288811D01*
X342799Y288825D01*
X342793Y288831D01*
X342793Y291554D01*
X344716Y293477D01*
X347434Y293477D01*
X349357Y291554D01*
X349357Y288836D01*
X348121Y287600D01*
X348048Y287506D01*
X347969Y287417D01*
X347951Y287381D01*
X347926Y287349D01*
X347879Y287239D01*
X347825Y287133D01*
X347816Y287094D01*
X347800Y287057D01*
X347781Y286939D01*
X347755Y286823D01*
X347756Y286783D01*
X347750Y286743D01*
X347761Y286624D01*
X347765Y286505D01*
X347776Y286466D01*
X347780Y286426D01*
X347820Y286314D01*
X347853Y286200D01*
X347874Y286165D01*
X347887Y286127D01*
X347954Y286028D01*
X348015Y285926D01*
X348054Y285881D01*
X348066Y285864D01*
X348081Y285850D01*
X348087Y285844D01*
X348087Y283121D01*
X346164Y281198D01*
X343446Y281198D01*
X342274Y282370D01*
X342180Y282443D01*
X342091Y282522D01*
X342055Y282540D01*
X342023Y282565D01*
X341914Y282612D01*
X341808Y282666D01*
X341768Y282675D01*
X341731Y282691D01*
X341613Y282710D01*
X341497Y282736D01*
X341457Y282735D01*
X341417Y282741D01*
X341298Y282730D01*
X341180Y282726D01*
X341141Y282715D01*
X341100Y282711D01*
X340988Y282671D01*
X340874Y282638D01*
X340839Y282617D01*
X340801Y282604D01*
X340703Y282537D01*
X340600Y282476D01*
X340555Y282436D01*
X340538Y282425D01*
X340525Y282410D01*
X340479Y282370D01*
X338551Y280441D01*
X335819Y280441D01*
G37*
%LPD*%
%LPC*%
G36*
X127870Y436658D02*
X127870Y436658D01*
X125508Y439020D01*
X125508Y442360D01*
X127870Y444722D01*
X131210Y444722D01*
X132453Y443479D01*
X132547Y443406D01*
X132636Y443327D01*
X132672Y443309D01*
X132704Y443284D01*
X132813Y443237D01*
X132919Y443183D01*
X132958Y443174D01*
X132996Y443158D01*
X133113Y443139D01*
X133229Y443113D01*
X133270Y443114D01*
X133310Y443108D01*
X133428Y443119D01*
X133547Y443123D01*
X133586Y443134D01*
X133626Y443138D01*
X133738Y443178D01*
X133853Y443211D01*
X133888Y443232D01*
X133926Y443245D01*
X134024Y443312D01*
X134127Y443373D01*
X134172Y443412D01*
X134189Y443424D01*
X134202Y443439D01*
X134248Y443479D01*
X135490Y444722D01*
X138830Y444722D01*
X141192Y442360D01*
X141192Y439020D01*
X138830Y436658D01*
X135490Y436658D01*
X134248Y437901D01*
X134153Y437974D01*
X134064Y438053D01*
X134028Y438071D01*
X133996Y438096D01*
X133887Y438143D01*
X133781Y438197D01*
X133742Y438206D01*
X133704Y438222D01*
X133587Y438241D01*
X133471Y438267D01*
X133430Y438266D01*
X133390Y438272D01*
X133272Y438261D01*
X133153Y438257D01*
X133114Y438246D01*
X133074Y438242D01*
X132961Y438202D01*
X132847Y438169D01*
X132813Y438148D01*
X132774Y438135D01*
X132676Y438068D01*
X132573Y438007D01*
X132528Y437967D01*
X132511Y437956D01*
X132498Y437941D01*
X132453Y437901D01*
X131210Y436658D01*
X127870Y436658D01*
G37*
%LPD*%
%LPC*%
G36*
X289471Y387878D02*
X289471Y387878D01*
X287548Y389801D01*
X287548Y390419D01*
X287533Y390537D01*
X287526Y390656D01*
X287514Y390694D01*
X287509Y390735D01*
X287465Y390845D01*
X287428Y390959D01*
X287406Y390993D01*
X287391Y391030D01*
X287322Y391127D01*
X287258Y391227D01*
X287228Y391255D01*
X287205Y391288D01*
X287113Y391364D01*
X287026Y391445D01*
X286991Y391465D01*
X286960Y391490D01*
X286852Y391541D01*
X286748Y391599D01*
X286709Y391609D01*
X286672Y391626D01*
X286555Y391648D01*
X286440Y391678D01*
X286380Y391682D01*
X286360Y391686D01*
X286339Y391685D01*
X286279Y391688D01*
X285661Y391688D01*
X283738Y393611D01*
X283738Y394229D01*
X283723Y394347D01*
X283716Y394466D01*
X283704Y394504D01*
X283699Y394545D01*
X283655Y394655D01*
X283618Y394769D01*
X283596Y394803D01*
X283581Y394840D01*
X283512Y394937D01*
X283448Y395037D01*
X283418Y395065D01*
X283395Y395098D01*
X283303Y395174D01*
X283216Y395255D01*
X283181Y395275D01*
X283150Y395300D01*
X283042Y395351D01*
X282938Y395409D01*
X282899Y395419D01*
X282862Y395436D01*
X282745Y395458D01*
X282630Y395488D01*
X282570Y395492D01*
X282550Y395496D01*
X282529Y395495D01*
X282469Y395498D01*
X281851Y395498D01*
X279928Y397421D01*
X279928Y400139D01*
X281851Y402062D01*
X284569Y402062D01*
X286492Y400139D01*
X286492Y399521D01*
X286507Y399403D01*
X286514Y399284D01*
X286526Y399246D01*
X286531Y399205D01*
X286575Y399095D01*
X286612Y398981D01*
X286634Y398947D01*
X286649Y398910D01*
X286718Y398813D01*
X286782Y398713D01*
X286812Y398685D01*
X286835Y398652D01*
X286927Y398576D01*
X287014Y398495D01*
X287049Y398475D01*
X287080Y398450D01*
X287188Y398399D01*
X287292Y398341D01*
X287331Y398331D01*
X287368Y398314D01*
X287485Y398292D01*
X287600Y398262D01*
X287660Y398258D01*
X287680Y398254D01*
X287701Y398255D01*
X287761Y398252D01*
X288379Y398252D01*
X290302Y396329D01*
X290302Y395711D01*
X290317Y395593D01*
X290324Y395474D01*
X290336Y395436D01*
X290341Y395395D01*
X290385Y395285D01*
X290422Y395171D01*
X290444Y395137D01*
X290459Y395100D01*
X290528Y395003D01*
X290592Y394903D01*
X290622Y394875D01*
X290645Y394842D01*
X290737Y394766D01*
X290824Y394685D01*
X290859Y394665D01*
X290890Y394640D01*
X290998Y394589D01*
X291102Y394531D01*
X291141Y394521D01*
X291178Y394504D01*
X291295Y394482D01*
X291410Y394452D01*
X291470Y394448D01*
X291490Y394444D01*
X291511Y394445D01*
X291571Y394442D01*
X292189Y394442D01*
X294112Y392519D01*
X294112Y389801D01*
X292189Y387878D01*
X289471Y387878D01*
G37*
%LPD*%
%LPC*%
G36*
X290106Y436773D02*
X290106Y436773D01*
X288183Y438696D01*
X288183Y439440D01*
X288171Y439538D01*
X288168Y439637D01*
X288151Y439695D01*
X288144Y439755D01*
X288107Y439848D01*
X288080Y439943D01*
X288049Y439995D01*
X288026Y440051D01*
X287968Y440131D01*
X287918Y440217D01*
X287852Y440292D01*
X287840Y440309D01*
X287830Y440316D01*
X287812Y440337D01*
X285643Y442506D01*
X285643Y445224D01*
X287566Y447147D01*
X290284Y447147D01*
X290885Y446546D01*
X290979Y446473D01*
X291068Y446394D01*
X291104Y446376D01*
X291136Y446351D01*
X291245Y446304D01*
X291352Y446250D01*
X291391Y446241D01*
X291428Y446225D01*
X291546Y446206D01*
X291662Y446180D01*
X291702Y446181D01*
X291742Y446175D01*
X291861Y446186D01*
X291980Y446190D01*
X292019Y446201D01*
X292059Y446205D01*
X292171Y446245D01*
X292285Y446278D01*
X292320Y446299D01*
X292358Y446312D01*
X292457Y446379D01*
X292559Y446440D01*
X292604Y446479D01*
X292621Y446491D01*
X292635Y446506D01*
X292680Y446546D01*
X293281Y447147D01*
X295999Y447147D01*
X297922Y445224D01*
X297922Y442506D01*
X295997Y440581D01*
X295898Y440568D01*
X295779Y440561D01*
X295741Y440549D01*
X295700Y440544D01*
X295590Y440500D01*
X295476Y440463D01*
X295442Y440441D01*
X295405Y440426D01*
X295308Y440357D01*
X295208Y440293D01*
X295180Y440263D01*
X295147Y440240D01*
X295071Y440148D01*
X294990Y440061D01*
X294970Y440026D01*
X294945Y439995D01*
X294894Y439887D01*
X294836Y439783D01*
X294826Y439744D01*
X294809Y439707D01*
X294787Y439590D01*
X294757Y439475D01*
X294753Y439415D01*
X294749Y439395D01*
X294750Y439374D01*
X294747Y439314D01*
X294747Y438696D01*
X292824Y436773D01*
X290106Y436773D01*
G37*
%LPD*%
%LPC*%
G36*
X272425Y290636D02*
X272425Y290636D01*
X270493Y292568D01*
X270493Y295300D01*
X272657Y297464D01*
X272731Y297558D01*
X272809Y297647D01*
X272828Y297683D01*
X272852Y297715D01*
X272900Y297825D01*
X272954Y297931D01*
X272963Y297970D01*
X272979Y298007D01*
X272997Y298125D01*
X273023Y298241D01*
X273022Y298281D01*
X273029Y298321D01*
X273017Y298440D01*
X273014Y298559D01*
X273003Y298598D01*
X272999Y298638D01*
X272958Y298750D01*
X272925Y298864D01*
X272905Y298899D01*
X272891Y298937D01*
X272824Y299036D01*
X272764Y299138D01*
X272724Y299183D01*
X272713Y299200D01*
X272697Y299214D01*
X272657Y299259D01*
X270387Y301529D01*
X270387Y304261D01*
X272319Y306193D01*
X275051Y306193D01*
X276983Y304261D01*
X276983Y303125D01*
X277000Y302988D01*
X277000Y302987D01*
X277005Y302909D01*
X277008Y302898D01*
X277013Y302849D01*
X277020Y302830D01*
X277022Y302810D01*
X277073Y302681D01*
X277121Y302550D01*
X277132Y302533D01*
X277140Y302514D01*
X277221Y302402D01*
X277299Y302287D01*
X277314Y302273D01*
X277326Y302257D01*
X277434Y302168D01*
X277538Y302076D01*
X277556Y302067D01*
X277571Y302054D01*
X277697Y301995D01*
X277712Y301987D01*
X277639Y301964D01*
X277505Y301925D01*
X277488Y301915D01*
X277469Y301908D01*
X277351Y301834D01*
X277231Y301763D01*
X277210Y301745D01*
X277200Y301738D01*
X277186Y301723D01*
X277111Y301657D01*
X274818Y299365D01*
X274745Y299271D01*
X274667Y299182D01*
X274648Y299146D01*
X274624Y299114D01*
X274576Y299004D01*
X274522Y298898D01*
X274513Y298859D01*
X274497Y298822D01*
X274479Y298704D01*
X274452Y298588D01*
X274454Y298548D01*
X274447Y298508D01*
X274459Y298389D01*
X274462Y298270D01*
X274473Y298231D01*
X274477Y298191D01*
X274518Y298079D01*
X274551Y297965D01*
X274571Y297930D01*
X274585Y297892D01*
X274652Y297793D01*
X274712Y297691D01*
X274752Y297646D01*
X274763Y297629D01*
X274779Y297615D01*
X274818Y297570D01*
X277089Y295300D01*
X277089Y292568D01*
X275157Y290636D01*
X272425Y290636D01*
G37*
%LPD*%
%LPC*%
G36*
X297084Y210062D02*
X297084Y210062D01*
X295152Y211994D01*
X295152Y214726D01*
X296064Y215637D01*
X296137Y215731D01*
X296216Y215821D01*
X296234Y215857D01*
X296259Y215889D01*
X296306Y215998D01*
X296360Y216104D01*
X296369Y216143D01*
X296385Y216181D01*
X296404Y216298D01*
X296430Y216414D01*
X296429Y216455D01*
X296435Y216495D01*
X296424Y216613D01*
X296420Y216732D01*
X296409Y216771D01*
X296405Y216811D01*
X296365Y216924D01*
X296332Y217038D01*
X296311Y217072D01*
X296298Y217111D01*
X296231Y217209D01*
X296170Y217312D01*
X296130Y217357D01*
X296119Y217374D01*
X296104Y217387D01*
X296064Y217432D01*
X293882Y219614D01*
X293882Y222346D01*
X295814Y224278D01*
X298546Y224278D01*
X300478Y222346D01*
X300478Y219614D01*
X299566Y218702D01*
X299493Y218608D01*
X299414Y218519D01*
X299396Y218483D01*
X299371Y218451D01*
X299324Y218342D01*
X299270Y218236D01*
X299261Y218197D01*
X299245Y218159D01*
X299226Y218042D01*
X299200Y217926D01*
X299201Y217885D01*
X299195Y217845D01*
X299206Y217727D01*
X299210Y217608D01*
X299221Y217569D01*
X299225Y217529D01*
X299265Y217417D01*
X299298Y217302D01*
X299319Y217267D01*
X299332Y217229D01*
X299399Y217131D01*
X299460Y217028D01*
X299499Y216983D01*
X299511Y216966D01*
X299526Y216953D01*
X299566Y216907D01*
X301748Y214726D01*
X301748Y211994D01*
X299816Y210062D01*
X297084Y210062D01*
G37*
%LPD*%
%LPC*%
G36*
X215811Y88158D02*
X215811Y88158D01*
X213888Y90081D01*
X213888Y92799D01*
X216077Y94988D01*
X216150Y95082D01*
X216228Y95171D01*
X216247Y95207D01*
X216272Y95239D01*
X216319Y95348D01*
X216373Y95454D01*
X216382Y95493D01*
X216398Y95531D01*
X216417Y95648D01*
X216443Y95764D01*
X216441Y95805D01*
X216448Y95845D01*
X216437Y95963D01*
X216433Y96082D01*
X216422Y96121D01*
X216418Y96161D01*
X216378Y96273D01*
X216345Y96388D01*
X216324Y96423D01*
X216310Y96461D01*
X216243Y96559D01*
X216183Y96662D01*
X216143Y96707D01*
X216132Y96724D01*
X216116Y96737D01*
X216077Y96783D01*
X213888Y98971D01*
X213888Y101689D01*
X215811Y103612D01*
X218529Y103612D01*
X220452Y101689D01*
X220452Y98971D01*
X218263Y96783D01*
X218190Y96688D01*
X218112Y96599D01*
X218093Y96563D01*
X218068Y96531D01*
X218021Y96422D01*
X217967Y96316D01*
X217958Y96277D01*
X217942Y96239D01*
X217923Y96122D01*
X217897Y96006D01*
X217899Y95965D01*
X217892Y95925D01*
X217903Y95807D01*
X217907Y95688D01*
X217918Y95649D01*
X217922Y95609D01*
X217962Y95496D01*
X217995Y95382D01*
X218016Y95348D01*
X218030Y95309D01*
X218097Y95211D01*
X218157Y95108D01*
X218197Y95063D01*
X218208Y95046D01*
X218224Y95033D01*
X218263Y94988D01*
X220452Y92799D01*
X220452Y90081D01*
X218529Y88158D01*
X215811Y88158D01*
G37*
%LPD*%
%LPC*%
G36*
X271684Y185932D02*
X271684Y185932D01*
X269752Y187864D01*
X269752Y190596D01*
X271703Y192546D01*
X271826Y192558D01*
X271845Y192565D01*
X271865Y192567D01*
X271994Y192618D01*
X272125Y192666D01*
X272142Y192677D01*
X272161Y192685D01*
X272273Y192766D01*
X272388Y192844D01*
X272402Y192859D01*
X272418Y192871D01*
X272507Y192979D01*
X272599Y193083D01*
X272608Y193101D01*
X272621Y193116D01*
X272680Y193242D01*
X272743Y193366D01*
X272748Y193386D01*
X272756Y193404D01*
X272783Y193540D01*
X272813Y193676D01*
X272812Y193697D01*
X272816Y193716D01*
X272808Y193855D01*
X272803Y193994D01*
X272798Y194014D01*
X272797Y194034D01*
X272754Y194166D01*
X272715Y194300D01*
X272705Y194317D01*
X272698Y194336D01*
X272624Y194454D01*
X272553Y194574D01*
X272535Y194595D01*
X272528Y194605D01*
X272513Y194619D01*
X272447Y194694D01*
X270387Y196754D01*
X270387Y199486D01*
X272319Y201418D01*
X275051Y201418D01*
X276983Y199486D01*
X276983Y196754D01*
X275032Y194804D01*
X274909Y194792D01*
X274890Y194785D01*
X274870Y194783D01*
X274741Y194732D01*
X274610Y194684D01*
X274593Y194673D01*
X274574Y194665D01*
X274462Y194584D01*
X274347Y194506D01*
X274333Y194491D01*
X274317Y194479D01*
X274228Y194371D01*
X274136Y194267D01*
X274127Y194249D01*
X274114Y194234D01*
X274055Y194108D01*
X273992Y193984D01*
X273987Y193964D01*
X273979Y193946D01*
X273952Y193809D01*
X273922Y193674D01*
X273923Y193653D01*
X273919Y193634D01*
X273927Y193495D01*
X273932Y193356D01*
X273937Y193336D01*
X273938Y193316D01*
X273981Y193184D01*
X274020Y193050D01*
X274030Y193033D01*
X274037Y193014D01*
X274111Y192896D01*
X274182Y192776D01*
X274200Y192755D01*
X274207Y192745D01*
X274222Y192731D01*
X274288Y192656D01*
X276348Y190596D01*
X276348Y187864D01*
X274416Y185932D01*
X271684Y185932D01*
G37*
%LPD*%
%LPC*%
G36*
X280574Y169422D02*
X280574Y169422D01*
X278642Y171354D01*
X278642Y172490D01*
X278625Y172627D01*
X278612Y172766D01*
X278605Y172785D01*
X278603Y172805D01*
X278552Y172934D01*
X278504Y173065D01*
X278493Y173082D01*
X278485Y173101D01*
X278404Y173213D01*
X278326Y173328D01*
X278311Y173342D01*
X278299Y173358D01*
X278191Y173447D01*
X278087Y173539D01*
X278069Y173548D01*
X278054Y173561D01*
X277928Y173620D01*
X277913Y173628D01*
X277986Y173651D01*
X278120Y173690D01*
X278137Y173700D01*
X278156Y173707D01*
X278274Y173781D01*
X278394Y173852D01*
X278415Y173870D01*
X278425Y173877D01*
X278439Y173892D01*
X278514Y173958D01*
X280574Y176018D01*
X283306Y176018D01*
X284852Y174471D01*
X284947Y174398D01*
X285036Y174319D01*
X285072Y174301D01*
X285104Y174276D01*
X285213Y174229D01*
X285319Y174175D01*
X285358Y174166D01*
X285396Y174150D01*
X285513Y174131D01*
X285629Y174105D01*
X285670Y174106D01*
X285710Y174100D01*
X285828Y174111D01*
X285947Y174115D01*
X285986Y174126D01*
X286026Y174130D01*
X286139Y174170D01*
X286253Y174203D01*
X286287Y174224D01*
X286326Y174237D01*
X286424Y174304D01*
X286527Y174365D01*
X286572Y174405D01*
X286589Y174416D01*
X286602Y174431D01*
X286647Y174471D01*
X288194Y176018D01*
X290926Y176018D01*
X292858Y174086D01*
X292858Y171354D01*
X290926Y169422D01*
X288194Y169422D01*
X286647Y170969D01*
X286553Y171042D01*
X286464Y171121D01*
X286428Y171139D01*
X286396Y171164D01*
X286287Y171211D01*
X286181Y171265D01*
X286142Y171274D01*
X286104Y171290D01*
X285987Y171309D01*
X285871Y171335D01*
X285830Y171334D01*
X285790Y171340D01*
X285672Y171329D01*
X285553Y171325D01*
X285514Y171314D01*
X285474Y171310D01*
X285362Y171270D01*
X285247Y171237D01*
X285212Y171216D01*
X285174Y171203D01*
X285076Y171136D01*
X284973Y171075D01*
X284928Y171036D01*
X284911Y171024D01*
X284898Y171009D01*
X284852Y170969D01*
X283306Y169422D01*
X280574Y169422D01*
G37*
%LPD*%
%LPC*%
G36*
X226599Y160673D02*
X226599Y160673D01*
X224667Y162605D01*
X224667Y165337D01*
X225951Y166621D01*
X226037Y166731D01*
X226125Y166838D01*
X226134Y166856D01*
X226146Y166872D01*
X226202Y167000D01*
X226261Y167125D01*
X226264Y167145D01*
X226273Y167164D01*
X226294Y167302D01*
X226320Y167438D01*
X226319Y167458D01*
X226322Y167478D01*
X226309Y167617D01*
X226301Y167755D01*
X226294Y167774D01*
X226293Y167794D01*
X226245Y167926D01*
X226203Y168058D01*
X226192Y168075D01*
X226185Y168094D01*
X226107Y168209D01*
X226033Y168326D01*
X226018Y168340D01*
X226006Y168357D01*
X225902Y168449D01*
X225801Y168544D01*
X225783Y168554D01*
X225768Y168567D01*
X225644Y168631D01*
X225522Y168698D01*
X225503Y168703D01*
X225485Y168712D01*
X225349Y168742D01*
X225214Y168777D01*
X225186Y168779D01*
X225174Y168782D01*
X225154Y168781D01*
X225054Y168787D01*
X224694Y168787D01*
X223904Y169577D01*
X223795Y169662D01*
X223687Y169751D01*
X223669Y169760D01*
X223653Y169772D01*
X223525Y169827D01*
X223400Y169886D01*
X223380Y169890D01*
X223361Y169898D01*
X223223Y169920D01*
X223087Y169946D01*
X223067Y169945D01*
X223047Y169948D01*
X222908Y169935D01*
X222770Y169927D01*
X222751Y169920D01*
X222731Y169918D01*
X222642Y169887D01*
X222673Y169942D01*
X222678Y169961D01*
X222687Y169979D01*
X222717Y170115D01*
X222752Y170250D01*
X222754Y170278D01*
X222757Y170290D01*
X222756Y170310D01*
X222762Y170410D01*
X222762Y173451D01*
X224694Y175383D01*
X227426Y175383D01*
X229358Y173451D01*
X229358Y170719D01*
X228074Y169435D01*
X227988Y169325D01*
X227900Y169218D01*
X227891Y169200D01*
X227879Y169184D01*
X227823Y169056D01*
X227764Y168931D01*
X227761Y168911D01*
X227752Y168892D01*
X227731Y168754D01*
X227705Y168618D01*
X227706Y168598D01*
X227703Y168578D01*
X227716Y168439D01*
X227724Y168301D01*
X227731Y168282D01*
X227732Y168261D01*
X227780Y168130D01*
X227822Y167998D01*
X227833Y167981D01*
X227840Y167962D01*
X227918Y167847D01*
X227992Y167730D01*
X228007Y167716D01*
X228019Y167699D01*
X228123Y167607D01*
X228224Y167512D01*
X228242Y167502D01*
X228257Y167488D01*
X228381Y167425D01*
X228503Y167358D01*
X228522Y167353D01*
X228540Y167344D01*
X228676Y167313D01*
X228811Y167279D01*
X228839Y167277D01*
X228851Y167274D01*
X228871Y167275D01*
X228971Y167268D01*
X229331Y167268D01*
X231263Y165337D01*
X231263Y162605D01*
X229331Y160673D01*
X226599Y160673D01*
G37*
%LPD*%
%LPC*%
G36*
X316776Y325013D02*
X316776Y325013D01*
X314853Y326936D01*
X314853Y329654D01*
X316776Y331577D01*
X318664Y331577D01*
X318782Y331592D01*
X318901Y331599D01*
X318939Y331611D01*
X318980Y331616D01*
X319090Y331660D01*
X319204Y331697D01*
X319238Y331719D01*
X319275Y331734D01*
X319372Y331803D01*
X319472Y331867D01*
X319500Y331897D01*
X319533Y331920D01*
X319609Y332012D01*
X319690Y332099D01*
X319710Y332134D01*
X319735Y332165D01*
X319786Y332273D01*
X319844Y332377D01*
X319854Y332416D01*
X319871Y332453D01*
X319893Y332570D01*
X319923Y332685D01*
X319927Y332745D01*
X319931Y332765D01*
X319930Y332786D01*
X319933Y332846D01*
X319933Y335369D01*
X321856Y337292D01*
X324574Y337292D01*
X326497Y335369D01*
X326497Y332651D01*
X324574Y330728D01*
X322686Y330728D01*
X322568Y330713D01*
X322449Y330706D01*
X322411Y330694D01*
X322370Y330689D01*
X322260Y330645D01*
X322146Y330608D01*
X322112Y330586D01*
X322075Y330571D01*
X321978Y330502D01*
X321878Y330438D01*
X321850Y330408D01*
X321817Y330385D01*
X321741Y330293D01*
X321660Y330206D01*
X321640Y330171D01*
X321615Y330140D01*
X321564Y330032D01*
X321506Y329928D01*
X321496Y329889D01*
X321479Y329852D01*
X321457Y329735D01*
X321427Y329620D01*
X321423Y329560D01*
X321419Y329540D01*
X321420Y329519D01*
X321417Y329459D01*
X321417Y326936D01*
X319494Y325013D01*
X316776Y325013D01*
G37*
%LPD*%
%LPC*%
G36*
X220891Y481858D02*
X220891Y481858D01*
X218968Y483781D01*
X218968Y486499D01*
X220891Y488422D01*
X223609Y488422D01*
X225163Y486868D01*
X225257Y486795D01*
X225346Y486717D01*
X225382Y486698D01*
X225414Y486673D01*
X225523Y486626D01*
X225629Y486572D01*
X225668Y486563D01*
X225706Y486547D01*
X225823Y486528D01*
X225939Y486502D01*
X225980Y486504D01*
X226020Y486497D01*
X226138Y486508D01*
X226257Y486512D01*
X226296Y486523D01*
X226336Y486527D01*
X226448Y486567D01*
X226563Y486600D01*
X226598Y486621D01*
X226636Y486635D01*
X226734Y486702D01*
X226837Y486762D01*
X226882Y486802D01*
X226899Y486813D01*
X226912Y486829D01*
X226958Y486868D01*
X228511Y488422D01*
X231229Y488422D01*
X233152Y486499D01*
X233152Y483781D01*
X231229Y481858D01*
X228511Y481858D01*
X226958Y483412D01*
X226863Y483485D01*
X226774Y483563D01*
X226738Y483582D01*
X226706Y483607D01*
X226597Y483654D01*
X226491Y483708D01*
X226452Y483717D01*
X226414Y483733D01*
X226297Y483752D01*
X226181Y483778D01*
X226140Y483776D01*
X226100Y483783D01*
X225982Y483772D01*
X225863Y483768D01*
X225824Y483757D01*
X225784Y483753D01*
X225671Y483713D01*
X225557Y483680D01*
X225523Y483659D01*
X225484Y483645D01*
X225386Y483578D01*
X225283Y483518D01*
X225238Y483478D01*
X225221Y483467D01*
X225208Y483451D01*
X225163Y483412D01*
X223609Y481858D01*
X220891Y481858D01*
G37*
%LPD*%
%LPC*%
G36*
X185959Y190483D02*
X185959Y190483D01*
X184027Y192415D01*
X184027Y195147D01*
X185959Y197079D01*
X187203Y197079D01*
X187321Y197094D01*
X187440Y197101D01*
X187478Y197113D01*
X187519Y197118D01*
X187629Y197162D01*
X187743Y197199D01*
X187777Y197221D01*
X187814Y197235D01*
X187911Y197305D01*
X188011Y197369D01*
X188039Y197399D01*
X188072Y197422D01*
X188148Y197514D01*
X188229Y197601D01*
X188249Y197636D01*
X188274Y197667D01*
X188325Y197775D01*
X188383Y197879D01*
X188393Y197918D01*
X188410Y197955D01*
X188432Y198072D01*
X188462Y198187D01*
X188466Y198247D01*
X188470Y198267D01*
X188469Y198288D01*
X188472Y198348D01*
X188472Y200756D01*
X190404Y202688D01*
X193136Y202688D01*
X195068Y200756D01*
X195068Y198024D01*
X193136Y196092D01*
X191892Y196092D01*
X191774Y196077D01*
X191655Y196070D01*
X191617Y196058D01*
X191576Y196053D01*
X191466Y196009D01*
X191352Y195972D01*
X191318Y195950D01*
X191281Y195935D01*
X191184Y195866D01*
X191084Y195802D01*
X191056Y195772D01*
X191023Y195749D01*
X190947Y195657D01*
X190866Y195570D01*
X190846Y195535D01*
X190821Y195504D01*
X190770Y195396D01*
X190712Y195292D01*
X190702Y195253D01*
X190685Y195216D01*
X190663Y195099D01*
X190633Y194984D01*
X190629Y194924D01*
X190625Y194904D01*
X190626Y194883D01*
X190623Y194823D01*
X190623Y192415D01*
X188691Y190483D01*
X185959Y190483D01*
G37*
%LPD*%
%LPC*%
G36*
X208184Y258322D02*
X208184Y258322D01*
X206252Y260254D01*
X206252Y262986D01*
X208184Y264918D01*
X210916Y264918D01*
X212054Y263780D01*
X212148Y263707D01*
X212237Y263628D01*
X212273Y263610D01*
X212305Y263585D01*
X212415Y263537D01*
X212520Y263483D01*
X212560Y263474D01*
X212597Y263458D01*
X212715Y263440D01*
X212831Y263414D01*
X212871Y263415D01*
X212911Y263409D01*
X213030Y263420D01*
X213149Y263423D01*
X213188Y263435D01*
X213228Y263438D01*
X213340Y263479D01*
X213454Y263512D01*
X213489Y263532D01*
X213527Y263546D01*
X213626Y263613D01*
X213728Y263673D01*
X213773Y263713D01*
X213790Y263725D01*
X213804Y263740D01*
X213849Y263780D01*
X215395Y265326D01*
X218127Y265326D01*
X220059Y263395D01*
X220059Y260663D01*
X218127Y258731D01*
X215395Y258731D01*
X214258Y259869D01*
X214163Y259942D01*
X214074Y260021D01*
X214038Y260039D01*
X214006Y260064D01*
X213897Y260111D01*
X213791Y260165D01*
X213752Y260174D01*
X213714Y260190D01*
X213597Y260209D01*
X213481Y260235D01*
X213440Y260234D01*
X213400Y260240D01*
X213282Y260229D01*
X213163Y260225D01*
X213124Y260214D01*
X213084Y260210D01*
X212971Y260170D01*
X212857Y260137D01*
X212823Y260116D01*
X212784Y260103D01*
X212686Y260036D01*
X212583Y259975D01*
X212538Y259935D01*
X212521Y259924D01*
X212508Y259909D01*
X212463Y259869D01*
X210916Y258322D01*
X208184Y258322D01*
G37*
%LPD*%
%LPC*%
G36*
X322484Y154182D02*
X322484Y154182D01*
X320552Y156114D01*
X320552Y157993D01*
X320537Y158111D01*
X320530Y158230D01*
X320518Y158268D01*
X320513Y158309D01*
X320469Y158419D01*
X320432Y158533D01*
X320410Y158567D01*
X320395Y158604D01*
X320326Y158701D01*
X320262Y158801D01*
X320232Y158829D01*
X320209Y158862D01*
X320117Y158938D01*
X320030Y159019D01*
X319995Y159039D01*
X319964Y159064D01*
X319856Y159115D01*
X319752Y159173D01*
X319713Y159183D01*
X319676Y159200D01*
X319559Y159222D01*
X319444Y159252D01*
X319384Y159256D01*
X319364Y159260D01*
X319343Y159259D01*
X319283Y159262D01*
X317404Y159262D01*
X315472Y161194D01*
X315472Y163926D01*
X317404Y165858D01*
X320136Y165858D01*
X322068Y163926D01*
X322068Y162047D01*
X322083Y161929D01*
X322090Y161810D01*
X322102Y161772D01*
X322107Y161731D01*
X322151Y161621D01*
X322188Y161507D01*
X322210Y161473D01*
X322225Y161436D01*
X322294Y161339D01*
X322358Y161239D01*
X322388Y161211D01*
X322411Y161178D01*
X322503Y161102D01*
X322590Y161021D01*
X322625Y161001D01*
X322656Y160976D01*
X322764Y160925D01*
X322868Y160867D01*
X322907Y160857D01*
X322944Y160840D01*
X323061Y160818D01*
X323176Y160788D01*
X323236Y160784D01*
X323256Y160780D01*
X323277Y160781D01*
X323337Y160778D01*
X325216Y160778D01*
X327148Y158846D01*
X327148Y156114D01*
X325216Y154182D01*
X322484Y154182D01*
G37*
%LPD*%
%LPC*%
G36*
X298361Y461538D02*
X298361Y461538D01*
X296438Y463461D01*
X296438Y466179D01*
X298361Y468102D01*
X299614Y468102D01*
X299732Y468117D01*
X299851Y468124D01*
X299889Y468136D01*
X299930Y468141D01*
X300040Y468185D01*
X300154Y468222D01*
X300188Y468244D01*
X300225Y468259D01*
X300322Y468328D01*
X300422Y468392D01*
X300450Y468422D01*
X300483Y468445D01*
X300559Y468537D01*
X300640Y468624D01*
X300660Y468659D01*
X300685Y468690D01*
X300736Y468798D01*
X300794Y468902D01*
X300804Y468941D01*
X300821Y468978D01*
X300843Y469095D01*
X300873Y469210D01*
X300877Y469270D01*
X300881Y469290D01*
X300880Y469311D01*
X300883Y469371D01*
X300883Y471259D01*
X302806Y473182D01*
X305524Y473182D01*
X307447Y471259D01*
X307447Y468541D01*
X305524Y466618D01*
X304271Y466618D01*
X304153Y466603D01*
X304034Y466596D01*
X303996Y466584D01*
X303955Y466579D01*
X303845Y466535D01*
X303731Y466498D01*
X303697Y466476D01*
X303660Y466461D01*
X303563Y466392D01*
X303463Y466328D01*
X303435Y466298D01*
X303402Y466275D01*
X303326Y466183D01*
X303245Y466096D01*
X303225Y466061D01*
X303200Y466030D01*
X303149Y465922D01*
X303091Y465818D01*
X303081Y465779D01*
X303064Y465742D01*
X303042Y465625D01*
X303012Y465510D01*
X303008Y465450D01*
X303004Y465430D01*
X303005Y465409D01*
X303002Y465349D01*
X303002Y463461D01*
X301079Y461538D01*
X298361Y461538D01*
G37*
%LPD*%
%LPC*%
G36*
X233591Y391688D02*
X233591Y391688D01*
X231668Y393611D01*
X231668Y396329D01*
X232587Y397247D01*
X232660Y397342D01*
X232738Y397431D01*
X232757Y397467D01*
X232781Y397499D01*
X232829Y397608D01*
X232883Y397714D01*
X232892Y397753D01*
X232908Y397791D01*
X232927Y397908D01*
X232953Y398024D01*
X232951Y398065D01*
X232958Y398105D01*
X232947Y398223D01*
X232943Y398342D01*
X232932Y398381D01*
X232928Y398421D01*
X232888Y398534D01*
X232855Y398648D01*
X232834Y398682D01*
X232820Y398721D01*
X232753Y398819D01*
X232693Y398922D01*
X232653Y398967D01*
X232642Y398984D01*
X232626Y398997D01*
X232587Y399042D01*
X231668Y399961D01*
X231668Y402679D01*
X233591Y404602D01*
X236309Y404602D01*
X238232Y402679D01*
X238232Y399961D01*
X237313Y399042D01*
X237240Y398948D01*
X237162Y398859D01*
X237143Y398823D01*
X237118Y398791D01*
X237071Y398682D01*
X237017Y398576D01*
X237008Y398537D01*
X236992Y398499D01*
X236973Y398382D01*
X236947Y398266D01*
X236949Y398225D01*
X236942Y398185D01*
X236953Y398067D01*
X236957Y397948D01*
X236968Y397909D01*
X236972Y397869D01*
X237012Y397757D01*
X237045Y397642D01*
X237066Y397607D01*
X237080Y397569D01*
X237147Y397471D01*
X237207Y397368D01*
X237247Y397323D01*
X237258Y397306D01*
X237274Y397293D01*
X237313Y397247D01*
X238232Y396329D01*
X238232Y393611D01*
X236309Y391688D01*
X233591Y391688D01*
G37*
%LPD*%
%LPC*%
G36*
X294551Y146578D02*
X294551Y146578D01*
X292628Y148501D01*
X292628Y151219D01*
X294551Y153142D01*
X297269Y153142D01*
X298188Y152223D01*
X298282Y152150D01*
X298371Y152072D01*
X298407Y152053D01*
X298439Y152028D01*
X298548Y151981D01*
X298654Y151927D01*
X298693Y151918D01*
X298731Y151902D01*
X298848Y151883D01*
X298964Y151857D01*
X299005Y151859D01*
X299045Y151852D01*
X299163Y151863D01*
X299282Y151867D01*
X299321Y151878D01*
X299361Y151882D01*
X299473Y151922D01*
X299588Y151955D01*
X299623Y151976D01*
X299661Y151990D01*
X299759Y152057D01*
X299862Y152117D01*
X299907Y152157D01*
X299924Y152168D01*
X299937Y152184D01*
X299983Y152223D01*
X300901Y153142D01*
X303619Y153142D01*
X305542Y151219D01*
X305542Y148501D01*
X303619Y146578D01*
X300901Y146578D01*
X299983Y147497D01*
X299888Y147570D01*
X299799Y147648D01*
X299763Y147667D01*
X299731Y147691D01*
X299622Y147739D01*
X299516Y147793D01*
X299477Y147802D01*
X299439Y147818D01*
X299322Y147837D01*
X299206Y147863D01*
X299165Y147861D01*
X299125Y147868D01*
X299007Y147857D01*
X298888Y147853D01*
X298849Y147842D01*
X298809Y147838D01*
X298696Y147798D01*
X298582Y147765D01*
X298548Y147744D01*
X298509Y147730D01*
X298411Y147663D01*
X298308Y147603D01*
X298263Y147563D01*
X298246Y147552D01*
X298233Y147536D01*
X298188Y147497D01*
X297269Y146578D01*
X294551Y146578D01*
G37*
%LPD*%
%LPC*%
G36*
X179188Y279264D02*
X179188Y279264D01*
X177265Y281186D01*
X177265Y283904D01*
X179188Y285827D01*
X181906Y285827D01*
X182377Y285356D01*
X182471Y285283D01*
X182561Y285204D01*
X182596Y285186D01*
X182628Y285161D01*
X182738Y285113D01*
X182844Y285059D01*
X182883Y285051D01*
X182920Y285034D01*
X183038Y285016D01*
X183154Y284990D01*
X183194Y284991D01*
X183234Y284985D01*
X183353Y284996D01*
X183472Y284999D01*
X183511Y285011D01*
X183551Y285014D01*
X183663Y285055D01*
X183777Y285088D01*
X183812Y285108D01*
X183850Y285122D01*
X183949Y285189D01*
X184051Y285249D01*
X184097Y285289D01*
X184113Y285301D01*
X184127Y285316D01*
X184172Y285356D01*
X185324Y286508D01*
X188056Y286508D01*
X189988Y284576D01*
X189988Y281844D01*
X188056Y279912D01*
X185324Y279912D01*
X184837Y280399D01*
X184743Y280472D01*
X184654Y280551D01*
X184618Y280570D01*
X184586Y280594D01*
X184477Y280642D01*
X184370Y280696D01*
X184331Y280705D01*
X184294Y280721D01*
X184176Y280739D01*
X184060Y280765D01*
X184020Y280764D01*
X183980Y280771D01*
X183861Y280759D01*
X183742Y280756D01*
X183703Y280745D01*
X183663Y280741D01*
X183551Y280700D01*
X183437Y280667D01*
X183402Y280647D01*
X183364Y280633D01*
X183266Y280566D01*
X183163Y280506D01*
X183118Y280466D01*
X183101Y280455D01*
X183087Y280439D01*
X183042Y280399D01*
X181906Y279264D01*
X179188Y279264D01*
G37*
%LPD*%
%LPC*%
G36*
X228511Y437408D02*
X228511Y437408D01*
X226588Y439331D01*
X226588Y442049D01*
X227397Y442857D01*
X227469Y442951D01*
X227548Y443041D01*
X227567Y443077D01*
X227591Y443109D01*
X227639Y443218D01*
X227693Y443324D01*
X227702Y443363D01*
X227718Y443401D01*
X227737Y443518D01*
X227763Y443634D01*
X227761Y443675D01*
X227768Y443715D01*
X227757Y443833D01*
X227753Y443952D01*
X227742Y443991D01*
X227738Y444031D01*
X227698Y444144D01*
X227665Y444258D01*
X227644Y444292D01*
X227630Y444331D01*
X227563Y444429D01*
X227503Y444532D01*
X227463Y444577D01*
X227452Y444594D01*
X227436Y444607D01*
X227397Y444652D01*
X226448Y445601D01*
X226448Y448319D01*
X228371Y450242D01*
X231089Y450242D01*
X233012Y448319D01*
X233012Y445601D01*
X232203Y444792D01*
X232130Y444698D01*
X232052Y444609D01*
X232033Y444573D01*
X232008Y444541D01*
X231961Y444432D01*
X231907Y444326D01*
X231898Y444287D01*
X231882Y444249D01*
X231863Y444132D01*
X231837Y444016D01*
X231839Y443975D01*
X231832Y443935D01*
X231843Y443817D01*
X231847Y443698D01*
X231858Y443659D01*
X231862Y443619D01*
X231902Y443507D01*
X231935Y443392D01*
X231956Y443357D01*
X231970Y443319D01*
X232037Y443221D01*
X232097Y443118D01*
X232137Y443073D01*
X232148Y443056D01*
X232164Y443043D01*
X232203Y442997D01*
X233152Y442049D01*
X233152Y439331D01*
X231229Y437408D01*
X228511Y437408D01*
G37*
%LPD*%
%LPC*%
G36*
X174118Y269768D02*
X174118Y269768D01*
X171949Y271937D01*
X171871Y271997D01*
X171799Y272065D01*
X171746Y272094D01*
X171698Y272132D01*
X171607Y272171D01*
X171521Y272219D01*
X171462Y272234D01*
X171406Y272258D01*
X171308Y272273D01*
X171213Y272298D01*
X171113Y272305D01*
X171092Y272308D01*
X171080Y272307D01*
X171052Y272308D01*
X168821Y272308D01*
X166898Y274231D01*
X166898Y276949D01*
X168821Y278872D01*
X171539Y278872D01*
X173708Y276703D01*
X173786Y276643D01*
X173858Y276575D01*
X173911Y276546D01*
X173959Y276508D01*
X174050Y276469D01*
X174136Y276421D01*
X174195Y276406D01*
X174251Y276382D01*
X174349Y276367D01*
X174444Y276342D01*
X174544Y276335D01*
X174565Y276332D01*
X174577Y276333D01*
X174605Y276332D01*
X176836Y276332D01*
X178759Y274409D01*
X178759Y271691D01*
X176836Y269768D01*
X174118Y269768D01*
G37*
%LPD*%
%LPC*%
G36*
X256444Y160532D02*
X256444Y160532D01*
X254512Y162464D01*
X254512Y165196D01*
X256444Y167128D01*
X257413Y167128D01*
X257531Y167143D01*
X257650Y167150D01*
X257688Y167162D01*
X257729Y167167D01*
X257839Y167211D01*
X257952Y167248D01*
X257987Y167270D01*
X258024Y167285D01*
X258121Y167354D01*
X258221Y167418D01*
X258249Y167448D01*
X258282Y167471D01*
X258358Y167563D01*
X258439Y167650D01*
X258459Y167685D01*
X258484Y167716D01*
X258535Y167824D01*
X258593Y167928D01*
X258603Y167967D01*
X258620Y168004D01*
X258642Y168121D01*
X258672Y168236D01*
X258676Y168296D01*
X258680Y168316D01*
X258678Y168337D01*
X258682Y168397D01*
X258682Y169237D01*
X260614Y171169D01*
X263346Y171169D01*
X265278Y169237D01*
X265278Y166505D01*
X263346Y164573D01*
X262377Y164573D01*
X262259Y164558D01*
X262140Y164551D01*
X262102Y164539D01*
X262061Y164533D01*
X261951Y164490D01*
X261837Y164453D01*
X261803Y164431D01*
X261766Y164416D01*
X261669Y164347D01*
X261569Y164283D01*
X261541Y164253D01*
X261508Y164230D01*
X261432Y164138D01*
X261351Y164051D01*
X261331Y164016D01*
X261306Y163985D01*
X261255Y163877D01*
X261197Y163773D01*
X261187Y163733D01*
X261170Y163697D01*
X261148Y163580D01*
X261118Y163465D01*
X261114Y163405D01*
X261110Y163385D01*
X261111Y163364D01*
X261108Y163304D01*
X261108Y162464D01*
X259176Y160532D01*
X256444Y160532D01*
G37*
%LPD*%
%LPC*%
G36*
X330847Y264780D02*
X330847Y264780D01*
X328915Y266712D01*
X328915Y269443D01*
X330847Y271375D01*
X331440Y271375D01*
X331558Y271390D01*
X331677Y271397D01*
X331716Y271410D01*
X331756Y271415D01*
X331866Y271459D01*
X331980Y271495D01*
X332014Y271517D01*
X332051Y271532D01*
X332148Y271602D01*
X332248Y271666D01*
X332276Y271695D01*
X332309Y271719D01*
X332385Y271811D01*
X332466Y271897D01*
X332486Y271933D01*
X332512Y271964D01*
X332562Y272071D01*
X332620Y272176D01*
X332630Y272215D01*
X332647Y272252D01*
X332669Y272368D01*
X332699Y272484D01*
X332703Y272544D01*
X332707Y272564D01*
X332706Y272584D01*
X332707Y272603D01*
X332707Y272604D01*
X332709Y272644D01*
X332709Y273775D01*
X334641Y275707D01*
X337373Y275707D01*
X339305Y273775D01*
X339305Y271043D01*
X337373Y269111D01*
X336779Y269111D01*
X336661Y269096D01*
X336542Y269089D01*
X336504Y269077D01*
X336464Y269071D01*
X336353Y269028D01*
X336240Y268991D01*
X336206Y268969D01*
X336168Y268954D01*
X336072Y268885D01*
X335971Y268821D01*
X335944Y268791D01*
X335911Y268768D01*
X335835Y268676D01*
X335753Y268589D01*
X335734Y268554D01*
X335708Y268523D01*
X335657Y268415D01*
X335600Y268311D01*
X335590Y268271D01*
X335572Y268235D01*
X335550Y268118D01*
X335520Y268003D01*
X335517Y267943D01*
X335513Y267923D01*
X335514Y267902D01*
X335510Y267842D01*
X335510Y266712D01*
X333578Y264780D01*
X330847Y264780D01*
G37*
%LPD*%
%LPC*%
G36*
X252641Y342158D02*
X252641Y342158D01*
X250718Y344081D01*
X250718Y346799D01*
X252641Y348722D01*
X255359Y348722D01*
X255960Y348121D01*
X256054Y348048D01*
X256143Y347969D01*
X256179Y347951D01*
X256211Y347926D01*
X256321Y347879D01*
X256427Y347825D01*
X256466Y347816D01*
X256503Y347800D01*
X256621Y347781D01*
X256737Y347755D01*
X256777Y347756D01*
X256817Y347750D01*
X256936Y347761D01*
X257055Y347765D01*
X257094Y347776D01*
X257134Y347780D01*
X257246Y347820D01*
X257360Y347853D01*
X257395Y347874D01*
X257433Y347887D01*
X257532Y347954D01*
X257634Y348015D01*
X257679Y348054D01*
X257696Y348066D01*
X257710Y348081D01*
X257755Y348121D01*
X258356Y348722D01*
X261074Y348722D01*
X262997Y346799D01*
X262997Y344081D01*
X261074Y342158D01*
X258356Y342158D01*
X257755Y342759D01*
X257661Y342832D01*
X257572Y342911D01*
X257536Y342929D01*
X257504Y342954D01*
X257395Y343001D01*
X257288Y343055D01*
X257249Y343064D01*
X257212Y343080D01*
X257094Y343099D01*
X256978Y343125D01*
X256938Y343124D01*
X256898Y343130D01*
X256779Y343119D01*
X256660Y343115D01*
X256621Y343104D01*
X256581Y343100D01*
X256469Y343060D01*
X256355Y343027D01*
X256320Y343006D01*
X256282Y342993D01*
X256183Y342926D01*
X256081Y342865D01*
X256036Y342826D01*
X256019Y342814D01*
X256005Y342799D01*
X255960Y342759D01*
X255359Y342158D01*
X252641Y342158D01*
G37*
%LPD*%
%LPC*%
G36*
X346621Y202982D02*
X346621Y202982D01*
X344698Y204905D01*
X344698Y207623D01*
X346621Y209546D01*
X347239Y209546D01*
X347357Y209561D01*
X347476Y209568D01*
X347514Y209580D01*
X347555Y209585D01*
X347665Y209629D01*
X347779Y209666D01*
X347813Y209688D01*
X347850Y209703D01*
X347947Y209772D01*
X348047Y209836D01*
X348075Y209866D01*
X348108Y209889D01*
X348184Y209981D01*
X348265Y210068D01*
X348285Y210103D01*
X348310Y210134D01*
X348361Y210242D01*
X348419Y210346D01*
X348429Y210385D01*
X348446Y210422D01*
X348468Y210539D01*
X348498Y210654D01*
X348502Y210714D01*
X348506Y210734D01*
X348505Y210755D01*
X348508Y210815D01*
X348508Y211650D01*
X350431Y213573D01*
X353149Y213573D01*
X355072Y211650D01*
X355072Y208932D01*
X353149Y207009D01*
X352531Y207009D01*
X352413Y206994D01*
X352294Y206987D01*
X352256Y206975D01*
X352215Y206969D01*
X352105Y206926D01*
X351991Y206889D01*
X351957Y206867D01*
X351920Y206852D01*
X351823Y206783D01*
X351723Y206719D01*
X351695Y206689D01*
X351662Y206666D01*
X351586Y206574D01*
X351505Y206487D01*
X351485Y206452D01*
X351460Y206421D01*
X351409Y206313D01*
X351351Y206209D01*
X351341Y206169D01*
X351324Y206133D01*
X351302Y206016D01*
X351272Y205901D01*
X351268Y205841D01*
X351264Y205821D01*
X351265Y205800D01*
X351262Y205740D01*
X351262Y204905D01*
X349339Y202982D01*
X346621Y202982D01*
G37*
%LPD*%
%LPC*%
G36*
X284172Y374960D02*
X284172Y374960D01*
X282250Y376882D01*
X282250Y379601D01*
X284172Y381523D01*
X286891Y381523D01*
X286919Y381494D01*
X287014Y381421D01*
X287103Y381343D01*
X287139Y381324D01*
X287171Y381299D01*
X287280Y381252D01*
X287386Y381198D01*
X287425Y381189D01*
X287462Y381173D01*
X287580Y381154D01*
X287696Y381128D01*
X287737Y381130D01*
X287777Y381123D01*
X287895Y381134D01*
X288014Y381138D01*
X288053Y381149D01*
X288093Y381153D01*
X288205Y381193D01*
X288320Y381226D01*
X288354Y381247D01*
X288392Y381261D01*
X288491Y381328D01*
X288594Y381388D01*
X288639Y381428D01*
X288656Y381439D01*
X288669Y381455D01*
X288714Y381494D01*
X289469Y382249D01*
X292188Y382249D01*
X294110Y380327D01*
X294110Y377608D01*
X292188Y375686D01*
X289469Y375686D01*
X289440Y375714D01*
X289346Y375788D01*
X289257Y375866D01*
X289221Y375885D01*
X289189Y375909D01*
X289080Y375957D01*
X288974Y376011D01*
X288934Y376020D01*
X288897Y376036D01*
X288780Y376054D01*
X288664Y376081D01*
X288623Y376079D01*
X288583Y376086D01*
X288465Y376074D01*
X288346Y376071D01*
X288307Y376060D01*
X288267Y376056D01*
X288154Y376015D01*
X288040Y375982D01*
X288006Y375962D01*
X287967Y375948D01*
X287869Y375881D01*
X287766Y375821D01*
X287721Y375781D01*
X287704Y375770D01*
X287691Y375754D01*
X287645Y375715D01*
X286891Y374960D01*
X284172Y374960D01*
G37*
%LPD*%
%LPC*%
G36*
X93891Y186308D02*
X93891Y186308D01*
X91968Y188231D01*
X91968Y190949D01*
X92360Y191341D01*
X92433Y191435D01*
X92512Y191524D01*
X92530Y191560D01*
X92555Y191592D01*
X92602Y191701D01*
X92656Y191807D01*
X92665Y191847D01*
X92681Y191884D01*
X92700Y192002D01*
X92726Y192118D01*
X92725Y192158D01*
X92731Y192198D01*
X92720Y192317D01*
X92716Y192436D01*
X92705Y192474D01*
X92701Y192515D01*
X92661Y192627D01*
X92628Y192741D01*
X92607Y192776D01*
X92594Y192814D01*
X92527Y192912D01*
X92466Y193015D01*
X92427Y193060D01*
X92415Y193077D01*
X92400Y193091D01*
X92360Y193136D01*
X91968Y193528D01*
X91968Y196246D01*
X93891Y198169D01*
X96609Y198169D01*
X98532Y196246D01*
X98532Y193528D01*
X98140Y193136D01*
X98067Y193042D01*
X97988Y192953D01*
X97970Y192917D01*
X97945Y192885D01*
X97898Y192775D01*
X97844Y192669D01*
X97835Y192630D01*
X97819Y192593D01*
X97800Y192475D01*
X97774Y192359D01*
X97775Y192319D01*
X97769Y192279D01*
X97780Y192160D01*
X97784Y192041D01*
X97795Y192002D01*
X97799Y191962D01*
X97839Y191850D01*
X97872Y191736D01*
X97893Y191701D01*
X97906Y191663D01*
X97973Y191564D01*
X98034Y191462D01*
X98073Y191417D01*
X98085Y191400D01*
X98100Y191386D01*
X98140Y191341D01*
X98532Y190949D01*
X98532Y188231D01*
X96609Y186308D01*
X93891Y186308D01*
G37*
%LPD*%
%LPC*%
G36*
X35471Y128798D02*
X35471Y128798D01*
X33548Y130721D01*
X33548Y133439D01*
X35471Y135362D01*
X38189Y135362D01*
X38473Y135078D01*
X38567Y135005D01*
X38656Y134927D01*
X38692Y134908D01*
X38724Y134883D01*
X38833Y134836D01*
X38939Y134782D01*
X38978Y134773D01*
X39016Y134757D01*
X39133Y134738D01*
X39249Y134712D01*
X39290Y134714D01*
X39330Y134707D01*
X39448Y134718D01*
X39567Y134722D01*
X39606Y134733D01*
X39646Y134737D01*
X39758Y134777D01*
X39873Y134810D01*
X39908Y134831D01*
X39946Y134845D01*
X40044Y134912D01*
X40147Y134972D01*
X40192Y135012D01*
X40209Y135023D01*
X40222Y135039D01*
X40268Y135078D01*
X40551Y135362D01*
X43269Y135362D01*
X45192Y133439D01*
X45192Y130721D01*
X43269Y128798D01*
X40551Y128798D01*
X40268Y129082D01*
X40173Y129155D01*
X40084Y129233D01*
X40048Y129252D01*
X40016Y129276D01*
X39907Y129324D01*
X39801Y129378D01*
X39762Y129387D01*
X39724Y129403D01*
X39607Y129422D01*
X39491Y129448D01*
X39450Y129446D01*
X39410Y129453D01*
X39292Y129442D01*
X39173Y129438D01*
X39134Y129427D01*
X39094Y129423D01*
X38982Y129383D01*
X38867Y129350D01*
X38832Y129329D01*
X38794Y129315D01*
X38696Y129249D01*
X38593Y129188D01*
X38548Y129148D01*
X38531Y129137D01*
X38518Y129121D01*
X38473Y129082D01*
X38189Y128798D01*
X35471Y128798D01*
G37*
%LPD*%
%LPC*%
G36*
X441560Y408718D02*
X441560Y408718D01*
X439198Y411080D01*
X439198Y414420D01*
X441560Y416782D01*
X444900Y416782D01*
X447262Y414420D01*
X447262Y411080D01*
X444900Y408718D01*
X441560Y408718D01*
G37*
%LPD*%
%LPC*%
G36*
X70870Y260128D02*
X70870Y260128D01*
X68508Y262490D01*
X68508Y265830D01*
X70870Y268192D01*
X74210Y268192D01*
X76572Y265830D01*
X76572Y262490D01*
X74210Y260128D01*
X70870Y260128D01*
G37*
%LPD*%
%LPC*%
G36*
X94850Y252508D02*
X94850Y252508D01*
X92488Y254870D01*
X92488Y258210D01*
X94850Y260572D01*
X98190Y260572D01*
X100552Y258210D01*
X100552Y254870D01*
X98190Y252508D01*
X94850Y252508D01*
G37*
%LPD*%
%LPC*%
G36*
X146920Y444278D02*
X146920Y444278D01*
X144558Y446640D01*
X144558Y449980D01*
X146920Y452342D01*
X150260Y452342D01*
X152622Y449980D01*
X152622Y446640D01*
X150260Y444278D01*
X146920Y444278D01*
G37*
%LPD*%
%LPC*%
G36*
X74530Y69628D02*
X74530Y69628D01*
X72168Y71990D01*
X72168Y75330D01*
X74530Y77692D01*
X77870Y77692D01*
X80232Y75330D01*
X80232Y71990D01*
X77870Y69628D01*
X74530Y69628D01*
G37*
%LPD*%
%LPC*%
G36*
X87230Y425228D02*
X87230Y425228D01*
X84868Y427590D01*
X84868Y430930D01*
X87230Y433292D01*
X90570Y433292D01*
X92932Y430930D01*
X92932Y427590D01*
X90570Y425228D01*
X87230Y425228D01*
G37*
%LPD*%
%LPC*%
G36*
X110241Y422467D02*
X110241Y422467D01*
X107880Y424829D01*
X107880Y428169D01*
X110241Y430531D01*
X113581Y430531D01*
X115943Y428169D01*
X115943Y424829D01*
X113581Y422467D01*
X110241Y422467D01*
G37*
%LPD*%
%LPC*%
G36*
X63735Y69628D02*
X63735Y69628D01*
X61373Y71990D01*
X61373Y75330D01*
X63735Y77692D01*
X67075Y77692D01*
X69437Y75330D01*
X69437Y71990D01*
X67075Y69628D01*
X63735Y69628D01*
G37*
%LPD*%
%LPC*%
G36*
X51670Y411258D02*
X51670Y411258D01*
X49308Y413620D01*
X49308Y416960D01*
X51670Y419322D01*
X55010Y419322D01*
X57372Y416960D01*
X57372Y413620D01*
X55010Y411258D01*
X51670Y411258D01*
G37*
%LPD*%
%LPC*%
G36*
X136760Y374428D02*
X136760Y374428D01*
X134398Y376790D01*
X134398Y380130D01*
X136760Y382492D01*
X140100Y382492D01*
X142462Y380130D01*
X142462Y376790D01*
X140100Y374428D01*
X136760Y374428D01*
G37*
%LPD*%
%LPC*%
G36*
X152755Y368269D02*
X152755Y368269D01*
X150393Y370631D01*
X150393Y373971D01*
X152755Y376333D01*
X156095Y376333D01*
X158456Y373971D01*
X158456Y370631D01*
X156095Y368269D01*
X152755Y368269D01*
G37*
%LPD*%
%LPC*%
G36*
X136760Y357918D02*
X136760Y357918D01*
X134398Y360280D01*
X134398Y363620D01*
X136760Y365982D01*
X140100Y365982D01*
X142462Y363620D01*
X142462Y360280D01*
X140100Y357918D01*
X136760Y357918D01*
G37*
%LPD*%
%LPC*%
G36*
X87230Y335058D02*
X87230Y335058D01*
X84868Y337420D01*
X84868Y340760D01*
X87230Y343122D01*
X90570Y343122D01*
X92932Y340760D01*
X92932Y337420D01*
X90570Y335058D01*
X87230Y335058D01*
G37*
%LPD*%
%LPC*%
G36*
X52940Y289338D02*
X52940Y289338D01*
X50578Y291700D01*
X50578Y295040D01*
X52940Y297402D01*
X56280Y297402D01*
X58642Y295040D01*
X58642Y291700D01*
X56280Y289338D01*
X52940Y289338D01*
G37*
%LPD*%
%LPC*%
G36*
X99930Y272828D02*
X99930Y272828D01*
X97568Y275190D01*
X97568Y278530D01*
X99930Y280892D01*
X103270Y280892D01*
X105632Y278530D01*
X105632Y275190D01*
X103270Y272828D01*
X99930Y272828D01*
G37*
%LPD*%
%LPC*%
G36*
X172836Y142816D02*
X172836Y142816D01*
X170756Y144897D01*
X170756Y147839D01*
X172836Y149919D01*
X175778Y149919D01*
X177859Y147839D01*
X177859Y144897D01*
X175778Y142816D01*
X172836Y142816D01*
G37*
%LPD*%
%LPC*%
G36*
X139499Y216158D02*
X139499Y216158D01*
X137418Y218239D01*
X137418Y221181D01*
X139499Y223262D01*
X142441Y223262D01*
X144522Y221181D01*
X144522Y218239D01*
X142441Y216158D01*
X139499Y216158D01*
G37*
%LPD*%
%LPC*%
G36*
X168709Y200918D02*
X168709Y200918D01*
X166628Y202999D01*
X166628Y205941D01*
X168709Y208022D01*
X171651Y208022D01*
X173732Y205941D01*
X173732Y202999D01*
X171651Y200918D01*
X168709Y200918D01*
G37*
%LPD*%
%LPC*%
G36*
X117909Y193298D02*
X117909Y193298D01*
X115828Y195379D01*
X115828Y198321D01*
X117909Y200402D01*
X120851Y200402D01*
X122932Y198321D01*
X122932Y195379D01*
X120851Y193298D01*
X117909Y193298D01*
G37*
%LPD*%
%LPC*%
G36*
X219072Y281575D02*
X219072Y281575D01*
X219059Y281590D01*
X219053Y281600D01*
X219038Y281614D01*
X218971Y281689D01*
X217154Y283506D01*
X217154Y286238D01*
X219214Y288298D01*
X219299Y288408D01*
X219388Y288515D01*
X219396Y288533D01*
X219409Y288549D01*
X219464Y288677D01*
X219523Y288803D01*
X219527Y288822D01*
X219535Y288841D01*
X219542Y288886D01*
X219544Y288883D01*
X219551Y288864D01*
X219629Y288749D01*
X219704Y288631D01*
X219718Y288617D01*
X219730Y288600D01*
X219834Y288508D01*
X219935Y288413D01*
X219953Y288403D01*
X219968Y288390D01*
X220093Y288326D01*
X220214Y288260D01*
X220233Y288255D01*
X220251Y288245D01*
X220387Y288215D01*
X220522Y288180D01*
X220550Y288178D01*
X220562Y288176D01*
X220582Y288176D01*
X220682Y288170D01*
X221818Y288170D01*
X223750Y286238D01*
X223750Y283506D01*
X221818Y281575D01*
X219072Y281575D01*
G37*
%LPD*%
%LPC*%
G36*
X271684Y171327D02*
X271684Y171327D01*
X269752Y173259D01*
X269752Y175991D01*
X271684Y177923D01*
X274416Y177923D01*
X276348Y175991D01*
X276348Y174855D01*
X276365Y174718D01*
X276378Y174579D01*
X276385Y174560D01*
X276387Y174540D01*
X276438Y174411D01*
X276486Y174280D01*
X276497Y174263D01*
X276505Y174244D01*
X276586Y174132D01*
X276664Y174017D01*
X276679Y174003D01*
X276691Y173987D01*
X276799Y173898D01*
X276903Y173806D01*
X276921Y173797D01*
X276936Y173784D01*
X277062Y173725D01*
X277077Y173717D01*
X277004Y173694D01*
X276870Y173655D01*
X276853Y173645D01*
X276834Y173638D01*
X276716Y173564D01*
X276596Y173493D01*
X276575Y173475D01*
X276565Y173468D01*
X276551Y173453D01*
X276476Y173387D01*
X274416Y171327D01*
X271684Y171327D01*
G37*
%LPD*%
%LPC*%
G36*
X219455Y289752D02*
X219455Y289752D01*
X219448Y289771D01*
X219370Y289886D01*
X219295Y290004D01*
X219280Y290017D01*
X219269Y290034D01*
X219165Y290126D01*
X219064Y290221D01*
X219046Y290231D01*
X219031Y290245D01*
X218907Y290308D01*
X218785Y290375D01*
X218766Y290380D01*
X218747Y290389D01*
X218612Y290420D01*
X218477Y290454D01*
X218449Y290456D01*
X218437Y290459D01*
X218417Y290458D01*
X218316Y290465D01*
X217181Y290465D01*
X215249Y292396D01*
X215249Y295128D01*
X217181Y297060D01*
X219913Y297060D01*
X221845Y295128D01*
X221845Y292396D01*
X219785Y290337D01*
X219700Y290227D01*
X219611Y290120D01*
X219602Y290101D01*
X219590Y290085D01*
X219534Y289957D01*
X219475Y289832D01*
X219472Y289812D01*
X219464Y289794D01*
X219456Y289749D01*
X219455Y289752D01*
G37*
%LPD*%
%LPC*%
G36*
X217074Y163707D02*
X217074Y163707D01*
X215142Y165639D01*
X215142Y168371D01*
X217074Y170303D01*
X219806Y170303D01*
X220596Y169513D01*
X220705Y169428D01*
X220813Y169339D01*
X220831Y169330D01*
X220847Y169318D01*
X220975Y169263D01*
X221100Y169204D01*
X221120Y169200D01*
X221139Y169192D01*
X221277Y169170D01*
X221413Y169144D01*
X221433Y169145D01*
X221453Y169142D01*
X221592Y169155D01*
X221730Y169163D01*
X221749Y169170D01*
X221769Y169172D01*
X221858Y169203D01*
X221827Y169148D01*
X221822Y169129D01*
X221813Y169111D01*
X221783Y168975D01*
X221748Y168840D01*
X221746Y168812D01*
X221743Y168800D01*
X221744Y168780D01*
X221738Y168680D01*
X221738Y165639D01*
X219806Y163707D01*
X217074Y163707D01*
G37*
%LPD*%
%LPC*%
G36*
X335627Y290601D02*
X335627Y290601D01*
X333759Y292469D01*
X333649Y292554D01*
X333542Y292643D01*
X333524Y292652D01*
X333508Y292664D01*
X333380Y292720D01*
X333255Y292779D01*
X333235Y292782D01*
X333216Y292790D01*
X333201Y292793D01*
X333234Y292814D01*
X333248Y292828D01*
X333265Y292840D01*
X333357Y292944D01*
X333452Y293045D01*
X333462Y293063D01*
X333475Y293078D01*
X333539Y293202D01*
X333606Y293324D01*
X333611Y293343D01*
X333620Y293361D01*
X333651Y293497D01*
X333685Y293632D01*
X333687Y293660D01*
X333690Y293672D01*
X333689Y293692D01*
X333695Y293792D01*
X333695Y295265D01*
X335627Y297197D01*
X338331Y297197D01*
X338358Y297200D01*
X338378Y297178D01*
X340291Y295265D01*
X340291Y292533D01*
X338359Y290601D01*
X335627Y290601D01*
G37*
%LPD*%
%LPC*%
G36*
X326929Y288167D02*
X326929Y288167D01*
X324997Y290099D01*
X324997Y292831D01*
X326929Y294763D01*
X329661Y294763D01*
X331529Y292895D01*
X331639Y292810D01*
X331746Y292721D01*
X331764Y292712D01*
X331780Y292700D01*
X331908Y292644D01*
X332033Y292585D01*
X332053Y292582D01*
X332072Y292574D01*
X332087Y292571D01*
X332054Y292550D01*
X332040Y292536D01*
X332023Y292524D01*
X331931Y292420D01*
X331836Y292319D01*
X331826Y292301D01*
X331813Y292286D01*
X331749Y292162D01*
X331682Y292040D01*
X331677Y292021D01*
X331668Y292003D01*
X331638Y291867D01*
X331603Y291732D01*
X331601Y291704D01*
X331598Y291692D01*
X331599Y291672D01*
X331593Y291572D01*
X331593Y290099D01*
X329661Y288167D01*
X326929Y288167D01*
G37*
%LPD*%
%LPC*%
G36*
X215169Y272927D02*
X215169Y272927D01*
X213237Y274859D01*
X213237Y277591D01*
X215169Y279523D01*
X217915Y279523D01*
X217928Y279508D01*
X217934Y279497D01*
X217940Y279492D01*
X217941Y279491D01*
X217951Y279481D01*
X218016Y279408D01*
X219833Y277591D01*
X219833Y274859D01*
X217901Y272927D01*
X215169Y272927D01*
G37*
%LPD*%
%LPC*%
G36*
X208444Y282192D02*
X208444Y282192D01*
X206512Y284124D01*
X206512Y286856D01*
X208444Y288788D01*
X211176Y288788D01*
X213108Y286856D01*
X213108Y284124D01*
X211176Y282192D01*
X208444Y282192D01*
G37*
%LPD*%
%LPC*%
G36*
X239299Y177677D02*
X239299Y177677D01*
X237367Y179609D01*
X237367Y182341D01*
X239299Y184273D01*
X242031Y184273D01*
X243963Y182341D01*
X243963Y179609D01*
X242031Y177677D01*
X239299Y177677D01*
G37*
%LPD*%
%LPC*%
G36*
X248189Y171327D02*
X248189Y171327D01*
X246257Y173259D01*
X246257Y175991D01*
X248189Y177923D01*
X250921Y177923D01*
X252853Y175991D01*
X252853Y173259D01*
X250921Y171327D01*
X248189Y171327D01*
G37*
%LPD*%
%LPC*%
G36*
X207778Y163936D02*
X207778Y163936D01*
X205846Y165868D01*
X205846Y168600D01*
X207778Y170532D01*
X210510Y170532D01*
X212442Y168600D01*
X212442Y165868D01*
X210510Y163936D01*
X207778Y163936D01*
G37*
%LPD*%
%LPC*%
G36*
X189134Y160532D02*
X189134Y160532D01*
X187202Y162464D01*
X187202Y165196D01*
X189134Y167128D01*
X191866Y167128D01*
X193798Y165196D01*
X193798Y162464D01*
X191866Y160532D01*
X189134Y160532D01*
G37*
%LPD*%
%LPC*%
G36*
X239934Y270002D02*
X239934Y270002D01*
X238002Y271934D01*
X238002Y274666D01*
X239934Y276598D01*
X242666Y276598D01*
X244598Y274666D01*
X244598Y271934D01*
X242666Y270002D01*
X239934Y270002D01*
G37*
%LPD*%
%LPC*%
G36*
X226599Y274197D02*
X226599Y274197D01*
X224667Y276129D01*
X224667Y278861D01*
X226599Y280793D01*
X229331Y280793D01*
X231263Y278861D01*
X231263Y276129D01*
X229331Y274197D01*
X226599Y274197D01*
G37*
%LPD*%
%LPC*%
G36*
X320579Y258322D02*
X320579Y258322D01*
X318647Y260254D01*
X318647Y262986D01*
X320579Y264918D01*
X323311Y264918D01*
X325243Y262986D01*
X325243Y260254D01*
X323311Y258322D01*
X320579Y258322D01*
G37*
%LPD*%
%LPC*%
G36*
X228254Y258322D02*
X228254Y258322D01*
X226322Y260254D01*
X226322Y262986D01*
X228254Y264918D01*
X230986Y264918D01*
X232918Y262986D01*
X232918Y260254D01*
X230986Y258322D01*
X228254Y258322D01*
G37*
%LPD*%
%LPC*%
G36*
X248824Y210062D02*
X248824Y210062D01*
X246892Y211994D01*
X246892Y214726D01*
X248824Y216658D01*
X251556Y216658D01*
X253488Y214726D01*
X253488Y211994D01*
X251556Y210062D01*
X248824Y210062D01*
G37*
%LPD*%
%LPC*%
G36*
X261524Y262767D02*
X261524Y262767D01*
X259592Y264699D01*
X259592Y267431D01*
X261524Y269363D01*
X264256Y269363D01*
X266188Y267431D01*
X266188Y264699D01*
X264256Y262767D01*
X261524Y262767D01*
G37*
%LPD*%
%LPC*%
G36*
X236124Y250702D02*
X236124Y250702D01*
X234192Y252634D01*
X234192Y255366D01*
X236124Y257298D01*
X238856Y257298D01*
X240788Y255366D01*
X240788Y252634D01*
X238856Y250702D01*
X236124Y250702D01*
G37*
%LPD*%
%LPC*%
G36*
X248824Y262767D02*
X248824Y262767D01*
X246892Y264699D01*
X246892Y267431D01*
X248824Y269363D01*
X251556Y269363D01*
X253488Y267431D01*
X253488Y264699D01*
X251556Y262767D01*
X248824Y262767D01*
G37*
%LPD*%
%LPC*%
G36*
X284384Y236097D02*
X284384Y236097D01*
X282452Y238029D01*
X282452Y240761D01*
X284384Y242693D01*
X287116Y242693D01*
X289048Y240761D01*
X289048Y238029D01*
X287116Y236097D01*
X284384Y236097D01*
G37*
%LPD*%
%LPC*%
G36*
X236124Y234192D02*
X236124Y234192D01*
X234192Y236124D01*
X234192Y238856D01*
X236124Y240788D01*
X238856Y240788D01*
X240788Y238856D01*
X240788Y236124D01*
X238856Y234192D01*
X236124Y234192D01*
G37*
%LPD*%
%LPC*%
G36*
X295814Y234192D02*
X295814Y234192D01*
X293882Y236124D01*
X293882Y238856D01*
X295814Y240788D01*
X298546Y240788D01*
X300478Y238856D01*
X300478Y236124D01*
X298546Y234192D01*
X295814Y234192D01*
G37*
%LPD*%
%LPC*%
G36*
X216439Y227842D02*
X216439Y227842D01*
X214507Y229774D01*
X214507Y232506D01*
X216439Y234438D01*
X219171Y234438D01*
X221103Y232506D01*
X221103Y229774D01*
X219171Y227842D01*
X216439Y227842D01*
G37*
%LPD*%
%LPC*%
G36*
X185959Y225937D02*
X185959Y225937D01*
X184027Y227869D01*
X184027Y230601D01*
X185959Y232533D01*
X188691Y232533D01*
X190623Y230601D01*
X190623Y227869D01*
X188691Y225937D01*
X185959Y225937D01*
G37*
%LPD*%
%LPC*%
G36*
X286289Y225302D02*
X286289Y225302D01*
X284357Y227234D01*
X284357Y229966D01*
X286289Y231898D01*
X289021Y231898D01*
X290953Y229966D01*
X290953Y227234D01*
X289021Y225302D01*
X286289Y225302D01*
G37*
%LPD*%
%LPC*%
G36*
X267874Y211332D02*
X267874Y211332D01*
X265942Y213264D01*
X265942Y215996D01*
X267874Y217928D01*
X270606Y217928D01*
X272538Y215996D01*
X272538Y213264D01*
X270606Y211332D01*
X267874Y211332D01*
G37*
%LPD*%
%LPC*%
G36*
X233584Y211332D02*
X233584Y211332D01*
X231652Y213264D01*
X231652Y215996D01*
X233584Y217928D01*
X236316Y217928D01*
X238248Y215996D01*
X238248Y213264D01*
X236316Y211332D01*
X233584Y211332D01*
G37*
%LPD*%
%LPC*%
G36*
X281209Y202442D02*
X281209Y202442D01*
X279277Y204374D01*
X279277Y207106D01*
X281209Y209038D01*
X283941Y209038D01*
X285873Y207106D01*
X285873Y204374D01*
X283941Y202442D01*
X281209Y202442D01*
G37*
%LPD*%
%LPC*%
G36*
X216439Y201807D02*
X216439Y201807D01*
X214507Y203739D01*
X214507Y206471D01*
X216439Y208403D01*
X219171Y208403D01*
X221103Y206471D01*
X221103Y203739D01*
X219171Y201807D01*
X216439Y201807D01*
G37*
%LPD*%
%LPC*%
G36*
X331374Y197362D02*
X331374Y197362D01*
X329442Y199294D01*
X329442Y202026D01*
X331374Y203958D01*
X334106Y203958D01*
X336038Y202026D01*
X336038Y199294D01*
X334106Y197362D01*
X331374Y197362D01*
G37*
%LPD*%
%LPC*%
G36*
X320805Y305206D02*
X320805Y305206D01*
X318873Y307138D01*
X318873Y309870D01*
X320805Y311802D01*
X323537Y311802D01*
X325469Y309870D01*
X325469Y307138D01*
X323537Y305206D01*
X320805Y305206D01*
G37*
%LPD*%
%LPC*%
G36*
X208819Y194187D02*
X208819Y194187D01*
X206887Y196119D01*
X206887Y198851D01*
X208819Y200783D01*
X211551Y200783D01*
X213483Y198851D01*
X213483Y196119D01*
X211551Y194187D01*
X208819Y194187D01*
G37*
%LPD*%
%LPC*%
G36*
X224059Y193552D02*
X224059Y193552D01*
X222127Y195484D01*
X222127Y198216D01*
X224059Y200148D01*
X226791Y200148D01*
X228723Y198216D01*
X228723Y195484D01*
X226791Y193552D01*
X224059Y193552D01*
G37*
%LPD*%
%LPC*%
G36*
X285342Y312932D02*
X285342Y312932D01*
X283410Y314864D01*
X283410Y317596D01*
X285342Y319528D01*
X288074Y319528D01*
X290006Y317596D01*
X290006Y314864D01*
X288074Y312932D01*
X285342Y312932D01*
G37*
%LPD*%
%LPC*%
G36*
X228504Y313567D02*
X228504Y313567D01*
X226572Y315499D01*
X226572Y318231D01*
X228504Y320163D01*
X231236Y320163D01*
X233168Y318231D01*
X233168Y315499D01*
X231236Y313567D01*
X228504Y313567D01*
G37*
%LPD*%
%LPC*%
G36*
X296449Y184662D02*
X296449Y184662D01*
X294517Y186594D01*
X294517Y189326D01*
X296449Y191258D01*
X299181Y191258D01*
X301113Y189326D01*
X301113Y186594D01*
X299181Y184662D01*
X296449Y184662D01*
G37*
%LPD*%
%LPC*%
G36*
X273060Y313567D02*
X273060Y313567D01*
X271128Y315499D01*
X271128Y318231D01*
X273060Y320163D01*
X275792Y320163D01*
X277724Y318231D01*
X277724Y315499D01*
X275792Y313567D01*
X273060Y313567D01*
G37*
%LPD*%
%LPC*%
G36*
X200254Y178138D02*
X200254Y178138D01*
X198322Y180070D01*
X198322Y182802D01*
X200254Y184733D01*
X202986Y184733D01*
X204918Y182802D01*
X204918Y180070D01*
X202986Y178138D01*
X200254Y178138D01*
G37*
%LPD*%
%LPC*%
G36*
X110401Y483128D02*
X110401Y483128D01*
X108478Y485051D01*
X108478Y487769D01*
X110401Y489692D01*
X113119Y489692D01*
X115042Y487769D01*
X115042Y485051D01*
X113119Y483128D01*
X110401Y483128D01*
G37*
%LPD*%
%LPC*%
G36*
X144691Y480588D02*
X144691Y480588D01*
X142768Y482511D01*
X142768Y485229D01*
X144691Y487152D01*
X147409Y487152D01*
X149332Y485229D01*
X149332Y482511D01*
X147409Y480588D01*
X144691Y480588D01*
G37*
%LPD*%
%LPC*%
G36*
X71322Y432037D02*
X71322Y432037D01*
X69399Y433960D01*
X69399Y436678D01*
X71322Y438601D01*
X74040Y438601D01*
X75963Y436678D01*
X75963Y433960D01*
X74040Y432037D01*
X71322Y432037D01*
G37*
%LPD*%
%LPC*%
G36*
X342176Y418358D02*
X342176Y418358D01*
X340253Y420281D01*
X340253Y422999D01*
X342176Y424922D01*
X344894Y424922D01*
X346817Y422999D01*
X346817Y420281D01*
X344894Y418358D01*
X342176Y418358D01*
G37*
%LPD*%
%LPC*%
G36*
X464731Y260878D02*
X464731Y260878D01*
X462808Y262801D01*
X462808Y265519D01*
X464731Y267442D01*
X467449Y267442D01*
X469372Y265519D01*
X469372Y262801D01*
X467449Y260878D01*
X464731Y260878D01*
G37*
%LPD*%
%LPC*%
G36*
X455206Y282997D02*
X455206Y282997D01*
X453283Y284920D01*
X453283Y287638D01*
X455206Y289561D01*
X457924Y289561D01*
X459847Y287638D01*
X459847Y284920D01*
X457924Y282997D01*
X455206Y282997D01*
G37*
%LPD*%
%LPC*%
G36*
X204381Y326918D02*
X204381Y326918D01*
X202458Y328841D01*
X202458Y331559D01*
X204381Y333482D01*
X207099Y333482D01*
X209022Y331559D01*
X209022Y328841D01*
X207099Y326918D01*
X204381Y326918D01*
G37*
%LPD*%
%LPC*%
G36*
X361226Y300883D02*
X361226Y300883D01*
X359303Y302806D01*
X359303Y305524D01*
X361226Y307447D01*
X363944Y307447D01*
X365867Y305524D01*
X365867Y302806D01*
X363944Y300883D01*
X361226Y300883D01*
G37*
%LPD*%
%LPC*%
G36*
X488861Y297708D02*
X488861Y297708D01*
X486938Y299631D01*
X486938Y302349D01*
X488861Y304272D01*
X491579Y304272D01*
X493502Y302349D01*
X493502Y299631D01*
X491579Y297708D01*
X488861Y297708D01*
G37*
%LPD*%
%LPC*%
G36*
X449491Y191028D02*
X449491Y191028D01*
X447568Y192951D01*
X447568Y195669D01*
X449491Y197592D01*
X452209Y197592D01*
X454132Y195669D01*
X454132Y192951D01*
X452209Y191028D01*
X449491Y191028D01*
G37*
%LPD*%
%LPC*%
G36*
X289365Y328209D02*
X289365Y328209D01*
X287442Y330132D01*
X287442Y332850D01*
X289365Y334773D01*
X292083Y334773D01*
X294006Y332850D01*
X294006Y330132D01*
X292083Y328209D01*
X289365Y328209D01*
G37*
%LPD*%
%LPC*%
G36*
X333501Y330580D02*
X333501Y330580D01*
X331578Y332503D01*
X331578Y335221D01*
X333501Y337144D01*
X336219Y337144D01*
X338142Y335221D01*
X338142Y332503D01*
X336219Y330580D01*
X333501Y330580D01*
G37*
%LPD*%
%LPC*%
G36*
X370751Y151658D02*
X370751Y151658D01*
X368828Y153581D01*
X368828Y156299D01*
X370751Y158222D01*
X373469Y158222D01*
X375392Y156299D01*
X375392Y153581D01*
X373469Y151658D01*
X370751Y151658D01*
G37*
%LPD*%
%LPC*%
G36*
X363766Y319933D02*
X363766Y319933D01*
X361843Y321856D01*
X361843Y324574D01*
X363766Y326497D01*
X366484Y326497D01*
X368407Y324574D01*
X368407Y321856D01*
X366484Y319933D01*
X363766Y319933D01*
G37*
%LPD*%
%LPC*%
G36*
X30391Y217698D02*
X30391Y217698D01*
X28468Y219621D01*
X28468Y222339D01*
X30391Y224262D01*
X33109Y224262D01*
X35032Y222339D01*
X35032Y219621D01*
X33109Y217698D01*
X30391Y217698D01*
G37*
%LPD*%
%LPC*%
G36*
X449491Y142768D02*
X449491Y142768D01*
X447568Y144691D01*
X447568Y147409D01*
X449491Y149332D01*
X452209Y149332D01*
X454132Y147409D01*
X454132Y144691D01*
X452209Y142768D01*
X449491Y142768D01*
G37*
%LPD*%
%LPC*%
G36*
X260052Y136278D02*
X260052Y136278D01*
X258129Y138201D01*
X258129Y140919D01*
X260052Y142842D01*
X262770Y142842D01*
X264693Y140919D01*
X264693Y138201D01*
X262770Y136278D01*
X260052Y136278D01*
G37*
%LPD*%
%LPC*%
G36*
X175171Y333268D02*
X175171Y333268D01*
X173248Y335191D01*
X173248Y337909D01*
X175171Y339832D01*
X177889Y339832D01*
X179812Y337909D01*
X179812Y335191D01*
X177889Y333268D01*
X175171Y333268D01*
G37*
%LPD*%
%LPC*%
G36*
X206921Y342158D02*
X206921Y342158D01*
X204998Y344081D01*
X204998Y346799D01*
X206921Y348722D01*
X209639Y348722D01*
X211562Y346799D01*
X211562Y344081D01*
X209639Y342158D01*
X206921Y342158D01*
G37*
%LPD*%
%LPC*%
G36*
X272961Y342158D02*
X272961Y342158D01*
X271038Y344081D01*
X271038Y346799D01*
X272961Y348722D01*
X275679Y348722D01*
X277602Y346799D01*
X277602Y344081D01*
X275679Y342158D01*
X272961Y342158D01*
G37*
%LPD*%
%LPC*%
G36*
X284497Y343568D02*
X284497Y343568D01*
X282574Y345491D01*
X282574Y348209D01*
X284497Y350132D01*
X287215Y350132D01*
X289138Y348209D01*
X289138Y345491D01*
X287215Y343568D01*
X284497Y343568D01*
G37*
%LPD*%
%LPC*%
G36*
X316141Y99588D02*
X316141Y99588D01*
X314218Y101511D01*
X314218Y104229D01*
X316141Y106152D01*
X318859Y106152D01*
X320782Y104229D01*
X320782Y101511D01*
X318859Y99588D01*
X316141Y99588D01*
G37*
%LPD*%
%LPC*%
G36*
X120561Y483128D02*
X120561Y483128D01*
X118638Y485051D01*
X118638Y487769D01*
X120561Y489692D01*
X123279Y489692D01*
X125202Y487769D01*
X125202Y485051D01*
X123279Y483128D01*
X120561Y483128D01*
G37*
%LPD*%
%LPC*%
G36*
X205651Y88158D02*
X205651Y88158D01*
X203728Y90081D01*
X203728Y92799D01*
X205651Y94722D01*
X208369Y94722D01*
X210292Y92799D01*
X210292Y90081D01*
X208369Y88158D01*
X205651Y88158D01*
G37*
%LPD*%
%LPC*%
G36*
X349161Y73349D02*
X349161Y73349D01*
X347238Y75272D01*
X347238Y77990D01*
X349161Y79913D01*
X351879Y79913D01*
X353802Y77990D01*
X353802Y75272D01*
X351879Y73349D01*
X349161Y73349D01*
G37*
%LPD*%
%LPC*%
G36*
X115846Y321838D02*
X115846Y321838D01*
X113923Y323761D01*
X113923Y326479D01*
X115846Y328402D01*
X118564Y328402D01*
X120487Y326479D01*
X120487Y323761D01*
X118564Y321838D01*
X115846Y321838D01*
G37*
%LPD*%
%LPC*%
G36*
X21501Y226588D02*
X21501Y226588D01*
X19578Y228511D01*
X19578Y231229D01*
X21501Y233152D01*
X24219Y233152D01*
X26142Y231229D01*
X26142Y228511D01*
X24219Y226588D01*
X21501Y226588D01*
G37*
%LPD*%
%LPC*%
G36*
X319951Y372638D02*
X319951Y372638D01*
X318028Y374561D01*
X318028Y377279D01*
X319951Y379202D01*
X322669Y379202D01*
X324592Y377279D01*
X324592Y374561D01*
X322669Y372638D01*
X319951Y372638D01*
G37*
%LPD*%
%LPC*%
G36*
X248831Y59689D02*
X248831Y59689D01*
X246908Y61612D01*
X246908Y64330D01*
X248831Y66253D01*
X251549Y66253D01*
X253472Y64330D01*
X253472Y61612D01*
X251549Y59689D01*
X248831Y59689D01*
G37*
%LPD*%
%LPC*%
G36*
X254546Y376448D02*
X254546Y376448D01*
X252623Y378371D01*
X252623Y381089D01*
X254546Y383012D01*
X257264Y383012D01*
X259187Y381089D01*
X259187Y378371D01*
X257264Y376448D01*
X254546Y376448D01*
G37*
%LPD*%
%LPC*%
G36*
X265341Y376448D02*
X265341Y376448D01*
X263418Y378371D01*
X263418Y381089D01*
X265341Y383012D01*
X268059Y383012D01*
X269982Y381089D01*
X269982Y378371D01*
X268059Y376448D01*
X265341Y376448D01*
G37*
%LPD*%
%LPC*%
G36*
X199301Y362478D02*
X199301Y362478D01*
X197378Y364401D01*
X197378Y367119D01*
X199301Y369042D01*
X202019Y369042D01*
X203942Y367119D01*
X203942Y364401D01*
X202019Y362478D01*
X199301Y362478D01*
G37*
%LPD*%
D10*
X195715Y205105D03*
D11*
X83820Y265430D03*
X358140Y67310D03*
D12*
X166370Y485140D03*
X110490Y453390D03*
X290830Y104140D03*
X280670Y104140D03*
X271780Y104140D03*
X411480Y157480D03*
X401320Y172085D03*
X394970Y179070D03*
X388620Y184785D03*
X497840Y339090D03*
X487680Y339090D03*
X455930Y345440D03*
X497840Y448310D03*
X487680Y448310D03*
X477520Y453390D03*
X468630Y462280D03*
X463550Y482600D03*
X463550Y491490D03*
X450850Y492760D03*
X436880Y492760D03*
X472440Y443230D03*
D11*
X100330Y311785D03*
X8890Y229870D03*
D10*
X250190Y246380D03*
X274320Y254000D03*
X265430Y254000D03*
X257810Y254000D03*
X217170Y245110D03*
X290195Y180975D03*
X312990Y213930D03*
X321370Y237430D03*
X309620Y228600D03*
X313690Y252730D03*
X264795Y293370D03*
X241300Y300990D03*
X201295Y301625D03*
X201940Y261620D03*
X321310Y293370D03*
X330835Y305435D03*
X280670Y293370D03*
X218440Y196850D03*
D13*
X427990Y443230D03*
X166370Y408940D03*
D10*
X325755Y167640D03*
X250190Y253365D03*
X274320Y246380D03*
X250190Y237490D03*
X250190Y229870D03*
X257810Y229870D03*
X265430Y246380D03*
X257810Y246380D03*
X274320Y237490D03*
X265430Y237490D03*
X265430Y229870D03*
X257810Y237490D03*
X274320Y229870D03*
X194310Y173990D03*
D13*
X422910Y181610D03*
D12*
X252730Y149860D03*
X245110Y149860D03*
D13*
X170180Y107950D03*
X163830Y107950D03*
X467981Y390525D03*
X433599Y393700D03*
X235585Y363220D03*
X372745Y491490D03*
X365760Y491490D03*
X365760Y485140D03*
X173355Y153035D03*
D12*
X202565Y140970D03*
X212090Y149860D03*
D13*
X372745Y485140D03*
X400050Y344064D03*
X408940Y344064D03*
X418465Y344064D03*
X426720Y344064D03*
X433070Y344064D03*
X361950Y250719D03*
X370840Y251354D03*
X378460Y251354D03*
X386080Y251354D03*
X393700Y251354D03*
X421640Y262255D03*
X151765Y134620D03*
X359410Y238654D03*
D10*
X335915Y250084D03*
X321310Y246274D03*
X321310Y253259D03*
D12*
X279400Y19050D03*
X279400Y11430D03*
D13*
X466550Y132370D03*
X257810Y189230D03*
X46355Y19050D03*
X61595Y19050D03*
X50800Y13970D03*
X93345Y15240D03*
X70485Y13335D03*
X83185Y9525D03*
X73660Y6985D03*
X58420Y6985D03*
X44450Y6350D03*
X92710Y5080D03*
X109220Y19685D03*
X102870Y14605D03*
X107950Y5080D03*
X114300Y6350D03*
X118745Y13970D03*
X126365Y5715D03*
X139065Y14605D03*
X144780Y77470D03*
X149860Y67945D03*
X152400Y74295D03*
X158750Y67310D03*
X78740Y164465D03*
X86360Y166370D03*
X98425Y169545D03*
X92710Y159385D03*
X86360Y153670D03*
X102870Y161925D03*
X93980Y150495D03*
X73025Y170180D03*
X6985Y193675D03*
X23495Y194310D03*
X15240Y196850D03*
X15240Y187960D03*
X29845Y202565D03*
X31115Y195580D03*
X33655Y187325D03*
X38735Y234315D03*
X44450Y227330D03*
X50800Y217170D03*
X74295Y235585D03*
X96520Y234950D03*
X86360Y228600D03*
X75565Y222885D03*
X75565Y211455D03*
X89535Y210820D03*
X96520Y220980D03*
X85725Y218440D03*
X109220Y220345D03*
X106045Y266065D03*
X106045Y253365D03*
X118110Y288925D03*
X132715Y288925D03*
X175895Y419735D03*
X184150Y419735D03*
X191135Y419735D03*
X183515Y409575D03*
X198120Y403860D03*
X187325Y396875D03*
X193040Y409575D03*
X358140Y198120D03*
X365760Y198120D03*
X373380Y198120D03*
X381635Y197485D03*
X360680Y215265D03*
X370205Y215265D03*
X381635Y215265D03*
X394335Y215265D03*
X399415Y210185D03*
X404495Y204470D03*
X418465Y213360D03*
X422910Y208280D03*
X428625Y201930D03*
X440055Y215265D03*
X444500Y209550D03*
X448945Y203200D03*
X434340Y208915D03*
X408305Y213995D03*
X414655Y204470D03*
X358140Y173355D03*
X385445Y191135D03*
X47625Y424180D03*
X50800Y443230D03*
X53975Y494030D03*
X76835Y494030D03*
X5080Y446405D03*
X5080Y457835D03*
X21590Y450850D03*
X17145Y457200D03*
X12065Y450215D03*
X48260Y463550D03*
X65405Y494030D03*
X3810Y466725D03*
X43815Y481965D03*
X43815Y488950D03*
X136525Y424180D03*
X146050Y424180D03*
X156210Y421005D03*
X154305Y412750D03*
X147320Y417195D03*
X165735Y421640D03*
X173355Y445135D03*
X173355Y434975D03*
X181610Y483870D03*
X240665Y489585D03*
X251460Y489585D03*
X262255Y489585D03*
X241935Y481965D03*
X248920Y482600D03*
X259715Y481965D03*
X273685Y441325D03*
X267970Y447040D03*
X243840Y405765D03*
X247650Y400050D03*
X252730Y393065D03*
X311785Y436245D03*
X311785Y406400D03*
X308610Y366395D03*
X308610Y360045D03*
X347345Y435610D03*
X351155Y428625D03*
X377190Y386080D03*
X383540Y381635D03*
X389255Y377825D03*
X389255Y382905D03*
X479425Y423545D03*
X488950Y424180D03*
X483870Y415290D03*
X490855Y405130D03*
X495300Y392430D03*
X497840Y378460D03*
X497840Y367665D03*
X480060Y394335D03*
X480060Y381000D03*
X479425Y370205D03*
X479425Y356870D03*
X487045Y384810D03*
X487045Y370840D03*
X487680Y356870D03*
X497840Y353695D03*
X473710Y344805D03*
X499745Y423545D03*
X127635Y97155D03*
X375920Y11430D03*
X386080Y10795D03*
X391795Y19050D03*
X381000Y18415D03*
X379095Y4445D03*
X368300Y6985D03*
X453390Y12065D03*
X389890Y3810D03*
X368935Y18415D03*
X460375Y6985D03*
X453390Y5080D03*
X454660Y21590D03*
X461010Y33020D03*
X469900Y40005D03*
X461645Y23495D03*
X474980Y5080D03*
X466725Y10795D03*
X465455Y16510D03*
X465455Y26035D03*
X470535Y31750D03*
X479425Y39370D03*
X492125Y40005D03*
X498475Y36830D03*
X497840Y46990D03*
X480695Y47625D03*
X475615Y54610D03*
X499745Y56515D03*
X5080Y36195D03*
X497205Y458470D03*
X487680Y457835D03*
X188595Y313055D03*
X131445Y310515D03*
X32385Y280035D03*
X42545Y318135D03*
X51435Y255270D03*
X60325Y246380D03*
X73660Y376555D03*
X83185Y376555D03*
X92710Y376555D03*
X93345Y397510D03*
X103505Y397510D03*
X103505Y376555D03*
X73660Y397510D03*
X83820Y397510D03*
X273685Y370840D03*
X273685Y361315D03*
X273685Y352425D03*
X78740Y405130D03*
X88900Y405130D03*
X99060Y405130D03*
X42545Y312420D03*
X42545Y306705D03*
D11*
X82550Y320040D03*
D13*
X45085Y413385D03*
X3810Y431165D03*
X12065Y440055D03*
X11430Y431165D03*
X20955Y439420D03*
X19685Y431165D03*
X450850Y194310D03*
X450850Y146050D03*
D11*
X471170Y109220D03*
X471170Y102870D03*
X471170Y96520D03*
X477520Y96520D03*
X477520Y102870D03*
X477520Y109220D03*
X501650Y109220D03*
X501650Y102870D03*
X501650Y96520D03*
D12*
X292100Y41910D03*
X292100Y50800D03*
X283210Y50800D03*
X275590Y50800D03*
X275590Y41910D03*
X266700Y50800D03*
X266700Y41910D03*
X283210Y41910D03*
X443230Y412750D03*
D13*
X288925Y443865D03*
X356870Y361950D03*
X294640Y443865D03*
X350520Y361950D03*
X350520Y367030D03*
X356870Y367030D03*
X291465Y440055D03*
X372110Y154940D03*
X41910Y132080D03*
X36830Y132080D03*
X40640Y473075D03*
X497840Y288290D03*
X491490Y288290D03*
X483870Y288290D03*
X466090Y264160D03*
X416560Y106680D03*
X424180Y114300D03*
X416560Y114300D03*
X424180Y123190D03*
X416560Y123190D03*
X234950Y107950D03*
X234950Y100330D03*
X229870Y100330D03*
X217170Y100330D03*
X217170Y91440D03*
X229870Y91440D03*
X234950Y91440D03*
X207010Y91440D03*
X350520Y76631D03*
D11*
X140970Y219710D03*
X119380Y196850D03*
D10*
X194445Y220980D03*
D12*
X44450Y73660D03*
X54610Y63500D03*
X44450Y63500D03*
X54610Y73660D03*
X34290Y63500D03*
D10*
X250190Y213360D03*
X234950Y214630D03*
X297180Y220980D03*
X269240Y214630D03*
X282575Y205740D03*
X297180Y237490D03*
X297180Y254000D03*
X232410Y228600D03*
X289560Y172720D03*
X321945Y261620D03*
X241300Y309245D03*
X229620Y261620D03*
X241300Y273300D03*
X265430Y276860D03*
X274294Y276886D03*
X328295Y291465D03*
X332740Y200660D03*
D12*
X360045Y269875D03*
X361950Y279400D03*
X354330Y274320D03*
D13*
X234950Y394970D03*
X234950Y401320D03*
X229870Y485140D03*
X222250Y485140D03*
X146050Y483870D03*
X343535Y421640D03*
X208280Y345440D03*
X259715Y345440D03*
X117205Y325120D03*
X261411Y139560D03*
X317500Y102870D03*
X393700Y490220D03*
X393700Y476250D03*
X393700Y483235D03*
X254000Y345440D03*
D12*
X34290Y73660D03*
X65405Y73660D03*
X76200Y73660D03*
D13*
X389255Y154305D03*
X395605Y154305D03*
X382905Y156845D03*
X321310Y375920D03*
X283210Y398780D03*
X229870Y440690D03*
X229730Y446960D03*
X397510Y425450D03*
X397510Y419100D03*
X391160Y419100D03*
X391160Y425450D03*
X287020Y394970D03*
X290830Y391160D03*
D12*
X138430Y361950D03*
X88900Y339090D03*
X53340Y415290D03*
X88900Y429260D03*
X137160Y440690D03*
X129540Y440690D03*
X148590Y448310D03*
X111911Y426499D03*
X53340Y402369D03*
X96520Y256540D03*
D13*
X72681Y435319D03*
D10*
X256540Y276860D03*
X274426Y316865D03*
D11*
X174307Y146368D03*
D10*
X306070Y252730D03*
X218357Y220855D03*
X187325Y193781D03*
D11*
X170180Y163830D03*
D10*
X217805Y231140D03*
X191770Y199390D03*
X210185Y197485D03*
D11*
X165100Y167640D03*
D10*
X209810Y285490D03*
D13*
X166264Y254000D03*
X22860Y229870D03*
D10*
X226060Y172085D03*
X240665Y180975D03*
D13*
X176530Y336550D03*
X193040Y326390D03*
X111760Y486410D03*
D10*
X233680Y294005D03*
X227965Y277495D03*
D13*
X290828Y378968D03*
D10*
X220452Y284872D03*
D13*
X285531Y378241D03*
D10*
X225425Y196850D03*
X201620Y181436D03*
X217805Y205105D03*
X209144Y167234D03*
X313690Y268605D03*
D13*
X290724Y331491D03*
D10*
X273791Y293934D03*
X274320Y284480D03*
X306070Y278130D03*
D13*
X347804Y310056D03*
X347980Y301625D03*
X349639Y323321D03*
X456565Y286279D03*
X490220Y300990D03*
D10*
X296985Y285419D03*
X322171Y308504D03*
D13*
X323215Y334010D03*
X304165Y469900D03*
D10*
X297180Y302260D03*
D13*
X299720Y464820D03*
D10*
X261980Y167871D03*
D13*
X200660Y365760D03*
X180547Y282545D03*
X180774Y247650D03*
D10*
X281940Y172720D03*
X248285Y308610D03*
D13*
X285856Y346850D03*
D10*
X337185Y283739D03*
X339725Y242570D03*
X287655Y228600D03*
X285750Y239395D03*
X262890Y266065D03*
X250190Y266065D03*
X257810Y285115D03*
X297180Y278130D03*
D13*
X300884Y326540D03*
D10*
X336410Y307200D03*
D13*
X334860Y333862D03*
D10*
X226060Y222250D03*
X237490Y237490D03*
X237490Y254000D03*
X259715Y325120D03*
D13*
X266700Y379730D03*
X241935Y294005D03*
D10*
X248285Y300355D03*
D13*
X252730Y325120D03*
X255905Y379730D03*
D10*
X257810Y163830D03*
X190500Y163830D03*
D11*
X167857Y174794D03*
D13*
X175477Y273050D03*
X175477Y248814D03*
D10*
X227965Y163971D03*
X218440Y167005D03*
X201536Y212090D03*
X186690Y283210D03*
X186690Y246486D03*
D12*
X424180Y377190D03*
D10*
X210820Y220980D03*
X300990Y312420D03*
D12*
X430270Y368470D03*
X423551Y369570D03*
D10*
X289560Y300990D03*
X286708Y316230D03*
X190500Y318770D03*
D13*
X205740Y330200D03*
D10*
X216535Y276225D03*
D13*
X185420Y330200D03*
X318135Y328295D03*
D10*
X335280Y229870D03*
X273050Y174625D03*
D13*
X295910Y149860D03*
D10*
X297815Y187960D03*
X306070Y260350D03*
D13*
X356870Y285861D03*
D10*
X289560Y269240D03*
D13*
X362585Y304165D03*
D10*
X289560Y276860D03*
X340613Y302642D03*
X335088Y236961D03*
X298450Y213360D03*
X335280Y322580D03*
X229870Y316865D03*
D13*
X274320Y345440D03*
D10*
X295910Y322580D03*
X218547Y293762D03*
X297180Y316230D03*
X267158Y325120D03*
D13*
X342900Y324485D03*
X121920Y486410D03*
D10*
X234315Y301625D03*
X282575Y300990D03*
X273685Y302895D03*
X323850Y157480D03*
D13*
X250190Y62971D03*
D10*
X273685Y198120D03*
X249555Y174625D03*
X313690Y277495D03*
D13*
X344805Y284480D03*
X346075Y290195D03*
D10*
X336993Y293899D03*
X281940Y284480D03*
X342900Y314960D03*
X283210Y277495D03*
D13*
X365125Y323215D03*
D10*
X201295Y220345D03*
X187325Y229235D03*
D11*
X170180Y204470D03*
D13*
X31750Y220980D03*
D10*
X216761Y262029D03*
D13*
X95250Y189590D03*
D10*
X209550Y261620D03*
D13*
X95250Y194887D03*
D10*
X318770Y162560D03*
D13*
X302260Y149860D03*
D11*
X168346Y181504D03*
D13*
X170180Y275590D03*
X170180Y248814D03*
D12*
X49530Y373380D03*
X54610Y293370D03*
X41910Y378460D03*
X46990Y384810D03*
X45085Y400050D03*
X45720Y391983D03*
X154425Y372301D03*
X138430Y378460D03*
X137160Y403860D03*
X142240Y398399D03*
X148590Y394399D03*
X149308Y385528D03*
X101600Y276860D03*
X72540Y264160D03*
D10*
X273050Y189230D03*
D13*
X351790Y210291D03*
D10*
X336007Y272409D03*
D13*
X347980Y206264D03*
D10*
X332213Y268078D03*
M02*
