G04 EAGLE Gerber RS-274X export*
G75*
%MOMM*%
%FSLAX34Y34*%
%LPD*%
%IN*%
%IPPOS*%
%AMOC8*
5,1,8,0,0,1.08239X$1,22.5*%
G01*
%ADD10C,0.254000*%


D10*
X0Y15240D02*
X176Y13808D01*
X475Y12397D01*
X897Y11018D01*
X1437Y9680D01*
X2091Y8395D01*
X2856Y7172D01*
X3723Y6019D01*
X4688Y4947D01*
X5743Y3963D01*
X6880Y3075D01*
X8089Y2289D01*
X9363Y1612D01*
X10690Y1048D01*
X12062Y602D01*
X13468Y277D01*
X14896Y76D01*
X16336Y1D01*
X16510Y0D01*
X490220Y0D01*
X491652Y176D01*
X493063Y475D01*
X494442Y897D01*
X495780Y1437D01*
X497065Y2091D01*
X498288Y2856D01*
X499441Y3723D01*
X500513Y4688D01*
X501497Y5743D01*
X502385Y6880D01*
X503171Y8089D01*
X503848Y9363D01*
X504412Y10691D01*
X504858Y12062D01*
X505183Y13468D01*
X505384Y14896D01*
X505459Y16337D01*
X505460Y16510D01*
X505460Y482600D01*
X505284Y484032D01*
X504985Y485443D01*
X504563Y486822D01*
X504023Y488160D01*
X503369Y489445D01*
X502604Y490668D01*
X501737Y491821D01*
X500772Y492893D01*
X499717Y493877D01*
X498580Y494765D01*
X497371Y495551D01*
X496097Y496228D01*
X494770Y496792D01*
X493398Y497238D01*
X491992Y497563D01*
X490564Y497764D01*
X489123Y497839D01*
X488950Y497840D01*
X15240Y497840D01*
X13808Y497664D01*
X12397Y497365D01*
X11018Y496943D01*
X9680Y496403D01*
X8395Y495749D01*
X7172Y494984D01*
X6019Y494117D01*
X4947Y493152D01*
X3963Y492097D01*
X3075Y490960D01*
X2289Y489751D01*
X1612Y488477D01*
X1048Y487150D01*
X602Y485778D01*
X277Y484372D01*
X76Y482944D01*
X1Y481504D01*
X0Y481330D01*
X0Y15240D01*
X485140Y130810D02*
X492760Y130810D01*
X492981Y130820D01*
X493201Y130849D01*
X493417Y130897D01*
X493629Y130963D01*
X493833Y131048D01*
X494030Y131150D01*
X494217Y131269D01*
X494393Y131404D01*
X494556Y131554D01*
X494706Y131717D01*
X494841Y131893D01*
X494960Y132080D01*
X495062Y132277D01*
X495147Y132481D01*
X495213Y132693D01*
X495261Y132909D01*
X495290Y133129D01*
X495300Y133350D01*
X495290Y133571D01*
X495261Y133791D01*
X495213Y134007D01*
X495147Y134219D01*
X495062Y134423D01*
X494960Y134620D01*
X494841Y134807D01*
X494706Y134983D01*
X494556Y135146D01*
X494393Y135296D01*
X494217Y135431D01*
X494030Y135550D01*
X493833Y135652D01*
X493629Y135737D01*
X493417Y135803D01*
X493201Y135851D01*
X492981Y135880D01*
X492760Y135890D01*
X485140Y135890D01*
X484919Y135880D01*
X484699Y135851D01*
X484483Y135803D01*
X484271Y135737D01*
X484067Y135652D01*
X483870Y135550D01*
X483683Y135431D01*
X483507Y135296D01*
X483344Y135146D01*
X483194Y134983D01*
X483059Y134807D01*
X482940Y134620D01*
X482838Y134423D01*
X482753Y134219D01*
X482687Y134007D01*
X482639Y133791D01*
X482610Y133571D01*
X482600Y133350D01*
X482610Y133129D01*
X482639Y132909D01*
X482687Y132693D01*
X482753Y132481D01*
X482838Y132277D01*
X482940Y132080D01*
X483059Y131893D01*
X483194Y131717D01*
X483344Y131554D01*
X483507Y131404D01*
X483683Y131269D01*
X483870Y131150D01*
X484067Y131048D01*
X484271Y130963D01*
X484483Y130897D01*
X484699Y130849D01*
X484919Y130820D01*
X485140Y130810D01*
X485140Y196850D02*
X492760Y196850D01*
X492981Y196860D01*
X493201Y196889D01*
X493417Y196937D01*
X493629Y197003D01*
X493833Y197088D01*
X494030Y197190D01*
X494217Y197309D01*
X494393Y197444D01*
X494556Y197594D01*
X494706Y197757D01*
X494841Y197933D01*
X494960Y198120D01*
X495062Y198317D01*
X495147Y198521D01*
X495213Y198733D01*
X495261Y198949D01*
X495290Y199169D01*
X495300Y199390D01*
X495290Y199611D01*
X495261Y199831D01*
X495213Y200047D01*
X495147Y200259D01*
X495062Y200463D01*
X494960Y200660D01*
X494841Y200847D01*
X494706Y201023D01*
X494556Y201186D01*
X494393Y201336D01*
X494217Y201471D01*
X494030Y201590D01*
X493833Y201692D01*
X493629Y201777D01*
X493417Y201843D01*
X493201Y201891D01*
X492981Y201920D01*
X492760Y201930D01*
X485140Y201930D01*
X484919Y201920D01*
X484699Y201891D01*
X484483Y201843D01*
X484271Y201777D01*
X484067Y201692D01*
X483870Y201590D01*
X483683Y201471D01*
X483507Y201336D01*
X483344Y201186D01*
X483194Y201023D01*
X483059Y200847D01*
X482940Y200660D01*
X482838Y200463D01*
X482753Y200259D01*
X482687Y200047D01*
X482639Y199831D01*
X482610Y199611D01*
X482600Y199390D01*
X482610Y199169D01*
X482639Y198949D01*
X482687Y198733D01*
X482753Y198521D01*
X482838Y198317D01*
X482940Y198120D01*
X483059Y197933D01*
X483194Y197757D01*
X483344Y197594D01*
X483507Y197444D01*
X483683Y197309D01*
X483870Y197190D01*
X484067Y197088D01*
X484271Y197003D01*
X484483Y196937D01*
X484699Y196889D01*
X484919Y196860D01*
X485140Y196850D01*
X35320Y476984D02*
X35244Y475916D01*
X35091Y474855D01*
X34863Y473808D01*
X34561Y472780D01*
X34187Y471776D01*
X33742Y470801D01*
X33228Y469861D01*
X32649Y468960D01*
X32007Y468102D01*
X31305Y467292D01*
X30548Y466535D01*
X29738Y465833D01*
X28880Y465191D01*
X27979Y464612D01*
X27039Y464098D01*
X26064Y463653D01*
X25060Y463279D01*
X24032Y462977D01*
X22985Y462749D01*
X21924Y462596D01*
X20856Y462520D01*
X19784Y462520D01*
X18716Y462596D01*
X17655Y462749D01*
X16608Y462977D01*
X15580Y463279D01*
X14576Y463653D01*
X13601Y464098D01*
X12661Y464612D01*
X11760Y465191D01*
X10902Y465833D01*
X10092Y466535D01*
X9335Y467292D01*
X8633Y468102D01*
X7991Y468960D01*
X7412Y469861D01*
X6898Y470801D01*
X6453Y471776D01*
X6079Y472780D01*
X5777Y473808D01*
X5549Y474855D01*
X5396Y475916D01*
X5320Y476984D01*
X5320Y478056D01*
X5396Y479124D01*
X5549Y480185D01*
X5777Y481232D01*
X6079Y482260D01*
X6453Y483264D01*
X6898Y484239D01*
X7412Y485179D01*
X7991Y486080D01*
X8633Y486938D01*
X9335Y487748D01*
X10092Y488505D01*
X10902Y489207D01*
X11760Y489849D01*
X12661Y490428D01*
X13601Y490942D01*
X14576Y491387D01*
X15580Y491761D01*
X16608Y492063D01*
X17655Y492291D01*
X18716Y492444D01*
X19784Y492520D01*
X20856Y492520D01*
X21924Y492444D01*
X22985Y492291D01*
X24032Y492063D01*
X25060Y491761D01*
X26064Y491387D01*
X27039Y490942D01*
X27979Y490428D01*
X28880Y489849D01*
X29738Y489207D01*
X30548Y488505D01*
X31305Y487748D01*
X32007Y486938D01*
X32649Y486080D01*
X33228Y485179D01*
X33742Y484239D01*
X34187Y483264D01*
X34561Y482260D01*
X34863Y481232D01*
X35091Y480185D01*
X35244Y479124D01*
X35320Y478056D01*
X35320Y476984D01*
X36590Y21054D02*
X36514Y19986D01*
X36361Y18925D01*
X36133Y17878D01*
X35831Y16850D01*
X35457Y15846D01*
X35012Y14871D01*
X34498Y13931D01*
X33919Y13030D01*
X33277Y12172D01*
X32575Y11362D01*
X31818Y10605D01*
X31008Y9903D01*
X30150Y9261D01*
X29249Y8682D01*
X28309Y8168D01*
X27334Y7723D01*
X26330Y7349D01*
X25302Y7047D01*
X24255Y6819D01*
X23194Y6666D01*
X22126Y6590D01*
X21054Y6590D01*
X19986Y6666D01*
X18925Y6819D01*
X17878Y7047D01*
X16850Y7349D01*
X15846Y7723D01*
X14871Y8168D01*
X13931Y8682D01*
X13030Y9261D01*
X12172Y9903D01*
X11362Y10605D01*
X10605Y11362D01*
X9903Y12172D01*
X9261Y13030D01*
X8682Y13931D01*
X8168Y14871D01*
X7723Y15846D01*
X7349Y16850D01*
X7047Y17878D01*
X6819Y18925D01*
X6666Y19986D01*
X6590Y21054D01*
X6590Y22126D01*
X6666Y23194D01*
X6819Y24255D01*
X7047Y25302D01*
X7349Y26330D01*
X7723Y27334D01*
X8168Y28309D01*
X8682Y29249D01*
X9261Y30150D01*
X9903Y31008D01*
X10605Y31818D01*
X11362Y32575D01*
X12172Y33277D01*
X13030Y33919D01*
X13931Y34498D01*
X14871Y35012D01*
X15846Y35457D01*
X16850Y35831D01*
X17878Y36133D01*
X18925Y36361D01*
X19986Y36514D01*
X21054Y36590D01*
X22126Y36590D01*
X23194Y36514D01*
X24255Y36361D01*
X25302Y36133D01*
X26330Y35831D01*
X27334Y35457D01*
X28309Y35012D01*
X29249Y34498D01*
X30150Y33919D01*
X31008Y33277D01*
X31818Y32575D01*
X32575Y31818D01*
X33277Y31008D01*
X33919Y30150D01*
X34498Y29249D01*
X35012Y28309D01*
X35457Y27334D01*
X35831Y26330D01*
X36133Y25302D01*
X36361Y24255D01*
X36514Y23194D01*
X36590Y22126D01*
X36590Y21054D01*
X501410Y478254D02*
X501334Y477186D01*
X501181Y476125D01*
X500953Y475078D01*
X500651Y474050D01*
X500277Y473046D01*
X499832Y472071D01*
X499318Y471131D01*
X498739Y470230D01*
X498097Y469372D01*
X497395Y468562D01*
X496638Y467805D01*
X495828Y467103D01*
X494970Y466461D01*
X494069Y465882D01*
X493129Y465368D01*
X492154Y464923D01*
X491150Y464549D01*
X490122Y464247D01*
X489075Y464019D01*
X488014Y463866D01*
X486946Y463790D01*
X485874Y463790D01*
X484806Y463866D01*
X483745Y464019D01*
X482698Y464247D01*
X481670Y464549D01*
X480666Y464923D01*
X479691Y465368D01*
X478751Y465882D01*
X477850Y466461D01*
X476992Y467103D01*
X476182Y467805D01*
X475425Y468562D01*
X474723Y469372D01*
X474081Y470230D01*
X473502Y471131D01*
X472988Y472071D01*
X472543Y473046D01*
X472169Y474050D01*
X471867Y475078D01*
X471639Y476125D01*
X471486Y477186D01*
X471410Y478254D01*
X471410Y479326D01*
X471486Y480394D01*
X471639Y481455D01*
X471867Y482502D01*
X472169Y483530D01*
X472543Y484534D01*
X472988Y485509D01*
X473502Y486449D01*
X474081Y487350D01*
X474723Y488208D01*
X475425Y489018D01*
X476182Y489775D01*
X476992Y490477D01*
X477850Y491119D01*
X478751Y491698D01*
X479691Y492212D01*
X480666Y492657D01*
X481670Y493031D01*
X482698Y493333D01*
X483745Y493561D01*
X484806Y493714D01*
X485874Y493790D01*
X486946Y493790D01*
X488014Y493714D01*
X489075Y493561D01*
X490122Y493333D01*
X491150Y493031D01*
X492154Y492657D01*
X493129Y492212D01*
X494069Y491698D01*
X494970Y491119D01*
X495828Y490477D01*
X496638Y489775D01*
X497395Y489018D01*
X498097Y488208D01*
X498739Y487350D01*
X499318Y486449D01*
X499832Y485509D01*
X500277Y484534D01*
X500651Y483530D01*
X500953Y482502D01*
X501181Y481455D01*
X501334Y480394D01*
X501410Y479326D01*
X501410Y478254D01*
X500140Y19784D02*
X500064Y18716D01*
X499911Y17655D01*
X499683Y16608D01*
X499381Y15580D01*
X499007Y14576D01*
X498562Y13601D01*
X498048Y12661D01*
X497469Y11760D01*
X496827Y10902D01*
X496125Y10092D01*
X495368Y9335D01*
X494558Y8633D01*
X493700Y7991D01*
X492799Y7412D01*
X491859Y6898D01*
X490884Y6453D01*
X489880Y6079D01*
X488852Y5777D01*
X487805Y5549D01*
X486744Y5396D01*
X485676Y5320D01*
X484604Y5320D01*
X483536Y5396D01*
X482475Y5549D01*
X481428Y5777D01*
X480400Y6079D01*
X479396Y6453D01*
X478421Y6898D01*
X477481Y7412D01*
X476580Y7991D01*
X475722Y8633D01*
X474912Y9335D01*
X474155Y10092D01*
X473453Y10902D01*
X472811Y11760D01*
X472232Y12661D01*
X471718Y13601D01*
X471273Y14576D01*
X470899Y15580D01*
X470597Y16608D01*
X470369Y17655D01*
X470216Y18716D01*
X470140Y19784D01*
X470140Y20856D01*
X470216Y21924D01*
X470369Y22985D01*
X470597Y24032D01*
X470899Y25060D01*
X471273Y26064D01*
X471718Y27039D01*
X472232Y27979D01*
X472811Y28880D01*
X473453Y29738D01*
X474155Y30548D01*
X474912Y31305D01*
X475722Y32007D01*
X476580Y32649D01*
X477481Y33228D01*
X478421Y33742D01*
X479396Y34187D01*
X480400Y34561D01*
X481428Y34863D01*
X482475Y35091D01*
X483536Y35244D01*
X484604Y35320D01*
X485676Y35320D01*
X486744Y35244D01*
X487805Y35091D01*
X488852Y34863D01*
X489880Y34561D01*
X490884Y34187D01*
X491859Y33742D01*
X492799Y33228D01*
X493700Y32649D01*
X494558Y32007D01*
X495368Y31305D01*
X496125Y30548D01*
X496827Y29738D01*
X497469Y28880D01*
X498048Y27979D01*
X498562Y27039D01*
X499007Y26064D01*
X499381Y25060D01*
X499683Y24032D01*
X499911Y22985D01*
X500064Y21924D01*
X500140Y20856D01*
X500140Y19784D01*
X269860Y488079D02*
X269939Y487381D01*
X270095Y486697D01*
X270327Y486034D01*
X270631Y485402D01*
X271005Y484808D01*
X271442Y484259D01*
X271939Y483762D01*
X272488Y483325D01*
X273082Y482951D01*
X273714Y482647D01*
X274377Y482415D01*
X275061Y482259D01*
X275759Y482180D01*
X276461Y482180D01*
X277159Y482259D01*
X277843Y482415D01*
X278506Y482647D01*
X279138Y482951D01*
X279732Y483325D01*
X280281Y483762D01*
X280778Y484259D01*
X281215Y484808D01*
X281589Y485402D01*
X281893Y486034D01*
X282125Y486697D01*
X282281Y487381D01*
X282360Y488079D01*
X282360Y488781D01*
X282281Y489479D01*
X282125Y490163D01*
X281893Y490826D01*
X281589Y491458D01*
X281215Y492052D01*
X280778Y492601D01*
X280281Y493098D01*
X279732Y493535D01*
X279138Y493909D01*
X278506Y494213D01*
X277843Y494445D01*
X277159Y494601D01*
X276461Y494680D01*
X275759Y494680D01*
X275061Y494601D01*
X274377Y494445D01*
X273714Y494213D01*
X273082Y493909D01*
X272488Y493535D01*
X271939Y493098D01*
X271442Y492601D01*
X271005Y492052D01*
X270631Y491458D01*
X270327Y490826D01*
X270095Y490163D01*
X269939Y489479D01*
X269860Y488781D01*
X269860Y488079D01*
X189860Y488079D02*
X189939Y487381D01*
X190095Y486697D01*
X190327Y486034D01*
X190631Y485402D01*
X191005Y484808D01*
X191442Y484259D01*
X191939Y483762D01*
X192488Y483325D01*
X193082Y482951D01*
X193714Y482647D01*
X194377Y482415D01*
X195061Y482259D01*
X195759Y482180D01*
X196461Y482180D01*
X197159Y482259D01*
X197843Y482415D01*
X198506Y482647D01*
X199138Y482951D01*
X199732Y483325D01*
X200281Y483762D01*
X200778Y484259D01*
X201215Y484808D01*
X201589Y485402D01*
X201893Y486034D01*
X202125Y486697D01*
X202281Y487381D01*
X202360Y488079D01*
X202360Y488781D01*
X202281Y489479D01*
X202125Y490163D01*
X201893Y490826D01*
X201589Y491458D01*
X201215Y492052D01*
X200778Y492601D01*
X200281Y493098D01*
X199732Y493535D01*
X199138Y493909D01*
X198506Y494213D01*
X197843Y494445D01*
X197159Y494601D01*
X196461Y494680D01*
X195759Y494680D01*
X195061Y494601D01*
X194377Y494445D01*
X193714Y494213D01*
X193082Y493909D01*
X192488Y493535D01*
X191939Y493098D01*
X191442Y492601D01*
X191005Y492052D01*
X190631Y491458D01*
X190327Y490826D01*
X190095Y490163D01*
X189939Y489479D01*
X189860Y488781D01*
X189860Y488079D01*
M02*
