G04 EAGLE Gerber RS-274X export*
G75*
%MOMM*%
%FSLAX34Y34*%
%LPD*%
%INSoldermask Bottom*%
%IPPOS*%
%AMOC8*
5,1,8,0,0,1.08239X$1,22.5*%
G01*
%ADD10C,3.152400*%
%ADD11R,4.635500X2.730500*%
%ADD12R,0.752400X0.752400*%
%ADD13R,1.232400X1.202400*%
%ADD14R,1.652400X2.102400*%
%ADD15R,1.202400X1.232400*%
%ADD16R,2.102400X1.652400*%
%ADD17R,1.422400X2.692400*%
%ADD18R,2.692400X1.422400*%
%ADD19R,0.602400X1.627400*%
%ADD20R,6.352400X2.902400*%
%ADD21R,0.752400X0.852400*%
%ADD22R,0.852400X0.752400*%
%ADD23R,1.752400X1.452400*%
%ADD24R,1.552400X2.152400*%
%ADD25R,1.432400X1.552400*%
%ADD26R,2.102400X1.552400*%
%ADD27R,0.852400X1.552400*%
%ADD28C,1.402400*%
%ADD29R,1.552400X1.152400*%
%ADD30R,2.502400X3.652400*%
%ADD31R,0.760000X0.420000*%
%ADD32R,0.652400X1.002400*%
%ADD33R,1.402400X1.752400*%
%ADD34C,1.219200*%
%ADD35R,5.232400X2.692400*%

G36*
X431112Y34263D02*
X431112Y34263D01*
X431114Y34261D01*
X431505Y34292D01*
X431509Y34296D01*
X431512Y34293D01*
X431894Y34384D01*
X431898Y34389D01*
X431902Y34387D01*
X432264Y34537D01*
X432267Y34542D01*
X432271Y34540D01*
X432605Y34745D01*
X432607Y34750D01*
X432611Y34750D01*
X432910Y35005D01*
X432911Y35010D01*
X432915Y35010D01*
X433170Y35309D01*
X433171Y35315D01*
X433175Y35315D01*
X433380Y35649D01*
X433379Y35655D01*
X433384Y35656D01*
X433534Y36018D01*
X433533Y36020D01*
X433534Y36020D01*
X433532Y36023D01*
X433532Y36024D01*
X433536Y36026D01*
X433627Y36408D01*
X433625Y36413D01*
X433627Y36414D01*
X433628Y36415D01*
X433659Y36806D01*
X433657Y36809D01*
X433659Y36810D01*
X433659Y53510D01*
X433657Y53512D01*
X433659Y53514D01*
X433628Y53905D01*
X433624Y53909D01*
X433627Y53912D01*
X433536Y54294D01*
X433531Y54298D01*
X433534Y54302D01*
X433384Y54664D01*
X433378Y54667D01*
X433380Y54671D01*
X433175Y55005D01*
X433170Y55007D01*
X433170Y55011D01*
X432915Y55310D01*
X432910Y55311D01*
X432910Y55315D01*
X432611Y55570D01*
X432605Y55571D01*
X432605Y55575D01*
X432271Y55780D01*
X432265Y55779D01*
X432264Y55784D01*
X431902Y55934D01*
X431896Y55932D01*
X431894Y55936D01*
X431512Y56027D01*
X431505Y56024D01*
X431501Y56028D01*
X414710Y56059D01*
X414708Y56057D01*
X414706Y56059D01*
X414315Y56028D01*
X414311Y56024D01*
X414308Y56027D01*
X413926Y55936D01*
X413922Y55931D01*
X413918Y55934D01*
X413556Y55784D01*
X413553Y55778D01*
X413549Y55780D01*
X413215Y55575D01*
X413213Y55570D01*
X413209Y55570D01*
X412910Y55315D01*
X412909Y55310D01*
X412905Y55310D01*
X412650Y55011D01*
X412649Y55005D01*
X412645Y55005D01*
X412440Y54671D01*
X412441Y54666D01*
X412439Y54665D01*
X412437Y54664D01*
X412287Y54302D01*
X412288Y54296D01*
X412284Y54294D01*
X412193Y53912D01*
X412195Y53907D01*
X412192Y53905D01*
X412161Y53514D01*
X412163Y53511D01*
X412161Y53510D01*
X412161Y36810D01*
X412163Y36808D01*
X412161Y36806D01*
X412192Y36415D01*
X412196Y36411D01*
X412193Y36408D01*
X412284Y36026D01*
X412289Y36022D01*
X412287Y36018D01*
X412437Y35656D01*
X412442Y35653D01*
X412440Y35649D01*
X412645Y35315D01*
X412650Y35313D01*
X412650Y35309D01*
X412905Y35010D01*
X412910Y35009D01*
X412910Y35005D01*
X413209Y34750D01*
X413215Y34749D01*
X413215Y34745D01*
X413549Y34540D01*
X413555Y34541D01*
X413556Y34537D01*
X413918Y34387D01*
X413924Y34388D01*
X413926Y34384D01*
X414308Y34293D01*
X414315Y34297D01*
X414319Y34292D01*
X431110Y34261D01*
X431112Y34263D01*
G37*
G36*
X431112Y78563D02*
X431112Y78563D01*
X431114Y78561D01*
X431505Y78592D01*
X431509Y78596D01*
X431512Y78593D01*
X431894Y78684D01*
X431898Y78689D01*
X431902Y78687D01*
X432264Y78837D01*
X432267Y78842D01*
X432271Y78840D01*
X432605Y79045D01*
X432607Y79050D01*
X432611Y79050D01*
X432910Y79305D01*
X432911Y79310D01*
X432915Y79310D01*
X433170Y79609D01*
X433171Y79615D01*
X433175Y79615D01*
X433380Y79949D01*
X433379Y79955D01*
X433384Y79956D01*
X433534Y80318D01*
X433533Y80320D01*
X433534Y80320D01*
X433532Y80323D01*
X433532Y80324D01*
X433536Y80326D01*
X433627Y80708D01*
X433625Y80713D01*
X433627Y80714D01*
X433628Y80715D01*
X433659Y81106D01*
X433657Y81109D01*
X433659Y81110D01*
X433659Y97810D01*
X433657Y97812D01*
X433659Y97814D01*
X433628Y98205D01*
X433624Y98209D01*
X433627Y98212D01*
X433536Y98594D01*
X433531Y98598D01*
X433534Y98602D01*
X433384Y98964D01*
X433378Y98967D01*
X433380Y98971D01*
X433175Y99305D01*
X433170Y99307D01*
X433170Y99311D01*
X432915Y99610D01*
X432910Y99611D01*
X432910Y99615D01*
X432611Y99870D01*
X432605Y99871D01*
X432605Y99875D01*
X432271Y100080D01*
X432265Y100079D01*
X432264Y100084D01*
X431902Y100234D01*
X431896Y100232D01*
X431894Y100236D01*
X431512Y100327D01*
X431505Y100324D01*
X431501Y100328D01*
X414710Y100359D01*
X414708Y100357D01*
X414706Y100359D01*
X414315Y100328D01*
X414311Y100324D01*
X414308Y100327D01*
X413926Y100236D01*
X413922Y100231D01*
X413918Y100234D01*
X413556Y100084D01*
X413553Y100078D01*
X413549Y100080D01*
X413215Y99875D01*
X413213Y99870D01*
X413209Y99870D01*
X412910Y99615D01*
X412909Y99610D01*
X412905Y99610D01*
X412650Y99311D01*
X412649Y99305D01*
X412645Y99305D01*
X412440Y98971D01*
X412441Y98966D01*
X412439Y98965D01*
X412437Y98964D01*
X412287Y98602D01*
X412288Y98596D01*
X412284Y98594D01*
X412193Y98212D01*
X412195Y98207D01*
X412192Y98205D01*
X412161Y97814D01*
X412163Y97811D01*
X412161Y97810D01*
X412161Y81110D01*
X412163Y81108D01*
X412161Y81106D01*
X412192Y80715D01*
X412196Y80711D01*
X412193Y80708D01*
X412284Y80326D01*
X412289Y80322D01*
X412287Y80318D01*
X412437Y79956D01*
X412442Y79953D01*
X412440Y79949D01*
X412645Y79615D01*
X412650Y79613D01*
X412650Y79609D01*
X412905Y79310D01*
X412910Y79309D01*
X412910Y79305D01*
X413209Y79050D01*
X413215Y79049D01*
X413215Y79045D01*
X413549Y78840D01*
X413555Y78841D01*
X413556Y78837D01*
X413918Y78687D01*
X413924Y78688D01*
X413926Y78684D01*
X414308Y78593D01*
X414315Y78597D01*
X414319Y78592D01*
X431110Y78561D01*
X431112Y78563D01*
G37*
G36*
X99898Y383088D02*
X99898Y383088D01*
X99956Y383100D01*
X99968Y383108D01*
X99974Y383110D01*
X99981Y383118D01*
X100016Y383144D01*
X106516Y389644D01*
X106541Y389690D01*
X106547Y389696D01*
X106547Y389700D01*
X106578Y389747D01*
X106580Y389761D01*
X106583Y389766D01*
X106583Y389777D01*
X106589Y389820D01*
X106589Y393920D01*
X106584Y393936D01*
X106587Y393953D01*
X106565Y394003D01*
X106550Y394054D01*
X106537Y394065D01*
X106530Y394081D01*
X106485Y394111D01*
X106445Y394146D01*
X106428Y394149D01*
X106414Y394158D01*
X106340Y394169D01*
X64090Y394169D01*
X64074Y394164D01*
X64057Y394167D01*
X64007Y394145D01*
X63956Y394130D01*
X63945Y394117D01*
X63929Y394110D01*
X63899Y394065D01*
X63864Y394025D01*
X63861Y394008D01*
X63852Y393994D01*
X63841Y393920D01*
X63841Y383320D01*
X63846Y383304D01*
X63843Y383287D01*
X63865Y383237D01*
X63880Y383186D01*
X63893Y383175D01*
X63900Y383159D01*
X63945Y383129D01*
X63985Y383094D01*
X64002Y383091D01*
X64017Y383082D01*
X64090Y383071D01*
X99840Y383071D01*
X99898Y383088D01*
G37*
G36*
X85149Y292181D02*
X85149Y292181D01*
X85150Y292180D01*
X86278Y292216D01*
X86282Y292219D01*
X86284Y292216D01*
X86409Y292236D01*
X86414Y292242D01*
X86418Y292239D01*
X86945Y292436D01*
X86951Y292446D01*
X86958Y292444D01*
X87395Y292790D01*
X87399Y292805D01*
X87402Y292807D01*
X87400Y292809D01*
X87400Y292810D01*
X87412Y292814D01*
X87424Y292856D01*
X87439Y292905D01*
X87454Y292955D01*
X87468Y293004D01*
X87571Y293349D01*
X87572Y293352D01*
X87570Y293358D01*
X87574Y293361D01*
X87629Y293923D01*
X87628Y293925D01*
X87629Y293926D01*
X87690Y295619D01*
X87690Y295620D01*
X87787Y301827D01*
X87860Y302364D01*
X88216Y302776D01*
X88641Y303120D01*
X89176Y303239D01*
X89733Y303284D01*
X92554Y303352D01*
X92555Y303353D01*
X92556Y303353D01*
X93119Y303385D01*
X93121Y303386D01*
X93122Y303385D01*
X93683Y303447D01*
X93702Y303466D01*
X93716Y303465D01*
X94047Y303883D01*
X94048Y303917D01*
X94056Y303928D01*
X93898Y304468D01*
X93896Y304470D01*
X93897Y304471D01*
X93700Y305001D01*
X92064Y309211D01*
X91092Y311861D01*
X91090Y311862D01*
X91091Y311863D01*
X90202Y313939D01*
X88090Y319175D01*
X87446Y320742D01*
X87445Y320743D01*
X87218Y321246D01*
X87193Y321260D01*
X87191Y321261D01*
X87194Y321281D01*
X86808Y321659D01*
X86791Y321661D01*
X86787Y321671D01*
X86250Y321823D01*
X86241Y321820D01*
X86238Y321825D01*
X85109Y321851D01*
X85108Y321851D01*
X82285Y321863D01*
X82284Y321862D01*
X82283Y321863D01*
X81155Y321833D01*
X81152Y321831D01*
X81151Y321833D01*
X80590Y321773D01*
X80582Y321766D01*
X80576Y321769D01*
X80065Y321554D01*
X80048Y321525D01*
X80036Y321520D01*
X79915Y320982D01*
X79922Y320966D01*
X79916Y320957D01*
X80078Y320419D01*
X80082Y320417D01*
X80080Y320414D01*
X83227Y313163D01*
X83439Y312642D01*
X83628Y312115D01*
X83725Y311574D01*
X83641Y311046D01*
X83273Y310653D01*
X82791Y310384D01*
X81745Y309969D01*
X81743Y309967D01*
X81741Y309968D01*
X81233Y309723D01*
X81232Y309721D01*
X81230Y309721D01*
X80742Y309437D01*
X80739Y309431D01*
X80734Y309432D01*
X80315Y309057D01*
X80313Y309049D01*
X80308Y309049D01*
X79974Y308594D01*
X79974Y308590D01*
X79971Y308589D01*
X79694Y308098D01*
X79694Y308095D01*
X79692Y308094D01*
X79457Y307580D01*
X79458Y307578D01*
X79456Y307577D01*
X79263Y307046D01*
X79265Y307040D01*
X79261Y307038D01*
X79158Y306484D01*
X79160Y306480D01*
X79157Y306479D01*
X79116Y305916D01*
X79117Y305914D01*
X79116Y305913D01*
X79062Y303656D01*
X79062Y303655D01*
X79035Y300267D01*
X79027Y295750D01*
X79027Y295749D01*
X79055Y294056D01*
X79056Y294055D01*
X79055Y294054D01*
X79080Y293490D01*
X79082Y293488D01*
X79080Y293486D01*
X79145Y292927D01*
X79158Y292913D01*
X79155Y292902D01*
X79500Y292468D01*
X79520Y292463D01*
X79524Y292452D01*
X80054Y292289D01*
X80063Y292292D01*
X80067Y292287D01*
X81759Y292215D01*
X81759Y292216D01*
X81760Y292215D01*
X83453Y292185D01*
X83454Y292185D01*
X85148Y292180D01*
X85149Y292181D01*
G37*
G36*
X164083Y298687D02*
X164083Y298687D01*
X164083Y298688D01*
X164084Y298687D01*
X164623Y298701D01*
X164623Y298702D01*
X164624Y298701D01*
X165751Y298752D01*
X165756Y298756D01*
X165759Y298753D01*
X166310Y298869D01*
X166319Y298880D01*
X166328Y298877D01*
X166788Y299198D01*
X166790Y299204D01*
X166795Y299204D01*
X167191Y299606D01*
X167192Y299613D01*
X167197Y299613D01*
X167504Y300085D01*
X167504Y300094D01*
X167510Y300096D01*
X167686Y300631D01*
X167684Y300638D01*
X167688Y300641D01*
X167756Y301201D01*
X167755Y301203D01*
X167756Y301204D01*
X167786Y301768D01*
X167786Y301769D01*
X167786Y301770D01*
X167833Y304027D01*
X167832Y304028D01*
X167833Y304028D01*
X167827Y307981D01*
X167797Y312498D01*
X167793Y312504D01*
X167796Y312508D01*
X167685Y313047D01*
X167677Y313054D01*
X167680Y313061D01*
X167404Y313553D01*
X167400Y313555D01*
X167401Y313559D01*
X167063Y314011D01*
X167058Y314012D01*
X167058Y314016D01*
X166657Y314413D01*
X166650Y314414D01*
X166650Y314419D01*
X166182Y314732D01*
X166164Y314730D01*
X166158Y314740D01*
X163372Y314964D01*
X163370Y314962D01*
X163369Y314964D01*
X161675Y314982D01*
X161675Y314981D01*
X161675Y314982D01*
X158287Y314980D01*
X158287Y314979D01*
X158286Y314980D01*
X154334Y314924D01*
X154333Y314923D01*
X154333Y314924D01*
X153769Y314894D01*
X153766Y314891D01*
X153763Y314894D01*
X153208Y314800D01*
X153199Y314791D01*
X153192Y314795D01*
X152703Y314518D01*
X152700Y314511D01*
X152694Y314512D01*
X152281Y314127D01*
X152280Y314123D01*
X152278Y314123D01*
X151906Y313699D01*
X151905Y313693D01*
X151901Y313692D01*
X151605Y313212D01*
X151606Y313209D01*
X151605Y313208D01*
X151606Y313207D01*
X151606Y313203D01*
X151600Y313201D01*
X151440Y312662D01*
X151443Y312655D01*
X151439Y312652D01*
X151393Y312090D01*
X151394Y312088D01*
X151393Y312088D01*
X151348Y310959D01*
X151348Y310958D01*
X151327Y309829D01*
X151328Y309829D01*
X151327Y309829D01*
X151308Y306441D01*
X151308Y306440D01*
X151323Y303053D01*
X151324Y303052D01*
X151323Y303051D01*
X151358Y301923D01*
X151359Y301922D01*
X151359Y301921D01*
X151400Y301358D01*
X151402Y301356D01*
X151400Y301355D01*
X151480Y300796D01*
X151484Y300791D01*
X151481Y300788D01*
X151648Y300250D01*
X151656Y300244D01*
X151654Y300238D01*
X151964Y299768D01*
X151971Y299766D01*
X151970Y299761D01*
X152351Y299362D01*
X152366Y299359D01*
X152367Y299347D01*
X152373Y299347D01*
X152373Y299341D01*
X152798Y298991D01*
X152811Y298990D01*
X152813Y298982D01*
X153343Y298798D01*
X153351Y298800D01*
X153354Y298795D01*
X153914Y298729D01*
X153917Y298731D01*
X153919Y298729D01*
X155612Y298694D01*
X155613Y298694D01*
X158436Y298669D01*
X161824Y298666D01*
X161825Y298666D01*
X164083Y298687D01*
G37*
G36*
X102545Y292110D02*
X102545Y292110D01*
X102550Y292114D01*
X102554Y292111D01*
X102944Y292194D01*
X102948Y292198D01*
X102951Y292196D01*
X103480Y292391D01*
X103487Y292403D01*
X103496Y292401D01*
X103904Y292773D01*
X103908Y292795D01*
X103919Y292800D01*
X104030Y293351D01*
X104028Y293355D01*
X104028Y293356D01*
X104031Y293357D01*
X104063Y293921D01*
X104062Y293923D01*
X104063Y293923D01*
X104106Y296746D01*
X104105Y296746D01*
X104106Y296747D01*
X104114Y299570D01*
X104106Y316509D01*
X104080Y320461D01*
X104074Y320469D01*
X104078Y320474D01*
X103931Y321015D01*
X103920Y321023D01*
X103922Y321032D01*
X103574Y321471D01*
X103560Y321475D01*
X103558Y321484D01*
X103064Y321749D01*
X103050Y321747D01*
X103046Y321754D01*
X102485Y321808D01*
X102483Y321807D01*
X102482Y321808D01*
X101918Y321825D01*
X101917Y321825D01*
X100788Y321841D01*
X100787Y321840D01*
X100787Y321841D01*
X98529Y321838D01*
X98528Y321837D01*
X98528Y321838D01*
X96834Y321800D01*
X96829Y321796D01*
X96826Y321799D01*
X96287Y321691D01*
X96286Y321689D01*
X96283Y321689D01*
X96281Y321683D01*
X96274Y321676D01*
X96260Y321681D01*
X96257Y321675D01*
X96251Y321678D01*
X95765Y321424D01*
X95756Y321406D01*
X95744Y321404D01*
X95472Y320920D01*
X95473Y320916D01*
X95471Y320914D01*
X95474Y320911D01*
X95474Y320906D01*
X95467Y320902D01*
X95392Y320344D01*
X95394Y320340D01*
X95391Y320339D01*
X95311Y317517D01*
X95312Y317516D01*
X95311Y317516D01*
X95248Y311871D01*
X95212Y311330D01*
X94841Y310930D01*
X94025Y310152D01*
X94022Y310137D01*
X94013Y310130D01*
X94011Y310129D01*
X93889Y309667D01*
X93897Y309647D01*
X93891Y309636D01*
X97183Y301223D01*
X100529Y292831D01*
X100537Y292827D01*
X100535Y292820D01*
X100855Y292386D01*
X100874Y292380D01*
X100878Y292369D01*
X101405Y292172D01*
X101412Y292174D01*
X101415Y292169D01*
X101973Y292090D01*
X101979Y292093D01*
X101982Y292090D01*
X102545Y292110D01*
G37*
G36*
X123449Y292163D02*
X123449Y292163D01*
X123460Y292171D01*
X123467Y292166D01*
X124004Y292388D01*
X124013Y292404D01*
X124024Y292404D01*
X124363Y292853D01*
X124363Y292859D01*
X124367Y292859D01*
X124634Y293356D01*
X124634Y293358D01*
X124635Y293359D01*
X124877Y293869D01*
X124877Y293871D01*
X124878Y293872D01*
X125086Y294397D01*
X125085Y294399D01*
X125087Y294400D01*
X125260Y294937D01*
X125260Y294939D01*
X125261Y294939D01*
X125403Y295486D01*
X125402Y295488D01*
X125404Y295489D01*
X125513Y296042D01*
X125513Y296044D01*
X125514Y296045D01*
X125596Y296604D01*
X125595Y296606D01*
X125596Y296606D01*
X125648Y297168D01*
X125646Y297171D01*
X125648Y297173D01*
X125648Y297737D01*
X125645Y297741D01*
X125648Y297743D01*
X125577Y298302D01*
X125572Y298307D01*
X125575Y298311D01*
X125408Y298849D01*
X125401Y298854D01*
X125404Y298859D01*
X125121Y299347D01*
X125116Y299349D01*
X125117Y299353D01*
X124059Y300675D01*
X124058Y300675D01*
X122258Y302850D01*
X122257Y302850D01*
X121067Y304265D01*
X117923Y308436D01*
X117920Y308437D01*
X117920Y308440D01*
X110819Y316322D01*
X110806Y316325D01*
X110800Y316336D01*
X110790Y316329D01*
X110782Y316329D01*
X110761Y316333D01*
X110756Y316310D01*
X110749Y316304D01*
X110746Y316304D01*
X110743Y316300D01*
X110737Y316296D01*
X110733Y316293D01*
X110733Y316284D01*
X110462Y315862D01*
X110463Y315848D01*
X110455Y315843D01*
X110458Y315840D01*
X110454Y315837D01*
X110425Y315020D01*
X110428Y315016D01*
X110425Y315013D01*
X110479Y314452D01*
X110481Y314449D01*
X110479Y314447D01*
X110590Y313893D01*
X110592Y313891D01*
X110591Y313889D01*
X110749Y313347D01*
X110752Y313345D01*
X110751Y313343D01*
X110962Y312819D01*
X110966Y312817D01*
X110965Y312813D01*
X111244Y312323D01*
X111247Y312322D01*
X111246Y312320D01*
X111567Y311855D01*
X111568Y311855D01*
X111568Y311853D01*
X112255Y310957D01*
X112256Y310957D01*
X112256Y310956D01*
X120504Y300930D01*
X120782Y300465D01*
X120763Y299935D01*
X120437Y299526D01*
X119925Y299456D01*
X115976Y299426D01*
X111459Y299367D01*
X111458Y299366D01*
X111458Y299367D01*
X110894Y299348D01*
X110889Y299344D01*
X110885Y299347D01*
X110336Y299228D01*
X110325Y299215D01*
X110314Y299217D01*
X109891Y298860D01*
X109887Y298842D01*
X109876Y298838D01*
X109693Y298307D01*
X109696Y298299D01*
X109691Y298296D01*
X109639Y297734D01*
X109641Y297732D01*
X109639Y297730D01*
X109622Y296037D01*
X109623Y296036D01*
X109622Y296036D01*
X109646Y293777D01*
X109648Y293774D01*
X109646Y293772D01*
X109706Y293212D01*
X109716Y293202D01*
X109712Y293193D01*
X109994Y292708D01*
X110007Y292702D01*
X110007Y292693D01*
X110455Y292357D01*
X110469Y292357D01*
X110472Y292348D01*
X111015Y292208D01*
X111023Y292212D01*
X111027Y292207D01*
X113285Y292168D01*
X113285Y292169D01*
X113285Y292168D01*
X117238Y292142D01*
X121190Y292140D01*
X121191Y292140D01*
X123449Y292163D01*
G37*
G36*
X124011Y303713D02*
X124011Y303713D01*
X124045Y303716D01*
X124345Y304194D01*
X124343Y304219D01*
X124346Y304222D01*
X124344Y304225D01*
X124351Y304235D01*
X124029Y305317D01*
X124028Y305318D01*
X124028Y305319D01*
X123092Y307982D01*
X123092Y307983D01*
X122112Y310631D01*
X118531Y320142D01*
X118530Y320143D01*
X118110Y321192D01*
X118102Y321196D01*
X118104Y321202D01*
X117775Y321649D01*
X117753Y321655D01*
X117749Y321667D01*
X117212Y321820D01*
X117204Y321817D01*
X117203Y321817D01*
X117200Y321822D01*
X116071Y321851D01*
X116070Y321851D01*
X113247Y321860D01*
X113246Y321859D01*
X113245Y321860D01*
X112117Y321823D01*
X112114Y321821D01*
X112113Y321823D01*
X111552Y321764D01*
X111544Y321757D01*
X111538Y321760D01*
X111023Y321547D01*
X111015Y321533D01*
X111004Y321533D01*
X110652Y321097D01*
X110652Y321083D01*
X110643Y321079D01*
X110606Y320944D01*
X110593Y320895D01*
X110539Y320698D01*
X110526Y320649D01*
X110512Y320599D01*
X110496Y320538D01*
X110500Y320527D01*
X110494Y320522D01*
X110528Y319961D01*
X110534Y319953D01*
X110530Y319948D01*
X110711Y319414D01*
X110719Y319409D01*
X110717Y319403D01*
X111031Y318935D01*
X111034Y318934D01*
X111033Y318931D01*
X112087Y317605D01*
X113163Y316296D01*
X113164Y316296D01*
X113163Y316296D01*
X116069Y312837D01*
X121202Y306825D01*
X122688Y305124D01*
X122689Y305124D01*
X122689Y305123D01*
X122831Y304969D01*
X122918Y304873D01*
X123220Y304407D01*
X123228Y304404D01*
X123227Y304398D01*
X123891Y303751D01*
X123894Y303751D01*
X123894Y303749D01*
X123900Y303750D01*
X123950Y303744D01*
X123953Y303762D01*
X123958Y303763D01*
X123956Y303755D01*
X123965Y303733D01*
X123967Y303709D01*
X123975Y303710D01*
X123979Y303700D01*
X124011Y303713D01*
G37*
%LPC*%
G36*
X159644Y302724D02*
X159644Y302724D01*
X158528Y302738D01*
X157403Y302776D01*
X157117Y302822D01*
X156606Y303029D01*
X156170Y303362D01*
X155831Y303800D01*
X155562Y304287D01*
X155367Y304793D01*
X155367Y308730D01*
X155485Y309254D01*
X155741Y309747D01*
X156050Y310207D01*
X156468Y310564D01*
X156964Y310802D01*
X157507Y310913D01*
X158066Y310949D01*
X159193Y310970D01*
X160321Y310966D01*
X160885Y310958D01*
X162004Y310902D01*
X162512Y310709D01*
X162986Y310423D01*
X163369Y310030D01*
X163639Y309549D01*
X163804Y309024D01*
X163845Y307338D01*
X163848Y305081D01*
X163834Y304530D01*
X163590Y304036D01*
X163303Y303559D01*
X162924Y303161D01*
X162442Y302900D01*
X161905Y302770D01*
X161348Y302731D01*
X159668Y302724D01*
X159662Y302719D01*
X159662Y302720D01*
X159651Y302714D01*
X159644Y302724D01*
G37*
%LPD*%
%LPC*%
G36*
X151652Y312229D02*
X151652Y312229D01*
X151718Y312781D01*
X151768Y312899D01*
X151697Y312570D01*
X151699Y312566D01*
X151696Y312564D01*
X151627Y311771D01*
X151652Y312229D01*
G37*
%LPD*%
%LPC*%
G36*
X123674Y292509D02*
X123674Y292509D01*
X123593Y292447D01*
X123274Y292420D01*
X123674Y292509D01*
G37*
%LPD*%
%LPC*%
G36*
X117572Y321408D02*
X117572Y321408D01*
X117788Y321291D01*
X117827Y321202D01*
X117829Y321199D01*
X117572Y321408D01*
G37*
%LPD*%
%LPC*%
G36*
X110303Y298924D02*
X110303Y298924D01*
X110539Y298999D01*
X110247Y298845D01*
X110303Y298924D01*
G37*
%LPD*%
%LPC*%
G36*
X110815Y299086D02*
X110815Y299086D01*
X111371Y299119D01*
X111436Y299120D01*
X111203Y299108D01*
X111201Y299106D01*
X111200Y299108D01*
X110722Y299057D01*
X110815Y299086D01*
G37*
%LPD*%
%LPC*%
G36*
X117906Y321025D02*
X117906Y321025D01*
X118009Y320792D01*
X118209Y320265D01*
X118257Y320138D01*
X117906Y321025D01*
G37*
%LPD*%
%LPC*%
G36*
X166720Y299476D02*
X166720Y299476D01*
X166480Y299257D01*
X166401Y299223D01*
X166720Y299476D01*
G37*
%LPD*%
%LPC*%
G36*
X109914Y293457D02*
X109914Y293457D01*
X109905Y293623D01*
X109954Y293366D01*
X109914Y293457D01*
G37*
%LPD*%
%LPC*%
G36*
X123245Y292418D02*
X123245Y292418D01*
X123050Y292402D01*
X122698Y292401D01*
X123245Y292418D01*
G37*
%LPD*%
%LPC*%
G36*
X155173Y309140D02*
X155173Y309140D01*
X155208Y309203D01*
X155170Y309021D01*
X155173Y309140D01*
G37*
%LPD*%
%LPC*%
G36*
X110000Y298495D02*
X110000Y298495D01*
X110034Y298544D01*
X109983Y298403D01*
X110000Y298495D01*
G37*
%LPD*%
%LPC*%
G36*
X154143Y298974D02*
X154143Y298974D01*
X154026Y298985D01*
X154252Y298971D01*
X154143Y298974D01*
G37*
%LPD*%
%LPC*%
G36*
X167452Y300847D02*
X167452Y300847D01*
X167412Y300588D01*
X167407Y300576D01*
X167452Y300847D01*
G37*
%LPD*%
%LPC*%
G36*
X166124Y299105D02*
X166124Y299105D01*
X165980Y299044D01*
X165965Y299042D01*
X166124Y299105D01*
G37*
%LPD*%
%LPC*%
G36*
X80167Y321084D02*
X80167Y321084D01*
X80183Y321106D01*
X80174Y321056D01*
X80167Y321084D01*
G37*
%LPD*%
%LPC*%
G36*
X111202Y321364D02*
X111202Y321364D01*
X111291Y321392D01*
X111195Y321355D01*
X111202Y321364D01*
G37*
%LPD*%
%LPC*%
G36*
X152942Y299203D02*
X152942Y299203D01*
X152922Y299219D01*
X152974Y299193D01*
X152942Y299203D01*
G37*
%LPD*%
%LPC*%
G36*
X110863Y320944D02*
X110863Y320944D01*
X110865Y320952D01*
X110915Y321012D01*
X110863Y320943D01*
X110863Y320944D01*
G37*
%LPD*%
%LPC*%
G36*
X93790Y303889D02*
X93790Y303889D01*
X93792Y303882D01*
X93761Y303866D01*
X93790Y303889D01*
G37*
%LPD*%
%LPC*%
G36*
X110805Y319885D02*
X110805Y319885D01*
X110801Y319917D01*
X110814Y319866D01*
X110805Y319885D01*
G37*
%LPD*%
%LPC*%
G36*
X151852Y300423D02*
X151852Y300423D01*
X151846Y300448D01*
X151866Y300400D01*
X151852Y300423D01*
G37*
%LPD*%
%LPC*%
G36*
X100826Y292751D02*
X100826Y292751D01*
X100821Y292762D01*
X100836Y292745D01*
X100826Y292751D01*
G37*
%LPD*%
%LPC*%
G36*
X153080Y314471D02*
X153080Y314471D01*
X153099Y314476D01*
X153071Y314464D01*
X153080Y314471D01*
G37*
%LPD*%
%LPC*%
G36*
X117830Y321187D02*
X117830Y321187D01*
X117831Y321195D01*
X117836Y321183D01*
X117830Y321187D01*
G37*
%LPD*%
%LPC*%
G36*
X123267Y292423D02*
X123267Y292423D01*
X123270Y292420D01*
X123267Y292420D01*
X123262Y292419D01*
X123267Y292423D01*
G37*
%LPD*%
%LPC*%
G36*
X166893Y299637D02*
X166893Y299637D01*
X166887Y299628D01*
X166882Y299624D01*
X166893Y299637D01*
G37*
%LPD*%
%LPC*%
G36*
X152132Y299950D02*
X152132Y299950D01*
X152129Y299956D01*
X152138Y299944D01*
X152132Y299950D01*
G37*
%LPD*%
%LPC*%
G36*
X124012Y292767D02*
X124012Y292767D01*
X124012Y292766D01*
X124012Y292767D01*
G37*
%LPD*%
D10*
X20320Y477520D03*
X21590Y21590D03*
X486410Y478790D03*
X485140Y20320D03*
D11*
X369253Y16828D03*
D12*
X28020Y397510D03*
X38020Y397510D03*
D13*
X459740Y404990D03*
X459740Y387490D03*
X273050Y64910D03*
X273050Y82410D03*
D14*
X290830Y59910D03*
X290830Y87410D03*
D12*
X38020Y386080D03*
X28020Y386080D03*
X128270Y362030D03*
X128270Y372030D03*
D13*
X233680Y119520D03*
X233680Y137020D03*
X476250Y87490D03*
X476250Y69990D03*
D14*
X458470Y92490D03*
X458470Y64990D03*
X215900Y114520D03*
X215900Y142020D03*
D13*
X429260Y122060D03*
X429260Y139560D03*
D14*
X411480Y115790D03*
X411480Y143290D03*
D13*
X252730Y119520D03*
X252730Y137020D03*
X316230Y130670D03*
X316230Y113170D03*
X337820Y147460D03*
X337820Y164960D03*
D15*
X337680Y344170D03*
X320180Y344170D03*
D16*
X342680Y363220D03*
X315180Y363220D03*
D13*
X119380Y131940D03*
X119380Y114440D03*
D14*
X373380Y265210D03*
X373380Y237710D03*
X392430Y265210D03*
X392430Y237710D03*
D13*
X410210Y283070D03*
X410210Y265570D03*
D15*
X139560Y147320D03*
X122060Y147320D03*
D17*
X83820Y476250D03*
X109220Y476250D03*
X134620Y476250D03*
X58420Y476250D03*
D18*
X490220Y288290D03*
X490220Y262890D03*
X490220Y237490D03*
X490220Y313690D03*
D19*
X371770Y363390D03*
X378270Y363390D03*
X384770Y363390D03*
X391270Y363390D03*
X397770Y363390D03*
X404270Y363390D03*
X410770Y363390D03*
X417270Y363390D03*
X423770Y363390D03*
X430270Y363390D03*
X436770Y363390D03*
X443270Y363390D03*
X449770Y363390D03*
X456270Y363390D03*
X456270Y304630D03*
X449770Y304630D03*
X443270Y304630D03*
X436770Y304630D03*
X430270Y304630D03*
X423770Y304630D03*
X417270Y304630D03*
X410770Y304630D03*
X404270Y304630D03*
X397770Y304630D03*
X391270Y304630D03*
X384770Y304630D03*
X378270Y304630D03*
X371770Y304630D03*
D20*
X414020Y334010D03*
D21*
X361870Y157480D03*
X351870Y157480D03*
D22*
X381000Y145970D03*
X381000Y135970D03*
X394970Y121840D03*
X394970Y111840D03*
X394970Y143430D03*
X394970Y133430D03*
X429260Y283130D03*
X429260Y273130D03*
X445770Y261540D03*
X445770Y251540D03*
X445770Y283130D03*
X445770Y273130D03*
X443230Y402510D03*
X443230Y392510D03*
D21*
X431880Y233680D03*
X441880Y233680D03*
X421560Y252730D03*
X411560Y252730D03*
D22*
X133350Y122000D03*
X133350Y132000D03*
D21*
X163750Y144780D03*
X153750Y144780D03*
X124540Y161290D03*
X134540Y161290D03*
D22*
X195580Y114380D03*
X195580Y124380D03*
X184150Y124380D03*
X184150Y114380D03*
D21*
X194230Y140970D03*
X184230Y140970D03*
D23*
X88900Y84430D03*
X88900Y65430D03*
D22*
X241300Y345520D03*
X241300Y355520D03*
X252730Y345520D03*
X252730Y355520D03*
X200660Y345520D03*
X200660Y355520D03*
X264160Y345520D03*
X264160Y355520D03*
X189230Y345520D03*
X189230Y355520D03*
D21*
X434420Y469900D03*
X444420Y469900D03*
X444420Y482600D03*
X434420Y482600D03*
D22*
X330200Y120730D03*
X330200Y130730D03*
D21*
X361870Y146050D03*
X351870Y146050D03*
D24*
X324110Y484430D03*
X166110Y484430D03*
D25*
X165510Y388430D03*
D26*
X315360Y388430D03*
D27*
X267110Y379730D03*
X256110Y379730D03*
X245110Y379730D03*
X234110Y379730D03*
X223110Y379730D03*
X212110Y379730D03*
X201110Y379730D03*
X190110Y379730D03*
X179110Y379730D03*
D28*
X276110Y488430D03*
X196110Y488430D03*
D29*
X436040Y431800D03*
X458040Y422300D03*
X458040Y441300D03*
D30*
X319310Y66020D03*
X379810Y66020D03*
X125000Y67290D03*
X185500Y67290D03*
D31*
X164830Y128150D03*
X164830Y123150D03*
X164830Y118150D03*
X164830Y113150D03*
X150130Y113150D03*
X150130Y118150D03*
X150130Y123150D03*
X150130Y128150D03*
D32*
X104140Y360870D03*
X91440Y360870D03*
X78740Y360870D03*
X66040Y360870D03*
X78740Y416370D03*
X66040Y416370D03*
X91440Y416370D03*
X104140Y416370D03*
D31*
X362950Y130690D03*
X362950Y125690D03*
X362950Y120690D03*
X362950Y115690D03*
X348250Y115690D03*
X348250Y120690D03*
X348250Y125690D03*
X348250Y130690D03*
D33*
X393270Y438870D03*
X393270Y401870D03*
X371270Y401870D03*
X371270Y438870D03*
D34*
X483362Y133350D02*
X494538Y133350D01*
X494538Y199390D02*
X483362Y199390D01*
D13*
X45720Y83960D03*
X45720Y101460D03*
D14*
X63500Y78960D03*
X63500Y106460D03*
D13*
X282575Y160515D03*
X282575Y143015D03*
D35*
X422910Y16510D03*
M02*
