M48
;GenerationSoftware,Autodesk,EAGLE,9.6.2*%
;CreationDate,2023-03-30T00:48:01Z*%
FMAT,2
ICI,OFF
METRIC,TZ,000.000
T6C0.200
T5C0.203
T4C0.254
T3C0.350
T2C1.250
T1C3.000
%
G90
M71
T1
X48641Y47879
X48514Y2032
X2032Y47752
X2159Y2159
T2
X27611Y48843
X19611Y48843
T3
X20257Y14097
X42355Y36957
X43027Y36847
X16637Y48514
X11049Y45339
X29083Y10414
X28067Y10414
X27178Y10414
X41148Y15748
X40132Y17209
X39497Y17907
X38862Y18479
X49784Y33909
X48768Y33909
X45593Y34544
X49784Y44831
X48768Y44831
X47752Y45339
X46863Y46228
X46355Y48260
X46355Y49149
X45085Y49276
X43688Y49276
X47244Y44323
X42418Y37719
X9652Y25654
X5334Y40237
X11191Y42650
X14859Y44831
X12954Y44069
X13716Y44069
X8890Y42926
X5334Y41529
X8890Y33909
X13843Y36195
X7620Y7366
X6540Y7366
X3429Y7366
X35433Y27432
X36195Y27940
X36005Y26987
X3429Y6350
X5461Y7366
X4445Y6350
X5461Y6350
X4445Y7366
X44323Y41275
X28321Y4191
X26670Y4191
X26670Y5080
X27559Y4191
X27559Y5080
X28321Y5080
X25273Y14986
X24511Y14986
X29210Y5080
X29210Y4191
X21209Y14986
X7254Y26416
X10160Y27686
X14931Y38553
X14859Y39440
X14224Y39840
X13716Y40386
X13843Y37846
X15442Y37230
X4572Y39198
X4509Y40005
X27940Y1905
X27940Y1143
X4699Y38481
X4191Y37846
X5461Y29337
X4953Y37338
T4
X8382Y26543
X35814Y6731
X10033Y31178
X50165Y10287
X50165Y10922
X47752Y10922
X47752Y10287
X47752Y9652
X47117Y9652
X47117Y10287
X14097Y21971
X8255Y32004
X47117Y10922
X17431Y14637
X17018Y16383
X16510Y16764
X16786Y17479
X16835Y18150
X17018Y20447
X889Y22987
X11938Y19685
X50165Y9652
T5
X25019Y24638
X27432Y25400
X26543Y25400
X25781Y25400
X21717Y24511
X29019Y18098
X31299Y21393
X32137Y23743
X30962Y22860
X31369Y25273
X26479Y29337
X24130Y30099
X20130Y30162
X20194Y26162
X32131Y29337
X33084Y30543
X28067Y29337
X21844Y19685
X22796Y16397
X21844Y16701
X32575Y16764
X25019Y25336
X27432Y24638
X25019Y23749
X25019Y22987
X25781Y22987
X26543Y24638
X25781Y24638
X27432Y23749
X26543Y23749
X26543Y22987
X25781Y23749
X27432Y22987
X19431Y17399
X20154Y21209
X18669Y28321
X18669Y24649
X21082Y22098
X30099Y31242
X28956Y30099
X28671Y31623
X19050Y31877
X21654Y27622
X33528Y22987
X19572Y20511
X29781Y18796
X30607Y26035
X28956Y26924
X28956Y27686
X34061Y30264
X33509Y23696
X29845Y21336
X33528Y32258
X22987Y31686
X29591Y32258
X21855Y29376
X29718Y31623
X26716Y32512
X23431Y30162
X33592Y25008
X32131Y24627
X32131Y25326
X28257Y30099
X27368Y30289
X32385Y15748
X27368Y19812
X24955Y17463
X31369Y27749
X33699Y29390
X28194Y28448
X34290Y31496
X28321Y27749
X20130Y22034
X18733Y22923
X21676Y26203
X20955Y26162
X31877Y16256
X27305Y18923
X33601Y27241
X33221Y26808
X27305Y17463
X24130Y30924
X22045Y28487
X19445Y22098
X25019Y21336
X23495Y21463
X29718Y22098
X26924Y21463
X28257Y20574
X29718Y23749
X29718Y25400
X23241Y22860
X28956Y17272
X32194Y26162
X22962Y26162
X24130Y27330
X26543Y27686
X27429Y27689
X32830Y29146
X33274Y20066
X25654Y27686
X27443Y31686
X30607Y25273
X21836Y22085
X18733Y19378
X21781Y23114
X19177Y19939
X21019Y19749
X20981Y28549
X22606Y17209
X24066Y18098
X23368Y29400
X22796Y27749
X22542Y19685
X20162Y18144
X21781Y20511
X20914Y16723
X31369Y26860
X27379Y29393
X27432Y28448
X30607Y27813
X29698Y28542
X32217Y30850
X29718Y30226
X26198Y16787
X28194Y17272
X24828Y30861
X33719Y28374
X33973Y24257
X28765Y22860
X28575Y23939
X26289Y26606
X25019Y26606
X25781Y28511
X29718Y27813
X33641Y30720
X22606Y22225
X23749Y23749
X23749Y25400
X25971Y32512
X24828Y30035
X25781Y16383
X19050Y16383
T6
X42799Y44323
X16637Y40894
X42291Y18161
X17018Y10795
X16383Y10795
X46798Y39053
X43360Y39370
X23558Y36322
X37275Y49149
X36576Y49149
X36576Y48514
X17336Y15303
X37275Y48514
X40005Y34406
X40894Y34406
X41847Y34406
X42672Y34406
X43307Y34406
X36195Y25072
X37084Y25135
X37846Y25135
X38608Y25135
X39370Y25135
X42164Y26225
X15176Y13462
X35941Y23865
X46655Y13237
X25781Y18923
X4636Y1905
X6159Y1905
X5080Y1397
X9335Y1524
X7048Y1334
X8319Y952
X7366Y698
X5842Y698
X4445Y635
X9271Y508
X10922Y1968
X10287Y1460
X10795Y508
X11430Y635
X11874Y1397
X12636Y572
X13906Y1460
X14478Y7747
X14986Y6794
X15240Y7429
X15875Y6731
X7874Y16447
X8636Y16637
X9843Y16955
X9271Y15938
X8636Y15367
X10287Y16192
X9398Y15049
X7302Y17018
X698Y19368
X2350Y19431
X1524Y19685
X1524Y18796
X2984Y20257
X3111Y19558
X3365Y18733
X3873Y23431
X4445Y22733
X5080Y21717
X7429Y23558
X9652Y23495
X8636Y22860
X7556Y22288
X7556Y21146
X8954Y21082
X9652Y22098
X8573Y21844
X10922Y22034
X10605Y26606
X10605Y25336
X11811Y28892
X13271Y28892
X17590Y41974
X18415Y41974
X19114Y41974
X18352Y40958
X19812Y40386
X18733Y39688
X19304Y40958
X35814Y19812
X36576Y19812
X37338Y19812
X38164Y19749
X36068Y21527
X37021Y21527
X38164Y21527
X39434Y21527
X39942Y21019
X40450Y20447
X41847Y21336
X42291Y20828
X42863Y20193
X44005Y21527
X44450Y20955
X44894Y20320
X43434Y20892
X40831Y21400
X41466Y20447
X35814Y17336
X38545Y19114
X4763Y42418
X5080Y44323
X5398Y49403
X7683Y49403
X508Y44640
X508Y45783
X2159Y45085
X1714Y45720
X1207Y45021
X4826Y46355
X6540Y49403
X381Y46672
X4382Y48196
X4382Y48895
X13652Y42418
X14605Y42418
X15621Y42101
X15430Y41275
X14732Y41720
X16574Y42164
X17336Y44513
X17336Y43498
X18161Y48387
X24066Y48958
X25146Y48958
X26225Y48958
X24193Y48196
X24892Y48260
X25971Y48196
X27368Y44132
X26797Y44704
X24384Y40577
X24765Y40005
X25273Y39307
X31178Y43625
X31178Y40640
X30861Y36640
X30861Y36005
X34735Y43561
X35116Y42863
X37719Y38608
X38354Y38164
X38926Y37783
X38926Y38291
X22973Y44696
X39751Y42545
X39751Y41910
X39116Y41910
X39116Y42545
X28702Y39497
X29083Y39116
X49212Y4000
X47942Y3937
X47053Y3175
X46545Y2604
X46545Y1651
X46672Y1080
X47498Y508
X46164Y2350
X46990Y4000
X46101Y3302
X7268Y43532
X10351Y37656
X10351Y39751
X45466Y2159
X9335Y39751
X9271Y37656
X8319Y37656
X45339Y508
X7366Y37656
X6032Y24638
X28892Y44386
X46037Y698
X35687Y36195
X16626Y25400
X2286Y22987
X29464Y44386
X35052Y36195
X17653Y33655
X19304Y32639
X11176Y48641
X35052Y36703
X35687Y36703
X29083Y37897
X36894Y1841
X28553Y37824
X29146Y44005
X37211Y15494
X4191Y13208
X3683Y13208
X4064Y47307
X29072Y33149
X49784Y28829
X49149Y28829
X48387Y28829
X34780Y31006
X34798Y30162
X34964Y32332
X45656Y28628
X49022Y30099
X46609Y26416
X41656Y10668
X32321Y33401
X30416Y46990
X42418Y11430
X29972Y46482
X41656Y11430
X20066Y36576
X18055Y28255
X18077Y24765
X42418Y12319
X41656Y12319
X28586Y34685
X23495Y10795
X23495Y10033
X22987Y10033
X21717Y10033
X21717Y9144
X22987Y9144
X23495Y9144
X20701Y9144
X30088Y32654
X35052Y7663
X33486Y33386
X5144Y25527
X4255Y31813
X1207Y44005
X3238Y28003
X26670Y37973
X24193Y29400
X13144Y31051
X25273Y32512
X25590Y37973
X18860Y31305
X48768Y45783
X38989Y381
X17548Y27305
X17548Y24881
X49720Y45847
X1143Y43117
X2096Y43942
X1968Y43117
X45085Y19431
X45339Y1207
X45085Y14605
X4509Y41339
X36830Y698
X37910Y444
X4255Y30670
X4255Y31242
X9906Y40513
X20574Y33020
X8890Y40513
X18542Y33020
X31813Y32830
X381Y43117
X47942Y42355
X29591Y14986
X7874Y40513
X27368Y35243
X35687Y28586
X27368Y36132
X36259Y30416
X27368Y37084
X8382Y39751
X7366Y39751
X508Y3619
X49974Y5651
X47561Y5461
X27432Y34544
X23495Y39497
X23495Y40132
X22987Y48514
X22225Y48514
X34290Y32448
X12192Y48641
X14605Y48387
X34354Y42164
X20828Y34544
X25971Y34544
X25019Y6297
X11720Y32512
X26141Y13956
X31750Y10287
X34481Y28448
X34608Y29019
X39370Y49022
X39370Y47625
X39370Y48323
X25400Y34544
X36513Y32321
X48069Y4763
X49784Y4699
X38100Y1841
X3175Y22098
X49847Y3683
X9525Y18959
X38926Y15430
X9525Y19489
X39561Y15430
X30226Y14986
X39180Y1905
X17018Y27559
X17018Y24881
X38608Y1080
X37592Y1143
X12763Y9716
X49974Y42355
X47371Y34481
X49784Y35370
X48768Y35687
X48704Y37084
X48704Y38481
X47942Y35687
X47942Y37021
X48006Y38100
X48006Y39434
X49784Y36767
X38291Y15684
X35179Y21029
X32131Y37592
X34798Y20626
X28321Y39878
X49784Y37846
X49530Y39243
X49085Y40513
X48387Y41529
X48895Y42418
X22987Y44069
M30